M48
;DRILL file {KiCad 4.0.1-stable} date 12/21/2015 8:19:03 AM
;FORMAT={-:-/ absolute / inch / decimal}
FMAT,2
INCH,TZ
T1C0.014
T2C0.020
T3C0.022
T4C0.040
T5C0.040
T6C0.118
T7C0.197
%
G90
G05
M72
T1
X5.735Y-4.825
X5.775Y-5.025
X5.81Y-4.924
X5.84Y-5.125
X5.85Y-1.87
X5.91Y-5.565
X5.91Y-5.61
X5.939Y-2.114
X6.02Y-5.42
X6.08Y-3.015
X6.08Y-3.665
X6.08Y-4.8
X6.09Y-5.46
X6.11Y-2.775
X6.11Y-3.11
X6.11Y-4.45
X6.12Y-1.3
X6.12Y-1.3
X6.12Y-1.5
X6.12Y-1.7
X6.12Y-1.9
X6.12Y-2.1
X6.12Y-2.3
X6.12Y-2.5
X6.12Y-2.7
X6.121Y-4.926
X6.125Y-5.27
X6.145Y-3.06
X6.145Y-4.42
X6.15Y-2.92
X6.15Y-3.015
X6.175Y-3.155
X6.175Y-4.39
X6.21Y-4.325
X6.23Y-2.75
X6.235Y-5.31
X6.24Y-5.22
X6.265Y-3.25
X6.265Y-3.53
X6.305Y-4.865
X6.32Y-1.3
X6.32Y-1.3
X6.32Y-1.5
X6.32Y-1.7
X6.32Y-1.9
X6.32Y-2.1
X6.32Y-2.3
X6.32Y-2.5
X6.32Y-2.7
X6.34Y-5.365
X6.345Y-5.165
X6.345Y-5.265
X6.36Y-3.25
X6.405Y-4.985
X6.41Y-5.75
X6.42Y-5.055
X6.43Y-2.79
X6.43Y-4.78
X6.455Y-4.36
X6.463Y-3.532
X6.467Y-2.027
X6.495Y-5.665
X6.5Y-2.85
X6.5Y-4.125
X6.505Y-5.17
X6.52Y-1.3
X6.52Y-1.3
X6.52Y-1.5
X6.52Y-1.7
X6.52Y-1.9
X6.52Y-2.1
X6.52Y-2.3
X6.52Y-2.5
X6.52Y-2.7
X6.53Y-5.415
X6.55Y-4.69
X6.6Y-5.13
X6.645Y-3.155
X6.645Y-3.25
X6.645Y-3.36
X6.655Y-3.535
X6.715Y-3.956
X6.72Y-1.3
X6.72Y-1.3
X6.72Y-1.5
X6.72Y-1.7
X6.72Y-1.9
X6.72Y-2.1
X6.72Y-2.3
X6.72Y-2.5
X6.72Y-2.7
X6.732Y-3.347
X6.74Y-3.06
X6.747Y-3.672
X6.75Y-4.96
X6.754Y-3.897
X6.806Y-3.955
X6.825Y-3.706
X6.8295Y-2.415
X6.83Y-3.435
X6.833Y-3.26
X6.835Y-2.965
X6.835Y-3.065
X6.835Y-3.345
X6.845Y-3.925
X6.88Y-3.692
X6.91Y-3.925
X6.92Y-1.3
X6.92Y-1.3
X6.92Y-1.5
X6.92Y-1.7
X6.92Y-1.9
X6.92Y-2.1
X6.92Y-2.3
X6.92Y-2.5
X6.92Y-2.7
X6.92Y-3.33
X6.92Y-3.712
X6.925Y-3.065
X6.93Y-4.23
X6.93Y-4.71
X6.935Y-3.155
X6.936Y-2.895
X6.936Y-3.597
X6.949Y-2.809
X6.95Y-3.55
X6.975Y-3.1
X6.98Y-2.9
X6.98Y-3.
X6.98Y-3.2
X6.98Y-3.3
X6.98Y-3.4
X6.98Y-3.5
X6.98Y-3.6
X6.99Y-3.836
X7.015Y-3.665
X7.03Y-2.605
X7.043Y-3.863
X7.08Y-3.7
X7.08Y-4.025
X7.11Y-2.83
X7.12Y-1.3
X7.12Y-1.3
X7.12Y-1.5
X7.12Y-1.7
X7.12Y-1.9
X7.12Y-2.1
X7.12Y-2.3
X7.12Y-2.5
X7.12Y-2.7
X7.125Y-5.185
X7.13Y-3.865
X7.14Y-4.23
X7.14Y-4.71
X7.185Y-5.22
X7.205Y-4.45
X7.23Y-2.61
X7.23Y-3.67
X7.255Y-4.495
X7.265Y-2.79
X7.3Y-4.42
X7.3Y-5.06
X7.31Y-3.4
X7.32Y-1.3
X7.32Y-1.3
X7.32Y-1.5
X7.32Y-1.7
X7.32Y-1.9
X7.32Y-2.1
X7.32Y-2.3
X7.32Y-2.5
X7.32Y-2.7
X7.32Y-3.57
X7.345Y-3.5
X7.355Y-3.3
X7.355Y-4.75
X7.36Y-4.92
X7.38Y-3.55
X7.385Y-3.2
X7.39Y-4.625
X7.415Y-3.1
X7.415Y-3.155
X7.42Y-4.39
X7.425Y-5.15
X7.43Y-2.6
X7.44Y-4.955
X7.445Y-3.
X7.445Y-3.05
X7.45Y-4.36
X7.45Y-4.86
X7.475Y-3.6
X7.48Y-5.025
X7.485Y-2.9
X7.49Y-2.535
X7.49Y-2.75
X7.495Y-2.02
X7.52Y-1.3
X7.52Y-1.3
X7.52Y-1.5
X7.52Y-1.7
X7.52Y-1.9
X7.52Y-2.1
X7.52Y-2.3
X7.52Y-2.5
X7.52Y-2.7
X7.52Y-4.125
X7.555Y-3.96
X7.56Y-4.325
X7.56Y-4.71
X7.595Y-4.265
X7.6Y-2.605
X7.605Y-4.485
X7.63Y-3.765
X7.63Y-4.02
X7.668Y-2.538
X7.68Y-4.76
X7.695Y-2.7
X7.705Y-1.335
X7.705Y-3.05
X7.709Y-1.5
X7.71Y-2.455
X7.735Y-2.025
X7.735Y-2.065
X7.75Y-5.3
X7.75Y-5.38
X7.755Y-1.985
X7.79Y-2.36
X7.79Y-2.57
X7.8Y-2.85
X7.84Y-2.5
X7.84Y-2.575
X7.845Y-3.42
X7.85Y-2.885
X7.855Y-2.1
X7.86Y-1.62
X7.86Y-2.28
X7.885Y-2.7
X7.89Y-2.575
X7.89Y-2.89
X7.9Y-2.365
X7.905Y-3.37
X7.92Y-1.9
X7.93Y-2.57
X7.94Y-2.895
X7.94Y-3.42
X7.94Y-3.47
X7.96Y-1.7
X7.965Y-2.48
X7.965Y-2.69
X7.965Y-2.84
X7.99Y-3.065
X7.99Y-3.225
X8.01Y-2.1
X8.01Y-2.48
X8.01Y-2.57
X8.015Y-4.485
X8.025Y-3.255
X8.025Y-4.065
X8.035Y-2.53
X8.035Y-2.69
X8.039Y-1.942
X8.045Y-3.
X8.05Y-5.385
X8.05Y-5.45
X8.05Y-5.74
X8.055Y-3.405
X8.057Y-4.133
X8.075Y-2.155
T4
X5.945Y-3.925
X5.945Y-4.025
X5.945Y-4.125
X5.945Y-4.225
X5.945Y-4.325
X5.945Y-4.425
X5.945Y-4.525
X5.945Y-4.625
X5.945Y-4.825
X5.945Y-4.925
X5.945Y-5.025
X5.945Y-5.125
X5.945Y-5.225
X5.945Y-5.325
X6.843Y-5.33
X6.843Y-5.43
X6.943Y-5.33
X6.943Y-5.43
X7.043Y-5.33
X7.043Y-5.43
X7.845Y-3.565
X7.845Y-3.665
X7.845Y-3.765
X7.845Y-3.865
X7.845Y-3.965
X7.845Y-4.065
X7.845Y-4.165
X7.845Y-4.265
X7.845Y-4.365
X7.845Y-4.465
X7.845Y-4.625
X7.845Y-4.725
X7.845Y-4.825
X7.845Y-4.925
X7.845Y-5.025
X7.845Y-5.125
X7.845Y-5.225
X7.845Y-5.325
T5
X6.35Y-3.8201
X6.35Y-5.5799
X7.45Y-3.8201
X7.45Y-5.5799
T6
X5.78Y-1.34
X6.9Y-5.1
X8.02Y-1.34
T2
X5.7142Y-5.4492G85X5.7398Y-5.4492
G05
X5.7398Y-5.7248G85X5.7142Y-5.7248
G05
T3
X5.8333Y-5.4945G85X5.8333Y-5.4827
G05
X5.8333Y-5.6913G85X5.8333Y-5.6795
G05
T7
X6.7268Y-1.07G85X7.0732Y-1.07
G05
X6.7268Y-5.65G85X7.0732Y-5.65
G05
T0
M30
