G04 #@! TF.FileFunction,Soldermask,Bot*
%FSLAX46Y46*%
G04 Gerber Fmt 4.6, Leading zero omitted, Abs format (unit mm)*
G04 Created by KiCad (PCBNEW 4.0.1-stable) date 12/21/2015 8:19:01 AM*
%MOMM*%
G01*
G04 APERTURE LIST*
%ADD10C,0.100000*%
%ADD11R,2.184400X1.879600*%
%ADD12O,2.184400X1.879600*%
%ADD13R,1.879600X1.879600*%
%ADD14O,1.879600X1.879600*%
%ADD15C,5.152400*%
%ADD16R,1.502400X1.402400*%
%ADD17R,1.652400X1.702400*%
G04 APERTURE END LIST*
D10*
D11*
X-889000Y-67945000D03*
D12*
X-889000Y-70485000D03*
X-889000Y-73025000D03*
X-889000Y-75565000D03*
X-889000Y-78105000D03*
X-889000Y-80645000D03*
X-889000Y-83185000D03*
X-889000Y-85725000D03*
D11*
X47371000Y-85725000D03*
D12*
X47371000Y-88265000D03*
X47371000Y-90805000D03*
X47371000Y-93345000D03*
X47371000Y-95885000D03*
X47371000Y-98425000D03*
X47371000Y-100965000D03*
X47371000Y-103505000D03*
D11*
X47371000Y-58801000D03*
D12*
X47371000Y-61341000D03*
X47371000Y-63881000D03*
X47371000Y-66421000D03*
X47371000Y-68961000D03*
X47371000Y-71501000D03*
X47371000Y-74041000D03*
X47371000Y-76581000D03*
X47371000Y-79121000D03*
X47371000Y-81661000D03*
D11*
X-889000Y-90805000D03*
D12*
X-889000Y-93345000D03*
X-889000Y-95885000D03*
X-889000Y-98425000D03*
X-889000Y-100965000D03*
X-889000Y-103505000D03*
D13*
X27000200Y-103632000D03*
D14*
X27000200Y-106172000D03*
X24460200Y-103632000D03*
X24460200Y-106172000D03*
X21920200Y-103632000D03*
X21920200Y-106172000D03*
D15*
X37338000Y-65280000D03*
X37338000Y-109980000D03*
X9398000Y-109980000D03*
X9398000Y-65280000D03*
D16*
X-3726200Y-107659800D03*
D17*
X-6426200Y-113359800D03*
X-6426200Y-106959800D03*
D16*
X-3726200Y-112659800D03*
M02*
