G04 #@! TF.FileFunction,Copper,L2,Bot,Signal*
%FSLAX46Y46*%
G04 Gerber Fmt 4.6, Leading zero omitted, Abs format (unit mm)*
G04 Created by KiCad (PCBNEW 4.0.1-stable) date 12/21/2015 8:19:00 AM*
%MOMM*%
G01*
G04 APERTURE LIST*
%ADD10C,0.100000*%
%ADD11R,2.032000X1.727200*%
%ADD12O,2.032000X1.727200*%
%ADD13R,1.727200X1.727200*%
%ADD14O,1.727200X1.727200*%
%ADD15C,5.000000*%
%ADD16R,1.350000X1.250000*%
%ADD17R,1.500000X1.550000*%
%ADD18C,0.762000*%
%ADD19C,0.254000*%
%ADD20C,0.152400*%
%ADD21C,0.635000*%
%ADD22C,0.381000*%
%ADD23C,0.508000*%
%ADD24C,0.203200*%
G04 APERTURE END LIST*
D10*
D11*
X-889000Y-67945000D03*
D12*
X-889000Y-70485000D03*
X-889000Y-73025000D03*
X-889000Y-75565000D03*
X-889000Y-78105000D03*
X-889000Y-80645000D03*
X-889000Y-83185000D03*
X-889000Y-85725000D03*
D11*
X47371000Y-85725000D03*
D12*
X47371000Y-88265000D03*
X47371000Y-90805000D03*
X47371000Y-93345000D03*
X47371000Y-95885000D03*
X47371000Y-98425000D03*
X47371000Y-100965000D03*
X47371000Y-103505000D03*
D11*
X47371000Y-58801000D03*
D12*
X47371000Y-61341000D03*
X47371000Y-63881000D03*
X47371000Y-66421000D03*
X47371000Y-68961000D03*
X47371000Y-71501000D03*
X47371000Y-74041000D03*
X47371000Y-76581000D03*
X47371000Y-79121000D03*
X47371000Y-81661000D03*
D11*
X-889000Y-90805000D03*
D12*
X-889000Y-93345000D03*
X-889000Y-95885000D03*
X-889000Y-98425000D03*
X-889000Y-100965000D03*
X-889000Y-103505000D03*
D13*
X27000200Y-103632000D03*
D14*
X27000200Y-106172000D03*
X24460200Y-103632000D03*
X24460200Y-106172000D03*
X21920200Y-103632000D03*
X21920200Y-106172000D03*
D15*
X37338000Y-65280000D03*
X37338000Y-109980000D03*
X9398000Y-109980000D03*
X9398000Y-65280000D03*
D16*
X-3726200Y-107659800D03*
D17*
X-6426200Y-113359800D03*
X-6426200Y-106959800D03*
D16*
X-3726200Y-112659800D03*
D18*
X21463000Y-62382400D03*
X23876000Y-62534800D03*
X27940000Y-62230000D03*
X41910000Y-70358000D03*
X27940000Y-70485000D03*
X41910000Y-63881000D03*
X44958000Y-104902000D03*
X13208000Y-40640000D03*
X49784000Y-41783000D03*
X52451000Y-44450000D03*
X25654000Y-65684400D03*
X7239000Y-57912000D03*
X47752000Y-9398000D03*
X7239000Y-50800000D03*
X4318000Y-44831000D03*
X4318000Y-42418000D03*
X3302000Y-38735000D03*
X27000200Y-66370200D03*
X29210000Y-66421000D03*
X24282400Y-41783000D03*
X24612600Y-39598600D03*
X22860000Y-62026800D03*
X24282400Y-59613800D03*
X19659600Y-67233800D03*
X21971000Y-67945000D03*
X23622000Y-67945000D03*
X48768000Y-28321000D03*
X53213000Y-22987000D03*
X43815000Y-45720000D03*
X29464000Y-87884000D03*
X29464000Y-75692000D03*
X24130000Y-87884000D03*
X24130000Y-75692000D03*
X52578000Y-114046000D03*
X36703000Y-99060000D03*
X-3302000Y-15748000D03*
X15748000Y-98552000D03*
X13335000Y-99568000D03*
X6477000Y-103124000D03*
X9144000Y-104521000D03*
X3581400Y-93370400D03*
X14478000Y-87376000D03*
X43180000Y-89154000D03*
X35052000Y-93218000D03*
X48387000Y-36830000D03*
X49530000Y-33528000D03*
X32385000Y-82423000D03*
X-1778000Y-109601000D03*
X2794000Y-106934000D03*
X13970000Y-105791000D03*
X-1778000Y-110744000D03*
X11430000Y-39116000D03*
X47498000Y-41529000D03*
X32639000Y-39116000D03*
X34671000Y-57150000D03*
X25400000Y-57150000D03*
X43815000Y-2159000D03*
X51562000Y-31242000D03*
X42875200Y-32715200D03*
X3556000Y-1270000D03*
X8636000Y-1270000D03*
X13716000Y-1270000D03*
X18796000Y-1270000D03*
X23876000Y-1270000D03*
X28956000Y-1270000D03*
X34036000Y-1270000D03*
X39116000Y-1270000D03*
X39116000Y-1270000D03*
X34036000Y-1270000D03*
X28956000Y-1270000D03*
X23876000Y-1270000D03*
X18796000Y-1270000D03*
X13716000Y-1270000D03*
X8636000Y-1270000D03*
X3556000Y-1270000D03*
X50419000Y-31242000D03*
X43942000Y-30607000D03*
X43916600Y-6350000D03*
X3556000Y-6350000D03*
X8636000Y-6350000D03*
X13716000Y-6350000D03*
X18796000Y-6350000D03*
X23876000Y-6350000D03*
X28956000Y-6350000D03*
X34036000Y-6350000D03*
X39116000Y-6350000D03*
X50292000Y-11430000D03*
X3556000Y-11430000D03*
X8636000Y-11430000D03*
X13716000Y-11430000D03*
X18796000Y-11430000D03*
X23876000Y-11430000D03*
X28956000Y-11430000D03*
X34036000Y-11430000D03*
X39116000Y-11430000D03*
X39116000Y-16510000D03*
X34036000Y-16510000D03*
X28956000Y-16510000D03*
X23876000Y-16510000D03*
X18796000Y-16510000D03*
X13716000Y-16510000D03*
X8636000Y-16510000D03*
X3556000Y-16510000D03*
X49276000Y-16510000D03*
X47625000Y-21590000D03*
X3556000Y-21590000D03*
X8636000Y-21590000D03*
X13716000Y-21590000D03*
X18796000Y-21590000D03*
X23876000Y-21590000D03*
X28956000Y-21590000D03*
X34036000Y-21590000D03*
X39116000Y-21590000D03*
X45974000Y-28194000D03*
X3556000Y-26670000D03*
X8636000Y-26670000D03*
X13716000Y-26670000D03*
X18796000Y-26670000D03*
X23876000Y-26670000D03*
X28956000Y-26670000D03*
X34036000Y-26670000D03*
X39116000Y-26670000D03*
X3556000Y-31750000D03*
X47244000Y-31750000D03*
X8636000Y-31750000D03*
X13716000Y-31750000D03*
X18796000Y-31750000D03*
X23876000Y-31750000D03*
X28956000Y-31750000D03*
X34036000Y-31750000D03*
X39116000Y-31750000D03*
X43561000Y-36830000D03*
X3556000Y-36830000D03*
X8636000Y-36830000D03*
X13716000Y-36830000D03*
X18796000Y-36830000D03*
X23876000Y-36830000D03*
X28956000Y-36830000D03*
X34036000Y-36830000D03*
X39116000Y-36830000D03*
X28702000Y-40132000D03*
X48514000Y-41656000D03*
X33782000Y-54610000D03*
X25400000Y-54610000D03*
X21577300Y-29591000D03*
X52197000Y-32512000D03*
X25400000Y-52070000D03*
X34925000Y-52070000D03*
X52197000Y-36576000D03*
X25400000Y-49530000D03*
X35687000Y-49530000D03*
X26670000Y-34417000D03*
X31750000Y-34544000D03*
X50419000Y-36576000D03*
X25273000Y-46990000D03*
X36449000Y-46990000D03*
X25400000Y-44450000D03*
X37211000Y-44450000D03*
X47244000Y-33655000D03*
X36830000Y-34290000D03*
X38227000Y-41910000D03*
X25400000Y-41910000D03*
X41148000Y-34417000D03*
X48514000Y-33655000D03*
X51562000Y-33528000D03*
X38354000Y-38100000D03*
X25400000Y-59690000D03*
X37973000Y-59690000D03*
X6350000Y-38100000D03*
X10922000Y-114300000D03*
X13081000Y-112141000D03*
X26289000Y-61341000D03*
X40005000Y-68834000D03*
X41275000Y-82169000D03*
X51689000Y-82169000D03*
X19558000Y-94234000D03*
X47752000Y-26162000D03*
X46228000Y-40640000D03*
X50419000Y-40386000D03*
X12268200Y-57962800D03*
X31750000Y-61468000D03*
X39116000Y-73025000D03*
X10795000Y-94869000D03*
X8255000Y-91821000D03*
X13208000Y-73025000D03*
X35814000Y-85725000D03*
X35560000Y-58420000D03*
X17145000Y-58039000D03*
X9652000Y-50800000D03*
X16891000Y-50800000D03*
X5842000Y-78105000D03*
X40132000Y-78105000D03*
X40132000Y-87884000D03*
X24638000Y-58420000D03*
X34925000Y-88900000D03*
X34036000Y-58928000D03*
X12065000Y-78994000D03*
X37338000Y-78994000D03*
X37338000Y-91694000D03*
X24257000Y-48387000D03*
X38100000Y-95885000D03*
X36449000Y-48387000D03*
X4953000Y-48387000D03*
X16891000Y-48387000D03*
X4953000Y-79756000D03*
X36576000Y-79756000D03*
X37084000Y-94107000D03*
X21717000Y-46101000D03*
X4191000Y-45974000D03*
X4191000Y-80518000D03*
X33528000Y-80518000D03*
X33528000Y-96774000D03*
X30607000Y-100838000D03*
X31115000Y-81280000D03*
X3302000Y-81280000D03*
X3302000Y-47244000D03*
X24003000Y-46101000D03*
X49784000Y-55118000D03*
X47371000Y-55118000D03*
X16891000Y-53594000D03*
X18669000Y-68732400D03*
X20980400Y-68707000D03*
X19100800Y-53263800D03*
X48895000Y-53848000D03*
X44958000Y-102870000D03*
X21590000Y-55499000D03*
X49784000Y-56388000D03*
X21666200Y-51054000D03*
X52578000Y-105029000D03*
X51943000Y-50927000D03*
X51943000Y-71501000D03*
X23876000Y-52832000D03*
X52705000Y-54737000D03*
X52755800Y-73228200D03*
X52578000Y-106680000D03*
X41021000Y-76581000D03*
X37211000Y-45720000D03*
X19304000Y-45974000D03*
X51054000Y-46101000D03*
X21717000Y-43561000D03*
X51054000Y-50165000D03*
X-1041400Y-21945600D03*
X21717000Y-53213000D03*
X-6223000Y-90805000D03*
X-4318000Y-93319600D03*
X-5207000Y-95885000D03*
X-3556000Y-98425000D03*
X9271000Y-99441000D03*
X6604000Y-100838000D03*
X9271000Y-101981000D03*
X11176000Y-96647000D03*
X2540000Y-44831000D03*
X45085000Y-18669000D03*
X11430000Y-89662000D03*
X2540000Y-90170000D03*
X2540000Y-61341000D03*
X19481800Y-61518800D03*
X52298600Y-17576800D03*
X12369800Y-19735800D03*
X3683000Y-102108000D03*
X29083000Y-99949000D03*
X1016000Y-105918000D03*
X44577000Y-20701000D03*
X51562000Y-21590000D03*
X38481000Y-19558000D03*
X38354000Y-32639000D03*
X45974000Y-33528000D03*
X44577000Y-19685000D03*
D19*
X26657300Y-62369700D02*
X26492200Y-62534800D01*
X26492200Y-62534800D02*
X23876000Y-62534800D01*
D20*
X21894800Y-62814200D02*
X23063200Y-62814200D01*
X21894800Y-62814200D02*
X21463000Y-62382400D01*
X23342600Y-62534800D02*
X23876000Y-62534800D01*
X23063200Y-62814200D02*
X23342600Y-62534800D01*
D19*
X23876000Y-62382400D02*
X23876000Y-62534800D01*
X26644600Y-62382400D02*
X26657300Y-62369700D01*
X26657300Y-62369700D02*
X26797000Y-62230000D01*
X27940000Y-62230000D02*
X26797000Y-62230000D01*
D21*
X27940000Y-70485000D02*
X41783000Y-70485000D01*
X41783000Y-70485000D02*
X41910000Y-70358000D01*
X27940000Y-70485000D02*
X-889000Y-70485000D01*
X41910000Y-63881000D02*
X47371000Y-63881000D01*
X28194000Y-106172000D02*
X27000200Y-106172000D01*
X29464000Y-104902000D02*
X28194000Y-106172000D01*
X44958000Y-104902000D02*
X29464000Y-104902000D01*
D19*
X49784000Y-41783000D02*
X52451000Y-44450000D01*
D20*
X22860000Y-62026800D02*
X22885400Y-62026800D01*
D22*
X48006000Y-27178000D02*
X48006000Y-27559000D01*
X48006000Y-27559000D02*
X48768000Y-28321000D01*
X53213000Y-22987000D02*
X49530000Y-22987000D01*
X48006000Y-27178000D02*
X47498000Y-27178000D01*
X47117000Y-27178000D02*
X48006000Y-27178000D01*
X46863000Y-26924000D02*
X47117000Y-27178000D01*
X46863000Y-25654000D02*
X46863000Y-26924000D01*
X49530000Y-22987000D02*
X46863000Y-25654000D01*
X15748000Y-98552000D02*
X14351000Y-98552000D01*
X14351000Y-98552000D02*
X13335000Y-99568000D01*
X6477000Y-103124000D02*
X6477000Y-104013000D01*
X6985000Y-104521000D02*
X9144000Y-104521000D01*
X6477000Y-104013000D02*
X6985000Y-104521000D01*
X49530000Y-35687000D02*
X48387000Y-36830000D01*
X49530000Y-33528000D02*
X49530000Y-35687000D01*
D21*
X32385000Y-82423000D02*
X2413000Y-82423000D01*
X1143000Y-85725000D02*
X-889000Y-85725000D01*
X1524000Y-85344000D02*
X1143000Y-85725000D01*
X1524000Y-83312000D02*
X1524000Y-85344000D01*
X2413000Y-82423000D02*
X1524000Y-83312000D01*
D23*
X-762000Y-85725000D02*
X-889000Y-85725000D01*
D19*
X-1778000Y-109601000D02*
X127000Y-109601000D01*
X127000Y-109601000D02*
X2794000Y-106934000D01*
X12954000Y-106299000D02*
X13462000Y-106299000D01*
X13462000Y-106299000D02*
X13970000Y-105791000D01*
X7747000Y-106680000D02*
X12573000Y-106680000D01*
X3683000Y-110744000D02*
X7747000Y-106680000D01*
X-1778000Y-110744000D02*
X3683000Y-110744000D01*
X12573000Y-106680000D02*
X12954000Y-106299000D01*
D22*
X11430000Y-39116000D02*
X11861798Y-38684202D01*
X32207202Y-38684202D02*
X32639000Y-39116000D01*
X11861798Y-38684202D02*
X32207202Y-38684202D01*
X45720000Y-41529000D02*
X47498000Y-41529000D01*
X45339000Y-41148000D02*
X45720000Y-41529000D01*
X45339000Y-40005000D02*
X45339000Y-41148000D01*
X44450000Y-39116000D02*
X45339000Y-40005000D01*
X32639000Y-39116000D02*
X44450000Y-39116000D01*
D19*
X34671000Y-57150000D02*
X25400000Y-57150000D01*
D22*
X42926000Y-1270000D02*
X43815000Y-2159000D01*
D19*
X51562000Y-31242000D02*
X50165000Y-32639000D01*
D22*
X42951400Y-32639000D02*
X50165000Y-32639000D01*
X42951400Y-32639000D02*
X42875200Y-32715200D01*
X39116000Y-1270000D02*
X42926000Y-1270000D01*
X34036000Y-1270000D02*
X39116000Y-1270000D01*
X28956000Y-1270000D02*
X34036000Y-1270000D01*
X23876000Y-1270000D02*
X28956000Y-1270000D01*
X18796000Y-1270000D02*
X23876000Y-1270000D01*
X13716000Y-1270000D02*
X18796000Y-1270000D01*
X9906000Y-1270000D02*
X13716000Y-1270000D01*
X8636000Y-1270000D02*
X9906000Y-1270000D01*
X3556000Y-1270000D02*
X8636000Y-1270000D01*
X9906000Y-1270000D02*
X8636000Y-1270000D01*
X9906000Y-1270000D02*
X8636000Y-1270000D01*
X3556000Y-1270000D02*
X8636000Y-1270000D01*
X8636000Y-1270000D02*
X9906000Y-1270000D01*
X9906000Y-1270000D02*
X13716000Y-1270000D01*
X13716000Y-1270000D02*
X18796000Y-1270000D01*
X18796000Y-1270000D02*
X23876000Y-1270000D01*
X23876000Y-1270000D02*
X28956000Y-1270000D01*
X28956000Y-1270000D02*
X34036000Y-1270000D01*
X34036000Y-1270000D02*
X39116000Y-1270000D01*
X39116000Y-1270000D02*
X42926000Y-1270000D01*
D19*
X45339000Y-30988000D02*
X49276000Y-30988000D01*
X49530000Y-31242000D02*
X50419000Y-31242000D01*
X49276000Y-30988000D02*
X49530000Y-31242000D01*
D22*
X43916600Y-6350000D02*
X39116000Y-6350000D01*
D19*
X44450000Y-31115000D02*
X43942000Y-30607000D01*
X45212000Y-31115000D02*
X44450000Y-31115000D01*
X45339000Y-30988000D02*
X45212000Y-31115000D01*
D22*
X8636000Y-6350000D02*
X3556000Y-6350000D01*
X8636000Y-6350000D02*
X13716000Y-6350000D01*
X13716000Y-6350000D02*
X18796000Y-6350000D01*
X18796000Y-6350000D02*
X23876000Y-6350000D01*
X23876000Y-6350000D02*
X28956000Y-6350000D01*
X28956000Y-6350000D02*
X34036000Y-6350000D01*
X34036000Y-6350000D02*
X39116000Y-6350000D01*
X39116000Y-11430000D02*
X50292000Y-11430000D01*
X8636000Y-11430000D02*
X3556000Y-11430000D01*
X8636000Y-11430000D02*
X13716000Y-11430000D01*
X13716000Y-11430000D02*
X18796000Y-11430000D01*
X18796000Y-11430000D02*
X23876000Y-11430000D01*
X23876000Y-11430000D02*
X28956000Y-11430000D01*
X28956000Y-11430000D02*
X34036000Y-11430000D01*
X34036000Y-11430000D02*
X39116000Y-11430000D01*
X3556000Y-16510000D02*
X8636000Y-16510000D01*
X8636000Y-16510000D02*
X13716000Y-16510000D01*
X13716000Y-16510000D02*
X18796000Y-16510000D01*
X18796000Y-16510000D02*
X23876000Y-16510000D01*
X23876000Y-16510000D02*
X28956000Y-16510000D01*
X28956000Y-16510000D02*
X34036000Y-16510000D01*
X34036000Y-16510000D02*
X39116000Y-16510000D01*
X39116000Y-16510000D02*
X49276000Y-16510000D01*
X39116000Y-21590000D02*
X47625000Y-21590000D01*
X3556000Y-21590000D02*
X8636000Y-21590000D01*
X8636000Y-21590000D02*
X13716000Y-21590000D01*
X13716000Y-21590000D02*
X18796000Y-21590000D01*
X18796000Y-21590000D02*
X23876000Y-21590000D01*
X23876000Y-21590000D02*
X28956000Y-21590000D01*
X28956000Y-21590000D02*
X34036000Y-21590000D01*
X34036000Y-21590000D02*
X39116000Y-21590000D01*
X45186600Y-28194000D02*
X45974000Y-28194000D01*
X43662600Y-26670000D02*
X45186600Y-28194000D01*
X39116000Y-26670000D02*
X43662600Y-26670000D01*
X8636000Y-26670000D02*
X3556000Y-26670000D01*
X8636000Y-26670000D02*
X13716000Y-26670000D01*
X13716000Y-26670000D02*
X18796000Y-26670000D01*
X18796000Y-26670000D02*
X23876000Y-26670000D01*
X23876000Y-26670000D02*
X28956000Y-26670000D01*
X28956000Y-26670000D02*
X34036000Y-26670000D01*
X34036000Y-26670000D02*
X39116000Y-26670000D01*
X8636000Y-31750000D02*
X3556000Y-31750000D01*
X8636000Y-31750000D02*
X13716000Y-31750000D01*
X13716000Y-31750000D02*
X18796000Y-31750000D01*
X18796000Y-31750000D02*
X23876000Y-31750000D01*
X23876000Y-31750000D02*
X28956000Y-31750000D01*
X28956000Y-31750000D02*
X34036000Y-31750000D01*
X34036000Y-31750000D02*
X39116000Y-31750000D01*
X39116000Y-31750000D02*
X47244000Y-31750000D01*
X39116000Y-36830000D02*
X43561000Y-36830000D01*
X8636000Y-36830000D02*
X3556000Y-36830000D01*
X8636000Y-36830000D02*
X13716000Y-36830000D01*
X13716000Y-36830000D02*
X18796000Y-36830000D01*
X18796000Y-36830000D02*
X23876000Y-36830000D01*
X23876000Y-36830000D02*
X28956000Y-36830000D01*
X28956000Y-36830000D02*
X34036000Y-36830000D01*
X34036000Y-36830000D02*
X39116000Y-36830000D01*
X44069000Y-40132000D02*
X28702000Y-40132000D01*
X44069000Y-40132000D02*
X44577000Y-40640000D01*
X44577000Y-40640000D02*
X44577000Y-41402000D01*
X44577000Y-41402000D02*
X45593000Y-42418000D01*
X45593000Y-42418000D02*
X48006000Y-42418000D01*
X48006000Y-42418000D02*
X48514000Y-41910000D01*
X48514000Y-41910000D02*
X48514000Y-41656000D01*
D19*
X33782000Y-54610000D02*
X25400000Y-54610000D01*
D22*
X52070000Y-29591000D02*
X21577300Y-29591000D01*
X52705000Y-30226000D02*
X52070000Y-29591000D01*
X52705000Y-31242000D02*
X52705000Y-30226000D01*
D19*
X52705000Y-32004000D02*
X52705000Y-31242000D01*
X52197000Y-32512000D02*
X52705000Y-32004000D01*
X34925000Y-52070000D02*
X25400000Y-52070000D01*
X52197000Y-36576000D02*
X52197000Y-38341298D01*
X45339000Y-38227000D02*
X45339000Y-37465000D01*
X45974000Y-38862000D02*
X45339000Y-38227000D01*
X51676298Y-38862000D02*
X45974000Y-38862000D01*
X52197000Y-38341298D02*
X51676298Y-38862000D01*
X35687000Y-49530000D02*
X25400000Y-49530000D01*
D22*
X39243000Y-35941000D02*
X28194000Y-35941000D01*
X26670000Y-34417000D02*
X28194000Y-35941000D01*
D19*
X43815000Y-35941000D02*
X39243000Y-35941000D01*
X45339000Y-37465000D02*
X43815000Y-35941000D01*
X50419000Y-36576000D02*
X50419000Y-37846000D01*
D22*
X40513000Y-35179000D02*
X32385000Y-35179000D01*
X31750000Y-34544000D02*
X32385000Y-35179000D01*
D19*
X45847000Y-37084000D02*
X44069000Y-35306000D01*
X44069000Y-35306000D02*
X40640000Y-35306000D01*
D22*
X40640000Y-35306000D02*
X40513000Y-35179000D01*
D19*
X45847000Y-37846000D02*
X45847000Y-37084000D01*
X46228000Y-38227000D02*
X45847000Y-37846000D01*
X50038000Y-38227000D02*
X46228000Y-38227000D01*
X50419000Y-37846000D02*
X50038000Y-38227000D01*
X36449000Y-46990000D02*
X25273000Y-46990000D01*
X37211000Y-44450000D02*
X25400000Y-44450000D01*
X41402000Y-33401000D02*
X42291000Y-34290000D01*
X41402000Y-33401000D02*
X37719000Y-33401000D01*
X36830000Y-34290000D02*
X37719000Y-33401000D01*
X46609000Y-34290000D02*
X47244000Y-33655000D01*
X42291000Y-34290000D02*
X46609000Y-34290000D01*
X38227000Y-41910000D02*
X25400000Y-41910000D01*
X48514000Y-33655000D02*
X47371000Y-34798000D01*
X47371000Y-34798000D02*
X41529000Y-34798000D01*
X41148000Y-34417000D02*
X41529000Y-34798000D01*
D22*
X38354000Y-38100000D02*
X44450000Y-38100000D01*
X51562000Y-33528000D02*
X53086000Y-35052000D01*
X53086000Y-35052000D02*
X53086000Y-38481000D01*
X52070000Y-39497000D02*
X53086000Y-38481000D01*
X45847000Y-39497000D02*
X52070000Y-39497000D01*
X44450000Y-38100000D02*
X45847000Y-39497000D01*
D19*
X37973000Y-59690000D02*
X25400000Y-59690000D01*
D22*
X6350000Y-38100000D02*
X38354000Y-38100000D01*
D19*
X10922000Y-114300000D02*
X13081000Y-112141000D01*
X49110899Y-83019899D02*
X42125899Y-83019899D01*
X29464000Y-61341000D02*
X26289000Y-61341000D01*
X30988000Y-62865000D02*
X29464000Y-61341000D01*
X32512000Y-62865000D02*
X30988000Y-62865000D01*
X33782000Y-61595000D02*
X32512000Y-62865000D01*
X40132000Y-61595000D02*
X33782000Y-61595000D01*
X40513000Y-61976000D02*
X40132000Y-61595000D01*
X40513000Y-68326000D02*
X40513000Y-61976000D01*
X40005000Y-68834000D02*
X40513000Y-68326000D01*
X42125899Y-83019899D02*
X41275000Y-82169000D01*
X49961798Y-82169000D02*
X49110899Y-83019899D01*
X51689000Y-82169000D02*
X49961798Y-82169000D01*
D21*
X13030200Y-65280000D02*
X14302200Y-64008000D01*
X9398000Y-65280000D02*
X13030200Y-65280000D01*
X32359600Y-64008000D02*
X33631600Y-65280000D01*
X14302200Y-64008000D02*
X32359600Y-64008000D01*
X33631600Y-65280000D02*
X37338000Y-65280000D01*
D23*
X19558000Y-94234000D02*
X29972000Y-94234000D01*
X32004000Y-84963000D02*
X33020000Y-83947000D01*
X31115000Y-93091000D02*
X32004000Y-92202000D01*
X32004000Y-92202000D02*
X32004000Y-84963000D01*
X52324000Y-83566000D02*
X53848000Y-82042000D01*
X53340000Y-41529000D02*
X52705000Y-40894000D01*
X53340000Y-41529000D02*
X53848000Y-42037000D01*
X51943000Y-83947000D02*
X52324000Y-83566000D01*
X33020000Y-83947000D02*
X51943000Y-83947000D01*
X53848000Y-42037000D02*
X53848000Y-82042000D01*
X29972000Y-94234000D02*
X31115000Y-93091000D01*
D19*
X53975000Y-39497000D02*
X52641500Y-40830500D01*
X52705000Y-40767000D02*
X52705000Y-40894000D01*
X52641500Y-40830500D02*
X52705000Y-40767000D01*
X47752000Y-26162000D02*
X52959000Y-26162000D01*
X52959000Y-26162000D02*
X53975000Y-27178000D01*
X53975000Y-27178000D02*
X53975000Y-39497000D01*
D23*
X52197000Y-40386000D02*
X50419000Y-40386000D01*
X52197000Y-40386000D02*
X52705000Y-40894000D01*
X48768000Y-40640000D02*
X50165000Y-40640000D01*
X50165000Y-40640000D02*
X50419000Y-40386000D01*
D22*
X46228000Y-40640000D02*
X48768000Y-40640000D01*
D20*
X12293600Y-59918600D02*
X12293600Y-58267600D01*
D19*
X31750000Y-61468000D02*
X30734000Y-60452000D01*
X30734000Y-60452000D02*
X12827000Y-60452000D01*
D20*
X12827000Y-60452000D02*
X12293600Y-59918600D01*
D19*
X39116000Y-73025000D02*
X13208000Y-73025000D01*
X8255000Y-91821000D02*
X8255000Y-94488000D01*
X8636000Y-94869000D02*
X10795000Y-94869000D01*
X8255000Y-94488000D02*
X8636000Y-94869000D01*
D22*
X-889000Y-73025000D02*
X13208000Y-73025000D01*
D19*
X23368000Y-58039000D02*
X17145000Y-58039000D01*
X35560000Y-58420000D02*
X35052000Y-57912000D01*
X35052000Y-57912000D02*
X25146000Y-57912000D01*
X25146000Y-57912000D02*
X24765000Y-57531000D01*
X24765000Y-57531000D02*
X23876000Y-57531000D01*
X23876000Y-57531000D02*
X23368000Y-58039000D01*
D22*
X47371000Y-85725000D02*
X35814000Y-85725000D01*
X47371000Y-88265000D02*
X40513000Y-88265000D01*
D19*
X9652000Y-50800000D02*
X16891000Y-50800000D01*
X40132000Y-78105000D02*
X5842000Y-78105000D01*
X40513000Y-88265000D02*
X40132000Y-87884000D01*
X36830000Y-90805000D02*
X41402000Y-90805000D01*
D22*
X41402000Y-90805000D02*
X47371000Y-90805000D01*
D19*
X36830000Y-90805000D02*
X34925000Y-88900000D01*
X24765000Y-58420000D02*
X24638000Y-58420000D01*
X25273000Y-58928000D02*
X24765000Y-58420000D01*
X34036000Y-58928000D02*
X25273000Y-58928000D01*
D22*
X47371000Y-93345000D02*
X41910000Y-93345000D01*
D19*
X41910000Y-93345000D02*
X40894000Y-93345000D01*
X37338000Y-78994000D02*
X12065000Y-78994000D01*
X39243000Y-91694000D02*
X37338000Y-91694000D01*
X40894000Y-93345000D02*
X39243000Y-91694000D01*
X36449000Y-48387000D02*
X24257000Y-48387000D01*
D22*
X47371000Y-95885000D02*
X41910000Y-95885000D01*
D19*
X41910000Y-95885000D02*
X38100000Y-95885000D01*
X4953000Y-48387000D02*
X16891000Y-48387000D01*
X38608000Y-98425000D02*
X42799000Y-98425000D01*
D22*
X42799000Y-98425000D02*
X47371000Y-98425000D01*
D19*
X36576000Y-79756000D02*
X4953000Y-79756000D01*
X37084000Y-96901000D02*
X38608000Y-98425000D01*
X37084000Y-94107000D02*
X37084000Y-96901000D01*
X21082000Y-46736000D02*
X21717000Y-46101000D01*
D22*
X47371000Y-100965000D02*
X42672000Y-100965000D01*
D19*
X42672000Y-100965000D02*
X34671000Y-100965000D01*
X17653000Y-45974000D02*
X18415000Y-46736000D01*
X4191000Y-45974000D02*
X17653000Y-45974000D01*
X33528000Y-80518000D02*
X4191000Y-80518000D01*
X33528000Y-99822000D02*
X33528000Y-96774000D01*
X34671000Y-100965000D02*
X33528000Y-99822000D01*
X18415000Y-46736000D02*
X21082000Y-46736000D01*
X3302000Y-47244000D02*
X22860000Y-47244000D01*
X45847000Y-101981000D02*
X31750000Y-101981000D01*
X31750000Y-101981000D02*
X30607000Y-100838000D01*
X31115000Y-81280000D02*
X3302000Y-81280000D01*
D22*
X47371000Y-103505000D02*
X45847000Y-101981000D01*
D19*
X22860000Y-47244000D02*
X24003000Y-46101000D01*
X47371000Y-55118000D02*
X48514000Y-55118000D01*
X49784000Y-55118000D02*
X48514000Y-55118000D01*
X45339000Y-55499000D02*
X45720000Y-55118000D01*
X45720000Y-55118000D02*
X47371000Y-55118000D01*
X23241000Y-54610000D02*
X17907000Y-54610000D01*
X24130000Y-55499000D02*
X23241000Y-54610000D01*
X45212000Y-55499000D02*
X45339000Y-55499000D01*
X45339000Y-55499000D02*
X24130000Y-55499000D01*
X16891000Y-53594000D02*
X17907000Y-54610000D01*
D20*
X20955000Y-68732400D02*
X18669000Y-68732400D01*
X20980400Y-68707000D02*
X20955000Y-68732400D01*
D19*
X20624802Y-54127400D02*
X19964400Y-54127400D01*
X19100800Y-53263800D02*
X19685000Y-53848000D01*
X20624802Y-54127400D02*
X23749000Y-54127400D01*
X23749000Y-54127400D02*
X24028400Y-53848000D01*
X24028400Y-53848000D02*
X48895000Y-53848000D01*
X19964400Y-54127400D02*
X19685000Y-53848000D01*
X28448000Y-102108000D02*
X25984200Y-102108000D01*
D22*
X29210000Y-102870000D02*
X28448000Y-102108000D01*
X44958000Y-102870000D02*
X29210000Y-102870000D01*
D19*
X25984200Y-102108000D02*
X25692100Y-102400100D01*
D22*
X25692100Y-102400100D02*
X24460200Y-103632000D01*
D19*
X21590000Y-55499000D02*
X22225000Y-56134000D01*
X22225000Y-56134000D02*
X48895000Y-56134000D01*
X49149000Y-56388000D02*
X49784000Y-56388000D01*
X48895000Y-56134000D02*
X49149000Y-56388000D01*
X21666200Y-51054000D02*
X21666200Y-51079400D01*
D22*
X45212000Y-103886000D02*
X27254200Y-103886000D01*
X52578000Y-105029000D02*
X46355000Y-105029000D01*
X46355000Y-105029000D02*
X45212000Y-103886000D01*
D19*
X27254200Y-103886000D02*
X27000200Y-103632000D01*
X21590000Y-50927000D02*
X51943000Y-50927000D01*
D22*
X51943000Y-71501000D02*
X47371000Y-71501000D01*
D19*
X51562000Y-52832000D02*
X23876000Y-52832000D01*
X52324000Y-52832000D02*
X52705000Y-53213000D01*
X52705000Y-53213000D02*
X52705000Y-54737000D01*
X51562000Y-52832000D02*
X52324000Y-52832000D01*
D22*
X47371000Y-74041000D02*
X51943000Y-74041000D01*
X51943000Y-74041000D02*
X52755800Y-73228200D01*
X50800000Y-106172000D02*
X51308000Y-106680000D01*
X51308000Y-106680000D02*
X52578000Y-106680000D01*
X25984200Y-107696000D02*
X28194000Y-107696000D01*
X24460200Y-106172000D02*
X25984200Y-107696000D01*
X29718000Y-106172000D02*
X50800000Y-106172000D01*
X28194000Y-107696000D02*
X29718000Y-106172000D01*
D19*
X36449000Y-45720000D02*
X36068000Y-45339000D01*
X36449000Y-45720000D02*
X37211000Y-45720000D01*
D22*
X41021000Y-76581000D02*
X47371000Y-76581000D01*
D19*
X19939000Y-45339000D02*
X19304000Y-45974000D01*
X36068000Y-45339000D02*
X19939000Y-45339000D01*
X48133000Y-43180000D02*
X47752000Y-43180000D01*
X51054000Y-46101000D02*
X48133000Y-43180000D01*
X45720000Y-43180000D02*
X47752000Y-43180000D01*
X21717000Y-43561000D02*
X22098000Y-43180000D01*
X45720000Y-43180000D02*
X22098000Y-43180000D01*
X21717000Y-53213000D02*
X20447000Y-51943000D01*
X50927000Y-50292000D02*
X51054000Y-50165000D01*
X21082000Y-50292000D02*
X50927000Y-50292000D01*
X20447000Y-50927000D02*
X21082000Y-50292000D01*
X20447000Y-51943000D02*
X20447000Y-50927000D01*
X254000Y-52052220D02*
X-254000Y-51544220D01*
X-254000Y-22733000D02*
X-1041400Y-21945600D01*
X-254000Y-51544220D02*
X-254000Y-22733000D01*
X20556220Y-52052220D02*
X254000Y-52052220D01*
D20*
X21717000Y-53213000D02*
X20556220Y-52052220D01*
D22*
X-889000Y-90805000D02*
X-6223000Y-90805000D01*
D19*
X-4318000Y-93319600D02*
X-4318000Y-93345000D01*
X-4318000Y-93345000D02*
X-4318000Y-93319600D01*
X-4318000Y-93319600D02*
X-4318000Y-93345000D01*
D22*
X-4318000Y-93345000D02*
X-889000Y-93345000D01*
X-5207000Y-95885000D02*
X-889000Y-95885000D01*
X-3556000Y-98425000D02*
X-889000Y-98425000D01*
D19*
X8001000Y-99441000D02*
X9271000Y-99441000D01*
X6604000Y-100838000D02*
X8001000Y-99441000D01*
X9271000Y-101981000D02*
X11176000Y-100076000D01*
X11176000Y-100076000D02*
X11176000Y-96647000D01*
X2540000Y-44831000D02*
X2540000Y-21082000D01*
X2921000Y-20701000D02*
X2540000Y-21082000D01*
X2921000Y-20701000D02*
X36195000Y-20701000D01*
X36195000Y-20701000D02*
X38227000Y-18669000D01*
X38227000Y-18669000D02*
X45085000Y-18669000D01*
X10922000Y-90170000D02*
X11430000Y-89662000D01*
X2540000Y-90170000D02*
X10922000Y-90170000D01*
X17957800Y-61341000D02*
X18313400Y-61341000D01*
X2286000Y-61341000D02*
X2540000Y-61341000D01*
X2540000Y-61341000D02*
X17957800Y-61341000D01*
X18491200Y-61518800D02*
X19481800Y-61518800D01*
X18313400Y-61341000D02*
X18491200Y-61518800D01*
X19659600Y-61341000D02*
X19481800Y-61518800D01*
X14528800Y-17576800D02*
X52298600Y-17576800D01*
X12369800Y-19735800D02*
X14528800Y-17576800D01*
D22*
X2794000Y-105918000D02*
X2794000Y-102997000D01*
X3683000Y-102108000D02*
X2794000Y-102997000D01*
D23*
X16637000Y-101473000D02*
X27559000Y-101473000D01*
X27559000Y-101473000D02*
X29083000Y-99949000D01*
X2794000Y-105918000D02*
X12192000Y-105918000D01*
X12192000Y-105918000D02*
X16637000Y-101473000D01*
X1016000Y-105918000D02*
X2794000Y-105918000D01*
D19*
X50673000Y-20701000D02*
X44577000Y-20701000D01*
X51562000Y-21590000D02*
X50673000Y-20701000D01*
X45974000Y-33528000D02*
X42418000Y-33528000D01*
X44577000Y-19685000D02*
X44450000Y-19558000D01*
X44450000Y-19558000D02*
X38481000Y-19558000D01*
X41529000Y-32639000D02*
X38354000Y-32639000D01*
X42418000Y-33528000D02*
X41529000Y-32639000D01*
D24*
G36*
X-685052Y-51975272D02*
X-177053Y-52483272D01*
X-73296Y-52552600D01*
X20716Y-52615417D01*
X254000Y-52661820D01*
X18481449Y-52661820D01*
X18369102Y-52773971D01*
X18237350Y-53091266D01*
X18237050Y-53434827D01*
X18368249Y-53752351D01*
X18610971Y-53995498D01*
X18622776Y-54000400D01*
X18159504Y-54000400D01*
X17754599Y-53595495D01*
X17754750Y-53422973D01*
X17623551Y-53105449D01*
X17380829Y-52862302D01*
X17063534Y-52730550D01*
X16719973Y-52730250D01*
X16402449Y-52861449D01*
X16159302Y-53104171D01*
X16027550Y-53421466D01*
X16027250Y-53765027D01*
X16158449Y-54082551D01*
X16401171Y-54325698D01*
X16718466Y-54457450D01*
X16892498Y-54457602D01*
X17475948Y-55041052D01*
X17673716Y-55173197D01*
X17907000Y-55219600D01*
X20770925Y-55219600D01*
X20726550Y-55326466D01*
X20726250Y-55670027D01*
X20857449Y-55987551D01*
X21100171Y-56230698D01*
X21417466Y-56362450D01*
X21591497Y-56362602D01*
X21793948Y-56565053D01*
X21912502Y-56644267D01*
X21991716Y-56697197D01*
X22225000Y-56743600D01*
X24633659Y-56743600D01*
X24559831Y-56921400D01*
X23876000Y-56921400D01*
X23642716Y-56967803D01*
X23444947Y-57099948D01*
X23115496Y-57429400D01*
X17756714Y-57429400D01*
X17634829Y-57307302D01*
X17317534Y-57175550D01*
X16973973Y-57175250D01*
X16656449Y-57306449D01*
X16413302Y-57549171D01*
X16281550Y-57866466D01*
X16281250Y-58210027D01*
X16412449Y-58527551D01*
X16655171Y-58770698D01*
X16972466Y-58902450D01*
X17316027Y-58902750D01*
X17633551Y-58771551D01*
X17756717Y-58648600D01*
X23368000Y-58648600D01*
X23601284Y-58602197D01*
X23774341Y-58486563D01*
X23774250Y-58591027D01*
X23905449Y-58908551D01*
X24148171Y-59151698D01*
X24465466Y-59283450D01*
X24633661Y-59283597D01*
X24536550Y-59517466D01*
X24536266Y-59842400D01*
X13007663Y-59842400D01*
X12852400Y-59687138D01*
X12852400Y-58599869D01*
X12999898Y-58452629D01*
X13131650Y-58135334D01*
X13131950Y-57791773D01*
X13000751Y-57474249D01*
X12758029Y-57231102D01*
X12440734Y-57099350D01*
X12097173Y-57099050D01*
X11779649Y-57230249D01*
X11536502Y-57472971D01*
X11404750Y-57790266D01*
X11404450Y-58133827D01*
X11535649Y-58451351D01*
X11734800Y-58650851D01*
X11734800Y-59918600D01*
X11777336Y-60132444D01*
X11793513Y-60156654D01*
X11898469Y-60313731D01*
X12262259Y-60677522D01*
X12263803Y-60685284D01*
X12294617Y-60731400D01*
X3151714Y-60731400D01*
X3029829Y-60609302D01*
X2712534Y-60477550D01*
X2368973Y-60477250D01*
X2051449Y-60608449D01*
X1808302Y-60851171D01*
X1676550Y-61168466D01*
X1676250Y-61512027D01*
X1807449Y-61829551D01*
X2050171Y-62072698D01*
X2367466Y-62204450D01*
X2711027Y-62204750D01*
X3028551Y-62073551D01*
X3151717Y-61950600D01*
X18061267Y-61950600D01*
X18257916Y-62081997D01*
X18491200Y-62128400D01*
X18870086Y-62128400D01*
X18991971Y-62250498D01*
X19309266Y-62382250D01*
X19652827Y-62382550D01*
X19970351Y-62251351D01*
X20213498Y-62008629D01*
X20345250Y-61691334D01*
X20345550Y-61347773D01*
X20227305Y-61061600D01*
X25469925Y-61061600D01*
X25425550Y-61168466D01*
X25425250Y-61512027D01*
X25556449Y-61829551D01*
X25651931Y-61925200D01*
X24487714Y-61925200D01*
X24365829Y-61803102D01*
X24048534Y-61671350D01*
X23704973Y-61671050D01*
X23387449Y-61802249D01*
X23181242Y-62008096D01*
X23128756Y-62018536D01*
X23033781Y-62081997D01*
X22947469Y-62139669D01*
X22831738Y-62255400D01*
X22326712Y-62255400D01*
X22326750Y-62211373D01*
X22195551Y-61893849D01*
X21952829Y-61650702D01*
X21635534Y-61518950D01*
X21291973Y-61518650D01*
X20974449Y-61649849D01*
X20731302Y-61892571D01*
X20599550Y-62209866D01*
X20599250Y-62553427D01*
X20730449Y-62870951D01*
X20973171Y-63114098D01*
X21199072Y-63207900D01*
X14302200Y-63207900D01*
X13996015Y-63268804D01*
X13736444Y-63442244D01*
X12698788Y-64479900D01*
X12294584Y-64479900D01*
X11928000Y-63592700D01*
X11089713Y-62752949D01*
X9993879Y-62297918D01*
X8807327Y-62296883D01*
X7710700Y-62750000D01*
X6870949Y-63588287D01*
X6415918Y-64684121D01*
X6414883Y-65870673D01*
X6868000Y-66967300D01*
X7706287Y-67807051D01*
X8802121Y-68262082D01*
X9988673Y-68263117D01*
X11085300Y-67810000D01*
X11925051Y-66971713D01*
X12295282Y-66080100D01*
X13030200Y-66080100D01*
X13336385Y-66019196D01*
X13595956Y-65845756D01*
X14633612Y-64808100D01*
X32028188Y-64808100D01*
X33065844Y-65845756D01*
X33325415Y-66019196D01*
X33631600Y-66080100D01*
X34441416Y-66080100D01*
X34808000Y-66967300D01*
X35646287Y-67807051D01*
X36742121Y-68262082D01*
X37928673Y-68263117D01*
X39025300Y-67810000D01*
X39865051Y-66971713D01*
X39903400Y-66879359D01*
X39903400Y-67970311D01*
X39833973Y-67970250D01*
X39516449Y-68101449D01*
X39273302Y-68344171D01*
X39141550Y-68661466D01*
X39141250Y-69005027D01*
X39272449Y-69322551D01*
X39515171Y-69565698D01*
X39802242Y-69684900D01*
X28265098Y-69684900D01*
X28112534Y-69621550D01*
X27768973Y-69621250D01*
X27614929Y-69684900D01*
X346100Y-69684900D01*
X244666Y-69533093D01*
X-103203Y-69300654D01*
X127000Y-69300654D01*
X305841Y-69267003D01*
X470095Y-69161308D01*
X580287Y-69000037D01*
X599851Y-68903427D01*
X17805250Y-68903427D01*
X17936449Y-69220951D01*
X18179171Y-69464098D01*
X18496466Y-69595850D01*
X18840027Y-69596150D01*
X19157551Y-69464951D01*
X19331606Y-69291200D01*
X20343331Y-69291200D01*
X20490571Y-69438698D01*
X20807866Y-69570450D01*
X21151427Y-69570750D01*
X21468951Y-69439551D01*
X21712098Y-69196829D01*
X21843850Y-68879534D01*
X21844150Y-68535973D01*
X21712951Y-68218449D01*
X21470229Y-67975302D01*
X21152934Y-67843550D01*
X20809373Y-67843250D01*
X20491849Y-67974449D01*
X20292349Y-68173600D01*
X19331425Y-68173600D01*
X19158829Y-68000702D01*
X18841534Y-67868950D01*
X18497973Y-67868650D01*
X18180449Y-67999849D01*
X17937302Y-68242571D01*
X17805550Y-68559866D01*
X17805250Y-68903427D01*
X599851Y-68903427D01*
X619054Y-68808600D01*
X619054Y-67081400D01*
X585403Y-66902559D01*
X479708Y-66738305D01*
X318437Y-66628113D01*
X127000Y-66589346D01*
X-1905000Y-66589346D01*
X-2083841Y-66622997D01*
X-2248095Y-66728692D01*
X-2358287Y-66889963D01*
X-2397054Y-67081400D01*
X-2397054Y-68808600D01*
X-2363403Y-68987441D01*
X-2257708Y-69151695D01*
X-2096437Y-69261887D01*
X-1905000Y-69300654D01*
X-1674797Y-69300654D01*
X-2022666Y-69533093D01*
X-2314486Y-69969832D01*
X-2416959Y-70485000D01*
X-2314486Y-71000168D01*
X-2022666Y-71436907D01*
X-1585927Y-71728727D01*
X-1453843Y-71755000D01*
X-1585927Y-71781273D01*
X-2022666Y-72073093D01*
X-2314486Y-72509832D01*
X-2416959Y-73025000D01*
X-2314486Y-73540168D01*
X-2022666Y-73976907D01*
X-1585927Y-74268727D01*
X-1453843Y-74295000D01*
X-1585927Y-74321273D01*
X-2022666Y-74613093D01*
X-2314486Y-75049832D01*
X-2416959Y-75565000D01*
X-2314486Y-76080168D01*
X-2022666Y-76516907D01*
X-1585927Y-76808727D01*
X-1453843Y-76835000D01*
X-1585927Y-76861273D01*
X-2022666Y-77153093D01*
X-2314486Y-77589832D01*
X-2416959Y-78105000D01*
X-2314486Y-78620168D01*
X-2022666Y-79056907D01*
X-1585927Y-79348727D01*
X-1433704Y-79379006D01*
X-1580035Y-79410994D01*
X-2011268Y-79711054D01*
X-2294847Y-80153299D01*
X-2366816Y-80409358D01*
X-2266687Y-80619600D01*
X-914400Y-80619600D01*
X-914400Y-80599600D01*
X-863600Y-80599600D01*
X-863600Y-80619600D01*
X488687Y-80619600D01*
X588816Y-80409358D01*
X516847Y-80153299D01*
X233268Y-79711054D01*
X-197965Y-79410994D01*
X-344296Y-79379006D01*
X-192073Y-79348727D01*
X244666Y-79056907D01*
X536486Y-78620168D01*
X638959Y-78105000D01*
X536486Y-77589832D01*
X244666Y-77153093D01*
X-192073Y-76861273D01*
X-324157Y-76835000D01*
X-192073Y-76808727D01*
X244666Y-76516907D01*
X536486Y-76080168D01*
X638959Y-75565000D01*
X536486Y-75049832D01*
X244666Y-74613093D01*
X-192073Y-74321273D01*
X-324157Y-74295000D01*
X-192073Y-74268727D01*
X244666Y-73976907D01*
X430959Y-73698100D01*
X12659675Y-73698100D01*
X12718171Y-73756698D01*
X13035466Y-73888450D01*
X13379027Y-73888750D01*
X13696551Y-73757551D01*
X13819717Y-73634600D01*
X38504286Y-73634600D01*
X38626171Y-73756698D01*
X38943466Y-73888450D01*
X39287027Y-73888750D01*
X39604551Y-73757551D01*
X39847698Y-73514829D01*
X39979450Y-73197534D01*
X39979750Y-72853973D01*
X39848551Y-72536449D01*
X39605829Y-72293302D01*
X39288534Y-72161550D01*
X38944973Y-72161250D01*
X38627449Y-72292449D01*
X38504283Y-72415400D01*
X13819714Y-72415400D01*
X13697829Y-72293302D01*
X13380534Y-72161550D01*
X13036973Y-72161250D01*
X12719449Y-72292449D01*
X12659894Y-72351900D01*
X430959Y-72351900D01*
X244666Y-72073093D01*
X-192073Y-71781273D01*
X-324157Y-71755000D01*
X-192073Y-71728727D01*
X244666Y-71436907D01*
X346100Y-71285100D01*
X27614902Y-71285100D01*
X27767466Y-71348450D01*
X28111027Y-71348750D01*
X28265071Y-71285100D01*
X41783000Y-71285100D01*
X42089185Y-71224196D01*
X42111997Y-71208953D01*
X42398551Y-71090551D01*
X42641698Y-70847829D01*
X42773450Y-70530534D01*
X42773750Y-70186973D01*
X42642551Y-69869449D01*
X42399829Y-69626302D01*
X42082534Y-69494550D01*
X41738973Y-69494250D01*
X41421449Y-69625449D01*
X41361894Y-69684900D01*
X40207126Y-69684900D01*
X40493551Y-69566551D01*
X40736698Y-69323829D01*
X40868450Y-69006534D01*
X40868602Y-68832503D01*
X40944052Y-68757053D01*
X41076197Y-68559284D01*
X41080834Y-68535973D01*
X41122600Y-68326000D01*
X41122600Y-64236807D01*
X41177449Y-64369551D01*
X41420171Y-64612698D01*
X41737466Y-64744450D01*
X42081027Y-64744750D01*
X42235071Y-64681100D01*
X46135900Y-64681100D01*
X46237334Y-64832907D01*
X46674073Y-65124727D01*
X46826296Y-65155006D01*
X46679965Y-65186994D01*
X46248732Y-65487054D01*
X45965153Y-65929299D01*
X45893184Y-66185358D01*
X45993313Y-66395600D01*
X47345600Y-66395600D01*
X47345600Y-66375600D01*
X47396400Y-66375600D01*
X47396400Y-66395600D01*
X48748687Y-66395600D01*
X48848816Y-66185358D01*
X48776847Y-65929299D01*
X48493268Y-65487054D01*
X48062035Y-65186994D01*
X47915704Y-65155006D01*
X48067927Y-65124727D01*
X48504666Y-64832907D01*
X48796486Y-64396168D01*
X48898959Y-63881000D01*
X48796486Y-63365832D01*
X48504666Y-62929093D01*
X48067927Y-62637273D01*
X47935843Y-62611000D01*
X48067927Y-62584727D01*
X48504666Y-62292907D01*
X48796486Y-61856168D01*
X48898959Y-61341000D01*
X48796486Y-60825832D01*
X48504666Y-60389093D01*
X48156797Y-60156654D01*
X48387000Y-60156654D01*
X48565841Y-60123003D01*
X48730095Y-60017308D01*
X48840287Y-59856037D01*
X48879054Y-59664600D01*
X48879054Y-57937400D01*
X48845403Y-57758559D01*
X48739708Y-57594305D01*
X48578437Y-57484113D01*
X48387000Y-57445346D01*
X46355000Y-57445346D01*
X46176159Y-57478997D01*
X46011905Y-57584692D01*
X45901713Y-57745963D01*
X45862946Y-57937400D01*
X45862946Y-59664600D01*
X45896597Y-59843441D01*
X46002292Y-60007695D01*
X46163563Y-60117887D01*
X46355000Y-60156654D01*
X46585203Y-60156654D01*
X46237334Y-60389093D01*
X45945514Y-60825832D01*
X45843041Y-61341000D01*
X45945514Y-61856168D01*
X46237334Y-62292907D01*
X46674073Y-62584727D01*
X46806157Y-62611000D01*
X46674073Y-62637273D01*
X46237334Y-62929093D01*
X46135900Y-63080900D01*
X42235098Y-63080900D01*
X42082534Y-63017550D01*
X41738973Y-63017250D01*
X41421449Y-63148449D01*
X41178302Y-63391171D01*
X41122600Y-63525317D01*
X41122600Y-61976000D01*
X41076197Y-61742716D01*
X41048513Y-61701284D01*
X40944052Y-61544947D01*
X40563052Y-61163948D01*
X40365284Y-61031803D01*
X40132000Y-60985400D01*
X33782000Y-60985400D01*
X33548716Y-61031803D01*
X33350948Y-61163948D01*
X32259496Y-62255400D01*
X32105807Y-62255400D01*
X32238551Y-62200551D01*
X32481698Y-61957829D01*
X32613450Y-61640534D01*
X32613750Y-61296973D01*
X32482551Y-60979449D01*
X32239829Y-60736302D01*
X31922534Y-60604550D01*
X31748502Y-60604398D01*
X31443704Y-60299600D01*
X37361286Y-60299600D01*
X37483171Y-60421698D01*
X37800466Y-60553450D01*
X38144027Y-60553750D01*
X38461551Y-60422551D01*
X38704698Y-60179829D01*
X38836450Y-59862534D01*
X38836750Y-59518973D01*
X38705551Y-59201449D01*
X38462829Y-58958302D01*
X38145534Y-58826550D01*
X37801973Y-58826250D01*
X37484449Y-58957449D01*
X37361283Y-59080400D01*
X36120828Y-59080400D01*
X36291698Y-58909829D01*
X36423450Y-58592534D01*
X36423750Y-58248973D01*
X36292551Y-57931449D01*
X36049829Y-57688302D01*
X35732534Y-57556550D01*
X35558502Y-57556398D01*
X35483052Y-57480948D01*
X35471794Y-57473426D01*
X35534450Y-57322534D01*
X35534750Y-56978973D01*
X35437495Y-56743600D01*
X48642496Y-56743600D01*
X48717948Y-56819052D01*
X48915716Y-56951197D01*
X49149000Y-56997600D01*
X49172286Y-56997600D01*
X49294171Y-57119698D01*
X49611466Y-57251450D01*
X49955027Y-57251750D01*
X50272551Y-57120551D01*
X50515698Y-56877829D01*
X50647450Y-56560534D01*
X50647750Y-56216973D01*
X50516551Y-55899449D01*
X50370315Y-55752957D01*
X50515698Y-55607829D01*
X50647450Y-55290534D01*
X50647750Y-54946973D01*
X50516551Y-54629449D01*
X50273829Y-54386302D01*
X49956534Y-54254550D01*
X49661385Y-54254292D01*
X49758450Y-54020534D01*
X49758750Y-53676973D01*
X49661495Y-53441600D01*
X52071496Y-53441600D01*
X52095400Y-53465505D01*
X52095400Y-54125286D01*
X51973302Y-54247171D01*
X51841550Y-54564466D01*
X51841250Y-54908027D01*
X51972449Y-55225551D01*
X52215171Y-55468698D01*
X52532466Y-55600450D01*
X52876027Y-55600750D01*
X53111400Y-55503495D01*
X53111400Y-72440765D01*
X52928334Y-72364750D01*
X52584773Y-72364450D01*
X52267249Y-72495649D01*
X52024102Y-72738371D01*
X51892350Y-73055666D01*
X51892277Y-73139816D01*
X51664192Y-73367900D01*
X48690959Y-73367900D01*
X48504666Y-73089093D01*
X48067927Y-72797273D01*
X47935843Y-72771000D01*
X48067927Y-72744727D01*
X48504666Y-72452907D01*
X48690959Y-72174100D01*
X51394675Y-72174100D01*
X51453171Y-72232698D01*
X51770466Y-72364450D01*
X52114027Y-72364750D01*
X52431551Y-72233551D01*
X52674698Y-71990829D01*
X52806450Y-71673534D01*
X52806750Y-71329973D01*
X52675551Y-71012449D01*
X52432829Y-70769302D01*
X52115534Y-70637550D01*
X51771973Y-70637250D01*
X51454449Y-70768449D01*
X51394894Y-70827900D01*
X48690959Y-70827900D01*
X48504666Y-70549093D01*
X48067927Y-70257273D01*
X47935843Y-70231000D01*
X48067927Y-70204727D01*
X48504666Y-69912907D01*
X48796486Y-69476168D01*
X48898959Y-68961000D01*
X48796486Y-68445832D01*
X48504666Y-68009093D01*
X48067927Y-67717273D01*
X47915704Y-67686994D01*
X48062035Y-67655006D01*
X48493268Y-67354946D01*
X48776847Y-66912701D01*
X48848816Y-66656642D01*
X48748687Y-66446400D01*
X47396400Y-66446400D01*
X47396400Y-66466400D01*
X47345600Y-66466400D01*
X47345600Y-66446400D01*
X45993313Y-66446400D01*
X45893184Y-66656642D01*
X45965153Y-66912701D01*
X46248732Y-67354946D01*
X46679965Y-67655006D01*
X46826296Y-67686994D01*
X46674073Y-67717273D01*
X46237334Y-68009093D01*
X45945514Y-68445832D01*
X45843041Y-68961000D01*
X45945514Y-69476168D01*
X46237334Y-69912907D01*
X46674073Y-70204727D01*
X46806157Y-70231000D01*
X46674073Y-70257273D01*
X46237334Y-70549093D01*
X45945514Y-70985832D01*
X45843041Y-71501000D01*
X45945514Y-72016168D01*
X46237334Y-72452907D01*
X46674073Y-72744727D01*
X46806157Y-72771000D01*
X46674073Y-72797273D01*
X46237334Y-73089093D01*
X45945514Y-73525832D01*
X45843041Y-74041000D01*
X45945514Y-74556168D01*
X46237334Y-74992907D01*
X46674073Y-75284727D01*
X46806157Y-75311000D01*
X46674073Y-75337273D01*
X46237334Y-75629093D01*
X46051041Y-75907900D01*
X41569325Y-75907900D01*
X41510829Y-75849302D01*
X41193534Y-75717550D01*
X40849973Y-75717250D01*
X40532449Y-75848449D01*
X40289302Y-76091171D01*
X40157550Y-76408466D01*
X40157250Y-76752027D01*
X40288449Y-77069551D01*
X40531171Y-77312698D01*
X40848466Y-77444450D01*
X41192027Y-77444750D01*
X41509551Y-77313551D01*
X41569106Y-77254100D01*
X46051041Y-77254100D01*
X46237334Y-77532907D01*
X46674073Y-77824727D01*
X46806157Y-77851000D01*
X46674073Y-77877273D01*
X46237334Y-78169093D01*
X45945514Y-78605832D01*
X45843041Y-79121000D01*
X45945514Y-79636168D01*
X46237334Y-80072907D01*
X46674073Y-80364727D01*
X46806157Y-80391000D01*
X46674073Y-80417273D01*
X46237334Y-80709093D01*
X45945514Y-81145832D01*
X45843041Y-81661000D01*
X45945514Y-82176168D01*
X46101956Y-82410299D01*
X42378403Y-82410299D01*
X42138599Y-82170495D01*
X42138750Y-81997973D01*
X42007551Y-81680449D01*
X41764829Y-81437302D01*
X41447534Y-81305550D01*
X41103973Y-81305250D01*
X40786449Y-81436449D01*
X40543302Y-81679171D01*
X40411550Y-81996466D01*
X40411250Y-82340027D01*
X40542449Y-82657551D01*
X40785171Y-82900698D01*
X41102466Y-83032450D01*
X41276498Y-83032602D01*
X41454296Y-83210400D01*
X33020000Y-83210400D01*
X32738115Y-83266470D01*
X32499145Y-83426145D01*
X31483145Y-84442145D01*
X31323470Y-84681115D01*
X31267400Y-84963000D01*
X31267400Y-91896890D01*
X29666890Y-93497400D01*
X20036024Y-93497400D01*
X19730534Y-93370550D01*
X19386973Y-93370250D01*
X19069449Y-93501449D01*
X18826302Y-93744171D01*
X18694550Y-94061466D01*
X18694250Y-94405027D01*
X18825449Y-94722551D01*
X19068171Y-94965698D01*
X19385466Y-95097450D01*
X19729027Y-95097750D01*
X20036752Y-94970600D01*
X29972000Y-94970600D01*
X30253885Y-94914530D01*
X30492855Y-94754855D01*
X32524855Y-92722855D01*
X32615028Y-92587902D01*
X32684530Y-92483885D01*
X32740600Y-92202000D01*
X32740600Y-85268110D01*
X33325110Y-84683600D01*
X45898951Y-84683600D01*
X45862946Y-84861400D01*
X45862946Y-85051900D01*
X36362325Y-85051900D01*
X36303829Y-84993302D01*
X35986534Y-84861550D01*
X35642973Y-84861250D01*
X35325449Y-84992449D01*
X35082302Y-85235171D01*
X34950550Y-85552466D01*
X34950250Y-85896027D01*
X35081449Y-86213551D01*
X35324171Y-86456698D01*
X35641466Y-86588450D01*
X35985027Y-86588750D01*
X36302551Y-86457551D01*
X36362106Y-86398100D01*
X45862946Y-86398100D01*
X45862946Y-86588600D01*
X45896597Y-86767441D01*
X46002292Y-86931695D01*
X46163563Y-87041887D01*
X46355000Y-87080654D01*
X46585203Y-87080654D01*
X46237334Y-87313093D01*
X46051041Y-87591900D01*
X40945723Y-87591900D01*
X40864551Y-87395449D01*
X40621829Y-87152302D01*
X40304534Y-87020550D01*
X39960973Y-87020250D01*
X39643449Y-87151449D01*
X39400302Y-87394171D01*
X39268550Y-87711466D01*
X39268250Y-88055027D01*
X39399449Y-88372551D01*
X39642171Y-88615698D01*
X39959466Y-88747450D01*
X40046882Y-88747526D01*
X40255416Y-88886863D01*
X40513000Y-88938100D01*
X46051041Y-88938100D01*
X46237334Y-89216907D01*
X46674073Y-89508727D01*
X46806157Y-89535000D01*
X46674073Y-89561273D01*
X46237334Y-89853093D01*
X46051041Y-90131900D01*
X41402000Y-90131900D01*
X41144416Y-90183137D01*
X41126063Y-90195400D01*
X37082504Y-90195400D01*
X35788599Y-88901495D01*
X35788750Y-88728973D01*
X35657551Y-88411449D01*
X35414829Y-88168302D01*
X35097534Y-88036550D01*
X34753973Y-88036250D01*
X34436449Y-88167449D01*
X34193302Y-88410171D01*
X34061550Y-88727466D01*
X34061250Y-89071027D01*
X34192449Y-89388551D01*
X34435171Y-89631698D01*
X34752466Y-89763450D01*
X34926498Y-89763602D01*
X36398948Y-91236052D01*
X36550903Y-91337586D01*
X36474550Y-91521466D01*
X36474250Y-91865027D01*
X36605449Y-92182551D01*
X36848171Y-92425698D01*
X37165466Y-92557450D01*
X37509027Y-92557750D01*
X37826551Y-92426551D01*
X37949717Y-92303600D01*
X38990496Y-92303600D01*
X40462948Y-93776053D01*
X40581502Y-93855267D01*
X40660716Y-93908197D01*
X40894000Y-93954600D01*
X41634063Y-93954600D01*
X41652416Y-93966863D01*
X41910000Y-94018100D01*
X46051041Y-94018100D01*
X46237334Y-94296907D01*
X46674073Y-94588727D01*
X46806157Y-94615000D01*
X46674073Y-94641273D01*
X46237334Y-94933093D01*
X46051041Y-95211900D01*
X41910000Y-95211900D01*
X41652416Y-95263137D01*
X41634063Y-95275400D01*
X38711714Y-95275400D01*
X38589829Y-95153302D01*
X38272534Y-95021550D01*
X37928973Y-95021250D01*
X37693600Y-95118505D01*
X37693600Y-94718714D01*
X37815698Y-94596829D01*
X37947450Y-94279534D01*
X37947750Y-93935973D01*
X37816551Y-93618449D01*
X37573829Y-93375302D01*
X37256534Y-93243550D01*
X36912973Y-93243250D01*
X36595449Y-93374449D01*
X36352302Y-93617171D01*
X36220550Y-93934466D01*
X36220250Y-94278027D01*
X36351449Y-94595551D01*
X36474400Y-94718717D01*
X36474400Y-96901000D01*
X36520803Y-97134284D01*
X36652948Y-97332052D01*
X38176947Y-98856052D01*
X38374716Y-98988197D01*
X38608000Y-99034600D01*
X42523063Y-99034600D01*
X42541416Y-99046863D01*
X42799000Y-99098100D01*
X46051041Y-99098100D01*
X46237334Y-99376907D01*
X46674073Y-99668727D01*
X46806157Y-99695000D01*
X46674073Y-99721273D01*
X46237334Y-100013093D01*
X46051041Y-100291900D01*
X42672000Y-100291900D01*
X42414416Y-100343137D01*
X42396063Y-100355400D01*
X34923504Y-100355400D01*
X34137600Y-99569496D01*
X34137600Y-97385714D01*
X34259698Y-97263829D01*
X34391450Y-96946534D01*
X34391750Y-96602973D01*
X34260551Y-96285449D01*
X34017829Y-96042302D01*
X33700534Y-95910550D01*
X33356973Y-95910250D01*
X33039449Y-96041449D01*
X32796302Y-96284171D01*
X32664550Y-96601466D01*
X32664250Y-96945027D01*
X32795449Y-97262551D01*
X32918400Y-97385717D01*
X32918400Y-99822000D01*
X32964803Y-100055284D01*
X33096948Y-100253052D01*
X34215296Y-101371400D01*
X32002504Y-101371400D01*
X31470599Y-100839495D01*
X31470750Y-100666973D01*
X31339551Y-100349449D01*
X31096829Y-100106302D01*
X30779534Y-99974550D01*
X30435973Y-99974250D01*
X30118449Y-100105449D01*
X29875302Y-100348171D01*
X29743550Y-100665466D01*
X29743250Y-101009027D01*
X29874449Y-101326551D01*
X30117171Y-101569698D01*
X30434466Y-101701450D01*
X30608498Y-101701602D01*
X31103796Y-102196900D01*
X29488807Y-102196900D01*
X28923954Y-101632046D01*
X28705584Y-101486137D01*
X28607153Y-101466557D01*
X29265842Y-100807868D01*
X29571551Y-100681551D01*
X29814698Y-100438829D01*
X29946450Y-100121534D01*
X29946750Y-99777973D01*
X29815551Y-99460449D01*
X29572829Y-99217302D01*
X29255534Y-99085550D01*
X28911973Y-99085250D01*
X28594449Y-99216449D01*
X28351302Y-99459171D01*
X28223616Y-99766674D01*
X27253890Y-100736400D01*
X16637000Y-100736400D01*
X16355115Y-100792470D01*
X16116145Y-100952145D01*
X11886890Y-105181400D01*
X3467100Y-105181400D01*
X3467100Y-103275808D01*
X3771230Y-102971678D01*
X3854027Y-102971750D01*
X4171551Y-102840551D01*
X4414698Y-102597829D01*
X4546450Y-102280534D01*
X4546562Y-102152027D01*
X8407250Y-102152027D01*
X8538449Y-102469551D01*
X8781171Y-102712698D01*
X9098466Y-102844450D01*
X9442027Y-102844750D01*
X9759551Y-102713551D01*
X10002698Y-102470829D01*
X10134450Y-102153534D01*
X10134602Y-101979502D01*
X11607052Y-100507052D01*
X11739197Y-100309284D01*
X11785600Y-100076000D01*
X11785600Y-98182633D01*
X21385057Y-98182633D01*
X21686254Y-98911585D01*
X22243481Y-99469786D01*
X22971906Y-99772255D01*
X23760633Y-99772943D01*
X24489585Y-99471746D01*
X25047786Y-98914519D01*
X25350255Y-98186094D01*
X25350943Y-97397367D01*
X25049746Y-96668415D01*
X24492519Y-96110214D01*
X23764094Y-95807745D01*
X22975367Y-95807057D01*
X22246415Y-96108254D01*
X21688214Y-96665481D01*
X21385745Y-97393906D01*
X21385057Y-98182633D01*
X11785600Y-98182633D01*
X11785600Y-97258714D01*
X11907698Y-97136829D01*
X12039450Y-96819534D01*
X12039750Y-96475973D01*
X11908551Y-96158449D01*
X11665829Y-95915302D01*
X11348534Y-95783550D01*
X11004973Y-95783250D01*
X10687449Y-95914449D01*
X10444302Y-96157171D01*
X10312550Y-96474466D01*
X10312250Y-96818027D01*
X10443449Y-97135551D01*
X10566400Y-97258717D01*
X10566400Y-99823496D01*
X9272495Y-101117401D01*
X9099973Y-101117250D01*
X8782449Y-101248449D01*
X8539302Y-101491171D01*
X8407550Y-101808466D01*
X8407250Y-102152027D01*
X4546562Y-102152027D01*
X4546750Y-101936973D01*
X4415551Y-101619449D01*
X4172829Y-101376302D01*
X3855534Y-101244550D01*
X3511973Y-101244250D01*
X3194449Y-101375449D01*
X2951302Y-101618171D01*
X2819550Y-101935466D01*
X2819477Y-102019616D01*
X2318046Y-102521046D01*
X2172137Y-102739416D01*
X2120899Y-102997000D01*
X2120900Y-102997005D01*
X2120900Y-105181400D01*
X1494024Y-105181400D01*
X1188534Y-105054550D01*
X844973Y-105054250D01*
X527449Y-105185449D01*
X284302Y-105428171D01*
X152550Y-105745466D01*
X152250Y-106089027D01*
X283449Y-106406551D01*
X526171Y-106649698D01*
X843466Y-106781450D01*
X1187027Y-106781750D01*
X1494752Y-106654600D01*
X1974925Y-106654600D01*
X1930550Y-106761466D01*
X1930398Y-106935497D01*
X-125504Y-108991400D01*
X-1166286Y-108991400D01*
X-1288171Y-108869302D01*
X-1605466Y-108737550D01*
X-1949027Y-108737250D01*
X-2266551Y-108868449D01*
X-2509698Y-109111171D01*
X-2641450Y-109428466D01*
X-2641750Y-109772027D01*
X-2510551Y-110089551D01*
X-2427815Y-110172431D01*
X-2509698Y-110254171D01*
X-2641450Y-110571466D01*
X-2641750Y-110915027D01*
X-2510551Y-111232551D01*
X-2267829Y-111475698D01*
X-1950534Y-111607450D01*
X-1606973Y-111607750D01*
X-1289449Y-111476551D01*
X-1166283Y-111353600D01*
X3683000Y-111353600D01*
X3916284Y-111307197D01*
X4114052Y-111175052D01*
X6778730Y-108510374D01*
X6415918Y-109384121D01*
X6414883Y-110570673D01*
X6868000Y-111667300D01*
X7706287Y-112507051D01*
X8802121Y-112962082D01*
X9988673Y-112963117D01*
X11085300Y-112510000D01*
X11925051Y-111671713D01*
X12380082Y-110575879D01*
X12381117Y-109389327D01*
X11928000Y-108292700D01*
X11089713Y-107452949D01*
X10696326Y-107289600D01*
X12573000Y-107289600D01*
X12806284Y-107243197D01*
X13004052Y-107111052D01*
X13206505Y-106908600D01*
X13462000Y-106908600D01*
X13695284Y-106862197D01*
X13893052Y-106730052D01*
X13968505Y-106654599D01*
X14141027Y-106654750D01*
X14458551Y-106523551D01*
X14574662Y-106407642D01*
X20594782Y-106407642D01*
X20785850Y-106896920D01*
X21149612Y-107275836D01*
X21630689Y-107486703D01*
X21684558Y-107497416D01*
X21894800Y-107397287D01*
X21894800Y-106197400D01*
X20694888Y-106197400D01*
X20594782Y-106407642D01*
X14574662Y-106407642D01*
X14701698Y-106280829D01*
X14833450Y-105963534D01*
X14833750Y-105619973D01*
X14702551Y-105302449D01*
X14459829Y-105059302D01*
X14200211Y-104951499D01*
X16942110Y-102209600D01*
X24930693Y-102209600D01*
X24811074Y-102329219D01*
X24460200Y-102259426D01*
X23945032Y-102361899D01*
X23508293Y-102653719D01*
X23216473Y-103090458D01*
X23190200Y-103222542D01*
X23163927Y-103090458D01*
X22872107Y-102653719D01*
X22435368Y-102361899D01*
X21920200Y-102259426D01*
X21405032Y-102361899D01*
X20968293Y-102653719D01*
X20676473Y-103090458D01*
X20574000Y-103605626D01*
X20574000Y-103658374D01*
X20676473Y-104173542D01*
X20968293Y-104610281D01*
X21405032Y-104902101D01*
X21489940Y-104918990D01*
X21149612Y-105068164D01*
X20785850Y-105447080D01*
X20594782Y-105936358D01*
X20694888Y-106146600D01*
X21894800Y-106146600D01*
X21894800Y-106126600D01*
X21945600Y-106126600D01*
X21945600Y-106146600D01*
X21965600Y-106146600D01*
X21965600Y-106197400D01*
X21945600Y-106197400D01*
X21945600Y-107397287D01*
X22155842Y-107497416D01*
X22209711Y-107486703D01*
X22690788Y-107275836D01*
X23054550Y-106896920D01*
X23185995Y-106560321D01*
X23216473Y-106713542D01*
X23508293Y-107150281D01*
X23945032Y-107442101D01*
X24460200Y-107544574D01*
X24811074Y-107474781D01*
X25508244Y-108171951D01*
X25508246Y-108171954D01*
X25726616Y-108317863D01*
X25984200Y-108369100D01*
X28193995Y-108369100D01*
X28194000Y-108369101D01*
X28451584Y-108317863D01*
X28669954Y-108171954D01*
X29996807Y-106845100D01*
X50521192Y-106845100D01*
X50832044Y-107155951D01*
X50832046Y-107155954D01*
X51050416Y-107301863D01*
X51308000Y-107353100D01*
X52029675Y-107353100D01*
X52088171Y-107411698D01*
X52405466Y-107543450D01*
X52749027Y-107543750D01*
X53066551Y-107412551D01*
X53309698Y-107169829D01*
X53441450Y-106852534D01*
X53441750Y-106508973D01*
X53310551Y-106191449D01*
X53067829Y-105948302D01*
X52841764Y-105854432D01*
X53066551Y-105761551D01*
X53309698Y-105518829D01*
X53441450Y-105201534D01*
X53441750Y-104857973D01*
X53310551Y-104540449D01*
X53067829Y-104297302D01*
X52750534Y-104165550D01*
X52406973Y-104165250D01*
X52089449Y-104296449D01*
X52029894Y-104355900D01*
X48572157Y-104355900D01*
X48796486Y-104020168D01*
X48898959Y-103505000D01*
X48796486Y-102989832D01*
X48504666Y-102553093D01*
X48067927Y-102261273D01*
X47935843Y-102235000D01*
X48067927Y-102208727D01*
X48504666Y-101916907D01*
X48796486Y-101480168D01*
X48898959Y-100965000D01*
X48796486Y-100449832D01*
X48504666Y-100013093D01*
X48067927Y-99721273D01*
X47935843Y-99695000D01*
X48067927Y-99668727D01*
X48504666Y-99376907D01*
X48796486Y-98940168D01*
X48898959Y-98425000D01*
X48796486Y-97909832D01*
X48504666Y-97473093D01*
X48067927Y-97181273D01*
X47935843Y-97155000D01*
X48067927Y-97128727D01*
X48504666Y-96836907D01*
X48796486Y-96400168D01*
X48898959Y-95885000D01*
X48796486Y-95369832D01*
X48504666Y-94933093D01*
X48067927Y-94641273D01*
X47935843Y-94615000D01*
X48067927Y-94588727D01*
X48504666Y-94296907D01*
X48796486Y-93860168D01*
X48898959Y-93345000D01*
X48796486Y-92829832D01*
X48504666Y-92393093D01*
X48067927Y-92101273D01*
X47935843Y-92075000D01*
X48067927Y-92048727D01*
X48504666Y-91756907D01*
X48796486Y-91320168D01*
X48898959Y-90805000D01*
X48796486Y-90289832D01*
X48504666Y-89853093D01*
X48067927Y-89561273D01*
X47935843Y-89535000D01*
X48067927Y-89508727D01*
X48504666Y-89216907D01*
X48796486Y-88780168D01*
X48898959Y-88265000D01*
X48796486Y-87749832D01*
X48504666Y-87313093D01*
X48156797Y-87080654D01*
X48387000Y-87080654D01*
X48565841Y-87047003D01*
X48730095Y-86941308D01*
X48840287Y-86780037D01*
X48879054Y-86588600D01*
X48879054Y-84861400D01*
X48845599Y-84683600D01*
X51943000Y-84683600D01*
X52224885Y-84627530D01*
X52463855Y-84467855D01*
X54368855Y-82562855D01*
X54528530Y-82323885D01*
X54560400Y-82163663D01*
X54560400Y-114245081D01*
X54399406Y-115054452D01*
X53972045Y-115694042D01*
X53332452Y-116121406D01*
X52523081Y-116282400D01*
X-5787081Y-116282400D01*
X-6596452Y-116121406D01*
X-7236042Y-115694045D01*
X-7663406Y-115054452D01*
X-7824400Y-114245081D01*
X-7824400Y-113505850D01*
X-7658800Y-113505850D01*
X-7658800Y-114230795D01*
X-7585329Y-114408171D01*
X-7449571Y-114543928D01*
X-7272195Y-114617400D01*
X-6572250Y-114617400D01*
X-6451600Y-114496750D01*
X-6451600Y-113385200D01*
X-6400800Y-113385200D01*
X-6400800Y-114496750D01*
X-6280150Y-114617400D01*
X-5580205Y-114617400D01*
X-5402829Y-114543928D01*
X-5329928Y-114471027D01*
X10058250Y-114471027D01*
X10189449Y-114788551D01*
X10432171Y-115031698D01*
X10749466Y-115163450D01*
X11093027Y-115163750D01*
X11410551Y-115032551D01*
X11653698Y-114789829D01*
X11785450Y-114472534D01*
X11785602Y-114298502D01*
X13079505Y-113004599D01*
X13252027Y-113004750D01*
X13569551Y-112873551D01*
X13812698Y-112630829D01*
X13944450Y-112313534D01*
X13944750Y-111969973D01*
X13857991Y-111760000D01*
X15840766Y-111760000D01*
X16067803Y-112901392D01*
X16714349Y-113869017D01*
X17681974Y-114515563D01*
X18823366Y-114742600D01*
X27912634Y-114742600D01*
X29054026Y-114515563D01*
X30021651Y-113869017D01*
X30668197Y-112901392D01*
X30895234Y-111760000D01*
X30668197Y-110618608D01*
X30636168Y-110570673D01*
X34354883Y-110570673D01*
X34808000Y-111667300D01*
X35646287Y-112507051D01*
X36742121Y-112962082D01*
X37928673Y-112963117D01*
X39025300Y-112510000D01*
X39865051Y-111671713D01*
X40320082Y-110575879D01*
X40321117Y-109389327D01*
X39868000Y-108292700D01*
X39029713Y-107452949D01*
X37933879Y-106997918D01*
X36747327Y-106996883D01*
X35650700Y-107450000D01*
X34810949Y-108288287D01*
X34355918Y-109384121D01*
X34354883Y-110570673D01*
X30636168Y-110570673D01*
X30021651Y-109650983D01*
X29054026Y-109004437D01*
X27912634Y-108777400D01*
X18823366Y-108777400D01*
X17681974Y-109004437D01*
X16714349Y-109650983D01*
X16067803Y-110618608D01*
X15840766Y-111760000D01*
X13857991Y-111760000D01*
X13813551Y-111652449D01*
X13570829Y-111409302D01*
X13253534Y-111277550D01*
X12909973Y-111277250D01*
X12592449Y-111408449D01*
X12349302Y-111651171D01*
X12217550Y-111968466D01*
X12217398Y-112142498D01*
X10923495Y-113436401D01*
X10750973Y-113436250D01*
X10433449Y-113567449D01*
X10190302Y-113810171D01*
X10058550Y-114127466D01*
X10058250Y-114471027D01*
X-5329928Y-114471027D01*
X-5267071Y-114408171D01*
X-5193600Y-114230795D01*
X-5193600Y-113505850D01*
X-5314250Y-113385200D01*
X-6400800Y-113385200D01*
X-6451600Y-113385200D01*
X-7538150Y-113385200D01*
X-7658800Y-113505850D01*
X-7824400Y-113505850D01*
X-7824400Y-112488805D01*
X-7658800Y-112488805D01*
X-7658800Y-113213750D01*
X-7538150Y-113334400D01*
X-6451600Y-113334400D01*
X-6451600Y-112222850D01*
X-6400800Y-112222850D01*
X-6400800Y-113334400D01*
X-5314250Y-113334400D01*
X-5193600Y-113213750D01*
X-5193600Y-112805850D01*
X-4883800Y-112805850D01*
X-4883800Y-113380795D01*
X-4810329Y-113558171D01*
X-4674571Y-113693928D01*
X-4497195Y-113767400D01*
X-3872250Y-113767400D01*
X-3751600Y-113646750D01*
X-3751600Y-112685200D01*
X-3700800Y-112685200D01*
X-3700800Y-113646750D01*
X-3580150Y-113767400D01*
X-2955205Y-113767400D01*
X-2777829Y-113693928D01*
X-2642071Y-113558171D01*
X-2568600Y-113380795D01*
X-2568600Y-112805850D01*
X-2689250Y-112685200D01*
X-3700800Y-112685200D01*
X-3751600Y-112685200D01*
X-4763150Y-112685200D01*
X-4883800Y-112805850D01*
X-5193600Y-112805850D01*
X-5193600Y-112488805D01*
X-5267071Y-112311429D01*
X-5402829Y-112175672D01*
X-5580205Y-112102200D01*
X-6280150Y-112102200D01*
X-6400800Y-112222850D01*
X-6451600Y-112222850D01*
X-6572250Y-112102200D01*
X-7272195Y-112102200D01*
X-7449571Y-112175672D01*
X-7585329Y-112311429D01*
X-7658800Y-112488805D01*
X-7824400Y-112488805D01*
X-7824400Y-111938805D01*
X-4883800Y-111938805D01*
X-4883800Y-112513750D01*
X-4763150Y-112634400D01*
X-3751600Y-112634400D01*
X-3751600Y-111672850D01*
X-3700800Y-111672850D01*
X-3700800Y-112634400D01*
X-2689250Y-112634400D01*
X-2568600Y-112513750D01*
X-2568600Y-111938805D01*
X-2642071Y-111761429D01*
X-2777829Y-111625672D01*
X-2955205Y-111552200D01*
X-3580150Y-111552200D01*
X-3700800Y-111672850D01*
X-3751600Y-111672850D01*
X-3872250Y-111552200D01*
X-4497195Y-111552200D01*
X-4674571Y-111625672D01*
X-4810329Y-111761429D01*
X-4883800Y-111938805D01*
X-7824400Y-111938805D01*
X-7824400Y-107105850D01*
X-7658800Y-107105850D01*
X-7658800Y-107830795D01*
X-7585329Y-108008171D01*
X-7449571Y-108143928D01*
X-7272195Y-108217400D01*
X-6572250Y-108217400D01*
X-6451600Y-108096750D01*
X-6451600Y-106985200D01*
X-6400800Y-106985200D01*
X-6400800Y-108096750D01*
X-6280150Y-108217400D01*
X-5580205Y-108217400D01*
X-5402829Y-108143928D01*
X-5267071Y-108008171D01*
X-5193600Y-107830795D01*
X-5193600Y-107805850D01*
X-4883800Y-107805850D01*
X-4883800Y-108380795D01*
X-4810329Y-108558171D01*
X-4674571Y-108693928D01*
X-4497195Y-108767400D01*
X-3872250Y-108767400D01*
X-3751600Y-108646750D01*
X-3751600Y-107685200D01*
X-3700800Y-107685200D01*
X-3700800Y-108646750D01*
X-3580150Y-108767400D01*
X-2955205Y-108767400D01*
X-2777829Y-108693928D01*
X-2642071Y-108558171D01*
X-2568600Y-108380795D01*
X-2568600Y-107805850D01*
X-2689250Y-107685200D01*
X-3700800Y-107685200D01*
X-3751600Y-107685200D01*
X-4763150Y-107685200D01*
X-4883800Y-107805850D01*
X-5193600Y-107805850D01*
X-5193600Y-107105850D01*
X-5314250Y-106985200D01*
X-6400800Y-106985200D01*
X-6451600Y-106985200D01*
X-7538150Y-106985200D01*
X-7658800Y-107105850D01*
X-7824400Y-107105850D01*
X-7824400Y-106938805D01*
X-4883800Y-106938805D01*
X-4883800Y-107513750D01*
X-4763150Y-107634400D01*
X-3751600Y-107634400D01*
X-3751600Y-106672850D01*
X-3700800Y-106672850D01*
X-3700800Y-107634400D01*
X-2689250Y-107634400D01*
X-2568600Y-107513750D01*
X-2568600Y-106938805D01*
X-2642071Y-106761429D01*
X-2777829Y-106625672D01*
X-2955205Y-106552200D01*
X-3580150Y-106552200D01*
X-3700800Y-106672850D01*
X-3751600Y-106672850D01*
X-3872250Y-106552200D01*
X-4497195Y-106552200D01*
X-4674571Y-106625672D01*
X-4810329Y-106761429D01*
X-4883800Y-106938805D01*
X-7824400Y-106938805D01*
X-7824400Y-106088805D01*
X-7658800Y-106088805D01*
X-7658800Y-106813750D01*
X-7538150Y-106934400D01*
X-6451600Y-106934400D01*
X-6451600Y-105822850D01*
X-6400800Y-105822850D01*
X-6400800Y-106934400D01*
X-5314250Y-106934400D01*
X-5193600Y-106813750D01*
X-5193600Y-106088805D01*
X-5267071Y-105911429D01*
X-5402829Y-105775672D01*
X-5580205Y-105702200D01*
X-6280150Y-105702200D01*
X-6400800Y-105822850D01*
X-6451600Y-105822850D01*
X-6572250Y-105702200D01*
X-7272195Y-105702200D01*
X-7449571Y-105775672D01*
X-7585329Y-105911429D01*
X-7658800Y-106088805D01*
X-7824400Y-106088805D01*
X-7824400Y-90976027D01*
X-7086750Y-90976027D01*
X-6955551Y-91293551D01*
X-6712829Y-91536698D01*
X-6395534Y-91668450D01*
X-6051973Y-91668750D01*
X-5734449Y-91537551D01*
X-5674894Y-91478100D01*
X-2397054Y-91478100D01*
X-2397054Y-91668600D01*
X-2363403Y-91847441D01*
X-2257708Y-92011695D01*
X-2096437Y-92121887D01*
X-1905000Y-92160654D01*
X-1674797Y-92160654D01*
X-2022666Y-92393093D01*
X-2208959Y-92671900D01*
X-3744320Y-92671900D01*
X-3828171Y-92587902D01*
X-4145466Y-92456150D01*
X-4489027Y-92455850D01*
X-4806551Y-92587049D01*
X-5049698Y-92829771D01*
X-5181450Y-93147066D01*
X-5181750Y-93490627D01*
X-5050551Y-93808151D01*
X-4807829Y-94051298D01*
X-4490534Y-94183050D01*
X-4146973Y-94183350D01*
X-3829449Y-94052151D01*
X-3795338Y-94018100D01*
X-2208959Y-94018100D01*
X-2022666Y-94296907D01*
X-1585927Y-94588727D01*
X-1453843Y-94615000D01*
X-1585927Y-94641273D01*
X-2022666Y-94933093D01*
X-2208959Y-95211900D01*
X-4658675Y-95211900D01*
X-4717171Y-95153302D01*
X-5034466Y-95021550D01*
X-5378027Y-95021250D01*
X-5695551Y-95152449D01*
X-5938698Y-95395171D01*
X-6070450Y-95712466D01*
X-6070750Y-96056027D01*
X-5939551Y-96373551D01*
X-5696829Y-96616698D01*
X-5379534Y-96748450D01*
X-5035973Y-96748750D01*
X-4718449Y-96617551D01*
X-4658894Y-96558100D01*
X-2208959Y-96558100D01*
X-2022666Y-96836907D01*
X-1585927Y-97128727D01*
X-1453843Y-97155000D01*
X-1585927Y-97181273D01*
X-2022666Y-97473093D01*
X-2208959Y-97751900D01*
X-3007675Y-97751900D01*
X-3066171Y-97693302D01*
X-3383466Y-97561550D01*
X-3727027Y-97561250D01*
X-4044551Y-97692449D01*
X-4287698Y-97935171D01*
X-4419450Y-98252466D01*
X-4419750Y-98596027D01*
X-4288551Y-98913551D01*
X-4045829Y-99156698D01*
X-3728534Y-99288450D01*
X-3384973Y-99288750D01*
X-3067449Y-99157551D01*
X-3007894Y-99098100D01*
X-2208959Y-99098100D01*
X-2022666Y-99376907D01*
X-1585927Y-99668727D01*
X-1453843Y-99695000D01*
X-1585927Y-99721273D01*
X-2022666Y-100013093D01*
X-2314486Y-100449832D01*
X-2416959Y-100965000D01*
X-2314486Y-101480168D01*
X-2022666Y-101916907D01*
X-1585927Y-102208727D01*
X-1453843Y-102235000D01*
X-1585927Y-102261273D01*
X-2022666Y-102553093D01*
X-2314486Y-102989832D01*
X-2416959Y-103505000D01*
X-2314486Y-104020168D01*
X-2022666Y-104456907D01*
X-1585927Y-104748727D01*
X-1070759Y-104851200D01*
X-707241Y-104851200D01*
X-192073Y-104748727D01*
X244666Y-104456907D01*
X536486Y-104020168D01*
X638959Y-103505000D01*
X536486Y-102989832D01*
X244666Y-102553093D01*
X-192073Y-102261273D01*
X-324157Y-102235000D01*
X-192073Y-102208727D01*
X244666Y-101916907D01*
X536486Y-101480168D01*
X630201Y-101009027D01*
X5740250Y-101009027D01*
X5871449Y-101326551D01*
X6114171Y-101569698D01*
X6431466Y-101701450D01*
X6775027Y-101701750D01*
X7092551Y-101570551D01*
X7335698Y-101327829D01*
X7467450Y-101010534D01*
X7467602Y-100836502D01*
X8253505Y-100050600D01*
X8659286Y-100050600D01*
X8781171Y-100172698D01*
X9098466Y-100304450D01*
X9442027Y-100304750D01*
X9759551Y-100173551D01*
X10002698Y-99930829D01*
X10134450Y-99613534D01*
X10134750Y-99269973D01*
X10003551Y-98952449D01*
X9760829Y-98709302D01*
X9443534Y-98577550D01*
X9099973Y-98577250D01*
X8782449Y-98708449D01*
X8659283Y-98831400D01*
X8001000Y-98831400D01*
X7767716Y-98877803D01*
X7569947Y-99009948D01*
X6605495Y-99974401D01*
X6432973Y-99974250D01*
X6115449Y-100105449D01*
X5872302Y-100348171D01*
X5740550Y-100665466D01*
X5740250Y-101009027D01*
X630201Y-101009027D01*
X638959Y-100965000D01*
X536486Y-100449832D01*
X244666Y-100013093D01*
X-192073Y-99721273D01*
X-324157Y-99695000D01*
X-192073Y-99668727D01*
X244666Y-99376907D01*
X536486Y-98940168D01*
X638959Y-98425000D01*
X536486Y-97909832D01*
X244666Y-97473093D01*
X-192073Y-97181273D01*
X-324157Y-97155000D01*
X-192073Y-97128727D01*
X244666Y-96836907D01*
X536486Y-96400168D01*
X638959Y-95885000D01*
X536486Y-95369832D01*
X244666Y-94933093D01*
X-192073Y-94641273D01*
X-324157Y-94615000D01*
X-192073Y-94588727D01*
X244666Y-94296907D01*
X536486Y-93860168D01*
X638959Y-93345000D01*
X536486Y-92829832D01*
X244666Y-92393093D01*
X-103203Y-92160654D01*
X127000Y-92160654D01*
X305841Y-92127003D01*
X470095Y-92021308D01*
X490101Y-91992027D01*
X7391250Y-91992027D01*
X7522449Y-92309551D01*
X7645400Y-92432717D01*
X7645400Y-94488000D01*
X7691803Y-94721284D01*
X7823948Y-94919052D01*
X8204947Y-95300052D01*
X8368068Y-95409046D01*
X8402716Y-95432197D01*
X8636000Y-95478600D01*
X10183286Y-95478600D01*
X10305171Y-95600698D01*
X10622466Y-95732450D01*
X10966027Y-95732750D01*
X11283551Y-95601551D01*
X11526698Y-95358829D01*
X11658450Y-95041534D01*
X11658750Y-94697973D01*
X11527551Y-94380449D01*
X11284829Y-94137302D01*
X10967534Y-94005550D01*
X10623973Y-94005250D01*
X10306449Y-94136449D01*
X10183283Y-94259400D01*
X8888505Y-94259400D01*
X8864600Y-94235496D01*
X8864600Y-92432714D01*
X8986698Y-92310829D01*
X9118450Y-91993534D01*
X9118750Y-91649973D01*
X8987551Y-91332449D01*
X8744829Y-91089302D01*
X8427534Y-90957550D01*
X8083973Y-90957250D01*
X7766449Y-91088449D01*
X7523302Y-91331171D01*
X7391550Y-91648466D01*
X7391250Y-91992027D01*
X490101Y-91992027D01*
X580287Y-91860037D01*
X619054Y-91668600D01*
X619054Y-90341027D01*
X1676250Y-90341027D01*
X1807449Y-90658551D01*
X2050171Y-90901698D01*
X2367466Y-91033450D01*
X2711027Y-91033750D01*
X3028551Y-90902551D01*
X3151717Y-90779600D01*
X10922000Y-90779600D01*
X11155284Y-90733197D01*
X11353052Y-90601052D01*
X11428505Y-90525599D01*
X11601027Y-90525750D01*
X11918551Y-90394551D01*
X12161698Y-90151829D01*
X12293450Y-89834534D01*
X12293750Y-89490973D01*
X12162551Y-89173449D01*
X11919829Y-88930302D01*
X11602534Y-88798550D01*
X11258973Y-88798250D01*
X10941449Y-88929449D01*
X10698302Y-89172171D01*
X10566550Y-89489466D01*
X10566488Y-89560400D01*
X3151714Y-89560400D01*
X3029829Y-89438302D01*
X2712534Y-89306550D01*
X2368973Y-89306250D01*
X2051449Y-89437449D01*
X1808302Y-89680171D01*
X1676550Y-89997466D01*
X1676250Y-90341027D01*
X619054Y-90341027D01*
X619054Y-89941400D01*
X585403Y-89762559D01*
X479708Y-89598305D01*
X318437Y-89488113D01*
X127000Y-89449346D01*
X-1905000Y-89449346D01*
X-2083841Y-89482997D01*
X-2248095Y-89588692D01*
X-2358287Y-89749963D01*
X-2397054Y-89941400D01*
X-2397054Y-90131900D01*
X-5674675Y-90131900D01*
X-5733171Y-90073302D01*
X-6050466Y-89941550D01*
X-6394027Y-89941250D01*
X-6711551Y-90072449D01*
X-6954698Y-90315171D01*
X-7086450Y-90632466D01*
X-7086750Y-90976027D01*
X-7824400Y-90976027D01*
X-7824400Y-85725000D01*
X-2416959Y-85725000D01*
X-2314486Y-86240168D01*
X-2022666Y-86676907D01*
X-1585927Y-86968727D01*
X-1070759Y-87071200D01*
X-707241Y-87071200D01*
X-192073Y-86968727D01*
X244666Y-86676907D01*
X346100Y-86525100D01*
X1143000Y-86525100D01*
X1449185Y-86464196D01*
X1708756Y-86290756D01*
X2089756Y-85909756D01*
X2263196Y-85650185D01*
X2324100Y-85344000D01*
X2324100Y-83643412D01*
X2744412Y-83223100D01*
X32059902Y-83223100D01*
X32212466Y-83286450D01*
X32556027Y-83286750D01*
X32873551Y-83155551D01*
X33116698Y-82912829D01*
X33248450Y-82595534D01*
X33248750Y-82251973D01*
X33117551Y-81934449D01*
X32874829Y-81691302D01*
X32557534Y-81559550D01*
X32213973Y-81559250D01*
X32059929Y-81622900D01*
X31907708Y-81622900D01*
X31978450Y-81452534D01*
X31978734Y-81127600D01*
X32916286Y-81127600D01*
X33038171Y-81249698D01*
X33355466Y-81381450D01*
X33699027Y-81381750D01*
X34016551Y-81250551D01*
X34259698Y-81007829D01*
X34391450Y-80690534D01*
X34391734Y-80365600D01*
X35964286Y-80365600D01*
X36086171Y-80487698D01*
X36403466Y-80619450D01*
X36747027Y-80619750D01*
X37064551Y-80488551D01*
X37307698Y-80245829D01*
X37439450Y-79928534D01*
X37439512Y-79857689D01*
X37509027Y-79857750D01*
X37826551Y-79726551D01*
X38069698Y-79483829D01*
X38201450Y-79166534D01*
X38201750Y-78822973D01*
X38156971Y-78714600D01*
X39520286Y-78714600D01*
X39642171Y-78836698D01*
X39959466Y-78968450D01*
X40303027Y-78968750D01*
X40620551Y-78837551D01*
X40863698Y-78594829D01*
X40995450Y-78277534D01*
X40995750Y-77933973D01*
X40864551Y-77616449D01*
X40621829Y-77373302D01*
X40304534Y-77241550D01*
X39960973Y-77241250D01*
X39643449Y-77372449D01*
X39520283Y-77495400D01*
X6453714Y-77495400D01*
X6331829Y-77373302D01*
X6014534Y-77241550D01*
X5670973Y-77241250D01*
X5353449Y-77372449D01*
X5110302Y-77615171D01*
X4978550Y-77932466D01*
X4978250Y-78276027D01*
X5109449Y-78593551D01*
X5352171Y-78836698D01*
X5669466Y-78968450D01*
X6013027Y-78968750D01*
X6330551Y-78837551D01*
X6453717Y-78714600D01*
X11245925Y-78714600D01*
X11201550Y-78821466D01*
X11201266Y-79146400D01*
X5564714Y-79146400D01*
X5442829Y-79024302D01*
X5125534Y-78892550D01*
X4781973Y-78892250D01*
X4464449Y-79023449D01*
X4221302Y-79266171D01*
X4089550Y-79583466D01*
X4089488Y-79654311D01*
X4019973Y-79654250D01*
X3702449Y-79785449D01*
X3459302Y-80028171D01*
X3327550Y-80345466D01*
X3327488Y-80416422D01*
X3130973Y-80416250D01*
X2813449Y-80547449D01*
X2570302Y-80790171D01*
X2438550Y-81107466D01*
X2438250Y-81451027D01*
X2509267Y-81622900D01*
X2413000Y-81622900D01*
X2106815Y-81683804D01*
X1847244Y-81857244D01*
X958244Y-82746244D01*
X784804Y-83005815D01*
X723900Y-83312000D01*
X723900Y-84924900D01*
X346100Y-84924900D01*
X244666Y-84773093D01*
X-192073Y-84481273D01*
X-344296Y-84450994D01*
X-197965Y-84419006D01*
X233268Y-84118946D01*
X516847Y-83676701D01*
X588816Y-83420642D01*
X488687Y-83210400D01*
X-863600Y-83210400D01*
X-863600Y-83230400D01*
X-914400Y-83230400D01*
X-914400Y-83210400D01*
X-2266687Y-83210400D01*
X-2366816Y-83420642D01*
X-2294847Y-83676701D01*
X-2011268Y-84118946D01*
X-1580035Y-84419006D01*
X-1433704Y-84450994D01*
X-1585927Y-84481273D01*
X-2022666Y-84773093D01*
X-2314486Y-85209832D01*
X-2416959Y-85725000D01*
X-7824400Y-85725000D01*
X-7824400Y-80880642D01*
X-2366816Y-80880642D01*
X-2294847Y-81136701D01*
X-2011268Y-81578946D01*
X-1580035Y-81879006D01*
X-1415379Y-81915000D01*
X-1580035Y-81950994D01*
X-2011268Y-82251054D01*
X-2294847Y-82693299D01*
X-2366816Y-82949358D01*
X-2266687Y-83159600D01*
X-914400Y-83159600D01*
X-914400Y-80670400D01*
X-863600Y-80670400D01*
X-863600Y-83159600D01*
X488687Y-83159600D01*
X588816Y-82949358D01*
X516847Y-82693299D01*
X233268Y-82251054D01*
X-197965Y-81950994D01*
X-362621Y-81915000D01*
X-197965Y-81879006D01*
X233268Y-81578946D01*
X516847Y-81136701D01*
X588816Y-80880642D01*
X488687Y-80670400D01*
X-863600Y-80670400D01*
X-914400Y-80670400D01*
X-2266687Y-80670400D01*
X-2366816Y-80880642D01*
X-7824400Y-80880642D01*
X-7824400Y-65405000D01*
X-838200Y-65405000D01*
X-801273Y-65398052D01*
X-767357Y-65376228D01*
X-744605Y-65342928D01*
X-736600Y-65303400D01*
X-736600Y-51898125D01*
X-685052Y-51975272D01*
X-685052Y-51975272D01*
G37*
X-685052Y-51975272D02*
X-177053Y-52483272D01*
X-73296Y-52552600D01*
X20716Y-52615417D01*
X254000Y-52661820D01*
X18481449Y-52661820D01*
X18369102Y-52773971D01*
X18237350Y-53091266D01*
X18237050Y-53434827D01*
X18368249Y-53752351D01*
X18610971Y-53995498D01*
X18622776Y-54000400D01*
X18159504Y-54000400D01*
X17754599Y-53595495D01*
X17754750Y-53422973D01*
X17623551Y-53105449D01*
X17380829Y-52862302D01*
X17063534Y-52730550D01*
X16719973Y-52730250D01*
X16402449Y-52861449D01*
X16159302Y-53104171D01*
X16027550Y-53421466D01*
X16027250Y-53765027D01*
X16158449Y-54082551D01*
X16401171Y-54325698D01*
X16718466Y-54457450D01*
X16892498Y-54457602D01*
X17475948Y-55041052D01*
X17673716Y-55173197D01*
X17907000Y-55219600D01*
X20770925Y-55219600D01*
X20726550Y-55326466D01*
X20726250Y-55670027D01*
X20857449Y-55987551D01*
X21100171Y-56230698D01*
X21417466Y-56362450D01*
X21591497Y-56362602D01*
X21793948Y-56565053D01*
X21912502Y-56644267D01*
X21991716Y-56697197D01*
X22225000Y-56743600D01*
X24633659Y-56743600D01*
X24559831Y-56921400D01*
X23876000Y-56921400D01*
X23642716Y-56967803D01*
X23444947Y-57099948D01*
X23115496Y-57429400D01*
X17756714Y-57429400D01*
X17634829Y-57307302D01*
X17317534Y-57175550D01*
X16973973Y-57175250D01*
X16656449Y-57306449D01*
X16413302Y-57549171D01*
X16281550Y-57866466D01*
X16281250Y-58210027D01*
X16412449Y-58527551D01*
X16655171Y-58770698D01*
X16972466Y-58902450D01*
X17316027Y-58902750D01*
X17633551Y-58771551D01*
X17756717Y-58648600D01*
X23368000Y-58648600D01*
X23601284Y-58602197D01*
X23774341Y-58486563D01*
X23774250Y-58591027D01*
X23905449Y-58908551D01*
X24148171Y-59151698D01*
X24465466Y-59283450D01*
X24633661Y-59283597D01*
X24536550Y-59517466D01*
X24536266Y-59842400D01*
X13007663Y-59842400D01*
X12852400Y-59687138D01*
X12852400Y-58599869D01*
X12999898Y-58452629D01*
X13131650Y-58135334D01*
X13131950Y-57791773D01*
X13000751Y-57474249D01*
X12758029Y-57231102D01*
X12440734Y-57099350D01*
X12097173Y-57099050D01*
X11779649Y-57230249D01*
X11536502Y-57472971D01*
X11404750Y-57790266D01*
X11404450Y-58133827D01*
X11535649Y-58451351D01*
X11734800Y-58650851D01*
X11734800Y-59918600D01*
X11777336Y-60132444D01*
X11793513Y-60156654D01*
X11898469Y-60313731D01*
X12262259Y-60677522D01*
X12263803Y-60685284D01*
X12294617Y-60731400D01*
X3151714Y-60731400D01*
X3029829Y-60609302D01*
X2712534Y-60477550D01*
X2368973Y-60477250D01*
X2051449Y-60608449D01*
X1808302Y-60851171D01*
X1676550Y-61168466D01*
X1676250Y-61512027D01*
X1807449Y-61829551D01*
X2050171Y-62072698D01*
X2367466Y-62204450D01*
X2711027Y-62204750D01*
X3028551Y-62073551D01*
X3151717Y-61950600D01*
X18061267Y-61950600D01*
X18257916Y-62081997D01*
X18491200Y-62128400D01*
X18870086Y-62128400D01*
X18991971Y-62250498D01*
X19309266Y-62382250D01*
X19652827Y-62382550D01*
X19970351Y-62251351D01*
X20213498Y-62008629D01*
X20345250Y-61691334D01*
X20345550Y-61347773D01*
X20227305Y-61061600D01*
X25469925Y-61061600D01*
X25425550Y-61168466D01*
X25425250Y-61512027D01*
X25556449Y-61829551D01*
X25651931Y-61925200D01*
X24487714Y-61925200D01*
X24365829Y-61803102D01*
X24048534Y-61671350D01*
X23704973Y-61671050D01*
X23387449Y-61802249D01*
X23181242Y-62008096D01*
X23128756Y-62018536D01*
X23033781Y-62081997D01*
X22947469Y-62139669D01*
X22831738Y-62255400D01*
X22326712Y-62255400D01*
X22326750Y-62211373D01*
X22195551Y-61893849D01*
X21952829Y-61650702D01*
X21635534Y-61518950D01*
X21291973Y-61518650D01*
X20974449Y-61649849D01*
X20731302Y-61892571D01*
X20599550Y-62209866D01*
X20599250Y-62553427D01*
X20730449Y-62870951D01*
X20973171Y-63114098D01*
X21199072Y-63207900D01*
X14302200Y-63207900D01*
X13996015Y-63268804D01*
X13736444Y-63442244D01*
X12698788Y-64479900D01*
X12294584Y-64479900D01*
X11928000Y-63592700D01*
X11089713Y-62752949D01*
X9993879Y-62297918D01*
X8807327Y-62296883D01*
X7710700Y-62750000D01*
X6870949Y-63588287D01*
X6415918Y-64684121D01*
X6414883Y-65870673D01*
X6868000Y-66967300D01*
X7706287Y-67807051D01*
X8802121Y-68262082D01*
X9988673Y-68263117D01*
X11085300Y-67810000D01*
X11925051Y-66971713D01*
X12295282Y-66080100D01*
X13030200Y-66080100D01*
X13336385Y-66019196D01*
X13595956Y-65845756D01*
X14633612Y-64808100D01*
X32028188Y-64808100D01*
X33065844Y-65845756D01*
X33325415Y-66019196D01*
X33631600Y-66080100D01*
X34441416Y-66080100D01*
X34808000Y-66967300D01*
X35646287Y-67807051D01*
X36742121Y-68262082D01*
X37928673Y-68263117D01*
X39025300Y-67810000D01*
X39865051Y-66971713D01*
X39903400Y-66879359D01*
X39903400Y-67970311D01*
X39833973Y-67970250D01*
X39516449Y-68101449D01*
X39273302Y-68344171D01*
X39141550Y-68661466D01*
X39141250Y-69005027D01*
X39272449Y-69322551D01*
X39515171Y-69565698D01*
X39802242Y-69684900D01*
X28265098Y-69684900D01*
X28112534Y-69621550D01*
X27768973Y-69621250D01*
X27614929Y-69684900D01*
X346100Y-69684900D01*
X244666Y-69533093D01*
X-103203Y-69300654D01*
X127000Y-69300654D01*
X305841Y-69267003D01*
X470095Y-69161308D01*
X580287Y-69000037D01*
X599851Y-68903427D01*
X17805250Y-68903427D01*
X17936449Y-69220951D01*
X18179171Y-69464098D01*
X18496466Y-69595850D01*
X18840027Y-69596150D01*
X19157551Y-69464951D01*
X19331606Y-69291200D01*
X20343331Y-69291200D01*
X20490571Y-69438698D01*
X20807866Y-69570450D01*
X21151427Y-69570750D01*
X21468951Y-69439551D01*
X21712098Y-69196829D01*
X21843850Y-68879534D01*
X21844150Y-68535973D01*
X21712951Y-68218449D01*
X21470229Y-67975302D01*
X21152934Y-67843550D01*
X20809373Y-67843250D01*
X20491849Y-67974449D01*
X20292349Y-68173600D01*
X19331425Y-68173600D01*
X19158829Y-68000702D01*
X18841534Y-67868950D01*
X18497973Y-67868650D01*
X18180449Y-67999849D01*
X17937302Y-68242571D01*
X17805550Y-68559866D01*
X17805250Y-68903427D01*
X599851Y-68903427D01*
X619054Y-68808600D01*
X619054Y-67081400D01*
X585403Y-66902559D01*
X479708Y-66738305D01*
X318437Y-66628113D01*
X127000Y-66589346D01*
X-1905000Y-66589346D01*
X-2083841Y-66622997D01*
X-2248095Y-66728692D01*
X-2358287Y-66889963D01*
X-2397054Y-67081400D01*
X-2397054Y-68808600D01*
X-2363403Y-68987441D01*
X-2257708Y-69151695D01*
X-2096437Y-69261887D01*
X-1905000Y-69300654D01*
X-1674797Y-69300654D01*
X-2022666Y-69533093D01*
X-2314486Y-69969832D01*
X-2416959Y-70485000D01*
X-2314486Y-71000168D01*
X-2022666Y-71436907D01*
X-1585927Y-71728727D01*
X-1453843Y-71755000D01*
X-1585927Y-71781273D01*
X-2022666Y-72073093D01*
X-2314486Y-72509832D01*
X-2416959Y-73025000D01*
X-2314486Y-73540168D01*
X-2022666Y-73976907D01*
X-1585927Y-74268727D01*
X-1453843Y-74295000D01*
X-1585927Y-74321273D01*
X-2022666Y-74613093D01*
X-2314486Y-75049832D01*
X-2416959Y-75565000D01*
X-2314486Y-76080168D01*
X-2022666Y-76516907D01*
X-1585927Y-76808727D01*
X-1453843Y-76835000D01*
X-1585927Y-76861273D01*
X-2022666Y-77153093D01*
X-2314486Y-77589832D01*
X-2416959Y-78105000D01*
X-2314486Y-78620168D01*
X-2022666Y-79056907D01*
X-1585927Y-79348727D01*
X-1433704Y-79379006D01*
X-1580035Y-79410994D01*
X-2011268Y-79711054D01*
X-2294847Y-80153299D01*
X-2366816Y-80409358D01*
X-2266687Y-80619600D01*
X-914400Y-80619600D01*
X-914400Y-80599600D01*
X-863600Y-80599600D01*
X-863600Y-80619600D01*
X488687Y-80619600D01*
X588816Y-80409358D01*
X516847Y-80153299D01*
X233268Y-79711054D01*
X-197965Y-79410994D01*
X-344296Y-79379006D01*
X-192073Y-79348727D01*
X244666Y-79056907D01*
X536486Y-78620168D01*
X638959Y-78105000D01*
X536486Y-77589832D01*
X244666Y-77153093D01*
X-192073Y-76861273D01*
X-324157Y-76835000D01*
X-192073Y-76808727D01*
X244666Y-76516907D01*
X536486Y-76080168D01*
X638959Y-75565000D01*
X536486Y-75049832D01*
X244666Y-74613093D01*
X-192073Y-74321273D01*
X-324157Y-74295000D01*
X-192073Y-74268727D01*
X244666Y-73976907D01*
X430959Y-73698100D01*
X12659675Y-73698100D01*
X12718171Y-73756698D01*
X13035466Y-73888450D01*
X13379027Y-73888750D01*
X13696551Y-73757551D01*
X13819717Y-73634600D01*
X38504286Y-73634600D01*
X38626171Y-73756698D01*
X38943466Y-73888450D01*
X39287027Y-73888750D01*
X39604551Y-73757551D01*
X39847698Y-73514829D01*
X39979450Y-73197534D01*
X39979750Y-72853973D01*
X39848551Y-72536449D01*
X39605829Y-72293302D01*
X39288534Y-72161550D01*
X38944973Y-72161250D01*
X38627449Y-72292449D01*
X38504283Y-72415400D01*
X13819714Y-72415400D01*
X13697829Y-72293302D01*
X13380534Y-72161550D01*
X13036973Y-72161250D01*
X12719449Y-72292449D01*
X12659894Y-72351900D01*
X430959Y-72351900D01*
X244666Y-72073093D01*
X-192073Y-71781273D01*
X-324157Y-71755000D01*
X-192073Y-71728727D01*
X244666Y-71436907D01*
X346100Y-71285100D01*
X27614902Y-71285100D01*
X27767466Y-71348450D01*
X28111027Y-71348750D01*
X28265071Y-71285100D01*
X41783000Y-71285100D01*
X42089185Y-71224196D01*
X42111997Y-71208953D01*
X42398551Y-71090551D01*
X42641698Y-70847829D01*
X42773450Y-70530534D01*
X42773750Y-70186973D01*
X42642551Y-69869449D01*
X42399829Y-69626302D01*
X42082534Y-69494550D01*
X41738973Y-69494250D01*
X41421449Y-69625449D01*
X41361894Y-69684900D01*
X40207126Y-69684900D01*
X40493551Y-69566551D01*
X40736698Y-69323829D01*
X40868450Y-69006534D01*
X40868602Y-68832503D01*
X40944052Y-68757053D01*
X41076197Y-68559284D01*
X41080834Y-68535973D01*
X41122600Y-68326000D01*
X41122600Y-64236807D01*
X41177449Y-64369551D01*
X41420171Y-64612698D01*
X41737466Y-64744450D01*
X42081027Y-64744750D01*
X42235071Y-64681100D01*
X46135900Y-64681100D01*
X46237334Y-64832907D01*
X46674073Y-65124727D01*
X46826296Y-65155006D01*
X46679965Y-65186994D01*
X46248732Y-65487054D01*
X45965153Y-65929299D01*
X45893184Y-66185358D01*
X45993313Y-66395600D01*
X47345600Y-66395600D01*
X47345600Y-66375600D01*
X47396400Y-66375600D01*
X47396400Y-66395600D01*
X48748687Y-66395600D01*
X48848816Y-66185358D01*
X48776847Y-65929299D01*
X48493268Y-65487054D01*
X48062035Y-65186994D01*
X47915704Y-65155006D01*
X48067927Y-65124727D01*
X48504666Y-64832907D01*
X48796486Y-64396168D01*
X48898959Y-63881000D01*
X48796486Y-63365832D01*
X48504666Y-62929093D01*
X48067927Y-62637273D01*
X47935843Y-62611000D01*
X48067927Y-62584727D01*
X48504666Y-62292907D01*
X48796486Y-61856168D01*
X48898959Y-61341000D01*
X48796486Y-60825832D01*
X48504666Y-60389093D01*
X48156797Y-60156654D01*
X48387000Y-60156654D01*
X48565841Y-60123003D01*
X48730095Y-60017308D01*
X48840287Y-59856037D01*
X48879054Y-59664600D01*
X48879054Y-57937400D01*
X48845403Y-57758559D01*
X48739708Y-57594305D01*
X48578437Y-57484113D01*
X48387000Y-57445346D01*
X46355000Y-57445346D01*
X46176159Y-57478997D01*
X46011905Y-57584692D01*
X45901713Y-57745963D01*
X45862946Y-57937400D01*
X45862946Y-59664600D01*
X45896597Y-59843441D01*
X46002292Y-60007695D01*
X46163563Y-60117887D01*
X46355000Y-60156654D01*
X46585203Y-60156654D01*
X46237334Y-60389093D01*
X45945514Y-60825832D01*
X45843041Y-61341000D01*
X45945514Y-61856168D01*
X46237334Y-62292907D01*
X46674073Y-62584727D01*
X46806157Y-62611000D01*
X46674073Y-62637273D01*
X46237334Y-62929093D01*
X46135900Y-63080900D01*
X42235098Y-63080900D01*
X42082534Y-63017550D01*
X41738973Y-63017250D01*
X41421449Y-63148449D01*
X41178302Y-63391171D01*
X41122600Y-63525317D01*
X41122600Y-61976000D01*
X41076197Y-61742716D01*
X41048513Y-61701284D01*
X40944052Y-61544947D01*
X40563052Y-61163948D01*
X40365284Y-61031803D01*
X40132000Y-60985400D01*
X33782000Y-60985400D01*
X33548716Y-61031803D01*
X33350948Y-61163948D01*
X32259496Y-62255400D01*
X32105807Y-62255400D01*
X32238551Y-62200551D01*
X32481698Y-61957829D01*
X32613450Y-61640534D01*
X32613750Y-61296973D01*
X32482551Y-60979449D01*
X32239829Y-60736302D01*
X31922534Y-60604550D01*
X31748502Y-60604398D01*
X31443704Y-60299600D01*
X37361286Y-60299600D01*
X37483171Y-60421698D01*
X37800466Y-60553450D01*
X38144027Y-60553750D01*
X38461551Y-60422551D01*
X38704698Y-60179829D01*
X38836450Y-59862534D01*
X38836750Y-59518973D01*
X38705551Y-59201449D01*
X38462829Y-58958302D01*
X38145534Y-58826550D01*
X37801973Y-58826250D01*
X37484449Y-58957449D01*
X37361283Y-59080400D01*
X36120828Y-59080400D01*
X36291698Y-58909829D01*
X36423450Y-58592534D01*
X36423750Y-58248973D01*
X36292551Y-57931449D01*
X36049829Y-57688302D01*
X35732534Y-57556550D01*
X35558502Y-57556398D01*
X35483052Y-57480948D01*
X35471794Y-57473426D01*
X35534450Y-57322534D01*
X35534750Y-56978973D01*
X35437495Y-56743600D01*
X48642496Y-56743600D01*
X48717948Y-56819052D01*
X48915716Y-56951197D01*
X49149000Y-56997600D01*
X49172286Y-56997600D01*
X49294171Y-57119698D01*
X49611466Y-57251450D01*
X49955027Y-57251750D01*
X50272551Y-57120551D01*
X50515698Y-56877829D01*
X50647450Y-56560534D01*
X50647750Y-56216973D01*
X50516551Y-55899449D01*
X50370315Y-55752957D01*
X50515698Y-55607829D01*
X50647450Y-55290534D01*
X50647750Y-54946973D01*
X50516551Y-54629449D01*
X50273829Y-54386302D01*
X49956534Y-54254550D01*
X49661385Y-54254292D01*
X49758450Y-54020534D01*
X49758750Y-53676973D01*
X49661495Y-53441600D01*
X52071496Y-53441600D01*
X52095400Y-53465505D01*
X52095400Y-54125286D01*
X51973302Y-54247171D01*
X51841550Y-54564466D01*
X51841250Y-54908027D01*
X51972449Y-55225551D01*
X52215171Y-55468698D01*
X52532466Y-55600450D01*
X52876027Y-55600750D01*
X53111400Y-55503495D01*
X53111400Y-72440765D01*
X52928334Y-72364750D01*
X52584773Y-72364450D01*
X52267249Y-72495649D01*
X52024102Y-72738371D01*
X51892350Y-73055666D01*
X51892277Y-73139816D01*
X51664192Y-73367900D01*
X48690959Y-73367900D01*
X48504666Y-73089093D01*
X48067927Y-72797273D01*
X47935843Y-72771000D01*
X48067927Y-72744727D01*
X48504666Y-72452907D01*
X48690959Y-72174100D01*
X51394675Y-72174100D01*
X51453171Y-72232698D01*
X51770466Y-72364450D01*
X52114027Y-72364750D01*
X52431551Y-72233551D01*
X52674698Y-71990829D01*
X52806450Y-71673534D01*
X52806750Y-71329973D01*
X52675551Y-71012449D01*
X52432829Y-70769302D01*
X52115534Y-70637550D01*
X51771973Y-70637250D01*
X51454449Y-70768449D01*
X51394894Y-70827900D01*
X48690959Y-70827900D01*
X48504666Y-70549093D01*
X48067927Y-70257273D01*
X47935843Y-70231000D01*
X48067927Y-70204727D01*
X48504666Y-69912907D01*
X48796486Y-69476168D01*
X48898959Y-68961000D01*
X48796486Y-68445832D01*
X48504666Y-68009093D01*
X48067927Y-67717273D01*
X47915704Y-67686994D01*
X48062035Y-67655006D01*
X48493268Y-67354946D01*
X48776847Y-66912701D01*
X48848816Y-66656642D01*
X48748687Y-66446400D01*
X47396400Y-66446400D01*
X47396400Y-66466400D01*
X47345600Y-66466400D01*
X47345600Y-66446400D01*
X45993313Y-66446400D01*
X45893184Y-66656642D01*
X45965153Y-66912701D01*
X46248732Y-67354946D01*
X46679965Y-67655006D01*
X46826296Y-67686994D01*
X46674073Y-67717273D01*
X46237334Y-68009093D01*
X45945514Y-68445832D01*
X45843041Y-68961000D01*
X45945514Y-69476168D01*
X46237334Y-69912907D01*
X46674073Y-70204727D01*
X46806157Y-70231000D01*
X46674073Y-70257273D01*
X46237334Y-70549093D01*
X45945514Y-70985832D01*
X45843041Y-71501000D01*
X45945514Y-72016168D01*
X46237334Y-72452907D01*
X46674073Y-72744727D01*
X46806157Y-72771000D01*
X46674073Y-72797273D01*
X46237334Y-73089093D01*
X45945514Y-73525832D01*
X45843041Y-74041000D01*
X45945514Y-74556168D01*
X46237334Y-74992907D01*
X46674073Y-75284727D01*
X46806157Y-75311000D01*
X46674073Y-75337273D01*
X46237334Y-75629093D01*
X46051041Y-75907900D01*
X41569325Y-75907900D01*
X41510829Y-75849302D01*
X41193534Y-75717550D01*
X40849973Y-75717250D01*
X40532449Y-75848449D01*
X40289302Y-76091171D01*
X40157550Y-76408466D01*
X40157250Y-76752027D01*
X40288449Y-77069551D01*
X40531171Y-77312698D01*
X40848466Y-77444450D01*
X41192027Y-77444750D01*
X41509551Y-77313551D01*
X41569106Y-77254100D01*
X46051041Y-77254100D01*
X46237334Y-77532907D01*
X46674073Y-77824727D01*
X46806157Y-77851000D01*
X46674073Y-77877273D01*
X46237334Y-78169093D01*
X45945514Y-78605832D01*
X45843041Y-79121000D01*
X45945514Y-79636168D01*
X46237334Y-80072907D01*
X46674073Y-80364727D01*
X46806157Y-80391000D01*
X46674073Y-80417273D01*
X46237334Y-80709093D01*
X45945514Y-81145832D01*
X45843041Y-81661000D01*
X45945514Y-82176168D01*
X46101956Y-82410299D01*
X42378403Y-82410299D01*
X42138599Y-82170495D01*
X42138750Y-81997973D01*
X42007551Y-81680449D01*
X41764829Y-81437302D01*
X41447534Y-81305550D01*
X41103973Y-81305250D01*
X40786449Y-81436449D01*
X40543302Y-81679171D01*
X40411550Y-81996466D01*
X40411250Y-82340027D01*
X40542449Y-82657551D01*
X40785171Y-82900698D01*
X41102466Y-83032450D01*
X41276498Y-83032602D01*
X41454296Y-83210400D01*
X33020000Y-83210400D01*
X32738115Y-83266470D01*
X32499145Y-83426145D01*
X31483145Y-84442145D01*
X31323470Y-84681115D01*
X31267400Y-84963000D01*
X31267400Y-91896890D01*
X29666890Y-93497400D01*
X20036024Y-93497400D01*
X19730534Y-93370550D01*
X19386973Y-93370250D01*
X19069449Y-93501449D01*
X18826302Y-93744171D01*
X18694550Y-94061466D01*
X18694250Y-94405027D01*
X18825449Y-94722551D01*
X19068171Y-94965698D01*
X19385466Y-95097450D01*
X19729027Y-95097750D01*
X20036752Y-94970600D01*
X29972000Y-94970600D01*
X30253885Y-94914530D01*
X30492855Y-94754855D01*
X32524855Y-92722855D01*
X32615028Y-92587902D01*
X32684530Y-92483885D01*
X32740600Y-92202000D01*
X32740600Y-85268110D01*
X33325110Y-84683600D01*
X45898951Y-84683600D01*
X45862946Y-84861400D01*
X45862946Y-85051900D01*
X36362325Y-85051900D01*
X36303829Y-84993302D01*
X35986534Y-84861550D01*
X35642973Y-84861250D01*
X35325449Y-84992449D01*
X35082302Y-85235171D01*
X34950550Y-85552466D01*
X34950250Y-85896027D01*
X35081449Y-86213551D01*
X35324171Y-86456698D01*
X35641466Y-86588450D01*
X35985027Y-86588750D01*
X36302551Y-86457551D01*
X36362106Y-86398100D01*
X45862946Y-86398100D01*
X45862946Y-86588600D01*
X45896597Y-86767441D01*
X46002292Y-86931695D01*
X46163563Y-87041887D01*
X46355000Y-87080654D01*
X46585203Y-87080654D01*
X46237334Y-87313093D01*
X46051041Y-87591900D01*
X40945723Y-87591900D01*
X40864551Y-87395449D01*
X40621829Y-87152302D01*
X40304534Y-87020550D01*
X39960973Y-87020250D01*
X39643449Y-87151449D01*
X39400302Y-87394171D01*
X39268550Y-87711466D01*
X39268250Y-88055027D01*
X39399449Y-88372551D01*
X39642171Y-88615698D01*
X39959466Y-88747450D01*
X40046882Y-88747526D01*
X40255416Y-88886863D01*
X40513000Y-88938100D01*
X46051041Y-88938100D01*
X46237334Y-89216907D01*
X46674073Y-89508727D01*
X46806157Y-89535000D01*
X46674073Y-89561273D01*
X46237334Y-89853093D01*
X46051041Y-90131900D01*
X41402000Y-90131900D01*
X41144416Y-90183137D01*
X41126063Y-90195400D01*
X37082504Y-90195400D01*
X35788599Y-88901495D01*
X35788750Y-88728973D01*
X35657551Y-88411449D01*
X35414829Y-88168302D01*
X35097534Y-88036550D01*
X34753973Y-88036250D01*
X34436449Y-88167449D01*
X34193302Y-88410171D01*
X34061550Y-88727466D01*
X34061250Y-89071027D01*
X34192449Y-89388551D01*
X34435171Y-89631698D01*
X34752466Y-89763450D01*
X34926498Y-89763602D01*
X36398948Y-91236052D01*
X36550903Y-91337586D01*
X36474550Y-91521466D01*
X36474250Y-91865027D01*
X36605449Y-92182551D01*
X36848171Y-92425698D01*
X37165466Y-92557450D01*
X37509027Y-92557750D01*
X37826551Y-92426551D01*
X37949717Y-92303600D01*
X38990496Y-92303600D01*
X40462948Y-93776053D01*
X40581502Y-93855267D01*
X40660716Y-93908197D01*
X40894000Y-93954600D01*
X41634063Y-93954600D01*
X41652416Y-93966863D01*
X41910000Y-94018100D01*
X46051041Y-94018100D01*
X46237334Y-94296907D01*
X46674073Y-94588727D01*
X46806157Y-94615000D01*
X46674073Y-94641273D01*
X46237334Y-94933093D01*
X46051041Y-95211900D01*
X41910000Y-95211900D01*
X41652416Y-95263137D01*
X41634063Y-95275400D01*
X38711714Y-95275400D01*
X38589829Y-95153302D01*
X38272534Y-95021550D01*
X37928973Y-95021250D01*
X37693600Y-95118505D01*
X37693600Y-94718714D01*
X37815698Y-94596829D01*
X37947450Y-94279534D01*
X37947750Y-93935973D01*
X37816551Y-93618449D01*
X37573829Y-93375302D01*
X37256534Y-93243550D01*
X36912973Y-93243250D01*
X36595449Y-93374449D01*
X36352302Y-93617171D01*
X36220550Y-93934466D01*
X36220250Y-94278027D01*
X36351449Y-94595551D01*
X36474400Y-94718717D01*
X36474400Y-96901000D01*
X36520803Y-97134284D01*
X36652948Y-97332052D01*
X38176947Y-98856052D01*
X38374716Y-98988197D01*
X38608000Y-99034600D01*
X42523063Y-99034600D01*
X42541416Y-99046863D01*
X42799000Y-99098100D01*
X46051041Y-99098100D01*
X46237334Y-99376907D01*
X46674073Y-99668727D01*
X46806157Y-99695000D01*
X46674073Y-99721273D01*
X46237334Y-100013093D01*
X46051041Y-100291900D01*
X42672000Y-100291900D01*
X42414416Y-100343137D01*
X42396063Y-100355400D01*
X34923504Y-100355400D01*
X34137600Y-99569496D01*
X34137600Y-97385714D01*
X34259698Y-97263829D01*
X34391450Y-96946534D01*
X34391750Y-96602973D01*
X34260551Y-96285449D01*
X34017829Y-96042302D01*
X33700534Y-95910550D01*
X33356973Y-95910250D01*
X33039449Y-96041449D01*
X32796302Y-96284171D01*
X32664550Y-96601466D01*
X32664250Y-96945027D01*
X32795449Y-97262551D01*
X32918400Y-97385717D01*
X32918400Y-99822000D01*
X32964803Y-100055284D01*
X33096948Y-100253052D01*
X34215296Y-101371400D01*
X32002504Y-101371400D01*
X31470599Y-100839495D01*
X31470750Y-100666973D01*
X31339551Y-100349449D01*
X31096829Y-100106302D01*
X30779534Y-99974550D01*
X30435973Y-99974250D01*
X30118449Y-100105449D01*
X29875302Y-100348171D01*
X29743550Y-100665466D01*
X29743250Y-101009027D01*
X29874449Y-101326551D01*
X30117171Y-101569698D01*
X30434466Y-101701450D01*
X30608498Y-101701602D01*
X31103796Y-102196900D01*
X29488807Y-102196900D01*
X28923954Y-101632046D01*
X28705584Y-101486137D01*
X28607153Y-101466557D01*
X29265842Y-100807868D01*
X29571551Y-100681551D01*
X29814698Y-100438829D01*
X29946450Y-100121534D01*
X29946750Y-99777973D01*
X29815551Y-99460449D01*
X29572829Y-99217302D01*
X29255534Y-99085550D01*
X28911973Y-99085250D01*
X28594449Y-99216449D01*
X28351302Y-99459171D01*
X28223616Y-99766674D01*
X27253890Y-100736400D01*
X16637000Y-100736400D01*
X16355115Y-100792470D01*
X16116145Y-100952145D01*
X11886890Y-105181400D01*
X3467100Y-105181400D01*
X3467100Y-103275808D01*
X3771230Y-102971678D01*
X3854027Y-102971750D01*
X4171551Y-102840551D01*
X4414698Y-102597829D01*
X4546450Y-102280534D01*
X4546562Y-102152027D01*
X8407250Y-102152027D01*
X8538449Y-102469551D01*
X8781171Y-102712698D01*
X9098466Y-102844450D01*
X9442027Y-102844750D01*
X9759551Y-102713551D01*
X10002698Y-102470829D01*
X10134450Y-102153534D01*
X10134602Y-101979502D01*
X11607052Y-100507052D01*
X11739197Y-100309284D01*
X11785600Y-100076000D01*
X11785600Y-98182633D01*
X21385057Y-98182633D01*
X21686254Y-98911585D01*
X22243481Y-99469786D01*
X22971906Y-99772255D01*
X23760633Y-99772943D01*
X24489585Y-99471746D01*
X25047786Y-98914519D01*
X25350255Y-98186094D01*
X25350943Y-97397367D01*
X25049746Y-96668415D01*
X24492519Y-96110214D01*
X23764094Y-95807745D01*
X22975367Y-95807057D01*
X22246415Y-96108254D01*
X21688214Y-96665481D01*
X21385745Y-97393906D01*
X21385057Y-98182633D01*
X11785600Y-98182633D01*
X11785600Y-97258714D01*
X11907698Y-97136829D01*
X12039450Y-96819534D01*
X12039750Y-96475973D01*
X11908551Y-96158449D01*
X11665829Y-95915302D01*
X11348534Y-95783550D01*
X11004973Y-95783250D01*
X10687449Y-95914449D01*
X10444302Y-96157171D01*
X10312550Y-96474466D01*
X10312250Y-96818027D01*
X10443449Y-97135551D01*
X10566400Y-97258717D01*
X10566400Y-99823496D01*
X9272495Y-101117401D01*
X9099973Y-101117250D01*
X8782449Y-101248449D01*
X8539302Y-101491171D01*
X8407550Y-101808466D01*
X8407250Y-102152027D01*
X4546562Y-102152027D01*
X4546750Y-101936973D01*
X4415551Y-101619449D01*
X4172829Y-101376302D01*
X3855534Y-101244550D01*
X3511973Y-101244250D01*
X3194449Y-101375449D01*
X2951302Y-101618171D01*
X2819550Y-101935466D01*
X2819477Y-102019616D01*
X2318046Y-102521046D01*
X2172137Y-102739416D01*
X2120899Y-102997000D01*
X2120900Y-102997005D01*
X2120900Y-105181400D01*
X1494024Y-105181400D01*
X1188534Y-105054550D01*
X844973Y-105054250D01*
X527449Y-105185449D01*
X284302Y-105428171D01*
X152550Y-105745466D01*
X152250Y-106089027D01*
X283449Y-106406551D01*
X526171Y-106649698D01*
X843466Y-106781450D01*
X1187027Y-106781750D01*
X1494752Y-106654600D01*
X1974925Y-106654600D01*
X1930550Y-106761466D01*
X1930398Y-106935497D01*
X-125504Y-108991400D01*
X-1166286Y-108991400D01*
X-1288171Y-108869302D01*
X-1605466Y-108737550D01*
X-1949027Y-108737250D01*
X-2266551Y-108868449D01*
X-2509698Y-109111171D01*
X-2641450Y-109428466D01*
X-2641750Y-109772027D01*
X-2510551Y-110089551D01*
X-2427815Y-110172431D01*
X-2509698Y-110254171D01*
X-2641450Y-110571466D01*
X-2641750Y-110915027D01*
X-2510551Y-111232551D01*
X-2267829Y-111475698D01*
X-1950534Y-111607450D01*
X-1606973Y-111607750D01*
X-1289449Y-111476551D01*
X-1166283Y-111353600D01*
X3683000Y-111353600D01*
X3916284Y-111307197D01*
X4114052Y-111175052D01*
X6778730Y-108510374D01*
X6415918Y-109384121D01*
X6414883Y-110570673D01*
X6868000Y-111667300D01*
X7706287Y-112507051D01*
X8802121Y-112962082D01*
X9988673Y-112963117D01*
X11085300Y-112510000D01*
X11925051Y-111671713D01*
X12380082Y-110575879D01*
X12381117Y-109389327D01*
X11928000Y-108292700D01*
X11089713Y-107452949D01*
X10696326Y-107289600D01*
X12573000Y-107289600D01*
X12806284Y-107243197D01*
X13004052Y-107111052D01*
X13206505Y-106908600D01*
X13462000Y-106908600D01*
X13695284Y-106862197D01*
X13893052Y-106730052D01*
X13968505Y-106654599D01*
X14141027Y-106654750D01*
X14458551Y-106523551D01*
X14574662Y-106407642D01*
X20594782Y-106407642D01*
X20785850Y-106896920D01*
X21149612Y-107275836D01*
X21630689Y-107486703D01*
X21684558Y-107497416D01*
X21894800Y-107397287D01*
X21894800Y-106197400D01*
X20694888Y-106197400D01*
X20594782Y-106407642D01*
X14574662Y-106407642D01*
X14701698Y-106280829D01*
X14833450Y-105963534D01*
X14833750Y-105619973D01*
X14702551Y-105302449D01*
X14459829Y-105059302D01*
X14200211Y-104951499D01*
X16942110Y-102209600D01*
X24930693Y-102209600D01*
X24811074Y-102329219D01*
X24460200Y-102259426D01*
X23945032Y-102361899D01*
X23508293Y-102653719D01*
X23216473Y-103090458D01*
X23190200Y-103222542D01*
X23163927Y-103090458D01*
X22872107Y-102653719D01*
X22435368Y-102361899D01*
X21920200Y-102259426D01*
X21405032Y-102361899D01*
X20968293Y-102653719D01*
X20676473Y-103090458D01*
X20574000Y-103605626D01*
X20574000Y-103658374D01*
X20676473Y-104173542D01*
X20968293Y-104610281D01*
X21405032Y-104902101D01*
X21489940Y-104918990D01*
X21149612Y-105068164D01*
X20785850Y-105447080D01*
X20594782Y-105936358D01*
X20694888Y-106146600D01*
X21894800Y-106146600D01*
X21894800Y-106126600D01*
X21945600Y-106126600D01*
X21945600Y-106146600D01*
X21965600Y-106146600D01*
X21965600Y-106197400D01*
X21945600Y-106197400D01*
X21945600Y-107397287D01*
X22155842Y-107497416D01*
X22209711Y-107486703D01*
X22690788Y-107275836D01*
X23054550Y-106896920D01*
X23185995Y-106560321D01*
X23216473Y-106713542D01*
X23508293Y-107150281D01*
X23945032Y-107442101D01*
X24460200Y-107544574D01*
X24811074Y-107474781D01*
X25508244Y-108171951D01*
X25508246Y-108171954D01*
X25726616Y-108317863D01*
X25984200Y-108369100D01*
X28193995Y-108369100D01*
X28194000Y-108369101D01*
X28451584Y-108317863D01*
X28669954Y-108171954D01*
X29996807Y-106845100D01*
X50521192Y-106845100D01*
X50832044Y-107155951D01*
X50832046Y-107155954D01*
X51050416Y-107301863D01*
X51308000Y-107353100D01*
X52029675Y-107353100D01*
X52088171Y-107411698D01*
X52405466Y-107543450D01*
X52749027Y-107543750D01*
X53066551Y-107412551D01*
X53309698Y-107169829D01*
X53441450Y-106852534D01*
X53441750Y-106508973D01*
X53310551Y-106191449D01*
X53067829Y-105948302D01*
X52841764Y-105854432D01*
X53066551Y-105761551D01*
X53309698Y-105518829D01*
X53441450Y-105201534D01*
X53441750Y-104857973D01*
X53310551Y-104540449D01*
X53067829Y-104297302D01*
X52750534Y-104165550D01*
X52406973Y-104165250D01*
X52089449Y-104296449D01*
X52029894Y-104355900D01*
X48572157Y-104355900D01*
X48796486Y-104020168D01*
X48898959Y-103505000D01*
X48796486Y-102989832D01*
X48504666Y-102553093D01*
X48067927Y-102261273D01*
X47935843Y-102235000D01*
X48067927Y-102208727D01*
X48504666Y-101916907D01*
X48796486Y-101480168D01*
X48898959Y-100965000D01*
X48796486Y-100449832D01*
X48504666Y-100013093D01*
X48067927Y-99721273D01*
X47935843Y-99695000D01*
X48067927Y-99668727D01*
X48504666Y-99376907D01*
X48796486Y-98940168D01*
X48898959Y-98425000D01*
X48796486Y-97909832D01*
X48504666Y-97473093D01*
X48067927Y-97181273D01*
X47935843Y-97155000D01*
X48067927Y-97128727D01*
X48504666Y-96836907D01*
X48796486Y-96400168D01*
X48898959Y-95885000D01*
X48796486Y-95369832D01*
X48504666Y-94933093D01*
X48067927Y-94641273D01*
X47935843Y-94615000D01*
X48067927Y-94588727D01*
X48504666Y-94296907D01*
X48796486Y-93860168D01*
X48898959Y-93345000D01*
X48796486Y-92829832D01*
X48504666Y-92393093D01*
X48067927Y-92101273D01*
X47935843Y-92075000D01*
X48067927Y-92048727D01*
X48504666Y-91756907D01*
X48796486Y-91320168D01*
X48898959Y-90805000D01*
X48796486Y-90289832D01*
X48504666Y-89853093D01*
X48067927Y-89561273D01*
X47935843Y-89535000D01*
X48067927Y-89508727D01*
X48504666Y-89216907D01*
X48796486Y-88780168D01*
X48898959Y-88265000D01*
X48796486Y-87749832D01*
X48504666Y-87313093D01*
X48156797Y-87080654D01*
X48387000Y-87080654D01*
X48565841Y-87047003D01*
X48730095Y-86941308D01*
X48840287Y-86780037D01*
X48879054Y-86588600D01*
X48879054Y-84861400D01*
X48845599Y-84683600D01*
X51943000Y-84683600D01*
X52224885Y-84627530D01*
X52463855Y-84467855D01*
X54368855Y-82562855D01*
X54528530Y-82323885D01*
X54560400Y-82163663D01*
X54560400Y-114245081D01*
X54399406Y-115054452D01*
X53972045Y-115694042D01*
X53332452Y-116121406D01*
X52523081Y-116282400D01*
X-5787081Y-116282400D01*
X-6596452Y-116121406D01*
X-7236042Y-115694045D01*
X-7663406Y-115054452D01*
X-7824400Y-114245081D01*
X-7824400Y-113505850D01*
X-7658800Y-113505850D01*
X-7658800Y-114230795D01*
X-7585329Y-114408171D01*
X-7449571Y-114543928D01*
X-7272195Y-114617400D01*
X-6572250Y-114617400D01*
X-6451600Y-114496750D01*
X-6451600Y-113385200D01*
X-6400800Y-113385200D01*
X-6400800Y-114496750D01*
X-6280150Y-114617400D01*
X-5580205Y-114617400D01*
X-5402829Y-114543928D01*
X-5329928Y-114471027D01*
X10058250Y-114471027D01*
X10189449Y-114788551D01*
X10432171Y-115031698D01*
X10749466Y-115163450D01*
X11093027Y-115163750D01*
X11410551Y-115032551D01*
X11653698Y-114789829D01*
X11785450Y-114472534D01*
X11785602Y-114298502D01*
X13079505Y-113004599D01*
X13252027Y-113004750D01*
X13569551Y-112873551D01*
X13812698Y-112630829D01*
X13944450Y-112313534D01*
X13944750Y-111969973D01*
X13857991Y-111760000D01*
X15840766Y-111760000D01*
X16067803Y-112901392D01*
X16714349Y-113869017D01*
X17681974Y-114515563D01*
X18823366Y-114742600D01*
X27912634Y-114742600D01*
X29054026Y-114515563D01*
X30021651Y-113869017D01*
X30668197Y-112901392D01*
X30895234Y-111760000D01*
X30668197Y-110618608D01*
X30636168Y-110570673D01*
X34354883Y-110570673D01*
X34808000Y-111667300D01*
X35646287Y-112507051D01*
X36742121Y-112962082D01*
X37928673Y-112963117D01*
X39025300Y-112510000D01*
X39865051Y-111671713D01*
X40320082Y-110575879D01*
X40321117Y-109389327D01*
X39868000Y-108292700D01*
X39029713Y-107452949D01*
X37933879Y-106997918D01*
X36747327Y-106996883D01*
X35650700Y-107450000D01*
X34810949Y-108288287D01*
X34355918Y-109384121D01*
X34354883Y-110570673D01*
X30636168Y-110570673D01*
X30021651Y-109650983D01*
X29054026Y-109004437D01*
X27912634Y-108777400D01*
X18823366Y-108777400D01*
X17681974Y-109004437D01*
X16714349Y-109650983D01*
X16067803Y-110618608D01*
X15840766Y-111760000D01*
X13857991Y-111760000D01*
X13813551Y-111652449D01*
X13570829Y-111409302D01*
X13253534Y-111277550D01*
X12909973Y-111277250D01*
X12592449Y-111408449D01*
X12349302Y-111651171D01*
X12217550Y-111968466D01*
X12217398Y-112142498D01*
X10923495Y-113436401D01*
X10750973Y-113436250D01*
X10433449Y-113567449D01*
X10190302Y-113810171D01*
X10058550Y-114127466D01*
X10058250Y-114471027D01*
X-5329928Y-114471027D01*
X-5267071Y-114408171D01*
X-5193600Y-114230795D01*
X-5193600Y-113505850D01*
X-5314250Y-113385200D01*
X-6400800Y-113385200D01*
X-6451600Y-113385200D01*
X-7538150Y-113385200D01*
X-7658800Y-113505850D01*
X-7824400Y-113505850D01*
X-7824400Y-112488805D01*
X-7658800Y-112488805D01*
X-7658800Y-113213750D01*
X-7538150Y-113334400D01*
X-6451600Y-113334400D01*
X-6451600Y-112222850D01*
X-6400800Y-112222850D01*
X-6400800Y-113334400D01*
X-5314250Y-113334400D01*
X-5193600Y-113213750D01*
X-5193600Y-112805850D01*
X-4883800Y-112805850D01*
X-4883800Y-113380795D01*
X-4810329Y-113558171D01*
X-4674571Y-113693928D01*
X-4497195Y-113767400D01*
X-3872250Y-113767400D01*
X-3751600Y-113646750D01*
X-3751600Y-112685200D01*
X-3700800Y-112685200D01*
X-3700800Y-113646750D01*
X-3580150Y-113767400D01*
X-2955205Y-113767400D01*
X-2777829Y-113693928D01*
X-2642071Y-113558171D01*
X-2568600Y-113380795D01*
X-2568600Y-112805850D01*
X-2689250Y-112685200D01*
X-3700800Y-112685200D01*
X-3751600Y-112685200D01*
X-4763150Y-112685200D01*
X-4883800Y-112805850D01*
X-5193600Y-112805850D01*
X-5193600Y-112488805D01*
X-5267071Y-112311429D01*
X-5402829Y-112175672D01*
X-5580205Y-112102200D01*
X-6280150Y-112102200D01*
X-6400800Y-112222850D01*
X-6451600Y-112222850D01*
X-6572250Y-112102200D01*
X-7272195Y-112102200D01*
X-7449571Y-112175672D01*
X-7585329Y-112311429D01*
X-7658800Y-112488805D01*
X-7824400Y-112488805D01*
X-7824400Y-111938805D01*
X-4883800Y-111938805D01*
X-4883800Y-112513750D01*
X-4763150Y-112634400D01*
X-3751600Y-112634400D01*
X-3751600Y-111672850D01*
X-3700800Y-111672850D01*
X-3700800Y-112634400D01*
X-2689250Y-112634400D01*
X-2568600Y-112513750D01*
X-2568600Y-111938805D01*
X-2642071Y-111761429D01*
X-2777829Y-111625672D01*
X-2955205Y-111552200D01*
X-3580150Y-111552200D01*
X-3700800Y-111672850D01*
X-3751600Y-111672850D01*
X-3872250Y-111552200D01*
X-4497195Y-111552200D01*
X-4674571Y-111625672D01*
X-4810329Y-111761429D01*
X-4883800Y-111938805D01*
X-7824400Y-111938805D01*
X-7824400Y-107105850D01*
X-7658800Y-107105850D01*
X-7658800Y-107830795D01*
X-7585329Y-108008171D01*
X-7449571Y-108143928D01*
X-7272195Y-108217400D01*
X-6572250Y-108217400D01*
X-6451600Y-108096750D01*
X-6451600Y-106985200D01*
X-6400800Y-106985200D01*
X-6400800Y-108096750D01*
X-6280150Y-108217400D01*
X-5580205Y-108217400D01*
X-5402829Y-108143928D01*
X-5267071Y-108008171D01*
X-5193600Y-107830795D01*
X-5193600Y-107805850D01*
X-4883800Y-107805850D01*
X-4883800Y-108380795D01*
X-4810329Y-108558171D01*
X-4674571Y-108693928D01*
X-4497195Y-108767400D01*
X-3872250Y-108767400D01*
X-3751600Y-108646750D01*
X-3751600Y-107685200D01*
X-3700800Y-107685200D01*
X-3700800Y-108646750D01*
X-3580150Y-108767400D01*
X-2955205Y-108767400D01*
X-2777829Y-108693928D01*
X-2642071Y-108558171D01*
X-2568600Y-108380795D01*
X-2568600Y-107805850D01*
X-2689250Y-107685200D01*
X-3700800Y-107685200D01*
X-3751600Y-107685200D01*
X-4763150Y-107685200D01*
X-4883800Y-107805850D01*
X-5193600Y-107805850D01*
X-5193600Y-107105850D01*
X-5314250Y-106985200D01*
X-6400800Y-106985200D01*
X-6451600Y-106985200D01*
X-7538150Y-106985200D01*
X-7658800Y-107105850D01*
X-7824400Y-107105850D01*
X-7824400Y-106938805D01*
X-4883800Y-106938805D01*
X-4883800Y-107513750D01*
X-4763150Y-107634400D01*
X-3751600Y-107634400D01*
X-3751600Y-106672850D01*
X-3700800Y-106672850D01*
X-3700800Y-107634400D01*
X-2689250Y-107634400D01*
X-2568600Y-107513750D01*
X-2568600Y-106938805D01*
X-2642071Y-106761429D01*
X-2777829Y-106625672D01*
X-2955205Y-106552200D01*
X-3580150Y-106552200D01*
X-3700800Y-106672850D01*
X-3751600Y-106672850D01*
X-3872250Y-106552200D01*
X-4497195Y-106552200D01*
X-4674571Y-106625672D01*
X-4810329Y-106761429D01*
X-4883800Y-106938805D01*
X-7824400Y-106938805D01*
X-7824400Y-106088805D01*
X-7658800Y-106088805D01*
X-7658800Y-106813750D01*
X-7538150Y-106934400D01*
X-6451600Y-106934400D01*
X-6451600Y-105822850D01*
X-6400800Y-105822850D01*
X-6400800Y-106934400D01*
X-5314250Y-106934400D01*
X-5193600Y-106813750D01*
X-5193600Y-106088805D01*
X-5267071Y-105911429D01*
X-5402829Y-105775672D01*
X-5580205Y-105702200D01*
X-6280150Y-105702200D01*
X-6400800Y-105822850D01*
X-6451600Y-105822850D01*
X-6572250Y-105702200D01*
X-7272195Y-105702200D01*
X-7449571Y-105775672D01*
X-7585329Y-105911429D01*
X-7658800Y-106088805D01*
X-7824400Y-106088805D01*
X-7824400Y-90976027D01*
X-7086750Y-90976027D01*
X-6955551Y-91293551D01*
X-6712829Y-91536698D01*
X-6395534Y-91668450D01*
X-6051973Y-91668750D01*
X-5734449Y-91537551D01*
X-5674894Y-91478100D01*
X-2397054Y-91478100D01*
X-2397054Y-91668600D01*
X-2363403Y-91847441D01*
X-2257708Y-92011695D01*
X-2096437Y-92121887D01*
X-1905000Y-92160654D01*
X-1674797Y-92160654D01*
X-2022666Y-92393093D01*
X-2208959Y-92671900D01*
X-3744320Y-92671900D01*
X-3828171Y-92587902D01*
X-4145466Y-92456150D01*
X-4489027Y-92455850D01*
X-4806551Y-92587049D01*
X-5049698Y-92829771D01*
X-5181450Y-93147066D01*
X-5181750Y-93490627D01*
X-5050551Y-93808151D01*
X-4807829Y-94051298D01*
X-4490534Y-94183050D01*
X-4146973Y-94183350D01*
X-3829449Y-94052151D01*
X-3795338Y-94018100D01*
X-2208959Y-94018100D01*
X-2022666Y-94296907D01*
X-1585927Y-94588727D01*
X-1453843Y-94615000D01*
X-1585927Y-94641273D01*
X-2022666Y-94933093D01*
X-2208959Y-95211900D01*
X-4658675Y-95211900D01*
X-4717171Y-95153302D01*
X-5034466Y-95021550D01*
X-5378027Y-95021250D01*
X-5695551Y-95152449D01*
X-5938698Y-95395171D01*
X-6070450Y-95712466D01*
X-6070750Y-96056027D01*
X-5939551Y-96373551D01*
X-5696829Y-96616698D01*
X-5379534Y-96748450D01*
X-5035973Y-96748750D01*
X-4718449Y-96617551D01*
X-4658894Y-96558100D01*
X-2208959Y-96558100D01*
X-2022666Y-96836907D01*
X-1585927Y-97128727D01*
X-1453843Y-97155000D01*
X-1585927Y-97181273D01*
X-2022666Y-97473093D01*
X-2208959Y-97751900D01*
X-3007675Y-97751900D01*
X-3066171Y-97693302D01*
X-3383466Y-97561550D01*
X-3727027Y-97561250D01*
X-4044551Y-97692449D01*
X-4287698Y-97935171D01*
X-4419450Y-98252466D01*
X-4419750Y-98596027D01*
X-4288551Y-98913551D01*
X-4045829Y-99156698D01*
X-3728534Y-99288450D01*
X-3384973Y-99288750D01*
X-3067449Y-99157551D01*
X-3007894Y-99098100D01*
X-2208959Y-99098100D01*
X-2022666Y-99376907D01*
X-1585927Y-99668727D01*
X-1453843Y-99695000D01*
X-1585927Y-99721273D01*
X-2022666Y-100013093D01*
X-2314486Y-100449832D01*
X-2416959Y-100965000D01*
X-2314486Y-101480168D01*
X-2022666Y-101916907D01*
X-1585927Y-102208727D01*
X-1453843Y-102235000D01*
X-1585927Y-102261273D01*
X-2022666Y-102553093D01*
X-2314486Y-102989832D01*
X-2416959Y-103505000D01*
X-2314486Y-104020168D01*
X-2022666Y-104456907D01*
X-1585927Y-104748727D01*
X-1070759Y-104851200D01*
X-707241Y-104851200D01*
X-192073Y-104748727D01*
X244666Y-104456907D01*
X536486Y-104020168D01*
X638959Y-103505000D01*
X536486Y-102989832D01*
X244666Y-102553093D01*
X-192073Y-102261273D01*
X-324157Y-102235000D01*
X-192073Y-102208727D01*
X244666Y-101916907D01*
X536486Y-101480168D01*
X630201Y-101009027D01*
X5740250Y-101009027D01*
X5871449Y-101326551D01*
X6114171Y-101569698D01*
X6431466Y-101701450D01*
X6775027Y-101701750D01*
X7092551Y-101570551D01*
X7335698Y-101327829D01*
X7467450Y-101010534D01*
X7467602Y-100836502D01*
X8253505Y-100050600D01*
X8659286Y-100050600D01*
X8781171Y-100172698D01*
X9098466Y-100304450D01*
X9442027Y-100304750D01*
X9759551Y-100173551D01*
X10002698Y-99930829D01*
X10134450Y-99613534D01*
X10134750Y-99269973D01*
X10003551Y-98952449D01*
X9760829Y-98709302D01*
X9443534Y-98577550D01*
X9099973Y-98577250D01*
X8782449Y-98708449D01*
X8659283Y-98831400D01*
X8001000Y-98831400D01*
X7767716Y-98877803D01*
X7569947Y-99009948D01*
X6605495Y-99974401D01*
X6432973Y-99974250D01*
X6115449Y-100105449D01*
X5872302Y-100348171D01*
X5740550Y-100665466D01*
X5740250Y-101009027D01*
X630201Y-101009027D01*
X638959Y-100965000D01*
X536486Y-100449832D01*
X244666Y-100013093D01*
X-192073Y-99721273D01*
X-324157Y-99695000D01*
X-192073Y-99668727D01*
X244666Y-99376907D01*
X536486Y-98940168D01*
X638959Y-98425000D01*
X536486Y-97909832D01*
X244666Y-97473093D01*
X-192073Y-97181273D01*
X-324157Y-97155000D01*
X-192073Y-97128727D01*
X244666Y-96836907D01*
X536486Y-96400168D01*
X638959Y-95885000D01*
X536486Y-95369832D01*
X244666Y-94933093D01*
X-192073Y-94641273D01*
X-324157Y-94615000D01*
X-192073Y-94588727D01*
X244666Y-94296907D01*
X536486Y-93860168D01*
X638959Y-93345000D01*
X536486Y-92829832D01*
X244666Y-92393093D01*
X-103203Y-92160654D01*
X127000Y-92160654D01*
X305841Y-92127003D01*
X470095Y-92021308D01*
X490101Y-91992027D01*
X7391250Y-91992027D01*
X7522449Y-92309551D01*
X7645400Y-92432717D01*
X7645400Y-94488000D01*
X7691803Y-94721284D01*
X7823948Y-94919052D01*
X8204947Y-95300052D01*
X8368068Y-95409046D01*
X8402716Y-95432197D01*
X8636000Y-95478600D01*
X10183286Y-95478600D01*
X10305171Y-95600698D01*
X10622466Y-95732450D01*
X10966027Y-95732750D01*
X11283551Y-95601551D01*
X11526698Y-95358829D01*
X11658450Y-95041534D01*
X11658750Y-94697973D01*
X11527551Y-94380449D01*
X11284829Y-94137302D01*
X10967534Y-94005550D01*
X10623973Y-94005250D01*
X10306449Y-94136449D01*
X10183283Y-94259400D01*
X8888505Y-94259400D01*
X8864600Y-94235496D01*
X8864600Y-92432714D01*
X8986698Y-92310829D01*
X9118450Y-91993534D01*
X9118750Y-91649973D01*
X8987551Y-91332449D01*
X8744829Y-91089302D01*
X8427534Y-90957550D01*
X8083973Y-90957250D01*
X7766449Y-91088449D01*
X7523302Y-91331171D01*
X7391550Y-91648466D01*
X7391250Y-91992027D01*
X490101Y-91992027D01*
X580287Y-91860037D01*
X619054Y-91668600D01*
X619054Y-90341027D01*
X1676250Y-90341027D01*
X1807449Y-90658551D01*
X2050171Y-90901698D01*
X2367466Y-91033450D01*
X2711027Y-91033750D01*
X3028551Y-90902551D01*
X3151717Y-90779600D01*
X10922000Y-90779600D01*
X11155284Y-90733197D01*
X11353052Y-90601052D01*
X11428505Y-90525599D01*
X11601027Y-90525750D01*
X11918551Y-90394551D01*
X12161698Y-90151829D01*
X12293450Y-89834534D01*
X12293750Y-89490973D01*
X12162551Y-89173449D01*
X11919829Y-88930302D01*
X11602534Y-88798550D01*
X11258973Y-88798250D01*
X10941449Y-88929449D01*
X10698302Y-89172171D01*
X10566550Y-89489466D01*
X10566488Y-89560400D01*
X3151714Y-89560400D01*
X3029829Y-89438302D01*
X2712534Y-89306550D01*
X2368973Y-89306250D01*
X2051449Y-89437449D01*
X1808302Y-89680171D01*
X1676550Y-89997466D01*
X1676250Y-90341027D01*
X619054Y-90341027D01*
X619054Y-89941400D01*
X585403Y-89762559D01*
X479708Y-89598305D01*
X318437Y-89488113D01*
X127000Y-89449346D01*
X-1905000Y-89449346D01*
X-2083841Y-89482997D01*
X-2248095Y-89588692D01*
X-2358287Y-89749963D01*
X-2397054Y-89941400D01*
X-2397054Y-90131900D01*
X-5674675Y-90131900D01*
X-5733171Y-90073302D01*
X-6050466Y-89941550D01*
X-6394027Y-89941250D01*
X-6711551Y-90072449D01*
X-6954698Y-90315171D01*
X-7086450Y-90632466D01*
X-7086750Y-90976027D01*
X-7824400Y-90976027D01*
X-7824400Y-85725000D01*
X-2416959Y-85725000D01*
X-2314486Y-86240168D01*
X-2022666Y-86676907D01*
X-1585927Y-86968727D01*
X-1070759Y-87071200D01*
X-707241Y-87071200D01*
X-192073Y-86968727D01*
X244666Y-86676907D01*
X346100Y-86525100D01*
X1143000Y-86525100D01*
X1449185Y-86464196D01*
X1708756Y-86290756D01*
X2089756Y-85909756D01*
X2263196Y-85650185D01*
X2324100Y-85344000D01*
X2324100Y-83643412D01*
X2744412Y-83223100D01*
X32059902Y-83223100D01*
X32212466Y-83286450D01*
X32556027Y-83286750D01*
X32873551Y-83155551D01*
X33116698Y-82912829D01*
X33248450Y-82595534D01*
X33248750Y-82251973D01*
X33117551Y-81934449D01*
X32874829Y-81691302D01*
X32557534Y-81559550D01*
X32213973Y-81559250D01*
X32059929Y-81622900D01*
X31907708Y-81622900D01*
X31978450Y-81452534D01*
X31978734Y-81127600D01*
X32916286Y-81127600D01*
X33038171Y-81249698D01*
X33355466Y-81381450D01*
X33699027Y-81381750D01*
X34016551Y-81250551D01*
X34259698Y-81007829D01*
X34391450Y-80690534D01*
X34391734Y-80365600D01*
X35964286Y-80365600D01*
X36086171Y-80487698D01*
X36403466Y-80619450D01*
X36747027Y-80619750D01*
X37064551Y-80488551D01*
X37307698Y-80245829D01*
X37439450Y-79928534D01*
X37439512Y-79857689D01*
X37509027Y-79857750D01*
X37826551Y-79726551D01*
X38069698Y-79483829D01*
X38201450Y-79166534D01*
X38201750Y-78822973D01*
X38156971Y-78714600D01*
X39520286Y-78714600D01*
X39642171Y-78836698D01*
X39959466Y-78968450D01*
X40303027Y-78968750D01*
X40620551Y-78837551D01*
X40863698Y-78594829D01*
X40995450Y-78277534D01*
X40995750Y-77933973D01*
X40864551Y-77616449D01*
X40621829Y-77373302D01*
X40304534Y-77241550D01*
X39960973Y-77241250D01*
X39643449Y-77372449D01*
X39520283Y-77495400D01*
X6453714Y-77495400D01*
X6331829Y-77373302D01*
X6014534Y-77241550D01*
X5670973Y-77241250D01*
X5353449Y-77372449D01*
X5110302Y-77615171D01*
X4978550Y-77932466D01*
X4978250Y-78276027D01*
X5109449Y-78593551D01*
X5352171Y-78836698D01*
X5669466Y-78968450D01*
X6013027Y-78968750D01*
X6330551Y-78837551D01*
X6453717Y-78714600D01*
X11245925Y-78714600D01*
X11201550Y-78821466D01*
X11201266Y-79146400D01*
X5564714Y-79146400D01*
X5442829Y-79024302D01*
X5125534Y-78892550D01*
X4781973Y-78892250D01*
X4464449Y-79023449D01*
X4221302Y-79266171D01*
X4089550Y-79583466D01*
X4089488Y-79654311D01*
X4019973Y-79654250D01*
X3702449Y-79785449D01*
X3459302Y-80028171D01*
X3327550Y-80345466D01*
X3327488Y-80416422D01*
X3130973Y-80416250D01*
X2813449Y-80547449D01*
X2570302Y-80790171D01*
X2438550Y-81107466D01*
X2438250Y-81451027D01*
X2509267Y-81622900D01*
X2413000Y-81622900D01*
X2106815Y-81683804D01*
X1847244Y-81857244D01*
X958244Y-82746244D01*
X784804Y-83005815D01*
X723900Y-83312000D01*
X723900Y-84924900D01*
X346100Y-84924900D01*
X244666Y-84773093D01*
X-192073Y-84481273D01*
X-344296Y-84450994D01*
X-197965Y-84419006D01*
X233268Y-84118946D01*
X516847Y-83676701D01*
X588816Y-83420642D01*
X488687Y-83210400D01*
X-863600Y-83210400D01*
X-863600Y-83230400D01*
X-914400Y-83230400D01*
X-914400Y-83210400D01*
X-2266687Y-83210400D01*
X-2366816Y-83420642D01*
X-2294847Y-83676701D01*
X-2011268Y-84118946D01*
X-1580035Y-84419006D01*
X-1433704Y-84450994D01*
X-1585927Y-84481273D01*
X-2022666Y-84773093D01*
X-2314486Y-85209832D01*
X-2416959Y-85725000D01*
X-7824400Y-85725000D01*
X-7824400Y-80880642D01*
X-2366816Y-80880642D01*
X-2294847Y-81136701D01*
X-2011268Y-81578946D01*
X-1580035Y-81879006D01*
X-1415379Y-81915000D01*
X-1580035Y-81950994D01*
X-2011268Y-82251054D01*
X-2294847Y-82693299D01*
X-2366816Y-82949358D01*
X-2266687Y-83159600D01*
X-914400Y-83159600D01*
X-914400Y-80670400D01*
X-863600Y-80670400D01*
X-863600Y-83159600D01*
X488687Y-83159600D01*
X588816Y-82949358D01*
X516847Y-82693299D01*
X233268Y-82251054D01*
X-197965Y-81950994D01*
X-362621Y-81915000D01*
X-197965Y-81879006D01*
X233268Y-81578946D01*
X516847Y-81136701D01*
X588816Y-80880642D01*
X488687Y-80670400D01*
X-863600Y-80670400D01*
X-914400Y-80670400D01*
X-2266687Y-80670400D01*
X-2366816Y-80880642D01*
X-7824400Y-80880642D01*
X-7824400Y-65405000D01*
X-838200Y-65405000D01*
X-801273Y-65398052D01*
X-767357Y-65376228D01*
X-744605Y-65342928D01*
X-736600Y-65303400D01*
X-736600Y-51898125D01*
X-685052Y-51975272D01*
G36*
X53111400Y-42342110D02*
X53111400Y-52757295D01*
X52755052Y-52400948D01*
X52557284Y-52268803D01*
X52324000Y-52222400D01*
X35788468Y-52222400D01*
X35788750Y-51898973D01*
X35657551Y-51581449D01*
X35612780Y-51536600D01*
X51331286Y-51536600D01*
X51453171Y-51658698D01*
X51770466Y-51790450D01*
X52114027Y-51790750D01*
X52431551Y-51659551D01*
X52674698Y-51416829D01*
X52806450Y-51099534D01*
X52806750Y-50755973D01*
X52675551Y-50438449D01*
X52432829Y-50195302D01*
X52115534Y-50063550D01*
X51917689Y-50063377D01*
X51917750Y-49993973D01*
X51786551Y-49676449D01*
X51543829Y-49433302D01*
X51226534Y-49301550D01*
X50882973Y-49301250D01*
X50565449Y-49432449D01*
X50322302Y-49675171D01*
X50319300Y-49682400D01*
X36550468Y-49682400D01*
X36550750Y-49358973D01*
X36505992Y-49250650D01*
X36620027Y-49250750D01*
X36937551Y-49119551D01*
X37180698Y-48876829D01*
X37312450Y-48559534D01*
X37312750Y-48215973D01*
X37181551Y-47898449D01*
X36971816Y-47688346D01*
X37180698Y-47479829D01*
X37312450Y-47162534D01*
X37312750Y-46818973D01*
X37215497Y-46583605D01*
X37382027Y-46583750D01*
X37699551Y-46452551D01*
X37942698Y-46209829D01*
X38074450Y-45892534D01*
X38074750Y-45548973D01*
X37943551Y-45231449D01*
X37797315Y-45084957D01*
X37942698Y-44939829D01*
X38074450Y-44622534D01*
X38074750Y-44278973D01*
X37943551Y-43961449D01*
X37772002Y-43789600D01*
X47880496Y-43789600D01*
X50190401Y-46099505D01*
X50190250Y-46272027D01*
X50321449Y-46589551D01*
X50564171Y-46832698D01*
X50881466Y-46964450D01*
X51225027Y-46964750D01*
X51542551Y-46833551D01*
X51785698Y-46590829D01*
X51917450Y-46273534D01*
X51917750Y-45929973D01*
X51786551Y-45612449D01*
X51543829Y-45369302D01*
X51226534Y-45237550D01*
X51052502Y-45237398D01*
X48595506Y-42780402D01*
X48976657Y-42399250D01*
X49002551Y-42388551D01*
X49245698Y-42145829D01*
X49377450Y-41828534D01*
X49377750Y-41484973D01*
X49332971Y-41376600D01*
X50165000Y-41376600D01*
X50446885Y-41320530D01*
X50552863Y-41249718D01*
X50590027Y-41249750D01*
X50897752Y-41122600D01*
X51891890Y-41122600D01*
X53111400Y-42342110D01*
X53111400Y-42342110D01*
G37*
X53111400Y-42342110D02*
X53111400Y-52757295D01*
X52755052Y-52400948D01*
X52557284Y-52268803D01*
X52324000Y-52222400D01*
X35788468Y-52222400D01*
X35788750Y-51898973D01*
X35657551Y-51581449D01*
X35612780Y-51536600D01*
X51331286Y-51536600D01*
X51453171Y-51658698D01*
X51770466Y-51790450D01*
X52114027Y-51790750D01*
X52431551Y-51659551D01*
X52674698Y-51416829D01*
X52806450Y-51099534D01*
X52806750Y-50755973D01*
X52675551Y-50438449D01*
X52432829Y-50195302D01*
X52115534Y-50063550D01*
X51917689Y-50063377D01*
X51917750Y-49993973D01*
X51786551Y-49676449D01*
X51543829Y-49433302D01*
X51226534Y-49301550D01*
X50882973Y-49301250D01*
X50565449Y-49432449D01*
X50322302Y-49675171D01*
X50319300Y-49682400D01*
X36550468Y-49682400D01*
X36550750Y-49358973D01*
X36505992Y-49250650D01*
X36620027Y-49250750D01*
X36937551Y-49119551D01*
X37180698Y-48876829D01*
X37312450Y-48559534D01*
X37312750Y-48215973D01*
X37181551Y-47898449D01*
X36971816Y-47688346D01*
X37180698Y-47479829D01*
X37312450Y-47162534D01*
X37312750Y-46818973D01*
X37215497Y-46583605D01*
X37382027Y-46583750D01*
X37699551Y-46452551D01*
X37942698Y-46209829D01*
X38074450Y-45892534D01*
X38074750Y-45548973D01*
X37943551Y-45231449D01*
X37797315Y-45084957D01*
X37942698Y-44939829D01*
X38074450Y-44622534D01*
X38074750Y-44278973D01*
X37943551Y-43961449D01*
X37772002Y-43789600D01*
X47880496Y-43789600D01*
X50190401Y-46099505D01*
X50190250Y-46272027D01*
X50321449Y-46589551D01*
X50564171Y-46832698D01*
X50881466Y-46964450D01*
X51225027Y-46964750D01*
X51542551Y-46833551D01*
X51785698Y-46590829D01*
X51917450Y-46273534D01*
X51917750Y-45929973D01*
X51786551Y-45612449D01*
X51543829Y-45369302D01*
X51226534Y-45237550D01*
X51052502Y-45237398D01*
X48595506Y-42780402D01*
X48976657Y-42399250D01*
X49002551Y-42388551D01*
X49245698Y-42145829D01*
X49377450Y-41828534D01*
X49377750Y-41484973D01*
X49332971Y-41376600D01*
X50165000Y-41376600D01*
X50446885Y-41320530D01*
X50552863Y-41249718D01*
X50590027Y-41249750D01*
X50897752Y-41122600D01*
X51891890Y-41122600D01*
X53111400Y-42342110D01*
G36*
X53332452Y9441406D02*
X53972045Y9014042D01*
X54399406Y8374452D01*
X54560400Y7565081D01*
X54560400Y-27056338D01*
X54538197Y-26944716D01*
X54406052Y-26746948D01*
X53390052Y-25730948D01*
X53192284Y-25598803D01*
X52959000Y-25552400D01*
X48363714Y-25552400D01*
X48241829Y-25430302D01*
X47924534Y-25298550D01*
X47580973Y-25298250D01*
X47263449Y-25429449D01*
X47020302Y-25672171D01*
X46888550Y-25989466D01*
X46888250Y-26333027D01*
X47019449Y-26650551D01*
X47262171Y-26893698D01*
X47579466Y-27025450D01*
X47923027Y-27025750D01*
X48240551Y-26894551D01*
X48363717Y-26771600D01*
X52706496Y-26771600D01*
X53365400Y-27430504D01*
X53365400Y-30162149D01*
X53326863Y-29968416D01*
X53180954Y-29750046D01*
X53180951Y-29750044D01*
X52545954Y-29115046D01*
X52327584Y-28969137D01*
X52070000Y-28917899D01*
X52069995Y-28917900D01*
X46471217Y-28917900D01*
X46705698Y-28683829D01*
X46837450Y-28366534D01*
X46837750Y-28022973D01*
X46706551Y-27705449D01*
X46463829Y-27462302D01*
X46146534Y-27330550D01*
X45802973Y-27330250D01*
X45485449Y-27461449D01*
X45445668Y-27501161D01*
X44138554Y-26194046D01*
X43920184Y-26048137D01*
X43662600Y-25996899D01*
X43662595Y-25996900D01*
X39664325Y-25996900D01*
X39605829Y-25938302D01*
X39288534Y-25806550D01*
X38944973Y-25806250D01*
X38627449Y-25937449D01*
X38567894Y-25996900D01*
X34584325Y-25996900D01*
X34525829Y-25938302D01*
X34208534Y-25806550D01*
X33864973Y-25806250D01*
X33547449Y-25937449D01*
X33487894Y-25996900D01*
X29504325Y-25996900D01*
X29445829Y-25938302D01*
X29128534Y-25806550D01*
X28784973Y-25806250D01*
X28467449Y-25937449D01*
X28407894Y-25996900D01*
X24424325Y-25996900D01*
X24365829Y-25938302D01*
X24048534Y-25806550D01*
X23704973Y-25806250D01*
X23387449Y-25937449D01*
X23327894Y-25996900D01*
X19344325Y-25996900D01*
X19285829Y-25938302D01*
X18968534Y-25806550D01*
X18624973Y-25806250D01*
X18307449Y-25937449D01*
X18247894Y-25996900D01*
X14264325Y-25996900D01*
X14205829Y-25938302D01*
X13888534Y-25806550D01*
X13544973Y-25806250D01*
X13227449Y-25937449D01*
X13167894Y-25996900D01*
X9184325Y-25996900D01*
X9125829Y-25938302D01*
X8808534Y-25806550D01*
X8464973Y-25806250D01*
X8147449Y-25937449D01*
X8087894Y-25996900D01*
X4104325Y-25996900D01*
X4045829Y-25938302D01*
X3728534Y-25806550D01*
X3384973Y-25806250D01*
X3149600Y-25903505D01*
X3149600Y-22356341D01*
X3383466Y-22453450D01*
X3727027Y-22453750D01*
X4044551Y-22322551D01*
X4104106Y-22263100D01*
X8087675Y-22263100D01*
X8146171Y-22321698D01*
X8463466Y-22453450D01*
X8807027Y-22453750D01*
X9124551Y-22322551D01*
X9184106Y-22263100D01*
X13167675Y-22263100D01*
X13226171Y-22321698D01*
X13543466Y-22453450D01*
X13887027Y-22453750D01*
X14204551Y-22322551D01*
X14264106Y-22263100D01*
X18247675Y-22263100D01*
X18306171Y-22321698D01*
X18623466Y-22453450D01*
X18967027Y-22453750D01*
X19284551Y-22322551D01*
X19344106Y-22263100D01*
X23327675Y-22263100D01*
X23386171Y-22321698D01*
X23703466Y-22453450D01*
X24047027Y-22453750D01*
X24364551Y-22322551D01*
X24424106Y-22263100D01*
X28407675Y-22263100D01*
X28466171Y-22321698D01*
X28783466Y-22453450D01*
X29127027Y-22453750D01*
X29444551Y-22322551D01*
X29504106Y-22263100D01*
X33487675Y-22263100D01*
X33546171Y-22321698D01*
X33863466Y-22453450D01*
X34207027Y-22453750D01*
X34524551Y-22322551D01*
X34584106Y-22263100D01*
X38567675Y-22263100D01*
X38626171Y-22321698D01*
X38943466Y-22453450D01*
X39287027Y-22453750D01*
X39604551Y-22322551D01*
X39664106Y-22263100D01*
X47076675Y-22263100D01*
X47135171Y-22321698D01*
X47452466Y-22453450D01*
X47796027Y-22453750D01*
X48113551Y-22322551D01*
X48356698Y-22079829D01*
X48488450Y-21762534D01*
X48488750Y-21418973D01*
X48443971Y-21310600D01*
X50420496Y-21310600D01*
X50698401Y-21588505D01*
X50698250Y-21761027D01*
X50829449Y-22078551D01*
X51072171Y-22321698D01*
X51389466Y-22453450D01*
X51733027Y-22453750D01*
X52050551Y-22322551D01*
X52293698Y-22079829D01*
X52425450Y-21762534D01*
X52425750Y-21418973D01*
X52294551Y-21101449D01*
X52051829Y-20858302D01*
X51734534Y-20726550D01*
X51560502Y-20726398D01*
X51104052Y-20269948D01*
X50906284Y-20137803D01*
X50673000Y-20091400D01*
X45343341Y-20091400D01*
X45440450Y-19857534D01*
X45440750Y-19513973D01*
X45420439Y-19464816D01*
X45573551Y-19401551D01*
X45816698Y-19158829D01*
X45948450Y-18841534D01*
X45948750Y-18497973D01*
X45820010Y-18186400D01*
X51686886Y-18186400D01*
X51808771Y-18308498D01*
X52126066Y-18440250D01*
X52469627Y-18440550D01*
X52787151Y-18309351D01*
X53030298Y-18066629D01*
X53162050Y-17749334D01*
X53162350Y-17405773D01*
X53031151Y-17088249D01*
X52788429Y-16845102D01*
X52471134Y-16713350D01*
X52127573Y-16713050D01*
X51810049Y-16844249D01*
X51686883Y-16967200D01*
X50021247Y-16967200D01*
X50139450Y-16682534D01*
X50139750Y-16338973D01*
X50008551Y-16021449D01*
X49765829Y-15778302D01*
X49448534Y-15646550D01*
X49104973Y-15646250D01*
X48787449Y-15777449D01*
X48727894Y-15836900D01*
X39664325Y-15836900D01*
X39605829Y-15778302D01*
X39288534Y-15646550D01*
X38944973Y-15646250D01*
X38627449Y-15777449D01*
X38567894Y-15836900D01*
X34584325Y-15836900D01*
X34525829Y-15778302D01*
X34208534Y-15646550D01*
X33864973Y-15646250D01*
X33547449Y-15777449D01*
X33487894Y-15836900D01*
X29504325Y-15836900D01*
X29445829Y-15778302D01*
X29128534Y-15646550D01*
X28784973Y-15646250D01*
X28467449Y-15777449D01*
X28407894Y-15836900D01*
X24424325Y-15836900D01*
X24365829Y-15778302D01*
X24048534Y-15646550D01*
X23704973Y-15646250D01*
X23387449Y-15777449D01*
X23327894Y-15836900D01*
X19344325Y-15836900D01*
X19285829Y-15778302D01*
X18968534Y-15646550D01*
X18624973Y-15646250D01*
X18307449Y-15777449D01*
X18247894Y-15836900D01*
X14264325Y-15836900D01*
X14205829Y-15778302D01*
X13888534Y-15646550D01*
X13544973Y-15646250D01*
X13227449Y-15777449D01*
X13167894Y-15836900D01*
X9184325Y-15836900D01*
X9125829Y-15778302D01*
X8808534Y-15646550D01*
X8464973Y-15646250D01*
X8147449Y-15777449D01*
X8087894Y-15836900D01*
X4104325Y-15836900D01*
X4045829Y-15778302D01*
X3728534Y-15646550D01*
X3384973Y-15646250D01*
X3067449Y-15777449D01*
X2824302Y-16020171D01*
X2692550Y-16337466D01*
X2692250Y-16681027D01*
X2823449Y-16998551D01*
X3066171Y-17241698D01*
X3383466Y-17373450D01*
X3727027Y-17373750D01*
X4044551Y-17242551D01*
X4104106Y-17183100D01*
X8087675Y-17183100D01*
X8146171Y-17241698D01*
X8463466Y-17373450D01*
X8807027Y-17373750D01*
X9124551Y-17242551D01*
X9184106Y-17183100D01*
X13167675Y-17183100D01*
X13226171Y-17241698D01*
X13543466Y-17373450D01*
X13869761Y-17373735D01*
X12371295Y-18872201D01*
X12198773Y-18872050D01*
X11881249Y-19003249D01*
X11638102Y-19245971D01*
X11506350Y-19563266D01*
X11506050Y-19906827D01*
X11582314Y-20091400D01*
X2921000Y-20091400D01*
X2687716Y-20137803D01*
X2489947Y-20269948D01*
X2108948Y-20650948D01*
X1976803Y-20848716D01*
X1930400Y-21082000D01*
X1930400Y-44219286D01*
X1808302Y-44341171D01*
X1676550Y-44658466D01*
X1676250Y-45002027D01*
X1807449Y-45319551D01*
X2050171Y-45562698D01*
X2367466Y-45694450D01*
X2711027Y-45694750D01*
X3028551Y-45563551D01*
X3271698Y-45320829D01*
X3403450Y-45003534D01*
X3403750Y-44659973D01*
X3272551Y-44342449D01*
X3149600Y-44219283D01*
X3149600Y-37596341D01*
X3383466Y-37693450D01*
X3727027Y-37693750D01*
X4044551Y-37562551D01*
X4104106Y-37503100D01*
X5725560Y-37503100D01*
X5618302Y-37610171D01*
X5486550Y-37927466D01*
X5486250Y-38271027D01*
X5617449Y-38588551D01*
X5860171Y-38831698D01*
X6177466Y-38963450D01*
X6521027Y-38963750D01*
X6838551Y-38832551D01*
X6898106Y-38773100D01*
X10637292Y-38773100D01*
X10566550Y-38943466D01*
X10566250Y-39287027D01*
X10697449Y-39604551D01*
X10940171Y-39847698D01*
X11257466Y-39979450D01*
X11601027Y-39979750D01*
X11918551Y-39848551D01*
X12161698Y-39605829D01*
X12264895Y-39357302D01*
X28315452Y-39357302D01*
X28213449Y-39399449D01*
X27970302Y-39642171D01*
X27838550Y-39959466D01*
X27838250Y-40303027D01*
X27969449Y-40620551D01*
X28212171Y-40863698D01*
X28529466Y-40995450D01*
X28873027Y-40995750D01*
X29190551Y-40864551D01*
X29250106Y-40805100D01*
X43790192Y-40805100D01*
X43903900Y-40918807D01*
X43903900Y-41401995D01*
X43903899Y-41402000D01*
X43955137Y-41659584D01*
X44101046Y-41877954D01*
X44793492Y-42570400D01*
X38787828Y-42570400D01*
X38958698Y-42399829D01*
X39090450Y-42082534D01*
X39090750Y-41738973D01*
X38959551Y-41421449D01*
X38716829Y-41178302D01*
X38399534Y-41046550D01*
X38055973Y-41046250D01*
X37738449Y-41177449D01*
X37615283Y-41300400D01*
X26011714Y-41300400D01*
X25889829Y-41178302D01*
X25572534Y-41046550D01*
X25228973Y-41046250D01*
X24911449Y-41177449D01*
X24668302Y-41420171D01*
X24536550Y-41737466D01*
X24536250Y-42081027D01*
X24667449Y-42398551D01*
X24838998Y-42570400D01*
X22098000Y-42570400D01*
X21864716Y-42616803D01*
X21744060Y-42697423D01*
X21545973Y-42697250D01*
X21228449Y-42828449D01*
X20985302Y-43071171D01*
X20853550Y-43388466D01*
X20853250Y-43732027D01*
X20984449Y-44049551D01*
X21227171Y-44292698D01*
X21544466Y-44424450D01*
X21888027Y-44424750D01*
X22205551Y-44293551D01*
X22448698Y-44050829D01*
X22557169Y-43789600D01*
X24839172Y-43789600D01*
X24668302Y-43960171D01*
X24536550Y-44277466D01*
X24536250Y-44621027D01*
X24581029Y-44729400D01*
X19939000Y-44729400D01*
X19705716Y-44775803D01*
X19626502Y-44828733D01*
X19507948Y-44907947D01*
X19305495Y-45110401D01*
X19132973Y-45110250D01*
X18815449Y-45241449D01*
X18572302Y-45484171D01*
X18440550Y-45801466D01*
X18440465Y-45899361D01*
X18084052Y-45542948D01*
X17886284Y-45410803D01*
X17653000Y-45364400D01*
X4802714Y-45364400D01*
X4680829Y-45242302D01*
X4363534Y-45110550D01*
X4019973Y-45110250D01*
X3702449Y-45241449D01*
X3459302Y-45484171D01*
X3327550Y-45801466D01*
X3327250Y-46145027D01*
X3424549Y-46380506D01*
X3130973Y-46380250D01*
X2813449Y-46511449D01*
X2570302Y-46754171D01*
X2438550Y-47071466D01*
X2438250Y-47415027D01*
X2569449Y-47732551D01*
X2812171Y-47975698D01*
X3129466Y-48107450D01*
X3473027Y-48107750D01*
X3790551Y-47976551D01*
X3913717Y-47853600D01*
X4264949Y-47853600D01*
X4221302Y-47897171D01*
X4089550Y-48214466D01*
X4089250Y-48558027D01*
X4220449Y-48875551D01*
X4463171Y-49118698D01*
X4780466Y-49250450D01*
X5124027Y-49250750D01*
X5441551Y-49119551D01*
X5564717Y-48996600D01*
X16279286Y-48996600D01*
X16401171Y-49118698D01*
X16718466Y-49250450D01*
X17062027Y-49250750D01*
X17379551Y-49119551D01*
X17622698Y-48876829D01*
X17754450Y-48559534D01*
X17754750Y-48215973D01*
X17623551Y-47898449D01*
X17578780Y-47853600D01*
X22860000Y-47853600D01*
X23093284Y-47807197D01*
X23291052Y-47675052D01*
X24001505Y-46964599D01*
X24174027Y-46964750D01*
X24409506Y-46867451D01*
X24409250Y-47161027D01*
X24540449Y-47478551D01*
X24695696Y-47634070D01*
X24429534Y-47523550D01*
X24085973Y-47523250D01*
X23768449Y-47654449D01*
X23525302Y-47897171D01*
X23393550Y-48214466D01*
X23393250Y-48558027D01*
X23524449Y-48875551D01*
X23767171Y-49118698D01*
X24084466Y-49250450D01*
X24428027Y-49250750D01*
X24612515Y-49174521D01*
X24536550Y-49357466D01*
X24536266Y-49682400D01*
X21082000Y-49682400D01*
X20848716Y-49728803D01*
X20797112Y-49763284D01*
X20650948Y-49860947D01*
X20015948Y-50495948D01*
X19883803Y-50693716D01*
X19837400Y-50927000D01*
X19837400Y-51442620D01*
X17469639Y-51442620D01*
X17622698Y-51289829D01*
X17754450Y-50972534D01*
X17754750Y-50628973D01*
X17623551Y-50311449D01*
X17380829Y-50068302D01*
X17063534Y-49936550D01*
X16719973Y-49936250D01*
X16402449Y-50067449D01*
X16279283Y-50190400D01*
X10263714Y-50190400D01*
X10141829Y-50068302D01*
X9824534Y-49936550D01*
X9480973Y-49936250D01*
X9163449Y-50067449D01*
X8920302Y-50310171D01*
X8788550Y-50627466D01*
X8788250Y-50971027D01*
X8919449Y-51288551D01*
X9073249Y-51442620D01*
X506505Y-51442620D01*
X355600Y-51291716D01*
X355600Y-22733000D01*
X309197Y-22499716D01*
X177052Y-22301948D01*
X-177801Y-21947095D01*
X-177650Y-21774573D01*
X-308849Y-21457049D01*
X-551571Y-21213902D01*
X-868866Y-21082150D01*
X-1212427Y-21081850D01*
X-1529951Y-21213049D01*
X-1773098Y-21455771D01*
X-1904850Y-21773066D01*
X-1905150Y-22116627D01*
X-1773951Y-22434151D01*
X-1531229Y-22677298D01*
X-1213934Y-22809050D01*
X-1039902Y-22809202D01*
X-863600Y-22985504D01*
X-863600Y-36195000D01*
X-7824400Y-36195000D01*
X-7824400Y-11601027D01*
X2692250Y-11601027D01*
X2823449Y-11918551D01*
X3066171Y-12161698D01*
X3383466Y-12293450D01*
X3727027Y-12293750D01*
X4044551Y-12162551D01*
X4104106Y-12103100D01*
X8087675Y-12103100D01*
X8146171Y-12161698D01*
X8463466Y-12293450D01*
X8807027Y-12293750D01*
X9124551Y-12162551D01*
X9184106Y-12103100D01*
X13167675Y-12103100D01*
X13226171Y-12161698D01*
X13543466Y-12293450D01*
X13887027Y-12293750D01*
X14204551Y-12162551D01*
X14264106Y-12103100D01*
X18247675Y-12103100D01*
X18306171Y-12161698D01*
X18623466Y-12293450D01*
X18967027Y-12293750D01*
X19284551Y-12162551D01*
X19344106Y-12103100D01*
X23327675Y-12103100D01*
X23386171Y-12161698D01*
X23703466Y-12293450D01*
X24047027Y-12293750D01*
X24364551Y-12162551D01*
X24424106Y-12103100D01*
X28407675Y-12103100D01*
X28466171Y-12161698D01*
X28783466Y-12293450D01*
X29127027Y-12293750D01*
X29444551Y-12162551D01*
X29504106Y-12103100D01*
X33487675Y-12103100D01*
X33546171Y-12161698D01*
X33863466Y-12293450D01*
X34207027Y-12293750D01*
X34524551Y-12162551D01*
X34584106Y-12103100D01*
X38567675Y-12103100D01*
X38626171Y-12161698D01*
X38943466Y-12293450D01*
X39287027Y-12293750D01*
X39604551Y-12162551D01*
X39664106Y-12103100D01*
X49743675Y-12103100D01*
X49802171Y-12161698D01*
X50119466Y-12293450D01*
X50463027Y-12293750D01*
X50780551Y-12162551D01*
X51023698Y-11919829D01*
X51155450Y-11602534D01*
X51155750Y-11258973D01*
X51024551Y-10941449D01*
X50781829Y-10698302D01*
X50464534Y-10566550D01*
X50120973Y-10566250D01*
X49803449Y-10697449D01*
X49743894Y-10756900D01*
X39664325Y-10756900D01*
X39605829Y-10698302D01*
X39288534Y-10566550D01*
X38944973Y-10566250D01*
X38627449Y-10697449D01*
X38567894Y-10756900D01*
X34584325Y-10756900D01*
X34525829Y-10698302D01*
X34208534Y-10566550D01*
X33864973Y-10566250D01*
X33547449Y-10697449D01*
X33487894Y-10756900D01*
X29504325Y-10756900D01*
X29445829Y-10698302D01*
X29128534Y-10566550D01*
X28784973Y-10566250D01*
X28467449Y-10697449D01*
X28407894Y-10756900D01*
X24424325Y-10756900D01*
X24365829Y-10698302D01*
X24048534Y-10566550D01*
X23704973Y-10566250D01*
X23387449Y-10697449D01*
X23327894Y-10756900D01*
X19344325Y-10756900D01*
X19285829Y-10698302D01*
X18968534Y-10566550D01*
X18624973Y-10566250D01*
X18307449Y-10697449D01*
X18247894Y-10756900D01*
X14264325Y-10756900D01*
X14205829Y-10698302D01*
X13888534Y-10566550D01*
X13544973Y-10566250D01*
X13227449Y-10697449D01*
X13167894Y-10756900D01*
X9184325Y-10756900D01*
X9125829Y-10698302D01*
X8808534Y-10566550D01*
X8464973Y-10566250D01*
X8147449Y-10697449D01*
X8087894Y-10756900D01*
X4104325Y-10756900D01*
X4045829Y-10698302D01*
X3728534Y-10566550D01*
X3384973Y-10566250D01*
X3067449Y-10697449D01*
X2824302Y-10940171D01*
X2692550Y-11257466D01*
X2692250Y-11601027D01*
X-7824400Y-11601027D01*
X-7824400Y-6521027D01*
X2692250Y-6521027D01*
X2823449Y-6838551D01*
X3066171Y-7081698D01*
X3383466Y-7213450D01*
X3727027Y-7213750D01*
X4044551Y-7082551D01*
X4104106Y-7023100D01*
X8087675Y-7023100D01*
X8146171Y-7081698D01*
X8463466Y-7213450D01*
X8807027Y-7213750D01*
X9124551Y-7082551D01*
X9184106Y-7023100D01*
X13167675Y-7023100D01*
X13226171Y-7081698D01*
X13543466Y-7213450D01*
X13887027Y-7213750D01*
X14204551Y-7082551D01*
X14264106Y-7023100D01*
X18247675Y-7023100D01*
X18306171Y-7081698D01*
X18623466Y-7213450D01*
X18967027Y-7213750D01*
X19284551Y-7082551D01*
X19344106Y-7023100D01*
X23327675Y-7023100D01*
X23386171Y-7081698D01*
X23703466Y-7213450D01*
X24047027Y-7213750D01*
X24364551Y-7082551D01*
X24424106Y-7023100D01*
X28407675Y-7023100D01*
X28466171Y-7081698D01*
X28783466Y-7213450D01*
X29127027Y-7213750D01*
X29444551Y-7082551D01*
X29504106Y-7023100D01*
X33487675Y-7023100D01*
X33546171Y-7081698D01*
X33863466Y-7213450D01*
X34207027Y-7213750D01*
X34524551Y-7082551D01*
X34584106Y-7023100D01*
X38567675Y-7023100D01*
X38626171Y-7081698D01*
X38943466Y-7213450D01*
X39287027Y-7213750D01*
X39604551Y-7082551D01*
X39664106Y-7023100D01*
X43368275Y-7023100D01*
X43426771Y-7081698D01*
X43744066Y-7213450D01*
X44087627Y-7213750D01*
X44405151Y-7082551D01*
X44648298Y-6839829D01*
X44780050Y-6522534D01*
X44780350Y-6178973D01*
X44649151Y-5861449D01*
X44406429Y-5618302D01*
X44089134Y-5486550D01*
X43745573Y-5486250D01*
X43428049Y-5617449D01*
X43368494Y-5676900D01*
X39664325Y-5676900D01*
X39605829Y-5618302D01*
X39288534Y-5486550D01*
X38944973Y-5486250D01*
X38627449Y-5617449D01*
X38567894Y-5676900D01*
X34584325Y-5676900D01*
X34525829Y-5618302D01*
X34208534Y-5486550D01*
X33864973Y-5486250D01*
X33547449Y-5617449D01*
X33487894Y-5676900D01*
X29504325Y-5676900D01*
X29445829Y-5618302D01*
X29128534Y-5486550D01*
X28784973Y-5486250D01*
X28467449Y-5617449D01*
X28407894Y-5676900D01*
X24424325Y-5676900D01*
X24365829Y-5618302D01*
X24048534Y-5486550D01*
X23704973Y-5486250D01*
X23387449Y-5617449D01*
X23327894Y-5676900D01*
X19344325Y-5676900D01*
X19285829Y-5618302D01*
X18968534Y-5486550D01*
X18624973Y-5486250D01*
X18307449Y-5617449D01*
X18247894Y-5676900D01*
X14264325Y-5676900D01*
X14205829Y-5618302D01*
X13888534Y-5486550D01*
X13544973Y-5486250D01*
X13227449Y-5617449D01*
X13167894Y-5676900D01*
X9184325Y-5676900D01*
X9125829Y-5618302D01*
X8808534Y-5486550D01*
X8464973Y-5486250D01*
X8147449Y-5617449D01*
X8087894Y-5676900D01*
X4104325Y-5676900D01*
X4045829Y-5618302D01*
X3728534Y-5486550D01*
X3384973Y-5486250D01*
X3067449Y-5617449D01*
X2824302Y-5860171D01*
X2692550Y-6177466D01*
X2692250Y-6521027D01*
X-7824400Y-6521027D01*
X-7824400Y-2678633D01*
X-7062943Y-2678633D01*
X-6761746Y-3407585D01*
X-6204519Y-3965786D01*
X-5476094Y-4268255D01*
X-4687367Y-4268943D01*
X-3958415Y-3967746D01*
X-3400214Y-3410519D01*
X-3097745Y-2682094D01*
X-3097057Y-1893367D01*
X-3283960Y-1441027D01*
X2692250Y-1441027D01*
X2823449Y-1758551D01*
X3066171Y-2001698D01*
X3383466Y-2133450D01*
X3727027Y-2133750D01*
X4044551Y-2002551D01*
X4104106Y-1943100D01*
X8087675Y-1943100D01*
X8146171Y-2001698D01*
X8463466Y-2133450D01*
X8807027Y-2133750D01*
X9124551Y-2002551D01*
X9184106Y-1943100D01*
X13167675Y-1943100D01*
X13226171Y-2001698D01*
X13543466Y-2133450D01*
X13887027Y-2133750D01*
X14204551Y-2002551D01*
X14264106Y-1943100D01*
X18247675Y-1943100D01*
X18306171Y-2001698D01*
X18623466Y-2133450D01*
X18967027Y-2133750D01*
X19284551Y-2002551D01*
X19344106Y-1943100D01*
X23327675Y-1943100D01*
X23386171Y-2001698D01*
X23703466Y-2133450D01*
X24047027Y-2133750D01*
X24364551Y-2002551D01*
X24424106Y-1943100D01*
X28407675Y-1943100D01*
X28466171Y-2001698D01*
X28783466Y-2133450D01*
X29127027Y-2133750D01*
X29444551Y-2002551D01*
X29504106Y-1943100D01*
X33487675Y-1943100D01*
X33546171Y-2001698D01*
X33863466Y-2133450D01*
X34207027Y-2133750D01*
X34524551Y-2002551D01*
X34584106Y-1943100D01*
X38567675Y-1943100D01*
X38626171Y-2001698D01*
X38943466Y-2133450D01*
X39287027Y-2133750D01*
X39604551Y-2002551D01*
X39664106Y-1943100D01*
X42647192Y-1943100D01*
X42951322Y-2247230D01*
X42951250Y-2330027D01*
X43082449Y-2647551D01*
X43325171Y-2890698D01*
X43642466Y-3022450D01*
X43986027Y-3022750D01*
X44303551Y-2891551D01*
X44516841Y-2678633D01*
X49833057Y-2678633D01*
X50134254Y-3407585D01*
X50691481Y-3965786D01*
X51419906Y-4268255D01*
X52208633Y-4268943D01*
X52937585Y-3967746D01*
X53495786Y-3410519D01*
X53798255Y-2682094D01*
X53798943Y-1893367D01*
X53497746Y-1164415D01*
X52940519Y-606214D01*
X52212094Y-303745D01*
X51423367Y-303057D01*
X50694415Y-604254D01*
X50136214Y-1161481D01*
X49833745Y-1889906D01*
X49833057Y-2678633D01*
X44516841Y-2678633D01*
X44546698Y-2648829D01*
X44678450Y-2331534D01*
X44678750Y-1987973D01*
X44547551Y-1670449D01*
X44304829Y-1427302D01*
X43987534Y-1295550D01*
X43903384Y-1295477D01*
X43401954Y-794046D01*
X43183584Y-648137D01*
X42926000Y-596899D01*
X42925995Y-596900D01*
X39664325Y-596900D01*
X39605829Y-538302D01*
X39288534Y-406550D01*
X38944973Y-406250D01*
X38627449Y-537449D01*
X38567894Y-596900D01*
X34584325Y-596900D01*
X34525829Y-538302D01*
X34208534Y-406550D01*
X33864973Y-406250D01*
X33547449Y-537449D01*
X33487894Y-596900D01*
X29504325Y-596900D01*
X29445829Y-538302D01*
X29128534Y-406550D01*
X28784973Y-406250D01*
X28467449Y-537449D01*
X28407894Y-596900D01*
X24424325Y-596900D01*
X24365829Y-538302D01*
X24048534Y-406550D01*
X23704973Y-406250D01*
X23387449Y-537449D01*
X23327894Y-596900D01*
X19344325Y-596900D01*
X19285829Y-538302D01*
X18968534Y-406550D01*
X18624973Y-406250D01*
X18307449Y-537449D01*
X18247894Y-596900D01*
X14264325Y-596900D01*
X14205829Y-538302D01*
X13888534Y-406550D01*
X13544973Y-406250D01*
X13227449Y-537449D01*
X13167894Y-596900D01*
X9184325Y-596900D01*
X9125829Y-538302D01*
X8808534Y-406550D01*
X8464973Y-406250D01*
X8147449Y-537449D01*
X8087894Y-596900D01*
X4104325Y-596900D01*
X4045829Y-538302D01*
X3728534Y-406550D01*
X3384973Y-406250D01*
X3067449Y-537449D01*
X2824302Y-780171D01*
X2692550Y-1097466D01*
X2692250Y-1441027D01*
X-3283960Y-1441027D01*
X-3398254Y-1164415D01*
X-3955481Y-606214D01*
X-4683906Y-303745D01*
X-5472633Y-303057D01*
X-6201585Y-604254D01*
X-6759786Y-1161481D01*
X-7062255Y-1889906D01*
X-7062943Y-2678633D01*
X-7824400Y-2678633D01*
X-7824400Y4572000D01*
X15840766Y4572000D01*
X16067803Y3430608D01*
X16714349Y2462983D01*
X17681974Y1816437D01*
X18823366Y1589400D01*
X27912634Y1589400D01*
X29054026Y1816437D01*
X30021651Y2462983D01*
X30668197Y3430608D01*
X30895234Y4572000D01*
X30668197Y5713392D01*
X30021651Y6681017D01*
X29054026Y7327563D01*
X27912634Y7554600D01*
X18823366Y7554600D01*
X17681974Y7327563D01*
X16714349Y6681017D01*
X16067803Y5713392D01*
X15840766Y4572000D01*
X-7824400Y4572000D01*
X-7824400Y7565081D01*
X-7663406Y8374452D01*
X-7236042Y9014045D01*
X-6596452Y9441406D01*
X-5787081Y9602400D01*
X52523081Y9602400D01*
X53332452Y9441406D01*
X53332452Y9441406D01*
G37*
X53332452Y9441406D02*
X53972045Y9014042D01*
X54399406Y8374452D01*
X54560400Y7565081D01*
X54560400Y-27056338D01*
X54538197Y-26944716D01*
X54406052Y-26746948D01*
X53390052Y-25730948D01*
X53192284Y-25598803D01*
X52959000Y-25552400D01*
X48363714Y-25552400D01*
X48241829Y-25430302D01*
X47924534Y-25298550D01*
X47580973Y-25298250D01*
X47263449Y-25429449D01*
X47020302Y-25672171D01*
X46888550Y-25989466D01*
X46888250Y-26333027D01*
X47019449Y-26650551D01*
X47262171Y-26893698D01*
X47579466Y-27025450D01*
X47923027Y-27025750D01*
X48240551Y-26894551D01*
X48363717Y-26771600D01*
X52706496Y-26771600D01*
X53365400Y-27430504D01*
X53365400Y-30162149D01*
X53326863Y-29968416D01*
X53180954Y-29750046D01*
X53180951Y-29750044D01*
X52545954Y-29115046D01*
X52327584Y-28969137D01*
X52070000Y-28917899D01*
X52069995Y-28917900D01*
X46471217Y-28917900D01*
X46705698Y-28683829D01*
X46837450Y-28366534D01*
X46837750Y-28022973D01*
X46706551Y-27705449D01*
X46463829Y-27462302D01*
X46146534Y-27330550D01*
X45802973Y-27330250D01*
X45485449Y-27461449D01*
X45445668Y-27501161D01*
X44138554Y-26194046D01*
X43920184Y-26048137D01*
X43662600Y-25996899D01*
X43662595Y-25996900D01*
X39664325Y-25996900D01*
X39605829Y-25938302D01*
X39288534Y-25806550D01*
X38944973Y-25806250D01*
X38627449Y-25937449D01*
X38567894Y-25996900D01*
X34584325Y-25996900D01*
X34525829Y-25938302D01*
X34208534Y-25806550D01*
X33864973Y-25806250D01*
X33547449Y-25937449D01*
X33487894Y-25996900D01*
X29504325Y-25996900D01*
X29445829Y-25938302D01*
X29128534Y-25806550D01*
X28784973Y-25806250D01*
X28467449Y-25937449D01*
X28407894Y-25996900D01*
X24424325Y-25996900D01*
X24365829Y-25938302D01*
X24048534Y-25806550D01*
X23704973Y-25806250D01*
X23387449Y-25937449D01*
X23327894Y-25996900D01*
X19344325Y-25996900D01*
X19285829Y-25938302D01*
X18968534Y-25806550D01*
X18624973Y-25806250D01*
X18307449Y-25937449D01*
X18247894Y-25996900D01*
X14264325Y-25996900D01*
X14205829Y-25938302D01*
X13888534Y-25806550D01*
X13544973Y-25806250D01*
X13227449Y-25937449D01*
X13167894Y-25996900D01*
X9184325Y-25996900D01*
X9125829Y-25938302D01*
X8808534Y-25806550D01*
X8464973Y-25806250D01*
X8147449Y-25937449D01*
X8087894Y-25996900D01*
X4104325Y-25996900D01*
X4045829Y-25938302D01*
X3728534Y-25806550D01*
X3384973Y-25806250D01*
X3149600Y-25903505D01*
X3149600Y-22356341D01*
X3383466Y-22453450D01*
X3727027Y-22453750D01*
X4044551Y-22322551D01*
X4104106Y-22263100D01*
X8087675Y-22263100D01*
X8146171Y-22321698D01*
X8463466Y-22453450D01*
X8807027Y-22453750D01*
X9124551Y-22322551D01*
X9184106Y-22263100D01*
X13167675Y-22263100D01*
X13226171Y-22321698D01*
X13543466Y-22453450D01*
X13887027Y-22453750D01*
X14204551Y-22322551D01*
X14264106Y-22263100D01*
X18247675Y-22263100D01*
X18306171Y-22321698D01*
X18623466Y-22453450D01*
X18967027Y-22453750D01*
X19284551Y-22322551D01*
X19344106Y-22263100D01*
X23327675Y-22263100D01*
X23386171Y-22321698D01*
X23703466Y-22453450D01*
X24047027Y-22453750D01*
X24364551Y-22322551D01*
X24424106Y-22263100D01*
X28407675Y-22263100D01*
X28466171Y-22321698D01*
X28783466Y-22453450D01*
X29127027Y-22453750D01*
X29444551Y-22322551D01*
X29504106Y-22263100D01*
X33487675Y-22263100D01*
X33546171Y-22321698D01*
X33863466Y-22453450D01*
X34207027Y-22453750D01*
X34524551Y-22322551D01*
X34584106Y-22263100D01*
X38567675Y-22263100D01*
X38626171Y-22321698D01*
X38943466Y-22453450D01*
X39287027Y-22453750D01*
X39604551Y-22322551D01*
X39664106Y-22263100D01*
X47076675Y-22263100D01*
X47135171Y-22321698D01*
X47452466Y-22453450D01*
X47796027Y-22453750D01*
X48113551Y-22322551D01*
X48356698Y-22079829D01*
X48488450Y-21762534D01*
X48488750Y-21418973D01*
X48443971Y-21310600D01*
X50420496Y-21310600D01*
X50698401Y-21588505D01*
X50698250Y-21761027D01*
X50829449Y-22078551D01*
X51072171Y-22321698D01*
X51389466Y-22453450D01*
X51733027Y-22453750D01*
X52050551Y-22322551D01*
X52293698Y-22079829D01*
X52425450Y-21762534D01*
X52425750Y-21418973D01*
X52294551Y-21101449D01*
X52051829Y-20858302D01*
X51734534Y-20726550D01*
X51560502Y-20726398D01*
X51104052Y-20269948D01*
X50906284Y-20137803D01*
X50673000Y-20091400D01*
X45343341Y-20091400D01*
X45440450Y-19857534D01*
X45440750Y-19513973D01*
X45420439Y-19464816D01*
X45573551Y-19401551D01*
X45816698Y-19158829D01*
X45948450Y-18841534D01*
X45948750Y-18497973D01*
X45820010Y-18186400D01*
X51686886Y-18186400D01*
X51808771Y-18308498D01*
X52126066Y-18440250D01*
X52469627Y-18440550D01*
X52787151Y-18309351D01*
X53030298Y-18066629D01*
X53162050Y-17749334D01*
X53162350Y-17405773D01*
X53031151Y-17088249D01*
X52788429Y-16845102D01*
X52471134Y-16713350D01*
X52127573Y-16713050D01*
X51810049Y-16844249D01*
X51686883Y-16967200D01*
X50021247Y-16967200D01*
X50139450Y-16682534D01*
X50139750Y-16338973D01*
X50008551Y-16021449D01*
X49765829Y-15778302D01*
X49448534Y-15646550D01*
X49104973Y-15646250D01*
X48787449Y-15777449D01*
X48727894Y-15836900D01*
X39664325Y-15836900D01*
X39605829Y-15778302D01*
X39288534Y-15646550D01*
X38944973Y-15646250D01*
X38627449Y-15777449D01*
X38567894Y-15836900D01*
X34584325Y-15836900D01*
X34525829Y-15778302D01*
X34208534Y-15646550D01*
X33864973Y-15646250D01*
X33547449Y-15777449D01*
X33487894Y-15836900D01*
X29504325Y-15836900D01*
X29445829Y-15778302D01*
X29128534Y-15646550D01*
X28784973Y-15646250D01*
X28467449Y-15777449D01*
X28407894Y-15836900D01*
X24424325Y-15836900D01*
X24365829Y-15778302D01*
X24048534Y-15646550D01*
X23704973Y-15646250D01*
X23387449Y-15777449D01*
X23327894Y-15836900D01*
X19344325Y-15836900D01*
X19285829Y-15778302D01*
X18968534Y-15646550D01*
X18624973Y-15646250D01*
X18307449Y-15777449D01*
X18247894Y-15836900D01*
X14264325Y-15836900D01*
X14205829Y-15778302D01*
X13888534Y-15646550D01*
X13544973Y-15646250D01*
X13227449Y-15777449D01*
X13167894Y-15836900D01*
X9184325Y-15836900D01*
X9125829Y-15778302D01*
X8808534Y-15646550D01*
X8464973Y-15646250D01*
X8147449Y-15777449D01*
X8087894Y-15836900D01*
X4104325Y-15836900D01*
X4045829Y-15778302D01*
X3728534Y-15646550D01*
X3384973Y-15646250D01*
X3067449Y-15777449D01*
X2824302Y-16020171D01*
X2692550Y-16337466D01*
X2692250Y-16681027D01*
X2823449Y-16998551D01*
X3066171Y-17241698D01*
X3383466Y-17373450D01*
X3727027Y-17373750D01*
X4044551Y-17242551D01*
X4104106Y-17183100D01*
X8087675Y-17183100D01*
X8146171Y-17241698D01*
X8463466Y-17373450D01*
X8807027Y-17373750D01*
X9124551Y-17242551D01*
X9184106Y-17183100D01*
X13167675Y-17183100D01*
X13226171Y-17241698D01*
X13543466Y-17373450D01*
X13869761Y-17373735D01*
X12371295Y-18872201D01*
X12198773Y-18872050D01*
X11881249Y-19003249D01*
X11638102Y-19245971D01*
X11506350Y-19563266D01*
X11506050Y-19906827D01*
X11582314Y-20091400D01*
X2921000Y-20091400D01*
X2687716Y-20137803D01*
X2489947Y-20269948D01*
X2108948Y-20650948D01*
X1976803Y-20848716D01*
X1930400Y-21082000D01*
X1930400Y-44219286D01*
X1808302Y-44341171D01*
X1676550Y-44658466D01*
X1676250Y-45002027D01*
X1807449Y-45319551D01*
X2050171Y-45562698D01*
X2367466Y-45694450D01*
X2711027Y-45694750D01*
X3028551Y-45563551D01*
X3271698Y-45320829D01*
X3403450Y-45003534D01*
X3403750Y-44659973D01*
X3272551Y-44342449D01*
X3149600Y-44219283D01*
X3149600Y-37596341D01*
X3383466Y-37693450D01*
X3727027Y-37693750D01*
X4044551Y-37562551D01*
X4104106Y-37503100D01*
X5725560Y-37503100D01*
X5618302Y-37610171D01*
X5486550Y-37927466D01*
X5486250Y-38271027D01*
X5617449Y-38588551D01*
X5860171Y-38831698D01*
X6177466Y-38963450D01*
X6521027Y-38963750D01*
X6838551Y-38832551D01*
X6898106Y-38773100D01*
X10637292Y-38773100D01*
X10566550Y-38943466D01*
X10566250Y-39287027D01*
X10697449Y-39604551D01*
X10940171Y-39847698D01*
X11257466Y-39979450D01*
X11601027Y-39979750D01*
X11918551Y-39848551D01*
X12161698Y-39605829D01*
X12264895Y-39357302D01*
X28315452Y-39357302D01*
X28213449Y-39399449D01*
X27970302Y-39642171D01*
X27838550Y-39959466D01*
X27838250Y-40303027D01*
X27969449Y-40620551D01*
X28212171Y-40863698D01*
X28529466Y-40995450D01*
X28873027Y-40995750D01*
X29190551Y-40864551D01*
X29250106Y-40805100D01*
X43790192Y-40805100D01*
X43903900Y-40918807D01*
X43903900Y-41401995D01*
X43903899Y-41402000D01*
X43955137Y-41659584D01*
X44101046Y-41877954D01*
X44793492Y-42570400D01*
X38787828Y-42570400D01*
X38958698Y-42399829D01*
X39090450Y-42082534D01*
X39090750Y-41738973D01*
X38959551Y-41421449D01*
X38716829Y-41178302D01*
X38399534Y-41046550D01*
X38055973Y-41046250D01*
X37738449Y-41177449D01*
X37615283Y-41300400D01*
X26011714Y-41300400D01*
X25889829Y-41178302D01*
X25572534Y-41046550D01*
X25228973Y-41046250D01*
X24911449Y-41177449D01*
X24668302Y-41420171D01*
X24536550Y-41737466D01*
X24536250Y-42081027D01*
X24667449Y-42398551D01*
X24838998Y-42570400D01*
X22098000Y-42570400D01*
X21864716Y-42616803D01*
X21744060Y-42697423D01*
X21545973Y-42697250D01*
X21228449Y-42828449D01*
X20985302Y-43071171D01*
X20853550Y-43388466D01*
X20853250Y-43732027D01*
X20984449Y-44049551D01*
X21227171Y-44292698D01*
X21544466Y-44424450D01*
X21888027Y-44424750D01*
X22205551Y-44293551D01*
X22448698Y-44050829D01*
X22557169Y-43789600D01*
X24839172Y-43789600D01*
X24668302Y-43960171D01*
X24536550Y-44277466D01*
X24536250Y-44621027D01*
X24581029Y-44729400D01*
X19939000Y-44729400D01*
X19705716Y-44775803D01*
X19626502Y-44828733D01*
X19507948Y-44907947D01*
X19305495Y-45110401D01*
X19132973Y-45110250D01*
X18815449Y-45241449D01*
X18572302Y-45484171D01*
X18440550Y-45801466D01*
X18440465Y-45899361D01*
X18084052Y-45542948D01*
X17886284Y-45410803D01*
X17653000Y-45364400D01*
X4802714Y-45364400D01*
X4680829Y-45242302D01*
X4363534Y-45110550D01*
X4019973Y-45110250D01*
X3702449Y-45241449D01*
X3459302Y-45484171D01*
X3327550Y-45801466D01*
X3327250Y-46145027D01*
X3424549Y-46380506D01*
X3130973Y-46380250D01*
X2813449Y-46511449D01*
X2570302Y-46754171D01*
X2438550Y-47071466D01*
X2438250Y-47415027D01*
X2569449Y-47732551D01*
X2812171Y-47975698D01*
X3129466Y-48107450D01*
X3473027Y-48107750D01*
X3790551Y-47976551D01*
X3913717Y-47853600D01*
X4264949Y-47853600D01*
X4221302Y-47897171D01*
X4089550Y-48214466D01*
X4089250Y-48558027D01*
X4220449Y-48875551D01*
X4463171Y-49118698D01*
X4780466Y-49250450D01*
X5124027Y-49250750D01*
X5441551Y-49119551D01*
X5564717Y-48996600D01*
X16279286Y-48996600D01*
X16401171Y-49118698D01*
X16718466Y-49250450D01*
X17062027Y-49250750D01*
X17379551Y-49119551D01*
X17622698Y-48876829D01*
X17754450Y-48559534D01*
X17754750Y-48215973D01*
X17623551Y-47898449D01*
X17578780Y-47853600D01*
X22860000Y-47853600D01*
X23093284Y-47807197D01*
X23291052Y-47675052D01*
X24001505Y-46964599D01*
X24174027Y-46964750D01*
X24409506Y-46867451D01*
X24409250Y-47161027D01*
X24540449Y-47478551D01*
X24695696Y-47634070D01*
X24429534Y-47523550D01*
X24085973Y-47523250D01*
X23768449Y-47654449D01*
X23525302Y-47897171D01*
X23393550Y-48214466D01*
X23393250Y-48558027D01*
X23524449Y-48875551D01*
X23767171Y-49118698D01*
X24084466Y-49250450D01*
X24428027Y-49250750D01*
X24612515Y-49174521D01*
X24536550Y-49357466D01*
X24536266Y-49682400D01*
X21082000Y-49682400D01*
X20848716Y-49728803D01*
X20797112Y-49763284D01*
X20650948Y-49860947D01*
X20015948Y-50495948D01*
X19883803Y-50693716D01*
X19837400Y-50927000D01*
X19837400Y-51442620D01*
X17469639Y-51442620D01*
X17622698Y-51289829D01*
X17754450Y-50972534D01*
X17754750Y-50628973D01*
X17623551Y-50311449D01*
X17380829Y-50068302D01*
X17063534Y-49936550D01*
X16719973Y-49936250D01*
X16402449Y-50067449D01*
X16279283Y-50190400D01*
X10263714Y-50190400D01*
X10141829Y-50068302D01*
X9824534Y-49936550D01*
X9480973Y-49936250D01*
X9163449Y-50067449D01*
X8920302Y-50310171D01*
X8788550Y-50627466D01*
X8788250Y-50971027D01*
X8919449Y-51288551D01*
X9073249Y-51442620D01*
X506505Y-51442620D01*
X355600Y-51291716D01*
X355600Y-22733000D01*
X309197Y-22499716D01*
X177052Y-22301948D01*
X-177801Y-21947095D01*
X-177650Y-21774573D01*
X-308849Y-21457049D01*
X-551571Y-21213902D01*
X-868866Y-21082150D01*
X-1212427Y-21081850D01*
X-1529951Y-21213049D01*
X-1773098Y-21455771D01*
X-1904850Y-21773066D01*
X-1905150Y-22116627D01*
X-1773951Y-22434151D01*
X-1531229Y-22677298D01*
X-1213934Y-22809050D01*
X-1039902Y-22809202D01*
X-863600Y-22985504D01*
X-863600Y-36195000D01*
X-7824400Y-36195000D01*
X-7824400Y-11601027D01*
X2692250Y-11601027D01*
X2823449Y-11918551D01*
X3066171Y-12161698D01*
X3383466Y-12293450D01*
X3727027Y-12293750D01*
X4044551Y-12162551D01*
X4104106Y-12103100D01*
X8087675Y-12103100D01*
X8146171Y-12161698D01*
X8463466Y-12293450D01*
X8807027Y-12293750D01*
X9124551Y-12162551D01*
X9184106Y-12103100D01*
X13167675Y-12103100D01*
X13226171Y-12161698D01*
X13543466Y-12293450D01*
X13887027Y-12293750D01*
X14204551Y-12162551D01*
X14264106Y-12103100D01*
X18247675Y-12103100D01*
X18306171Y-12161698D01*
X18623466Y-12293450D01*
X18967027Y-12293750D01*
X19284551Y-12162551D01*
X19344106Y-12103100D01*
X23327675Y-12103100D01*
X23386171Y-12161698D01*
X23703466Y-12293450D01*
X24047027Y-12293750D01*
X24364551Y-12162551D01*
X24424106Y-12103100D01*
X28407675Y-12103100D01*
X28466171Y-12161698D01*
X28783466Y-12293450D01*
X29127027Y-12293750D01*
X29444551Y-12162551D01*
X29504106Y-12103100D01*
X33487675Y-12103100D01*
X33546171Y-12161698D01*
X33863466Y-12293450D01*
X34207027Y-12293750D01*
X34524551Y-12162551D01*
X34584106Y-12103100D01*
X38567675Y-12103100D01*
X38626171Y-12161698D01*
X38943466Y-12293450D01*
X39287027Y-12293750D01*
X39604551Y-12162551D01*
X39664106Y-12103100D01*
X49743675Y-12103100D01*
X49802171Y-12161698D01*
X50119466Y-12293450D01*
X50463027Y-12293750D01*
X50780551Y-12162551D01*
X51023698Y-11919829D01*
X51155450Y-11602534D01*
X51155750Y-11258973D01*
X51024551Y-10941449D01*
X50781829Y-10698302D01*
X50464534Y-10566550D01*
X50120973Y-10566250D01*
X49803449Y-10697449D01*
X49743894Y-10756900D01*
X39664325Y-10756900D01*
X39605829Y-10698302D01*
X39288534Y-10566550D01*
X38944973Y-10566250D01*
X38627449Y-10697449D01*
X38567894Y-10756900D01*
X34584325Y-10756900D01*
X34525829Y-10698302D01*
X34208534Y-10566550D01*
X33864973Y-10566250D01*
X33547449Y-10697449D01*
X33487894Y-10756900D01*
X29504325Y-10756900D01*
X29445829Y-10698302D01*
X29128534Y-10566550D01*
X28784973Y-10566250D01*
X28467449Y-10697449D01*
X28407894Y-10756900D01*
X24424325Y-10756900D01*
X24365829Y-10698302D01*
X24048534Y-10566550D01*
X23704973Y-10566250D01*
X23387449Y-10697449D01*
X23327894Y-10756900D01*
X19344325Y-10756900D01*
X19285829Y-10698302D01*
X18968534Y-10566550D01*
X18624973Y-10566250D01*
X18307449Y-10697449D01*
X18247894Y-10756900D01*
X14264325Y-10756900D01*
X14205829Y-10698302D01*
X13888534Y-10566550D01*
X13544973Y-10566250D01*
X13227449Y-10697449D01*
X13167894Y-10756900D01*
X9184325Y-10756900D01*
X9125829Y-10698302D01*
X8808534Y-10566550D01*
X8464973Y-10566250D01*
X8147449Y-10697449D01*
X8087894Y-10756900D01*
X4104325Y-10756900D01*
X4045829Y-10698302D01*
X3728534Y-10566550D01*
X3384973Y-10566250D01*
X3067449Y-10697449D01*
X2824302Y-10940171D01*
X2692550Y-11257466D01*
X2692250Y-11601027D01*
X-7824400Y-11601027D01*
X-7824400Y-6521027D01*
X2692250Y-6521027D01*
X2823449Y-6838551D01*
X3066171Y-7081698D01*
X3383466Y-7213450D01*
X3727027Y-7213750D01*
X4044551Y-7082551D01*
X4104106Y-7023100D01*
X8087675Y-7023100D01*
X8146171Y-7081698D01*
X8463466Y-7213450D01*
X8807027Y-7213750D01*
X9124551Y-7082551D01*
X9184106Y-7023100D01*
X13167675Y-7023100D01*
X13226171Y-7081698D01*
X13543466Y-7213450D01*
X13887027Y-7213750D01*
X14204551Y-7082551D01*
X14264106Y-7023100D01*
X18247675Y-7023100D01*
X18306171Y-7081698D01*
X18623466Y-7213450D01*
X18967027Y-7213750D01*
X19284551Y-7082551D01*
X19344106Y-7023100D01*
X23327675Y-7023100D01*
X23386171Y-7081698D01*
X23703466Y-7213450D01*
X24047027Y-7213750D01*
X24364551Y-7082551D01*
X24424106Y-7023100D01*
X28407675Y-7023100D01*
X28466171Y-7081698D01*
X28783466Y-7213450D01*
X29127027Y-7213750D01*
X29444551Y-7082551D01*
X29504106Y-7023100D01*
X33487675Y-7023100D01*
X33546171Y-7081698D01*
X33863466Y-7213450D01*
X34207027Y-7213750D01*
X34524551Y-7082551D01*
X34584106Y-7023100D01*
X38567675Y-7023100D01*
X38626171Y-7081698D01*
X38943466Y-7213450D01*
X39287027Y-7213750D01*
X39604551Y-7082551D01*
X39664106Y-7023100D01*
X43368275Y-7023100D01*
X43426771Y-7081698D01*
X43744066Y-7213450D01*
X44087627Y-7213750D01*
X44405151Y-7082551D01*
X44648298Y-6839829D01*
X44780050Y-6522534D01*
X44780350Y-6178973D01*
X44649151Y-5861449D01*
X44406429Y-5618302D01*
X44089134Y-5486550D01*
X43745573Y-5486250D01*
X43428049Y-5617449D01*
X43368494Y-5676900D01*
X39664325Y-5676900D01*
X39605829Y-5618302D01*
X39288534Y-5486550D01*
X38944973Y-5486250D01*
X38627449Y-5617449D01*
X38567894Y-5676900D01*
X34584325Y-5676900D01*
X34525829Y-5618302D01*
X34208534Y-5486550D01*
X33864973Y-5486250D01*
X33547449Y-5617449D01*
X33487894Y-5676900D01*
X29504325Y-5676900D01*
X29445829Y-5618302D01*
X29128534Y-5486550D01*
X28784973Y-5486250D01*
X28467449Y-5617449D01*
X28407894Y-5676900D01*
X24424325Y-5676900D01*
X24365829Y-5618302D01*
X24048534Y-5486550D01*
X23704973Y-5486250D01*
X23387449Y-5617449D01*
X23327894Y-5676900D01*
X19344325Y-5676900D01*
X19285829Y-5618302D01*
X18968534Y-5486550D01*
X18624973Y-5486250D01*
X18307449Y-5617449D01*
X18247894Y-5676900D01*
X14264325Y-5676900D01*
X14205829Y-5618302D01*
X13888534Y-5486550D01*
X13544973Y-5486250D01*
X13227449Y-5617449D01*
X13167894Y-5676900D01*
X9184325Y-5676900D01*
X9125829Y-5618302D01*
X8808534Y-5486550D01*
X8464973Y-5486250D01*
X8147449Y-5617449D01*
X8087894Y-5676900D01*
X4104325Y-5676900D01*
X4045829Y-5618302D01*
X3728534Y-5486550D01*
X3384973Y-5486250D01*
X3067449Y-5617449D01*
X2824302Y-5860171D01*
X2692550Y-6177466D01*
X2692250Y-6521027D01*
X-7824400Y-6521027D01*
X-7824400Y-2678633D01*
X-7062943Y-2678633D01*
X-6761746Y-3407585D01*
X-6204519Y-3965786D01*
X-5476094Y-4268255D01*
X-4687367Y-4268943D01*
X-3958415Y-3967746D01*
X-3400214Y-3410519D01*
X-3097745Y-2682094D01*
X-3097057Y-1893367D01*
X-3283960Y-1441027D01*
X2692250Y-1441027D01*
X2823449Y-1758551D01*
X3066171Y-2001698D01*
X3383466Y-2133450D01*
X3727027Y-2133750D01*
X4044551Y-2002551D01*
X4104106Y-1943100D01*
X8087675Y-1943100D01*
X8146171Y-2001698D01*
X8463466Y-2133450D01*
X8807027Y-2133750D01*
X9124551Y-2002551D01*
X9184106Y-1943100D01*
X13167675Y-1943100D01*
X13226171Y-2001698D01*
X13543466Y-2133450D01*
X13887027Y-2133750D01*
X14204551Y-2002551D01*
X14264106Y-1943100D01*
X18247675Y-1943100D01*
X18306171Y-2001698D01*
X18623466Y-2133450D01*
X18967027Y-2133750D01*
X19284551Y-2002551D01*
X19344106Y-1943100D01*
X23327675Y-1943100D01*
X23386171Y-2001698D01*
X23703466Y-2133450D01*
X24047027Y-2133750D01*
X24364551Y-2002551D01*
X24424106Y-1943100D01*
X28407675Y-1943100D01*
X28466171Y-2001698D01*
X28783466Y-2133450D01*
X29127027Y-2133750D01*
X29444551Y-2002551D01*
X29504106Y-1943100D01*
X33487675Y-1943100D01*
X33546171Y-2001698D01*
X33863466Y-2133450D01*
X34207027Y-2133750D01*
X34524551Y-2002551D01*
X34584106Y-1943100D01*
X38567675Y-1943100D01*
X38626171Y-2001698D01*
X38943466Y-2133450D01*
X39287027Y-2133750D01*
X39604551Y-2002551D01*
X39664106Y-1943100D01*
X42647192Y-1943100D01*
X42951322Y-2247230D01*
X42951250Y-2330027D01*
X43082449Y-2647551D01*
X43325171Y-2890698D01*
X43642466Y-3022450D01*
X43986027Y-3022750D01*
X44303551Y-2891551D01*
X44516841Y-2678633D01*
X49833057Y-2678633D01*
X50134254Y-3407585D01*
X50691481Y-3965786D01*
X51419906Y-4268255D01*
X52208633Y-4268943D01*
X52937585Y-3967746D01*
X53495786Y-3410519D01*
X53798255Y-2682094D01*
X53798943Y-1893367D01*
X53497746Y-1164415D01*
X52940519Y-606214D01*
X52212094Y-303745D01*
X51423367Y-303057D01*
X50694415Y-604254D01*
X50136214Y-1161481D01*
X49833745Y-1889906D01*
X49833057Y-2678633D01*
X44516841Y-2678633D01*
X44546698Y-2648829D01*
X44678450Y-2331534D01*
X44678750Y-1987973D01*
X44547551Y-1670449D01*
X44304829Y-1427302D01*
X43987534Y-1295550D01*
X43903384Y-1295477D01*
X43401954Y-794046D01*
X43183584Y-648137D01*
X42926000Y-596899D01*
X42925995Y-596900D01*
X39664325Y-596900D01*
X39605829Y-538302D01*
X39288534Y-406550D01*
X38944973Y-406250D01*
X38627449Y-537449D01*
X38567894Y-596900D01*
X34584325Y-596900D01*
X34525829Y-538302D01*
X34208534Y-406550D01*
X33864973Y-406250D01*
X33547449Y-537449D01*
X33487894Y-596900D01*
X29504325Y-596900D01*
X29445829Y-538302D01*
X29128534Y-406550D01*
X28784973Y-406250D01*
X28467449Y-537449D01*
X28407894Y-596900D01*
X24424325Y-596900D01*
X24365829Y-538302D01*
X24048534Y-406550D01*
X23704973Y-406250D01*
X23387449Y-537449D01*
X23327894Y-596900D01*
X19344325Y-596900D01*
X19285829Y-538302D01*
X18968534Y-406550D01*
X18624973Y-406250D01*
X18307449Y-537449D01*
X18247894Y-596900D01*
X14264325Y-596900D01*
X14205829Y-538302D01*
X13888534Y-406550D01*
X13544973Y-406250D01*
X13227449Y-537449D01*
X13167894Y-596900D01*
X9184325Y-596900D01*
X9125829Y-538302D01*
X8808534Y-406550D01*
X8464973Y-406250D01*
X8147449Y-537449D01*
X8087894Y-596900D01*
X4104325Y-596900D01*
X4045829Y-538302D01*
X3728534Y-406550D01*
X3384973Y-406250D01*
X3067449Y-537449D01*
X2824302Y-780171D01*
X2692550Y-1097466D01*
X2692250Y-1441027D01*
X-3283960Y-1441027D01*
X-3398254Y-1164415D01*
X-3955481Y-606214D01*
X-4683906Y-303745D01*
X-5472633Y-303057D01*
X-6201585Y-604254D01*
X-6759786Y-1161481D01*
X-7062255Y-1889906D01*
X-7062943Y-2678633D01*
X-7824400Y-2678633D01*
X-7824400Y4572000D01*
X15840766Y4572000D01*
X16067803Y3430608D01*
X16714349Y2462983D01*
X17681974Y1816437D01*
X18823366Y1589400D01*
X27912634Y1589400D01*
X29054026Y1816437D01*
X30021651Y2462983D01*
X30668197Y3430608D01*
X30895234Y4572000D01*
X30668197Y5713392D01*
X30021651Y6681017D01*
X29054026Y7327563D01*
X27912634Y7554600D01*
X18823366Y7554600D01*
X17681974Y7327563D01*
X16714349Y6681017D01*
X16067803Y5713392D01*
X15840766Y4572000D01*
X-7824400Y4572000D01*
X-7824400Y7565081D01*
X-7663406Y8374452D01*
X-7236042Y9014045D01*
X-6596452Y9441406D01*
X-5787081Y9602400D01*
X52523081Y9602400D01*
X53332452Y9441406D01*
G36*
X51333550Y-32339466D02*
X51333250Y-32683027D01*
X51335041Y-32687361D01*
X51073449Y-32795449D01*
X50830302Y-33038171D01*
X50698550Y-33355466D01*
X50698250Y-33699027D01*
X50829449Y-34016551D01*
X51072171Y-34259698D01*
X51389466Y-34391450D01*
X51473616Y-34391523D01*
X52412900Y-35330807D01*
X52412900Y-35730557D01*
X52369534Y-35712550D01*
X52025973Y-35712250D01*
X51708449Y-35843449D01*
X51465302Y-36086171D01*
X51333550Y-36403466D01*
X51333250Y-36747027D01*
X51464449Y-37064551D01*
X51587400Y-37187717D01*
X51587400Y-38088794D01*
X51423794Y-38252400D01*
X50866525Y-38252400D01*
X50982197Y-38079284D01*
X50983129Y-38074599D01*
X51028600Y-37846000D01*
X51028600Y-37187714D01*
X51150698Y-37065829D01*
X51282450Y-36748534D01*
X51282750Y-36404973D01*
X51151551Y-36087449D01*
X50908829Y-35844302D01*
X50591534Y-35712550D01*
X50247973Y-35712250D01*
X49930449Y-35843449D01*
X49687302Y-36086171D01*
X49555550Y-36403466D01*
X49555250Y-36747027D01*
X49686449Y-37064551D01*
X49809400Y-37187717D01*
X49809400Y-37593495D01*
X49785496Y-37617400D01*
X46480505Y-37617400D01*
X46456600Y-37593496D01*
X46456600Y-37084000D01*
X46410197Y-36850716D01*
X46278052Y-36652948D01*
X45032704Y-35407600D01*
X47371000Y-35407600D01*
X47604284Y-35361197D01*
X47802052Y-35229052D01*
X48512505Y-34518599D01*
X48685027Y-34518750D01*
X49002551Y-34387551D01*
X49245698Y-34144829D01*
X49377450Y-33827534D01*
X49377750Y-33483973D01*
X49306733Y-33312100D01*
X50165000Y-33312100D01*
X50422584Y-33260863D01*
X50640954Y-33114954D01*
X50786863Y-32896584D01*
X50791169Y-32874935D01*
X51338458Y-32327647D01*
X51333550Y-32339466D01*
X51333550Y-32339466D01*
G37*
X51333550Y-32339466D02*
X51333250Y-32683027D01*
X51335041Y-32687361D01*
X51073449Y-32795449D01*
X50830302Y-33038171D01*
X50698550Y-33355466D01*
X50698250Y-33699027D01*
X50829449Y-34016551D01*
X51072171Y-34259698D01*
X51389466Y-34391450D01*
X51473616Y-34391523D01*
X52412900Y-35330807D01*
X52412900Y-35730557D01*
X52369534Y-35712550D01*
X52025973Y-35712250D01*
X51708449Y-35843449D01*
X51465302Y-36086171D01*
X51333550Y-36403466D01*
X51333250Y-36747027D01*
X51464449Y-37064551D01*
X51587400Y-37187717D01*
X51587400Y-38088794D01*
X51423794Y-38252400D01*
X50866525Y-38252400D01*
X50982197Y-38079284D01*
X50983129Y-38074599D01*
X51028600Y-37846000D01*
X51028600Y-37187714D01*
X51150698Y-37065829D01*
X51282450Y-36748534D01*
X51282750Y-36404973D01*
X51151551Y-36087449D01*
X50908829Y-35844302D01*
X50591534Y-35712550D01*
X50247973Y-35712250D01*
X49930449Y-35843449D01*
X49687302Y-36086171D01*
X49555550Y-36403466D01*
X49555250Y-36747027D01*
X49686449Y-37064551D01*
X49809400Y-37187717D01*
X49809400Y-37593495D01*
X49785496Y-37617400D01*
X46480505Y-37617400D01*
X46456600Y-37593496D01*
X46456600Y-37084000D01*
X46410197Y-36850716D01*
X46278052Y-36652948D01*
X45032704Y-35407600D01*
X47371000Y-35407600D01*
X47604284Y-35361197D01*
X47802052Y-35229052D01*
X48512505Y-34518599D01*
X48685027Y-34518750D01*
X49002551Y-34387551D01*
X49245698Y-34144829D01*
X49377450Y-33827534D01*
X49377750Y-33483973D01*
X49306733Y-33312100D01*
X50165000Y-33312100D01*
X50422584Y-33260863D01*
X50640954Y-33114954D01*
X50786863Y-32896584D01*
X50791169Y-32874935D01*
X51338458Y-32327647D01*
X51333550Y-32339466D01*
M02*
