%FSLAX45Y45*%
G04 Gerber Fmt 4.5, Leading zero omitted, Abs format (unit mm)*
G04 Created by KiCad (PCBNEW 4.0.1-stable) date 2/16/2016 6:41:29 AM*
%MOMM*%
G01*
G04 APERTURE LIST*
%ADD10C,0.127000*%
%ADD11C,0.150000*%
%ADD12C,0.200000*%
%ADD13C,0.300000*%
G04 APERTURE END LIST*
D10*
D11*
X-584200Y1016000D02*
G75*
G03X-838200Y762000I0J-254000D01*
G01*
X5511800Y762000D02*
G75*
G03X5257800Y1016000I-254000J0D01*
G01*
X5257800Y-11684000D02*
G75*
G03X5511800Y-11430000I0J254000D01*
G01*
X-838200Y-11430000D02*
G75*
G03X-584200Y-11684000I254000J0D01*
G01*
X-838200Y762000D02*
X-838200Y-11430000D01*
X5257800Y1016000D02*
X-584200Y1016000D01*
X5511800Y-11430000D02*
X5511800Y762000D01*
X-584200Y-11684000D02*
X5257800Y-11684000D01*
D12*
X-640080Y-9062720D02*
X-604520Y-9098280D01*
X-604520Y-9062720D02*
X-640080Y-9098280D01*
X-538480Y-9570720D02*
X-502920Y-9606280D01*
X-502920Y-9570720D02*
X-538480Y-9606280D01*
X-449580Y-9314180D02*
X-414020Y-9349740D01*
X-414020Y-9314180D02*
X-449580Y-9349740D01*
X-373380Y-9824720D02*
X-337820Y-9860280D01*
X-337820Y-9824720D02*
X-373380Y-9860280D01*
X-347980Y-1557020D02*
X-312420Y-1592580D01*
X-312420Y-1557020D02*
X-347980Y-1592580D01*
X-195580Y-10942320D02*
X-160020Y-10977880D01*
X-160020Y-10942320D02*
X-195580Y-10977880D01*
X-195580Y-11056620D02*
X-160020Y-11092180D01*
X-160020Y-11056620D02*
X-195580Y-11092180D01*
X-121920Y-2176780D02*
X-86360Y-2212340D01*
X-86360Y-2176780D02*
X-121920Y-2212340D01*
X83820Y-10574020D02*
X119380Y-10609580D01*
X119380Y-10574020D02*
X83820Y-10609580D01*
X236220Y-4465320D02*
X271780Y-4500880D01*
X271780Y-4465320D02*
X236220Y-4500880D01*
X236220Y-6116320D02*
X271780Y-6151880D01*
X271780Y-6116320D02*
X236220Y-6151880D01*
X236220Y-8999220D02*
X271780Y-9034780D01*
X271780Y-8999220D02*
X236220Y-9034780D01*
X261620Y-10675620D02*
X297180Y-10711180D01*
X297180Y-10675620D02*
X261620Y-10711180D01*
X312420Y-3855720D02*
X347980Y-3891280D01*
X347980Y-3855720D02*
X312420Y-3891280D01*
X312420Y-4706620D02*
X347980Y-4742180D01*
X347980Y-4706620D02*
X312420Y-4742180D01*
X312420Y-8110220D02*
X347980Y-8145780D01*
X347980Y-8110220D02*
X312420Y-8145780D01*
X337820Y-109220D02*
X373380Y-144780D01*
X373380Y-109220D02*
X337820Y-144780D01*
X337820Y-109220D02*
X373380Y-144780D01*
X373380Y-109220D02*
X337820Y-144780D01*
X337820Y-617220D02*
X373380Y-652780D01*
X373380Y-617220D02*
X337820Y-652780D01*
X337820Y-1125220D02*
X373380Y-1160780D01*
X373380Y-1125220D02*
X337820Y-1160780D01*
X337820Y-1633220D02*
X373380Y-1668780D01*
X373380Y-1633220D02*
X337820Y-1668780D01*
X337820Y-2141220D02*
X373380Y-2176780D01*
X373380Y-2141220D02*
X337820Y-2176780D01*
X337820Y-2649220D02*
X373380Y-2684780D01*
X373380Y-2649220D02*
X337820Y-2684780D01*
X337820Y-3157220D02*
X373380Y-3192780D01*
X373380Y-3157220D02*
X337820Y-3192780D01*
X337820Y-3665220D02*
X373380Y-3700780D01*
X373380Y-3665220D02*
X337820Y-3700780D01*
X340360Y-9319260D02*
X375920Y-9354820D01*
X375920Y-9319260D02*
X340360Y-9354820D01*
X350520Y-10193020D02*
X386080Y-10228580D01*
X386080Y-10193020D02*
X350520Y-10228580D01*
X401320Y-4579620D02*
X436880Y-4615180D01*
X436880Y-4579620D02*
X401320Y-4615180D01*
X401320Y-8034020D02*
X436880Y-8069580D01*
X436880Y-8034020D02*
X401320Y-8069580D01*
X414020Y-4224020D02*
X449580Y-4259580D01*
X449580Y-4224020D02*
X414020Y-4259580D01*
X414020Y-4465320D02*
X449580Y-4500880D01*
X449580Y-4465320D02*
X414020Y-4500880D01*
X477520Y-4820920D02*
X513080Y-4856480D01*
X513080Y-4820920D02*
X477520Y-4856480D01*
X477520Y-7957820D02*
X513080Y-7993380D01*
X513080Y-7957820D02*
X477520Y-7993380D01*
X566420Y-7792720D02*
X601980Y-7828280D01*
X601980Y-7792720D02*
X566420Y-7828280D01*
X617220Y-3792220D02*
X652780Y-3827780D01*
X652780Y-3792220D02*
X617220Y-3827780D01*
X629920Y-10294620D02*
X665480Y-10330180D01*
X665480Y-10294620D02*
X629920Y-10330180D01*
X642620Y-10066020D02*
X678180Y-10101580D01*
X678180Y-10066020D02*
X642620Y-10101580D01*
X706120Y-5062220D02*
X741680Y-5097780D01*
X741680Y-5062220D02*
X706120Y-5097780D01*
X706120Y-5773420D02*
X741680Y-5808980D01*
X741680Y-5773420D02*
X706120Y-5808980D01*
X807720Y-9164320D02*
X843280Y-9199880D01*
X843280Y-9164320D02*
X807720Y-9199880D01*
X845820Y-109220D02*
X881380Y-144780D01*
X881380Y-109220D02*
X845820Y-144780D01*
X845820Y-109220D02*
X881380Y-144780D01*
X881380Y-109220D02*
X845820Y-144780D01*
X845820Y-617220D02*
X881380Y-652780D01*
X881380Y-617220D02*
X845820Y-652780D01*
X845820Y-1125220D02*
X881380Y-1160780D01*
X881380Y-1125220D02*
X845820Y-1160780D01*
X845820Y-1633220D02*
X881380Y-1668780D01*
X881380Y-1633220D02*
X845820Y-1668780D01*
X845820Y-2141220D02*
X881380Y-2176780D01*
X881380Y-2141220D02*
X845820Y-2176780D01*
X845820Y-2649220D02*
X881380Y-2684780D01*
X881380Y-2649220D02*
X845820Y-2684780D01*
X845820Y-3157220D02*
X881380Y-3192780D01*
X881380Y-3157220D02*
X845820Y-3192780D01*
X845820Y-3665220D02*
X881380Y-3700780D01*
X881380Y-3665220D02*
X845820Y-3700780D01*
X896620Y-10434320D02*
X932180Y-10469880D01*
X932180Y-10434320D02*
X896620Y-10469880D01*
X909320Y-9926320D02*
X944880Y-9961880D01*
X944880Y-9926320D02*
X909320Y-9961880D01*
X909320Y-10180320D02*
X944880Y-10215880D01*
X944880Y-10180320D02*
X909320Y-10215880D01*
X947420Y-5062220D02*
X982980Y-5097780D01*
X982980Y-5062220D02*
X947420Y-5097780D01*
X1061720Y-9469120D02*
X1097280Y-9504680D01*
X1097280Y-9469120D02*
X1061720Y-9504680D01*
X1074420Y-11412220D02*
X1109980Y-11447780D01*
X1109980Y-11412220D02*
X1074420Y-11447780D01*
X1099820Y-9646920D02*
X1135380Y-9682480D01*
X1135380Y-9646920D02*
X1099820Y-9682480D01*
X1125220Y-3893820D02*
X1160780Y-3929380D01*
X1160780Y-3893820D02*
X1125220Y-3929380D01*
X1125220Y-8948420D02*
X1160780Y-8983980D01*
X1160780Y-8948420D02*
X1125220Y-8983980D01*
X1188720Y-7881620D02*
X1224280Y-7917180D01*
X1224280Y-7881620D02*
X1188720Y-7917180D01*
X1209040Y-5778500D02*
X1244600Y-5814060D01*
X1244600Y-5778500D02*
X1209040Y-5814060D01*
X1219200Y-1955800D02*
X1254760Y-1991360D01*
X1254760Y-1955800D02*
X1219200Y-1991360D01*
X1290320Y-11196320D02*
X1325880Y-11231880D01*
X1325880Y-11196320D02*
X1290320Y-11231880D01*
X1303020Y-4046220D02*
X1338580Y-4081780D01*
X1338580Y-4046220D02*
X1303020Y-4081780D01*
X1303020Y-7284720D02*
X1338580Y-7320280D01*
X1338580Y-7284720D02*
X1303020Y-7320280D01*
X1315720Y-9939020D02*
X1351280Y-9974580D01*
X1351280Y-9939020D02*
X1315720Y-9974580D01*
X1353820Y-109220D02*
X1389380Y-144780D01*
X1389380Y-109220D02*
X1353820Y-144780D01*
X1353820Y-109220D02*
X1389380Y-144780D01*
X1389380Y-109220D02*
X1353820Y-144780D01*
X1353820Y-617220D02*
X1389380Y-652780D01*
X1389380Y-617220D02*
X1353820Y-652780D01*
X1353820Y-1125220D02*
X1389380Y-1160780D01*
X1389380Y-1125220D02*
X1353820Y-1160780D01*
X1353820Y-1633220D02*
X1389380Y-1668780D01*
X1389380Y-1633220D02*
X1353820Y-1668780D01*
X1353820Y-2141220D02*
X1389380Y-2176780D01*
X1389380Y-2141220D02*
X1353820Y-2176780D01*
X1353820Y-2649220D02*
X1389380Y-2684780D01*
X1389380Y-2649220D02*
X1353820Y-2684780D01*
X1353820Y-3157220D02*
X1389380Y-3192780D01*
X1389380Y-3157220D02*
X1353820Y-3192780D01*
X1353820Y-3665220D02*
X1389380Y-3700780D01*
X1389380Y-3665220D02*
X1353820Y-3700780D01*
X1379220Y-10561320D02*
X1414780Y-10596880D01*
X1414780Y-10561320D02*
X1379220Y-10596880D01*
X1430020Y-8719820D02*
X1465580Y-8755380D01*
X1465580Y-8719820D02*
X1430020Y-8755380D01*
X1557020Y-9837420D02*
X1592580Y-9872980D01*
X1592580Y-9837420D02*
X1557020Y-9872980D01*
X1671320Y-4820920D02*
X1706880Y-4856480D01*
X1706880Y-4820920D02*
X1671320Y-4856480D01*
X1671320Y-5062220D02*
X1706880Y-5097780D01*
X1706880Y-5062220D02*
X1671320Y-5097780D01*
X1671320Y-5341620D02*
X1706880Y-5377180D01*
X1706880Y-5341620D02*
X1671320Y-5377180D01*
X1696720Y-5786120D02*
X1732280Y-5821680D01*
X1732280Y-5786120D02*
X1696720Y-5821680D01*
X1849120Y-6855460D02*
X1884680Y-6891020D01*
X1884680Y-6855460D02*
X1849120Y-6891020D01*
X1861820Y-109220D02*
X1897380Y-144780D01*
X1897380Y-109220D02*
X1861820Y-144780D01*
X1861820Y-109220D02*
X1897380Y-144780D01*
X1897380Y-109220D02*
X1861820Y-144780D01*
X1861820Y-617220D02*
X1897380Y-652780D01*
X1897380Y-617220D02*
X1861820Y-652780D01*
X1861820Y-1125220D02*
X1897380Y-1160780D01*
X1897380Y-1125220D02*
X1861820Y-1160780D01*
X1861820Y-1633220D02*
X1897380Y-1668780D01*
X1897380Y-1633220D02*
X1861820Y-1668780D01*
X1861820Y-2141220D02*
X1897380Y-2176780D01*
X1897380Y-2141220D02*
X1861820Y-2176780D01*
X1861820Y-2649220D02*
X1897380Y-2684780D01*
X1897380Y-2649220D02*
X1861820Y-2684780D01*
X1861820Y-3157220D02*
X1897380Y-3192780D01*
X1897380Y-3157220D02*
X1861820Y-3192780D01*
X1861820Y-3665220D02*
X1897380Y-3700780D01*
X1897380Y-3665220D02*
X1861820Y-3700780D01*
X1892300Y-5308600D02*
X1927860Y-5344160D01*
X1927860Y-5308600D02*
X1892300Y-5344160D01*
X1912620Y-4579620D02*
X1948180Y-4615180D01*
X1948180Y-4579620D02*
X1912620Y-4615180D01*
X1930400Y-6134100D02*
X1965960Y-6169660D01*
X1965960Y-6134100D02*
X1930400Y-6169660D01*
X1938020Y-9405620D02*
X1973580Y-9441180D01*
X1973580Y-9405620D02*
X1938020Y-9441180D01*
X1948180Y-6705600D02*
X1983740Y-6741160D01*
X1983740Y-6705600D02*
X1948180Y-6741160D01*
X2080260Y-6852920D02*
X2115820Y-6888480D01*
X2115820Y-6852920D02*
X2080260Y-6888480D01*
X2128520Y-6220460D02*
X2164080Y-6256020D01*
X2164080Y-6220460D02*
X2128520Y-6256020D01*
X2139950Y-2941320D02*
X2175510Y-2976880D01*
X2175510Y-2941320D02*
X2139950Y-2976880D01*
X2141220Y-5532120D02*
X2176780Y-5567680D01*
X2176780Y-5532120D02*
X2141220Y-5567680D01*
X2148840Y-5087620D02*
X2184400Y-5123180D01*
X2184400Y-5087620D02*
X2148840Y-5123180D01*
X2153920Y-4338320D02*
X2189480Y-4373880D01*
X2189480Y-4338320D02*
X2153920Y-4373880D01*
X2153920Y-4592320D02*
X2189480Y-4627880D01*
X2189480Y-4592320D02*
X2153920Y-4627880D01*
X2153920Y-5303520D02*
X2189480Y-5339080D01*
X2189480Y-5303520D02*
X2153920Y-5339080D01*
X2179320Y-6776720D02*
X2214880Y-6812280D01*
X2214880Y-6776720D02*
X2179320Y-6812280D01*
X2268220Y-6184900D02*
X2303780Y-6220460D01*
X2303780Y-6184900D02*
X2268220Y-6220460D01*
X2344420Y-6776720D02*
X2379980Y-6812280D01*
X2379980Y-6776720D02*
X2344420Y-6812280D01*
X2369820Y-109220D02*
X2405380Y-144780D01*
X2405380Y-109220D02*
X2369820Y-144780D01*
X2369820Y-109220D02*
X2405380Y-144780D01*
X2405380Y-109220D02*
X2369820Y-144780D01*
X2369820Y-617220D02*
X2405380Y-652780D01*
X2405380Y-617220D02*
X2369820Y-652780D01*
X2369820Y-1125220D02*
X2405380Y-1160780D01*
X2405380Y-1125220D02*
X2369820Y-1160780D01*
X2369820Y-1633220D02*
X2405380Y-1668780D01*
X2405380Y-1633220D02*
X2369820Y-1668780D01*
X2369820Y-2141220D02*
X2405380Y-2176780D01*
X2405380Y-2141220D02*
X2369820Y-2176780D01*
X2369820Y-2649220D02*
X2405380Y-2684780D01*
X2405380Y-2649220D02*
X2369820Y-2684780D01*
X2369820Y-3157220D02*
X2405380Y-3192780D01*
X2405380Y-3157220D02*
X2369820Y-3192780D01*
X2369820Y-3665220D02*
X2405380Y-3700780D01*
X2405380Y-3665220D02*
X2369820Y-3700780D01*
X2369820Y-5265420D02*
X2405380Y-5300980D01*
X2405380Y-5265420D02*
X2369820Y-5300980D01*
X2369820Y-6235700D02*
X2405380Y-6271260D01*
X2405380Y-6235700D02*
X2369820Y-6271260D01*
X2382520Y-4592320D02*
X2418080Y-4627880D01*
X2418080Y-4592320D02*
X2382520Y-4627880D01*
X2395220Y-7551420D02*
X2430780Y-7586980D01*
X2430780Y-7551420D02*
X2395220Y-7586980D01*
X2395220Y-8770620D02*
X2430780Y-8806180D01*
X2430780Y-8770620D02*
X2395220Y-8806180D01*
X2407920Y-4820920D02*
X2443480Y-4856480D01*
X2443480Y-4820920D02*
X2407920Y-4856480D01*
X2410460Y-4160520D02*
X2446020Y-4196080D01*
X2446020Y-4160520D02*
X2410460Y-4196080D01*
X2410460Y-5943600D02*
X2446020Y-5979160D01*
X2446020Y-5943600D02*
X2410460Y-5979160D01*
X2443480Y-3942080D02*
X2479040Y-3977640D01*
X2479040Y-3942080D02*
X2443480Y-3977640D01*
X2446020Y-5824220D02*
X2481580Y-5859780D01*
X2481580Y-5824220D02*
X2446020Y-5859780D01*
X2509520Y-4681220D02*
X2545080Y-4716780D01*
X2545080Y-4681220D02*
X2509520Y-4716780D01*
X2522220Y-4173220D02*
X2557780Y-4208780D01*
X2557780Y-4173220D02*
X2522220Y-4208780D01*
X2522220Y-4427220D02*
X2557780Y-4462780D01*
X2557780Y-4427220D02*
X2522220Y-4462780D01*
X2522220Y-4935220D02*
X2557780Y-4970780D01*
X2557780Y-4935220D02*
X2522220Y-4970780D01*
X2522220Y-5189220D02*
X2557780Y-5224780D01*
X2557780Y-5189220D02*
X2522220Y-5224780D01*
X2522220Y-5443220D02*
X2557780Y-5478780D01*
X2557780Y-5443220D02*
X2522220Y-5478780D01*
X2522220Y-5697220D02*
X2557780Y-5732780D01*
X2557780Y-5697220D02*
X2522220Y-5732780D01*
X2522220Y-5951220D02*
X2557780Y-5986780D01*
X2557780Y-5951220D02*
X2522220Y-5986780D01*
X2547620Y-6550660D02*
X2583180Y-6586220D01*
X2583180Y-6550660D02*
X2547620Y-6586220D01*
X2611120Y-6116320D02*
X2646680Y-6151880D01*
X2646680Y-6116320D02*
X2611120Y-6151880D01*
X2649220Y-3423920D02*
X2684780Y-3459480D01*
X2684780Y-3423920D02*
X2649220Y-3459480D01*
X2682240Y-6619240D02*
X2717800Y-6654800D01*
X2717800Y-6619240D02*
X2682240Y-6654800D01*
X2776220Y-6205220D02*
X2811780Y-6240780D01*
X2811780Y-6205220D02*
X2776220Y-6240780D01*
X2776220Y-7030720D02*
X2811780Y-7066280D01*
X2811780Y-7030720D02*
X2776220Y-7066280D01*
X2852420Y-3995420D02*
X2887980Y-4030980D01*
X2887980Y-3995420D02*
X2852420Y-4030980D01*
X2877820Y-109220D02*
X2913380Y-144780D01*
X2913380Y-109220D02*
X2877820Y-144780D01*
X2877820Y-109220D02*
X2913380Y-144780D01*
X2913380Y-109220D02*
X2877820Y-144780D01*
X2877820Y-617220D02*
X2913380Y-652780D01*
X2913380Y-617220D02*
X2877820Y-652780D01*
X2877820Y-1125220D02*
X2913380Y-1160780D01*
X2913380Y-1125220D02*
X2877820Y-1160780D01*
X2877820Y-1633220D02*
X2913380Y-1668780D01*
X2913380Y-1633220D02*
X2877820Y-1668780D01*
X2877820Y-2141220D02*
X2913380Y-2176780D01*
X2913380Y-2141220D02*
X2877820Y-2176780D01*
X2877820Y-2649220D02*
X2913380Y-2684780D01*
X2913380Y-2649220D02*
X2877820Y-2684780D01*
X2877820Y-3157220D02*
X2913380Y-3192780D01*
X2913380Y-3157220D02*
X2877820Y-3192780D01*
X2877820Y-3665220D02*
X2913380Y-3700780D01*
X2913380Y-3665220D02*
X2877820Y-3700780D01*
X2890520Y-9977120D02*
X2926080Y-10012680D01*
X2926080Y-9977120D02*
X2890520Y-10012680D01*
X2903220Y-6624320D02*
X2938780Y-6659880D01*
X2938780Y-6624320D02*
X2903220Y-6659880D01*
X2928620Y-7551420D02*
X2964180Y-7586980D01*
X2964180Y-7551420D02*
X2928620Y-7586980D01*
X2928620Y-8770620D02*
X2964180Y-8806180D01*
X2964180Y-8770620D02*
X2928620Y-8806180D01*
X3042920Y-10066020D02*
X3078480Y-10101580D01*
X3078480Y-10066020D02*
X3042920Y-10101580D01*
X3093720Y-8110220D02*
X3129280Y-8145780D01*
X3129280Y-8110220D02*
X3093720Y-8145780D01*
X3157220Y-3436620D02*
X3192780Y-3472180D01*
X3192780Y-3436620D02*
X3157220Y-3472180D01*
X3157220Y-6129020D02*
X3192780Y-6164580D01*
X3192780Y-6129020D02*
X3157220Y-6164580D01*
X3220720Y-8224520D02*
X3256280Y-8260080D01*
X3256280Y-8224520D02*
X3220720Y-8260080D01*
X3246120Y-3893820D02*
X3281680Y-3929380D01*
X3281680Y-3893820D02*
X3246120Y-3929380D01*
X3335020Y-8034020D02*
X3370580Y-8069580D01*
X3370580Y-8034020D02*
X3335020Y-8069580D01*
X3335020Y-9659620D02*
X3370580Y-9695180D01*
X3370580Y-9659620D02*
X3335020Y-9695180D01*
X3360420Y-5443220D02*
X3395980Y-5478780D01*
X3395980Y-5443220D02*
X3360420Y-5478780D01*
X3385820Y-109220D02*
X3421380Y-144780D01*
X3421380Y-109220D02*
X3385820Y-144780D01*
X3385820Y-109220D02*
X3421380Y-144780D01*
X3421380Y-109220D02*
X3385820Y-144780D01*
X3385820Y-617220D02*
X3421380Y-652780D01*
X3421380Y-617220D02*
X3385820Y-652780D01*
X3385820Y-1125220D02*
X3421380Y-1160780D01*
X3421380Y-1125220D02*
X3385820Y-1160780D01*
X3385820Y-1633220D02*
X3421380Y-1668780D01*
X3421380Y-1633220D02*
X3385820Y-1668780D01*
X3385820Y-2141220D02*
X3421380Y-2176780D01*
X3421380Y-2141220D02*
X3385820Y-2176780D01*
X3385820Y-2649220D02*
X3421380Y-2684780D01*
X3421380Y-2649220D02*
X3385820Y-2684780D01*
X3385820Y-3157220D02*
X3421380Y-3192780D01*
X3421380Y-3157220D02*
X3385820Y-3192780D01*
X3385820Y-3665220D02*
X3421380Y-3700780D01*
X3421380Y-3665220D02*
X3385820Y-3700780D01*
X3385820Y-5875020D02*
X3421380Y-5910580D01*
X3421380Y-5875020D02*
X3385820Y-5910580D01*
X3449320Y-5697220D02*
X3484880Y-5732780D01*
X3484880Y-5697220D02*
X3449320Y-5732780D01*
X3474720Y-5189220D02*
X3510280Y-5224780D01*
X3510280Y-5189220D02*
X3474720Y-5224780D01*
X3474720Y-8872220D02*
X3510280Y-8907780D01*
X3510280Y-8872220D02*
X3474720Y-8907780D01*
X3487420Y-9304020D02*
X3522980Y-9339580D01*
X3522980Y-9304020D02*
X3487420Y-9339580D01*
X3538220Y-5824220D02*
X3573780Y-5859780D01*
X3573780Y-5824220D02*
X3538220Y-5859780D01*
X3550920Y-4935220D02*
X3586480Y-4970780D01*
X3586480Y-4935220D02*
X3550920Y-4970780D01*
X3563620Y-8554720D02*
X3599180Y-8590280D01*
X3599180Y-8554720D02*
X3563620Y-8590280D01*
X3627120Y-4681220D02*
X3662680Y-4716780D01*
X3662680Y-4681220D02*
X3627120Y-4716780D01*
X3627120Y-4820920D02*
X3662680Y-4856480D01*
X3662680Y-4820920D02*
X3627120Y-4856480D01*
X3639820Y-7957820D02*
X3675380Y-7993380D01*
X3675380Y-7957820D02*
X3639820Y-7993380D01*
X3652520Y-9888220D02*
X3688080Y-9923780D01*
X3688080Y-9888220D02*
X3652520Y-9923780D01*
X3665220Y-3411220D02*
X3700780Y-3446780D01*
X3700780Y-3411220D02*
X3665220Y-3446780D01*
X3690620Y-9392920D02*
X3726180Y-9428480D01*
X3726180Y-9392920D02*
X3690620Y-9428480D01*
X3703320Y-4427220D02*
X3738880Y-4462780D01*
X3738880Y-4427220D02*
X3703320Y-4462780D01*
X3703320Y-4554220D02*
X3738880Y-4589780D01*
X3738880Y-4554220D02*
X3703320Y-4589780D01*
X3716020Y-7881620D02*
X3751580Y-7917180D01*
X3751580Y-7881620D02*
X3716020Y-7917180D01*
X3716020Y-9151620D02*
X3751580Y-9187180D01*
X3751580Y-9151620D02*
X3716020Y-9187180D01*
X3779520Y-5951220D02*
X3815080Y-5986780D01*
X3815080Y-5951220D02*
X3779520Y-5986780D01*
X3792220Y-9570720D02*
X3827780Y-9606280D01*
X3827780Y-9570720D02*
X3792220Y-9606280D01*
X3804920Y-4173220D02*
X3840480Y-4208780D01*
X3840480Y-4173220D02*
X3804920Y-4208780D01*
X3817620Y-3246120D02*
X3853180Y-3281680D01*
X3853180Y-3246120D02*
X3817620Y-3281680D01*
X3817620Y-3792220D02*
X3853180Y-3827780D01*
X3853180Y-3792220D02*
X3817620Y-3827780D01*
X3830320Y-1938020D02*
X3865880Y-1973580D01*
X3865880Y-1938020D02*
X3830320Y-1973580D01*
X3893820Y-109220D02*
X3929380Y-144780D01*
X3929380Y-109220D02*
X3893820Y-144780D01*
X3893820Y-109220D02*
X3929380Y-144780D01*
X3929380Y-109220D02*
X3893820Y-144780D01*
X3893820Y-617220D02*
X3929380Y-652780D01*
X3929380Y-617220D02*
X3893820Y-652780D01*
X3893820Y-1125220D02*
X3929380Y-1160780D01*
X3929380Y-1125220D02*
X3893820Y-1160780D01*
X3893820Y-1633220D02*
X3929380Y-1668780D01*
X3929380Y-1633220D02*
X3893820Y-1668780D01*
X3893820Y-2141220D02*
X3929380Y-2176780D01*
X3929380Y-2141220D02*
X3893820Y-2176780D01*
X3893820Y-2649220D02*
X3929380Y-2684780D01*
X3929380Y-2649220D02*
X3893820Y-2684780D01*
X3893820Y-3157220D02*
X3929380Y-3192780D01*
X3929380Y-3157220D02*
X3893820Y-3192780D01*
X3893820Y-3665220D02*
X3929380Y-3700780D01*
X3929380Y-3665220D02*
X3893820Y-3700780D01*
X3893820Y-7284720D02*
X3929380Y-7320280D01*
X3929380Y-7284720D02*
X3893820Y-7320280D01*
X3982720Y-6865620D02*
X4018280Y-6901180D01*
X4018280Y-6865620D02*
X3982720Y-6901180D01*
X3995420Y-7792720D02*
X4030980Y-7828280D01*
X4030980Y-7792720D02*
X3995420Y-7828280D01*
X3995420Y-8770620D02*
X4030980Y-8806180D01*
X4030980Y-8770620D02*
X3995420Y-8806180D01*
X4084320Y-7640320D02*
X4119880Y-7675880D01*
X4119880Y-7640320D02*
X4084320Y-7675880D01*
X4097020Y-3423920D02*
X4132580Y-3459480D01*
X4132580Y-3423920D02*
X4097020Y-3459480D01*
X4109720Y-8199120D02*
X4145280Y-8234680D01*
X4145280Y-8199120D02*
X4109720Y-8234680D01*
X4173220Y-6370320D02*
X4208780Y-6405880D01*
X4208780Y-6370320D02*
X4173220Y-6405880D01*
X4173220Y-7018020D02*
X4208780Y-7053580D01*
X4208780Y-7018020D02*
X4173220Y-7053580D01*
X4269740Y-3253740D02*
X4305300Y-3289300D01*
X4305300Y-3253740D02*
X4269740Y-3289300D01*
X4300220Y-8897620D02*
X4335780Y-8933180D01*
X4335780Y-8897620D02*
X4300220Y-8933180D01*
X4338320Y-3665220D02*
X4373880Y-3700780D01*
X4373880Y-3665220D02*
X4338320Y-3700780D01*
X4363720Y-198120D02*
X4399280Y-233680D01*
X4399280Y-198120D02*
X4363720Y-233680D01*
X4363720Y-4554220D02*
X4399280Y-4589780D01*
X4399280Y-4554220D02*
X4363720Y-4589780D01*
X4373880Y-617220D02*
X4409440Y-652780D01*
X4409440Y-617220D02*
X4373880Y-652780D01*
X4376420Y-3042920D02*
X4411980Y-3078480D01*
X4411980Y-3042920D02*
X4376420Y-3078480D01*
X4439920Y-1950720D02*
X4475480Y-1986280D01*
X4475480Y-1950720D02*
X4439920Y-1986280D01*
X4439920Y-2052320D02*
X4475480Y-2087880D01*
X4475480Y-2052320D02*
X4439920Y-2087880D01*
X4478020Y-10269220D02*
X4513580Y-10304780D01*
X4513580Y-10269220D02*
X4478020Y-10304780D01*
X4478020Y-10472420D02*
X4513580Y-10507980D01*
X4513580Y-10472420D02*
X4478020Y-10507980D01*
X4490720Y-1849120D02*
X4526280Y-1884680D01*
X4526280Y-1849120D02*
X4490720Y-1884680D01*
X4579620Y-2801620D02*
X4615180Y-2837180D01*
X4615180Y-2801620D02*
X4579620Y-2837180D01*
X4579620Y-3335020D02*
X4615180Y-3370580D01*
X4615180Y-3335020D02*
X4579620Y-3370580D01*
X4605020Y-4046220D02*
X4640580Y-4081780D01*
X4640580Y-4046220D02*
X4605020Y-4081780D01*
X4706620Y-3157220D02*
X4742180Y-3192780D01*
X4742180Y-3157220D02*
X4706620Y-3192780D01*
X4706620Y-3347720D02*
X4742180Y-3383280D01*
X4742180Y-3347720D02*
X4706620Y-3383280D01*
X4719320Y-5494020D02*
X4754880Y-5529580D01*
X4754880Y-5494020D02*
X4719320Y-5529580D01*
X4732020Y-4135120D02*
X4767580Y-4170680D01*
X4767580Y-4135120D02*
X4732020Y-4170680D01*
X4744720Y-2141220D02*
X4780280Y-2176780D01*
X4780280Y-2141220D02*
X4744720Y-2176780D01*
X4757420Y-922020D02*
X4792980Y-957580D01*
X4792980Y-922020D02*
X4757420Y-957580D01*
X4757420Y-2598420D02*
X4792980Y-2633980D01*
X4792980Y-2598420D02*
X4757420Y-2633980D01*
X4820920Y-3665220D02*
X4856480Y-3700780D01*
X4856480Y-3665220D02*
X4820920Y-3700780D01*
X4833620Y-3347720D02*
X4869180Y-3383280D01*
X4869180Y-3347720D02*
X4833620Y-3383280D01*
X4833620Y-4147820D02*
X4869180Y-4183380D01*
X4869180Y-4147820D02*
X4833620Y-4183380D01*
X4859020Y-2814320D02*
X4894580Y-2849880D01*
X4894580Y-2814320D02*
X4859020Y-2849880D01*
X4871720Y-5367020D02*
X4907280Y-5402580D01*
X4907280Y-5367020D02*
X4871720Y-5402580D01*
X4909820Y-1633220D02*
X4945380Y-1668780D01*
X4945380Y-1633220D02*
X4909820Y-1668780D01*
X4935220Y-3335020D02*
X4970780Y-3370580D01*
X4970780Y-3335020D02*
X4935220Y-3370580D01*
X4960620Y-4160520D02*
X4996180Y-4196080D01*
X4996180Y-4160520D02*
X4960620Y-4196080D01*
X4960620Y-5494020D02*
X4996180Y-5529580D01*
X4996180Y-5494020D02*
X4960620Y-5529580D01*
X4960620Y-5621020D02*
X4996180Y-5656580D01*
X4996180Y-5621020D02*
X4960620Y-5656580D01*
X5011420Y-1125220D02*
X5046980Y-1160780D01*
X5046980Y-1125220D02*
X5011420Y-1160780D01*
X5024120Y-3106420D02*
X5059680Y-3141980D01*
X5059680Y-3106420D02*
X5024120Y-3141980D01*
X5024120Y-3639820D02*
X5059680Y-3675380D01*
X5059680Y-3639820D02*
X5024120Y-3675380D01*
X5024120Y-4020820D02*
X5059680Y-4056380D01*
X5059680Y-4020820D02*
X5024120Y-4056380D01*
X5087620Y-4592320D02*
X5123180Y-4627880D01*
X5123180Y-4592320D02*
X5087620Y-4627880D01*
X5087620Y-4998720D02*
X5123180Y-5034280D01*
X5123180Y-4998720D02*
X5087620Y-5034280D01*
X5138420Y-2141220D02*
X5173980Y-2176780D01*
X5173980Y-2141220D02*
X5138420Y-2176780D01*
X5138420Y-3106420D02*
X5173980Y-3141980D01*
X5173980Y-3106420D02*
X5138420Y-3141980D01*
X5138420Y-3335020D02*
X5173980Y-3370580D01*
X5173980Y-3335020D02*
X5138420Y-3370580D01*
X5151120Y-8199120D02*
X5186680Y-8234680D01*
X5186680Y-8199120D02*
X5151120Y-8234680D01*
X5176520Y-5074920D02*
X5212080Y-5110480D01*
X5212080Y-5074920D02*
X5176520Y-5110480D01*
X5176520Y-7132320D02*
X5212080Y-7167880D01*
X5212080Y-7132320D02*
X5176520Y-7167880D01*
X5201920Y-3233420D02*
X5237480Y-3268980D01*
X5237480Y-3233420D02*
X5201920Y-3268980D01*
X5201920Y-3639820D02*
X5237480Y-3675380D01*
X5237480Y-3639820D02*
X5201920Y-3675380D01*
X5212080Y-1739900D02*
X5247640Y-1775460D01*
X5247640Y-1739900D02*
X5212080Y-1775460D01*
X5227320Y-4427220D02*
X5262880Y-4462780D01*
X5262880Y-4427220D02*
X5227320Y-4462780D01*
X5240020Y-10485120D02*
X5275580Y-10520680D01*
X5275580Y-10485120D02*
X5240020Y-10520680D01*
X5240020Y-10650220D02*
X5275580Y-10685780D01*
X5275580Y-10650220D02*
X5240020Y-10685780D01*
X5240020Y-11386820D02*
X5275580Y-11422380D01*
X5275580Y-11386820D02*
X5240020Y-11422380D01*
X5252720Y-5455920D02*
X5288280Y-5491480D01*
X5288280Y-5455920D02*
X5252720Y-5491480D01*
X5257800Y-7305040D02*
X5293360Y-7340600D01*
X5293360Y-7305040D02*
X5257800Y-7340600D01*
X5303520Y-2280920D02*
X5339080Y-2316480D01*
X5339080Y-2280920D02*
X5303520Y-2316480D01*
X-617620Y-10665980D02*
G75*
G03X-617620Y-10665980I-25000J0D01*
G01*
X-675120Y-10680980D02*
X-610120Y-10680980D01*
X-675120Y-10650980D02*
X-610120Y-10650980D01*
X-610120Y-10680980D02*
G75*
G03X-610120Y-10650980I0J15000D01*
G01*
X-675120Y-10650980D02*
G75*
G03X-675120Y-10680980I0J-15000D01*
G01*
X-617620Y-11365980D02*
G75*
G03X-617620Y-11365980I-25000J0D01*
G01*
X-610120Y-11350980D02*
X-675120Y-11350980D01*
X-610120Y-11380980D02*
X-675120Y-11380980D01*
X-675120Y-11350980D02*
G75*
G03X-675120Y-11380980I0J-15000D01*
G01*
X-610120Y-11380980D02*
G75*
G03X-610120Y-11350980I0J15000D01*
G01*
X-372620Y-10738480D02*
X-372620Y-10793480D01*
X-400120Y-10765980D02*
X-345120Y-10765980D01*
X-355120Y-10780980D02*
X-355120Y-10750980D01*
X-390120Y-10780980D02*
X-390120Y-10750980D01*
X-355120Y-10750980D02*
G75*
G03X-390120Y-10750980I-17500J0D01*
G01*
X-390120Y-10780980D02*
G75*
G03X-355120Y-10780980I17500J0D01*
G01*
X-372620Y-11238480D02*
X-372620Y-11293480D01*
X-400120Y-11265980D02*
X-345120Y-11265980D01*
X-355120Y-11280980D02*
X-355120Y-11250980D01*
X-390120Y-11280980D02*
X-390120Y-11250980D01*
X-355120Y-11250980D02*
G75*
G03X-390120Y-11250980I-17500J0D01*
G01*
X-390120Y-11280980D02*
G75*
G03X-355120Y-11280980I17500J0D01*
G01*
X-52979Y-6830421D02*
X-52979Y-6758579D01*
X-124821Y-6758579D01*
X-124821Y-6830421D01*
X-52979Y-6830421D01*
X-52979Y-7084421D02*
X-52979Y-7012579D01*
X-124821Y-7012579D01*
X-124821Y-7084421D01*
X-52979Y-7084421D01*
X-52979Y-7338421D02*
X-52979Y-7266579D01*
X-124821Y-7266579D01*
X-124821Y-7338421D01*
X-52979Y-7338421D01*
X-52979Y-7592421D02*
X-52979Y-7520579D01*
X-124821Y-7520579D01*
X-124821Y-7592421D01*
X-52979Y-7592421D01*
X-52979Y-7846421D02*
X-52979Y-7774579D01*
X-124821Y-7774579D01*
X-124821Y-7846421D01*
X-52979Y-7846421D01*
X-52979Y-8100421D02*
X-52979Y-8028579D01*
X-124821Y-8028579D01*
X-124821Y-8100421D01*
X-52979Y-8100421D01*
X-52979Y-8354421D02*
X-52979Y-8282579D01*
X-124821Y-8282579D01*
X-124821Y-8354421D01*
X-52979Y-8354421D01*
X-52979Y-8608421D02*
X-52979Y-8536579D01*
X-124821Y-8536579D01*
X-124821Y-8608421D01*
X-52979Y-8608421D01*
X-52979Y-9116421D02*
X-52979Y-9044579D01*
X-124821Y-9044579D01*
X-124821Y-9116421D01*
X-52979Y-9116421D01*
X-52979Y-9370421D02*
X-52979Y-9298579D01*
X-124821Y-9298579D01*
X-124821Y-9370421D01*
X-52979Y-9370421D01*
X-52979Y-9624421D02*
X-52979Y-9552579D01*
X-124821Y-9552579D01*
X-124821Y-9624421D01*
X-52979Y-9624421D01*
X-52979Y-9878421D02*
X-52979Y-9806579D01*
X-124821Y-9806579D01*
X-124821Y-9878421D01*
X-52979Y-9878421D01*
X-52979Y-10132421D02*
X-52979Y-10060579D01*
X-124821Y-10060579D01*
X-124821Y-10132421D01*
X-52979Y-10132421D01*
X-52979Y-10386421D02*
X-52979Y-10314579D01*
X-124821Y-10314579D01*
X-124821Y-10386421D01*
X-52979Y-10386421D01*
X2227941Y-10399121D02*
X2227941Y-10327279D01*
X2156099Y-10327279D01*
X2156099Y-10399121D01*
X2227941Y-10399121D01*
X2227941Y-10653121D02*
X2227941Y-10581279D01*
X2156099Y-10581279D01*
X2156099Y-10653121D01*
X2227941Y-10653121D01*
X2481941Y-10399121D02*
X2481941Y-10327279D01*
X2410099Y-10327279D01*
X2410099Y-10399121D01*
X2481941Y-10399121D01*
X2481941Y-10653121D02*
X2481941Y-10581279D01*
X2410099Y-10581279D01*
X2410099Y-10653121D01*
X2481941Y-10653121D01*
X2735941Y-10399121D02*
X2735941Y-10327279D01*
X2664099Y-10327279D01*
X2664099Y-10399121D01*
X2735941Y-10399121D01*
X2735941Y-10653121D02*
X2735941Y-10581279D01*
X2664099Y-10581279D01*
X2664099Y-10653121D01*
X2735941Y-10653121D01*
X4773021Y-5916021D02*
X4773021Y-5844179D01*
X4701179Y-5844179D01*
X4701179Y-5916021D01*
X4773021Y-5916021D01*
X4773021Y-6170021D02*
X4773021Y-6098179D01*
X4701179Y-6098179D01*
X4701179Y-6170021D01*
X4773021Y-6170021D01*
X4773021Y-6424021D02*
X4773021Y-6352179D01*
X4701179Y-6352179D01*
X4701179Y-6424021D01*
X4773021Y-6424021D01*
X4773021Y-6678021D02*
X4773021Y-6606179D01*
X4701179Y-6606179D01*
X4701179Y-6678021D01*
X4773021Y-6678021D01*
X4773021Y-6932021D02*
X4773021Y-6860179D01*
X4701179Y-6860179D01*
X4701179Y-6932021D01*
X4773021Y-6932021D01*
X4773021Y-7186021D02*
X4773021Y-7114179D01*
X4701179Y-7114179D01*
X4701179Y-7186021D01*
X4773021Y-7186021D01*
X4773021Y-7440021D02*
X4773021Y-7368179D01*
X4701179Y-7368179D01*
X4701179Y-7440021D01*
X4773021Y-7440021D01*
X4773021Y-7694021D02*
X4773021Y-7622179D01*
X4701179Y-7622179D01*
X4701179Y-7694021D01*
X4773021Y-7694021D01*
X4773021Y-7948021D02*
X4773021Y-7876179D01*
X4701179Y-7876179D01*
X4701179Y-7948021D01*
X4773021Y-7948021D01*
X4773021Y-8202021D02*
X4773021Y-8130179D01*
X4701179Y-8130179D01*
X4701179Y-8202021D01*
X4773021Y-8202021D01*
X4773021Y-8608421D02*
X4773021Y-8536579D01*
X4701179Y-8536579D01*
X4701179Y-8608421D01*
X4773021Y-8608421D01*
X4773021Y-8862421D02*
X4773021Y-8790579D01*
X4701179Y-8790579D01*
X4701179Y-8862421D01*
X4773021Y-8862421D01*
X4773021Y-9116421D02*
X4773021Y-9044579D01*
X4701179Y-9044579D01*
X4701179Y-9116421D01*
X4773021Y-9116421D01*
X4773021Y-9370421D02*
X4773021Y-9298579D01*
X4701179Y-9298579D01*
X4701179Y-9370421D01*
X4773021Y-9370421D01*
X4773021Y-9624421D02*
X4773021Y-9552579D01*
X4701179Y-9552579D01*
X4701179Y-9624421D01*
X4773021Y-9624421D01*
X4773021Y-9878421D02*
X4773021Y-9806579D01*
X4701179Y-9806579D01*
X4701179Y-9878421D01*
X4773021Y-9878421D01*
X4773021Y-10132421D02*
X4773021Y-10060579D01*
X4701179Y-10060579D01*
X4701179Y-10132421D01*
X4773021Y-10132421D01*
X4773021Y-10386421D02*
X4773021Y-10314579D01*
X4701179Y-10314579D01*
X4701179Y-10386421D01*
X4773021Y-10386421D01*
X939800Y-6579000D02*
X990800Y-6528000D01*
X939800Y-6477000D01*
X888800Y-6528000D01*
X939800Y-6579000D01*
X939800Y-11049000D02*
X990800Y-10998000D01*
X939800Y-10947000D01*
X888800Y-10998000D01*
X939800Y-11049000D01*
X3733800Y-6579000D02*
X3784800Y-6528000D01*
X3733800Y-6477000D01*
X3682800Y-6528000D01*
X3733800Y-6579000D01*
X3733800Y-11049000D02*
X3784800Y-10998000D01*
X3733800Y-10947000D01*
X3682800Y-10998000D01*
X3733800Y-11049000D01*
X-658000Y-78600D02*
X-358000Y-378600D01*
X-358000Y-78600D02*
X-658000Y-378600D01*
X-358000Y-228600D02*
G75*
G03X-358000Y-228600I-150000J0D01*
G01*
X2186800Y-9629000D02*
X2486800Y-9929000D01*
X2486800Y-9629000D02*
X2186800Y-9929000D01*
X2486800Y-9779000D02*
G75*
G03X2486800Y-9779000I-150000J0D01*
G01*
X5031600Y-78600D02*
X5331600Y-378600D01*
X5331600Y-78600D02*
X5031600Y-378600D01*
X5331600Y-228600D02*
G75*
G03X5331600Y-228600I-150000J0D01*
G01*
X2086800Y707200D02*
X2586800Y207200D01*
X2586800Y707200D02*
X2086800Y207200D01*
X2336800Y707200D02*
X2336800Y207200D01*
X2086800Y457200D02*
X2586800Y457200D01*
X1896800Y217200D02*
X2776800Y217200D01*
X1896800Y697200D02*
X2776800Y697200D01*
X2776800Y217200D02*
G75*
G03X2776800Y697200I0J240000D01*
G01*
X1896800Y697200D02*
G75*
G03X1896800Y217200I0J-240000D01*
G01*
X2086800Y-10926000D02*
X2586800Y-11426000D01*
X2586800Y-10926000D02*
X2086800Y-11426000D01*
X2336800Y-10926000D02*
X2336800Y-11426000D01*
X2086800Y-11176000D02*
X2586800Y-11176000D01*
X1896800Y-11416000D02*
X2776800Y-11416000D01*
X1896800Y-10936000D02*
X2776800Y-10936000D01*
X2776800Y-11416000D02*
G75*
G03X2776800Y-10936000I0J240000D01*
G01*
X1896800Y-10936000D02*
G75*
G03X1896800Y-11416000I0J-240000D01*
G01*
D13*
X-574272Y-12157214D02*
X-574272Y-11857214D01*
X-502843Y-11857214D01*
X-459986Y-11871500D01*
X-431414Y-11900071D01*
X-417129Y-11928643D01*
X-402843Y-11985786D01*
X-402843Y-12028643D01*
X-417129Y-12085786D01*
X-431414Y-12114357D01*
X-459986Y-12142929D01*
X-502843Y-12157214D01*
X-574272Y-12157214D01*
X-274272Y-12157214D02*
X-274272Y-11957214D01*
X-274272Y-12014357D02*
X-259986Y-11985786D01*
X-245700Y-11971500D01*
X-217129Y-11957214D01*
X-188557Y-11957214D01*
X-88557Y-12157214D02*
X-88557Y-11957214D01*
X-88557Y-11857214D02*
X-102843Y-11871500D01*
X-88557Y-11885786D01*
X-74272Y-11871500D01*
X-88557Y-11857214D01*
X-88557Y-11885786D01*
X97157Y-12157214D02*
X68586Y-12142929D01*
X54300Y-12114357D01*
X54300Y-11857214D01*
X254300Y-12157214D02*
X225728Y-12142929D01*
X211443Y-12114357D01*
X211443Y-11857214D01*
X597157Y-12157214D02*
X597157Y-11857214D01*
X697157Y-12071500D01*
X797157Y-11857214D01*
X797157Y-12157214D01*
X1068586Y-12157214D02*
X1068586Y-12000071D01*
X1054300Y-11971500D01*
X1025728Y-11957214D01*
X968586Y-11957214D01*
X940014Y-11971500D01*
X1068586Y-12142929D02*
X1040014Y-12157214D01*
X968586Y-12157214D01*
X940014Y-12142929D01*
X925728Y-12114357D01*
X925728Y-12085786D01*
X940014Y-12057214D01*
X968586Y-12042929D01*
X1040014Y-12042929D01*
X1068586Y-12028643D01*
X1211443Y-11957214D02*
X1211443Y-12257214D01*
X1211443Y-11971500D02*
X1240014Y-11957214D01*
X1297157Y-11957214D01*
X1325729Y-11971500D01*
X1340014Y-11985786D01*
X1354300Y-12014357D01*
X1354300Y-12100071D01*
X1340014Y-12128643D01*
X1325729Y-12142929D01*
X1297157Y-12157214D01*
X1240014Y-12157214D01*
X1211443Y-12142929D01*
X1482871Y-12128643D02*
X1497157Y-12142929D01*
X1482871Y-12157214D01*
X1468586Y-12142929D01*
X1482871Y-12128643D01*
X1482871Y-12157214D01*
X1482871Y-11971500D02*
X1497157Y-11985786D01*
X1482871Y-12000071D01*
X1468586Y-11985786D01*
X1482871Y-11971500D01*
X1482871Y-12000071D01*
X-881260Y-12633720D02*
X-845700Y-12669280D01*
X-845700Y-12633720D02*
X-881260Y-12669280D01*
X-517129Y-12487214D02*
X-488557Y-12487214D01*
X-459986Y-12501500D01*
X-445700Y-12515786D01*
X-431414Y-12544357D01*
X-417129Y-12601500D01*
X-417129Y-12672929D01*
X-431414Y-12730071D01*
X-445700Y-12758643D01*
X-459986Y-12772929D01*
X-488557Y-12787214D01*
X-517129Y-12787214D01*
X-545700Y-12772929D01*
X-559986Y-12758643D01*
X-574272Y-12730071D01*
X-588557Y-12672929D01*
X-588557Y-12601500D01*
X-574272Y-12544357D01*
X-559986Y-12515786D01*
X-545700Y-12501500D01*
X-517129Y-12487214D01*
X-288557Y-12758643D02*
X-274272Y-12772929D01*
X-288557Y-12787214D01*
X-302843Y-12772929D01*
X-288557Y-12758643D01*
X-288557Y-12787214D01*
X-174272Y-12487214D02*
X11443Y-12487214D01*
X-88557Y-12601500D01*
X-45700Y-12601500D01*
X-17129Y-12615786D01*
X-2843Y-12630071D01*
X11443Y-12658643D01*
X11443Y-12730071D01*
X-2843Y-12758643D01*
X-17129Y-12772929D01*
X-45700Y-12787214D01*
X-131414Y-12787214D01*
X-159986Y-12772929D01*
X-174272Y-12758643D01*
X268586Y-12487214D02*
X211443Y-12487214D01*
X182871Y-12501500D01*
X168586Y-12515786D01*
X140014Y-12558643D01*
X125728Y-12615786D01*
X125728Y-12730071D01*
X140014Y-12758643D01*
X154300Y-12772929D01*
X182871Y-12787214D01*
X240014Y-12787214D01*
X268586Y-12772929D01*
X282871Y-12758643D01*
X297157Y-12730071D01*
X297157Y-12658643D01*
X282871Y-12630071D01*
X268586Y-12615786D01*
X240014Y-12601500D01*
X182871Y-12601500D01*
X154300Y-12615786D01*
X140014Y-12630071D01*
X125728Y-12658643D01*
X425728Y-12787214D02*
X425728Y-12587214D01*
X425728Y-12615786D02*
X440014Y-12601500D01*
X468586Y-12587214D01*
X511443Y-12587214D01*
X540014Y-12601500D01*
X554300Y-12630071D01*
X554300Y-12787214D01*
X554300Y-12630071D02*
X568586Y-12601500D01*
X597157Y-12587214D01*
X640014Y-12587214D01*
X668586Y-12601500D01*
X682871Y-12630071D01*
X682871Y-12787214D01*
X825728Y-12787214D02*
X825728Y-12587214D01*
X825728Y-12615786D02*
X840014Y-12601500D01*
X868586Y-12587214D01*
X911443Y-12587214D01*
X940014Y-12601500D01*
X954300Y-12630071D01*
X954300Y-12787214D01*
X954300Y-12630071D02*
X968586Y-12601500D01*
X997157Y-12587214D01*
X1040014Y-12587214D01*
X1068586Y-12601500D01*
X1082871Y-12630071D01*
X1082871Y-12787214D01*
X1668586Y-12472929D02*
X1411443Y-12858643D01*
X2054300Y-12487214D02*
X2082871Y-12487214D01*
X2111443Y-12501500D01*
X2125728Y-12515786D01*
X2140014Y-12544357D01*
X2154300Y-12601500D01*
X2154300Y-12672929D01*
X2140014Y-12730071D01*
X2125728Y-12758643D01*
X2111443Y-12772929D01*
X2082871Y-12787214D01*
X2054300Y-12787214D01*
X2025728Y-12772929D01*
X2011443Y-12758643D01*
X1997157Y-12730071D01*
X1982871Y-12672929D01*
X1982871Y-12601500D01*
X1997157Y-12544357D01*
X2011443Y-12515786D01*
X2025728Y-12501500D01*
X2054300Y-12487214D01*
X2282871Y-12758643D02*
X2297157Y-12772929D01*
X2282871Y-12787214D01*
X2268586Y-12772929D01*
X2282871Y-12758643D01*
X2282871Y-12787214D01*
X2482871Y-12487214D02*
X2511443Y-12487214D01*
X2540014Y-12501500D01*
X2554300Y-12515786D01*
X2568586Y-12544357D01*
X2582871Y-12601500D01*
X2582871Y-12672929D01*
X2568586Y-12730071D01*
X2554300Y-12758643D01*
X2540014Y-12772929D01*
X2511443Y-12787214D01*
X2482871Y-12787214D01*
X2454300Y-12772929D01*
X2440014Y-12758643D01*
X2425728Y-12730071D01*
X2411443Y-12672929D01*
X2411443Y-12601500D01*
X2425728Y-12544357D01*
X2440014Y-12515786D01*
X2454300Y-12501500D01*
X2482871Y-12487214D01*
X2868585Y-12787214D02*
X2697157Y-12787214D01*
X2782871Y-12787214D02*
X2782871Y-12487214D01*
X2754300Y-12530071D01*
X2725728Y-12558643D01*
X2697157Y-12572929D01*
X3125728Y-12587214D02*
X3125728Y-12787214D01*
X3054300Y-12472929D02*
X2982871Y-12687214D01*
X3168585Y-12687214D01*
X3268586Y-12487214D02*
X3268586Y-12544357D01*
X3382871Y-12487214D02*
X3382871Y-12544357D01*
X3825728Y-12901500D02*
X3811443Y-12887214D01*
X3782871Y-12844357D01*
X3768585Y-12815786D01*
X3754300Y-12772929D01*
X3740014Y-12701500D01*
X3740014Y-12644357D01*
X3754300Y-12572929D01*
X3768585Y-12530071D01*
X3782871Y-12501500D01*
X3811443Y-12458643D01*
X3825728Y-12444357D01*
X3925728Y-12515786D02*
X3940014Y-12501500D01*
X3968585Y-12487214D01*
X4040014Y-12487214D01*
X4068585Y-12501500D01*
X4082871Y-12515786D01*
X4097157Y-12544357D01*
X4097157Y-12572929D01*
X4082871Y-12615786D01*
X3911443Y-12787214D01*
X4097157Y-12787214D01*
X4354300Y-12487214D02*
X4297157Y-12487214D01*
X4268586Y-12501500D01*
X4254300Y-12515786D01*
X4225728Y-12558643D01*
X4211443Y-12615786D01*
X4211443Y-12730071D01*
X4225728Y-12758643D01*
X4240014Y-12772929D01*
X4268586Y-12787214D01*
X4325728Y-12787214D01*
X4354300Y-12772929D01*
X4368586Y-12758643D01*
X4382871Y-12730071D01*
X4382871Y-12658643D01*
X4368586Y-12630071D01*
X4354300Y-12615786D01*
X4325728Y-12601500D01*
X4268586Y-12601500D01*
X4240014Y-12615786D01*
X4225728Y-12630071D01*
X4211443Y-12658643D01*
X4554300Y-12615786D02*
X4525728Y-12601500D01*
X4511443Y-12587214D01*
X4497157Y-12558643D01*
X4497157Y-12544357D01*
X4511443Y-12515786D01*
X4525728Y-12501500D01*
X4554300Y-12487214D01*
X4611443Y-12487214D01*
X4640014Y-12501500D01*
X4654300Y-12515786D01*
X4668586Y-12544357D01*
X4668586Y-12558643D01*
X4654300Y-12587214D01*
X4640014Y-12601500D01*
X4611443Y-12615786D01*
X4554300Y-12615786D01*
X4525728Y-12630071D01*
X4511443Y-12644357D01*
X4497157Y-12672929D01*
X4497157Y-12730071D01*
X4511443Y-12758643D01*
X4525728Y-12772929D01*
X4554300Y-12787214D01*
X4611443Y-12787214D01*
X4640014Y-12772929D01*
X4654300Y-12758643D01*
X4668586Y-12730071D01*
X4668586Y-12672929D01*
X4654300Y-12644357D01*
X4640014Y-12630071D01*
X4611443Y-12615786D01*
X5025728Y-12787214D02*
X5025728Y-12487214D01*
X5154300Y-12787214D02*
X5154300Y-12630071D01*
X5140014Y-12601500D01*
X5111443Y-12587214D01*
X5068586Y-12587214D01*
X5040014Y-12601500D01*
X5025728Y-12615786D01*
X5340014Y-12787214D02*
X5311443Y-12772929D01*
X5297157Y-12758643D01*
X5282871Y-12730071D01*
X5282871Y-12644357D01*
X5297157Y-12615786D01*
X5311443Y-12601500D01*
X5340014Y-12587214D01*
X5382871Y-12587214D01*
X5411443Y-12601500D01*
X5425728Y-12615786D01*
X5440014Y-12644357D01*
X5440014Y-12730071D01*
X5425728Y-12758643D01*
X5411443Y-12772929D01*
X5382871Y-12787214D01*
X5340014Y-12787214D01*
X5611443Y-12787214D02*
X5582871Y-12772929D01*
X5568586Y-12744357D01*
X5568586Y-12487214D01*
X5840014Y-12772929D02*
X5811443Y-12787214D01*
X5754300Y-12787214D01*
X5725728Y-12772929D01*
X5711443Y-12744357D01*
X5711443Y-12630071D01*
X5725728Y-12601500D01*
X5754300Y-12587214D01*
X5811443Y-12587214D01*
X5840014Y-12601500D01*
X5854300Y-12630071D01*
X5854300Y-12658643D01*
X5711443Y-12687214D01*
X5968586Y-12772929D02*
X5997157Y-12787214D01*
X6054300Y-12787214D01*
X6082871Y-12772929D01*
X6097157Y-12744357D01*
X6097157Y-12730071D01*
X6082871Y-12701500D01*
X6054300Y-12687214D01*
X6011443Y-12687214D01*
X5982871Y-12672929D01*
X5968586Y-12644357D01*
X5968586Y-12630071D01*
X5982871Y-12601500D01*
X6011443Y-12587214D01*
X6054300Y-12587214D01*
X6082871Y-12601500D01*
X6197157Y-12901500D02*
X6211443Y-12887214D01*
X6240014Y-12844357D01*
X6254300Y-12815786D01*
X6268586Y-12772929D01*
X6282871Y-12701500D01*
X6282871Y-12644357D01*
X6268586Y-12572929D01*
X6254300Y-12530071D01*
X6240014Y-12501500D01*
X6211443Y-12458643D01*
X6197157Y-12444357D01*
X-845700Y-13047500D02*
G75*
G03X-845700Y-13047500I-25000J0D01*
G01*
X-517129Y-12883214D02*
X-488557Y-12883214D01*
X-459986Y-12897500D01*
X-445700Y-12911786D01*
X-431414Y-12940357D01*
X-417129Y-12997500D01*
X-417129Y-13068929D01*
X-431414Y-13126071D01*
X-445700Y-13154643D01*
X-459986Y-13168929D01*
X-488557Y-13183214D01*
X-517129Y-13183214D01*
X-545700Y-13168929D01*
X-559986Y-13154643D01*
X-574272Y-13126071D01*
X-588557Y-13068929D01*
X-588557Y-12997500D01*
X-574272Y-12940357D01*
X-559986Y-12911786D01*
X-545700Y-12897500D01*
X-517129Y-12883214D01*
X-288557Y-13154643D02*
X-274272Y-13168929D01*
X-288557Y-13183214D01*
X-302843Y-13168929D01*
X-288557Y-13154643D01*
X-288557Y-13183214D01*
X-2843Y-12883214D02*
X-145700Y-12883214D01*
X-159986Y-13026071D01*
X-145700Y-13011786D01*
X-117129Y-12997500D01*
X-45700Y-12997500D01*
X-17129Y-13011786D01*
X-2843Y-13026071D01*
X11443Y-13054643D01*
X11443Y-13126071D01*
X-2843Y-13154643D01*
X-17129Y-13168929D01*
X-45700Y-13183214D01*
X-117129Y-13183214D01*
X-145700Y-13168929D01*
X-159986Y-13154643D01*
X197157Y-12883214D02*
X225728Y-12883214D01*
X254300Y-12897500D01*
X268586Y-12911786D01*
X282871Y-12940357D01*
X297157Y-12997500D01*
X297157Y-13068929D01*
X282871Y-13126071D01*
X268586Y-13154643D01*
X254300Y-13168929D01*
X225728Y-13183214D01*
X197157Y-13183214D01*
X168586Y-13168929D01*
X154300Y-13154643D01*
X140014Y-13126071D01*
X125728Y-13068929D01*
X125728Y-12997500D01*
X140014Y-12940357D01*
X154300Y-12911786D01*
X168586Y-12897500D01*
X197157Y-12883214D01*
X425728Y-13183214D02*
X425728Y-12983214D01*
X425728Y-13011786D02*
X440014Y-12997500D01*
X468586Y-12983214D01*
X511443Y-12983214D01*
X540014Y-12997500D01*
X554300Y-13026071D01*
X554300Y-13183214D01*
X554300Y-13026071D02*
X568586Y-12997500D01*
X597157Y-12983214D01*
X640014Y-12983214D01*
X668586Y-12997500D01*
X682871Y-13026071D01*
X682871Y-13183214D01*
X825728Y-13183214D02*
X825728Y-12983214D01*
X825728Y-13011786D02*
X840014Y-12997500D01*
X868586Y-12983214D01*
X911443Y-12983214D01*
X940014Y-12997500D01*
X954300Y-13026071D01*
X954300Y-13183214D01*
X954300Y-13026071D02*
X968586Y-12997500D01*
X997157Y-12983214D01*
X1040014Y-12983214D01*
X1068586Y-12997500D01*
X1082871Y-13026071D01*
X1082871Y-13183214D01*
X1668586Y-12868929D02*
X1411443Y-13254643D01*
X2054300Y-12883214D02*
X2082871Y-12883214D01*
X2111443Y-12897500D01*
X2125728Y-12911786D01*
X2140014Y-12940357D01*
X2154300Y-12997500D01*
X2154300Y-13068929D01*
X2140014Y-13126071D01*
X2125728Y-13154643D01*
X2111443Y-13168929D01*
X2082871Y-13183214D01*
X2054300Y-13183214D01*
X2025728Y-13168929D01*
X2011443Y-13154643D01*
X1997157Y-13126071D01*
X1982871Y-13068929D01*
X1982871Y-12997500D01*
X1997157Y-12940357D01*
X2011443Y-12911786D01*
X2025728Y-12897500D01*
X2054300Y-12883214D01*
X2282871Y-13154643D02*
X2297157Y-13168929D01*
X2282871Y-13183214D01*
X2268586Y-13168929D01*
X2282871Y-13154643D01*
X2282871Y-13183214D01*
X2482871Y-12883214D02*
X2511443Y-12883214D01*
X2540014Y-12897500D01*
X2554300Y-12911786D01*
X2568586Y-12940357D01*
X2582871Y-12997500D01*
X2582871Y-13068929D01*
X2568586Y-13126071D01*
X2554300Y-13154643D01*
X2540014Y-13168929D01*
X2511443Y-13183214D01*
X2482871Y-13183214D01*
X2454300Y-13168929D01*
X2440014Y-13154643D01*
X2425728Y-13126071D01*
X2411443Y-13068929D01*
X2411443Y-12997500D01*
X2425728Y-12940357D01*
X2440014Y-12911786D01*
X2454300Y-12897500D01*
X2482871Y-12883214D01*
X2697157Y-12911786D02*
X2711443Y-12897500D01*
X2740014Y-12883214D01*
X2811443Y-12883214D01*
X2840014Y-12897500D01*
X2854300Y-12911786D01*
X2868585Y-12940357D01*
X2868585Y-12968929D01*
X2854300Y-13011786D01*
X2682871Y-13183214D01*
X2868585Y-13183214D01*
X3054300Y-12883214D02*
X3082871Y-12883214D01*
X3111443Y-12897500D01*
X3125728Y-12911786D01*
X3140014Y-12940357D01*
X3154300Y-12997500D01*
X3154300Y-13068929D01*
X3140014Y-13126071D01*
X3125728Y-13154643D01*
X3111443Y-13168929D01*
X3082871Y-13183214D01*
X3054300Y-13183214D01*
X3025728Y-13168929D01*
X3011443Y-13154643D01*
X2997157Y-13126071D01*
X2982871Y-13068929D01*
X2982871Y-12997500D01*
X2997157Y-12940357D01*
X3011443Y-12911786D01*
X3025728Y-12897500D01*
X3054300Y-12883214D01*
X3268586Y-12883214D02*
X3268586Y-12940357D01*
X3382871Y-12883214D02*
X3382871Y-12940357D01*
X3825728Y-13297500D02*
X3811443Y-13283214D01*
X3782871Y-13240357D01*
X3768585Y-13211786D01*
X3754300Y-13168929D01*
X3740014Y-13097500D01*
X3740014Y-13040357D01*
X3754300Y-12968929D01*
X3768585Y-12926071D01*
X3782871Y-12897500D01*
X3811443Y-12854643D01*
X3825728Y-12840357D01*
X3997157Y-12883214D02*
X4025728Y-12883214D01*
X4054300Y-12897500D01*
X4068585Y-12911786D01*
X4082871Y-12940357D01*
X4097157Y-12997500D01*
X4097157Y-13068929D01*
X4082871Y-13126071D01*
X4068585Y-13154643D01*
X4054300Y-13168929D01*
X4025728Y-13183214D01*
X3997157Y-13183214D01*
X3968585Y-13168929D01*
X3954300Y-13154643D01*
X3940014Y-13126071D01*
X3925728Y-13068929D01*
X3925728Y-12997500D01*
X3940014Y-12940357D01*
X3954300Y-12911786D01*
X3968585Y-12897500D01*
X3997157Y-12883214D01*
X4454300Y-13183214D02*
X4454300Y-12883214D01*
X4582871Y-13183214D02*
X4582871Y-13026071D01*
X4568586Y-12997500D01*
X4540014Y-12983214D01*
X4497157Y-12983214D01*
X4468586Y-12997500D01*
X4454300Y-13011786D01*
X4768586Y-13183214D02*
X4740014Y-13168929D01*
X4725728Y-13154643D01*
X4711443Y-13126071D01*
X4711443Y-13040357D01*
X4725728Y-13011786D01*
X4740014Y-12997500D01*
X4768586Y-12983214D01*
X4811443Y-12983214D01*
X4840014Y-12997500D01*
X4854300Y-13011786D01*
X4868586Y-13040357D01*
X4868586Y-13126071D01*
X4854300Y-13154643D01*
X4840014Y-13168929D01*
X4811443Y-13183214D01*
X4768586Y-13183214D01*
X5040014Y-13183214D02*
X5011443Y-13168929D01*
X4997157Y-13140357D01*
X4997157Y-12883214D01*
X5268586Y-13168929D02*
X5240014Y-13183214D01*
X5182871Y-13183214D01*
X5154300Y-13168929D01*
X5140014Y-13140357D01*
X5140014Y-13026071D01*
X5154300Y-12997500D01*
X5182871Y-12983214D01*
X5240014Y-12983214D01*
X5268586Y-12997500D01*
X5282871Y-13026071D01*
X5282871Y-13054643D01*
X5140014Y-13083214D01*
X5397157Y-13168929D02*
X5425729Y-13183214D01*
X5482871Y-13183214D01*
X5511443Y-13168929D01*
X5525729Y-13140357D01*
X5525729Y-13126071D01*
X5511443Y-13097500D01*
X5482871Y-13083214D01*
X5440014Y-13083214D01*
X5411443Y-13068929D01*
X5397157Y-13040357D01*
X5397157Y-13026071D01*
X5411443Y-12997500D01*
X5440014Y-12983214D01*
X5482871Y-12983214D01*
X5511443Y-12997500D01*
X5882871Y-13068929D02*
X6111443Y-13068929D01*
X5997157Y-13183214D02*
X5997157Y-12954643D01*
X6468586Y-12911786D02*
X6482871Y-12897500D01*
X6511443Y-12883214D01*
X6582871Y-12883214D01*
X6611443Y-12897500D01*
X6625728Y-12911786D01*
X6640014Y-12940357D01*
X6640014Y-12968929D01*
X6625728Y-13011786D01*
X6454300Y-13183214D01*
X6640014Y-13183214D01*
X6982871Y-13168929D02*
X7011443Y-13183214D01*
X7068585Y-13183214D01*
X7097157Y-13168929D01*
X7111443Y-13140357D01*
X7111443Y-13126071D01*
X7097157Y-13097500D01*
X7068585Y-13083214D01*
X7025728Y-13083214D01*
X6997157Y-13068929D01*
X6982871Y-13040357D01*
X6982871Y-13026071D01*
X6997157Y-12997500D01*
X7025728Y-12983214D01*
X7068585Y-12983214D01*
X7097157Y-12997500D01*
X7282871Y-13183214D02*
X7254300Y-13168929D01*
X7240014Y-13140357D01*
X7240014Y-12883214D01*
X7440014Y-13183214D02*
X7411443Y-13168929D01*
X7397157Y-13154643D01*
X7382871Y-13126071D01*
X7382871Y-13040357D01*
X7397157Y-13011786D01*
X7411443Y-12997500D01*
X7440014Y-12983214D01*
X7482871Y-12983214D01*
X7511443Y-12997500D01*
X7525728Y-13011786D01*
X7540014Y-13040357D01*
X7540014Y-13126071D01*
X7525728Y-13154643D01*
X7511443Y-13168929D01*
X7482871Y-13183214D01*
X7440014Y-13183214D01*
X7625728Y-12983214D02*
X7740014Y-12983214D01*
X7668586Y-12883214D02*
X7668586Y-13140357D01*
X7682871Y-13168929D01*
X7711443Y-13183214D01*
X7740014Y-13183214D01*
X7825728Y-13168929D02*
X7854300Y-13183214D01*
X7911443Y-13183214D01*
X7940014Y-13168929D01*
X7954300Y-13140357D01*
X7954300Y-13126071D01*
X7940014Y-13097500D01*
X7911443Y-13083214D01*
X7868586Y-13083214D01*
X7840014Y-13068929D01*
X7825728Y-13040357D01*
X7825728Y-13026071D01*
X7840014Y-12997500D01*
X7868586Y-12983214D01*
X7911443Y-12983214D01*
X7940014Y-12997500D01*
X8054300Y-13297500D02*
X8068586Y-13283214D01*
X8097157Y-13240357D01*
X8111443Y-13211786D01*
X8125728Y-13168929D01*
X8140014Y-13097500D01*
X8140014Y-13040357D01*
X8125728Y-12968929D01*
X8111443Y-12926071D01*
X8097157Y-12897500D01*
X8068586Y-12854643D01*
X8054300Y-12840357D01*
X-873200Y-13416000D02*
X-873200Y-13471000D01*
X-900700Y-13443500D02*
X-845700Y-13443500D01*
X-517129Y-13279214D02*
X-488557Y-13279214D01*
X-459986Y-13293500D01*
X-445700Y-13307786D01*
X-431414Y-13336357D01*
X-417129Y-13393500D01*
X-417129Y-13464929D01*
X-431414Y-13522071D01*
X-445700Y-13550643D01*
X-459986Y-13564929D01*
X-488557Y-13579214D01*
X-517129Y-13579214D01*
X-545700Y-13564929D01*
X-559986Y-13550643D01*
X-574272Y-13522071D01*
X-588557Y-13464929D01*
X-588557Y-13393500D01*
X-574272Y-13336357D01*
X-559986Y-13307786D01*
X-545700Y-13293500D01*
X-517129Y-13279214D01*
X-288557Y-13550643D02*
X-274272Y-13564929D01*
X-288557Y-13579214D01*
X-302843Y-13564929D01*
X-288557Y-13550643D01*
X-288557Y-13579214D01*
X-2843Y-13279214D02*
X-145700Y-13279214D01*
X-159986Y-13422071D01*
X-145700Y-13407786D01*
X-117129Y-13393500D01*
X-45700Y-13393500D01*
X-17129Y-13407786D01*
X-2843Y-13422071D01*
X11443Y-13450643D01*
X11443Y-13522071D01*
X-2843Y-13550643D01*
X-17129Y-13564929D01*
X-45700Y-13579214D01*
X-117129Y-13579214D01*
X-145700Y-13564929D01*
X-159986Y-13550643D01*
X282871Y-13279214D02*
X140014Y-13279214D01*
X125728Y-13422071D01*
X140014Y-13407786D01*
X168586Y-13393500D01*
X240014Y-13393500D01*
X268586Y-13407786D01*
X282871Y-13422071D01*
X297157Y-13450643D01*
X297157Y-13522071D01*
X282871Y-13550643D01*
X268586Y-13564929D01*
X240014Y-13579214D01*
X168586Y-13579214D01*
X140014Y-13564929D01*
X125728Y-13550643D01*
X425728Y-13579214D02*
X425728Y-13379214D01*
X425728Y-13407786D02*
X440014Y-13393500D01*
X468586Y-13379214D01*
X511443Y-13379214D01*
X540014Y-13393500D01*
X554300Y-13422071D01*
X554300Y-13579214D01*
X554300Y-13422071D02*
X568586Y-13393500D01*
X597157Y-13379214D01*
X640014Y-13379214D01*
X668586Y-13393500D01*
X682871Y-13422071D01*
X682871Y-13579214D01*
X825728Y-13579214D02*
X825728Y-13379214D01*
X825728Y-13407786D02*
X840014Y-13393500D01*
X868586Y-13379214D01*
X911443Y-13379214D01*
X940014Y-13393500D01*
X954300Y-13422071D01*
X954300Y-13579214D01*
X954300Y-13422071D02*
X968586Y-13393500D01*
X997157Y-13379214D01*
X1040014Y-13379214D01*
X1068586Y-13393500D01*
X1082871Y-13422071D01*
X1082871Y-13579214D01*
X1668586Y-13264929D02*
X1411443Y-13650643D01*
X2054300Y-13279214D02*
X2082871Y-13279214D01*
X2111443Y-13293500D01*
X2125728Y-13307786D01*
X2140014Y-13336357D01*
X2154300Y-13393500D01*
X2154300Y-13464929D01*
X2140014Y-13522071D01*
X2125728Y-13550643D01*
X2111443Y-13564929D01*
X2082871Y-13579214D01*
X2054300Y-13579214D01*
X2025728Y-13564929D01*
X2011443Y-13550643D01*
X1997157Y-13522071D01*
X1982871Y-13464929D01*
X1982871Y-13393500D01*
X1997157Y-13336357D01*
X2011443Y-13307786D01*
X2025728Y-13293500D01*
X2054300Y-13279214D01*
X2282871Y-13550643D02*
X2297157Y-13564929D01*
X2282871Y-13579214D01*
X2268586Y-13564929D01*
X2282871Y-13550643D01*
X2282871Y-13579214D01*
X2482871Y-13279214D02*
X2511443Y-13279214D01*
X2540014Y-13293500D01*
X2554300Y-13307786D01*
X2568586Y-13336357D01*
X2582871Y-13393500D01*
X2582871Y-13464929D01*
X2568586Y-13522071D01*
X2554300Y-13550643D01*
X2540014Y-13564929D01*
X2511443Y-13579214D01*
X2482871Y-13579214D01*
X2454300Y-13564929D01*
X2440014Y-13550643D01*
X2425728Y-13522071D01*
X2411443Y-13464929D01*
X2411443Y-13393500D01*
X2425728Y-13336357D01*
X2440014Y-13307786D01*
X2454300Y-13293500D01*
X2482871Y-13279214D01*
X2697157Y-13307786D02*
X2711443Y-13293500D01*
X2740014Y-13279214D01*
X2811443Y-13279214D01*
X2840014Y-13293500D01*
X2854300Y-13307786D01*
X2868585Y-13336357D01*
X2868585Y-13364929D01*
X2854300Y-13407786D01*
X2682871Y-13579214D01*
X2868585Y-13579214D01*
X2982871Y-13307786D02*
X2997157Y-13293500D01*
X3025728Y-13279214D01*
X3097157Y-13279214D01*
X3125728Y-13293500D01*
X3140014Y-13307786D01*
X3154300Y-13336357D01*
X3154300Y-13364929D01*
X3140014Y-13407786D01*
X2968585Y-13579214D01*
X3154300Y-13579214D01*
X3268586Y-13279214D02*
X3268586Y-13336357D01*
X3382871Y-13279214D02*
X3382871Y-13336357D01*
X3825728Y-13693500D02*
X3811443Y-13679214D01*
X3782871Y-13636357D01*
X3768585Y-13607786D01*
X3754300Y-13564929D01*
X3740014Y-13493500D01*
X3740014Y-13436357D01*
X3754300Y-13364929D01*
X3768585Y-13322071D01*
X3782871Y-13293500D01*
X3811443Y-13250643D01*
X3825728Y-13236357D01*
X3997157Y-13279214D02*
X4025728Y-13279214D01*
X4054300Y-13293500D01*
X4068585Y-13307786D01*
X4082871Y-13336357D01*
X4097157Y-13393500D01*
X4097157Y-13464929D01*
X4082871Y-13522071D01*
X4068585Y-13550643D01*
X4054300Y-13564929D01*
X4025728Y-13579214D01*
X3997157Y-13579214D01*
X3968585Y-13564929D01*
X3954300Y-13550643D01*
X3940014Y-13522071D01*
X3925728Y-13464929D01*
X3925728Y-13393500D01*
X3940014Y-13336357D01*
X3954300Y-13307786D01*
X3968585Y-13293500D01*
X3997157Y-13279214D01*
X4454300Y-13579214D02*
X4454300Y-13279214D01*
X4582871Y-13579214D02*
X4582871Y-13422071D01*
X4568586Y-13393500D01*
X4540014Y-13379214D01*
X4497157Y-13379214D01*
X4468586Y-13393500D01*
X4454300Y-13407786D01*
X4768586Y-13579214D02*
X4740014Y-13564929D01*
X4725728Y-13550643D01*
X4711443Y-13522071D01*
X4711443Y-13436357D01*
X4725728Y-13407786D01*
X4740014Y-13393500D01*
X4768586Y-13379214D01*
X4811443Y-13379214D01*
X4840014Y-13393500D01*
X4854300Y-13407786D01*
X4868586Y-13436357D01*
X4868586Y-13522071D01*
X4854300Y-13550643D01*
X4840014Y-13564929D01*
X4811443Y-13579214D01*
X4768586Y-13579214D01*
X5040014Y-13579214D02*
X5011443Y-13564929D01*
X4997157Y-13536357D01*
X4997157Y-13279214D01*
X5268586Y-13564929D02*
X5240014Y-13579214D01*
X5182871Y-13579214D01*
X5154300Y-13564929D01*
X5140014Y-13536357D01*
X5140014Y-13422071D01*
X5154300Y-13393500D01*
X5182871Y-13379214D01*
X5240014Y-13379214D01*
X5268586Y-13393500D01*
X5282871Y-13422071D01*
X5282871Y-13450643D01*
X5140014Y-13479214D01*
X5397157Y-13564929D02*
X5425729Y-13579214D01*
X5482871Y-13579214D01*
X5511443Y-13564929D01*
X5525729Y-13536357D01*
X5525729Y-13522071D01*
X5511443Y-13493500D01*
X5482871Y-13479214D01*
X5440014Y-13479214D01*
X5411443Y-13464929D01*
X5397157Y-13436357D01*
X5397157Y-13422071D01*
X5411443Y-13393500D01*
X5440014Y-13379214D01*
X5482871Y-13379214D01*
X5511443Y-13393500D01*
X5882871Y-13464929D02*
X6111443Y-13464929D01*
X5997157Y-13579214D02*
X5997157Y-13350643D01*
X6468586Y-13307786D02*
X6482871Y-13293500D01*
X6511443Y-13279214D01*
X6582871Y-13279214D01*
X6611443Y-13293500D01*
X6625728Y-13307786D01*
X6640014Y-13336357D01*
X6640014Y-13364929D01*
X6625728Y-13407786D01*
X6454300Y-13579214D01*
X6640014Y-13579214D01*
X6982871Y-13564929D02*
X7011443Y-13579214D01*
X7068585Y-13579214D01*
X7097157Y-13564929D01*
X7111443Y-13536357D01*
X7111443Y-13522071D01*
X7097157Y-13493500D01*
X7068585Y-13479214D01*
X7025728Y-13479214D01*
X6997157Y-13464929D01*
X6982871Y-13436357D01*
X6982871Y-13422071D01*
X6997157Y-13393500D01*
X7025728Y-13379214D01*
X7068585Y-13379214D01*
X7097157Y-13393500D01*
X7282871Y-13579214D02*
X7254300Y-13564929D01*
X7240014Y-13536357D01*
X7240014Y-13279214D01*
X7440014Y-13579214D02*
X7411443Y-13564929D01*
X7397157Y-13550643D01*
X7382871Y-13522071D01*
X7382871Y-13436357D01*
X7397157Y-13407786D01*
X7411443Y-13393500D01*
X7440014Y-13379214D01*
X7482871Y-13379214D01*
X7511443Y-13393500D01*
X7525728Y-13407786D01*
X7540014Y-13436357D01*
X7540014Y-13522071D01*
X7525728Y-13550643D01*
X7511443Y-13564929D01*
X7482871Y-13579214D01*
X7440014Y-13579214D01*
X7625728Y-13379214D02*
X7740014Y-13379214D01*
X7668586Y-13279214D02*
X7668586Y-13536357D01*
X7682871Y-13564929D01*
X7711443Y-13579214D01*
X7740014Y-13579214D01*
X7825728Y-13564929D02*
X7854300Y-13579214D01*
X7911443Y-13579214D01*
X7940014Y-13564929D01*
X7954300Y-13536357D01*
X7954300Y-13522071D01*
X7940014Y-13493500D01*
X7911443Y-13479214D01*
X7868586Y-13479214D01*
X7840014Y-13464929D01*
X7825728Y-13436357D01*
X7825728Y-13422071D01*
X7840014Y-13393500D01*
X7868586Y-13379214D01*
X7911443Y-13379214D01*
X7940014Y-13393500D01*
X8054300Y-13693500D02*
X8068586Y-13679214D01*
X8097157Y-13636357D01*
X8111443Y-13607786D01*
X8125728Y-13564929D01*
X8140014Y-13493500D01*
X8140014Y-13436357D01*
X8125728Y-13364929D01*
X8111443Y-13322071D01*
X8097157Y-13293500D01*
X8068586Y-13250643D01*
X8054300Y-13236357D01*
X-860579Y-13875421D02*
X-860579Y-13803579D01*
X-932421Y-13803579D01*
X-932421Y-13875421D01*
X-860579Y-13875421D01*
X-417129Y-13975214D02*
X-588557Y-13975214D01*
X-502843Y-13975214D02*
X-502843Y-13675214D01*
X-531414Y-13718071D01*
X-559986Y-13746643D01*
X-588557Y-13760929D01*
X-288557Y-13946643D02*
X-274272Y-13960929D01*
X-288557Y-13975214D01*
X-302843Y-13960929D01*
X-288557Y-13946643D01*
X-288557Y-13975214D01*
X-88557Y-13675214D02*
X-59986Y-13675214D01*
X-31414Y-13689500D01*
X-17129Y-13703786D01*
X-2843Y-13732357D01*
X11443Y-13789500D01*
X11443Y-13860929D01*
X-2843Y-13918071D01*
X-17129Y-13946643D01*
X-31414Y-13960929D01*
X-59986Y-13975214D01*
X-88557Y-13975214D01*
X-117129Y-13960929D01*
X-131414Y-13946643D01*
X-145700Y-13918071D01*
X-159986Y-13860929D01*
X-159986Y-13789500D01*
X-145700Y-13732357D01*
X-131414Y-13703786D01*
X-117129Y-13689500D01*
X-88557Y-13675214D01*
X125728Y-13703786D02*
X140014Y-13689500D01*
X168586Y-13675214D01*
X240014Y-13675214D01*
X268586Y-13689500D01*
X282871Y-13703786D01*
X297157Y-13732357D01*
X297157Y-13760929D01*
X282871Y-13803786D01*
X111443Y-13975214D01*
X297157Y-13975214D01*
X425728Y-13975214D02*
X425728Y-13775214D01*
X425728Y-13803786D02*
X440014Y-13789500D01*
X468586Y-13775214D01*
X511443Y-13775214D01*
X540014Y-13789500D01*
X554300Y-13818071D01*
X554300Y-13975214D01*
X554300Y-13818071D02*
X568586Y-13789500D01*
X597157Y-13775214D01*
X640014Y-13775214D01*
X668586Y-13789500D01*
X682871Y-13818071D01*
X682871Y-13975214D01*
X825728Y-13975214D02*
X825728Y-13775214D01*
X825728Y-13803786D02*
X840014Y-13789500D01*
X868586Y-13775214D01*
X911443Y-13775214D01*
X940014Y-13789500D01*
X954300Y-13818071D01*
X954300Y-13975214D01*
X954300Y-13818071D02*
X968586Y-13789500D01*
X997157Y-13775214D01*
X1040014Y-13775214D01*
X1068586Y-13789500D01*
X1082871Y-13818071D01*
X1082871Y-13975214D01*
X1668586Y-13660929D02*
X1411443Y-14046643D01*
X2054300Y-13675214D02*
X2082871Y-13675214D01*
X2111443Y-13689500D01*
X2125728Y-13703786D01*
X2140014Y-13732357D01*
X2154300Y-13789500D01*
X2154300Y-13860929D01*
X2140014Y-13918071D01*
X2125728Y-13946643D01*
X2111443Y-13960929D01*
X2082871Y-13975214D01*
X2054300Y-13975214D01*
X2025728Y-13960929D01*
X2011443Y-13946643D01*
X1997157Y-13918071D01*
X1982871Y-13860929D01*
X1982871Y-13789500D01*
X1997157Y-13732357D01*
X2011443Y-13703786D01*
X2025728Y-13689500D01*
X2054300Y-13675214D01*
X2282871Y-13946643D02*
X2297157Y-13960929D01*
X2282871Y-13975214D01*
X2268586Y-13960929D01*
X2282871Y-13946643D01*
X2282871Y-13975214D01*
X2482871Y-13675214D02*
X2511443Y-13675214D01*
X2540014Y-13689500D01*
X2554300Y-13703786D01*
X2568586Y-13732357D01*
X2582871Y-13789500D01*
X2582871Y-13860929D01*
X2568586Y-13918071D01*
X2554300Y-13946643D01*
X2540014Y-13960929D01*
X2511443Y-13975214D01*
X2482871Y-13975214D01*
X2454300Y-13960929D01*
X2440014Y-13946643D01*
X2425728Y-13918071D01*
X2411443Y-13860929D01*
X2411443Y-13789500D01*
X2425728Y-13732357D01*
X2440014Y-13703786D01*
X2454300Y-13689500D01*
X2482871Y-13675214D01*
X2840014Y-13775214D02*
X2840014Y-13975214D01*
X2768586Y-13660929D02*
X2697157Y-13875214D01*
X2882871Y-13875214D01*
X3054300Y-13675214D02*
X3082871Y-13675214D01*
X3111443Y-13689500D01*
X3125728Y-13703786D01*
X3140014Y-13732357D01*
X3154300Y-13789500D01*
X3154300Y-13860929D01*
X3140014Y-13918071D01*
X3125728Y-13946643D01*
X3111443Y-13960929D01*
X3082871Y-13975214D01*
X3054300Y-13975214D01*
X3025728Y-13960929D01*
X3011443Y-13946643D01*
X2997157Y-13918071D01*
X2982871Y-13860929D01*
X2982871Y-13789500D01*
X2997157Y-13732357D01*
X3011443Y-13703786D01*
X3025728Y-13689500D01*
X3054300Y-13675214D01*
X3268586Y-13675214D02*
X3268586Y-13732357D01*
X3382871Y-13675214D02*
X3382871Y-13732357D01*
X3825728Y-14089500D02*
X3811443Y-14075214D01*
X3782871Y-14032357D01*
X3768585Y-14003786D01*
X3754300Y-13960929D01*
X3740014Y-13889500D01*
X3740014Y-13832357D01*
X3754300Y-13760929D01*
X3768585Y-13718071D01*
X3782871Y-13689500D01*
X3811443Y-13646643D01*
X3825728Y-13632357D01*
X3911443Y-13675214D02*
X4097157Y-13675214D01*
X3997157Y-13789500D01*
X4040014Y-13789500D01*
X4068585Y-13803786D01*
X4082871Y-13818071D01*
X4097157Y-13846643D01*
X4097157Y-13918071D01*
X4082871Y-13946643D01*
X4068585Y-13960929D01*
X4040014Y-13975214D01*
X3954300Y-13975214D01*
X3925728Y-13960929D01*
X3911443Y-13946643D01*
X4268586Y-13803786D02*
X4240014Y-13789500D01*
X4225728Y-13775214D01*
X4211443Y-13746643D01*
X4211443Y-13732357D01*
X4225728Y-13703786D01*
X4240014Y-13689500D01*
X4268586Y-13675214D01*
X4325728Y-13675214D01*
X4354300Y-13689500D01*
X4368586Y-13703786D01*
X4382871Y-13732357D01*
X4382871Y-13746643D01*
X4368586Y-13775214D01*
X4354300Y-13789500D01*
X4325728Y-13803786D01*
X4268586Y-13803786D01*
X4240014Y-13818071D01*
X4225728Y-13832357D01*
X4211443Y-13860929D01*
X4211443Y-13918071D01*
X4225728Y-13946643D01*
X4240014Y-13960929D01*
X4268586Y-13975214D01*
X4325728Y-13975214D01*
X4354300Y-13960929D01*
X4368586Y-13946643D01*
X4382871Y-13918071D01*
X4382871Y-13860929D01*
X4368586Y-13832357D01*
X4354300Y-13818071D01*
X4325728Y-13803786D01*
X4740014Y-13975214D02*
X4740014Y-13675214D01*
X4868586Y-13975214D02*
X4868586Y-13818071D01*
X4854300Y-13789500D01*
X4825728Y-13775214D01*
X4782871Y-13775214D01*
X4754300Y-13789500D01*
X4740014Y-13803786D01*
X5054300Y-13975214D02*
X5025728Y-13960929D01*
X5011443Y-13946643D01*
X4997157Y-13918071D01*
X4997157Y-13832357D01*
X5011443Y-13803786D01*
X5025728Y-13789500D01*
X5054300Y-13775214D01*
X5097157Y-13775214D01*
X5125728Y-13789500D01*
X5140014Y-13803786D01*
X5154300Y-13832357D01*
X5154300Y-13918071D01*
X5140014Y-13946643D01*
X5125728Y-13960929D01*
X5097157Y-13975214D01*
X5054300Y-13975214D01*
X5325728Y-13975214D02*
X5297157Y-13960929D01*
X5282871Y-13932357D01*
X5282871Y-13675214D01*
X5554300Y-13960929D02*
X5525729Y-13975214D01*
X5468586Y-13975214D01*
X5440014Y-13960929D01*
X5425729Y-13932357D01*
X5425729Y-13818071D01*
X5440014Y-13789500D01*
X5468586Y-13775214D01*
X5525729Y-13775214D01*
X5554300Y-13789500D01*
X5568586Y-13818071D01*
X5568586Y-13846643D01*
X5425729Y-13875214D01*
X5682871Y-13960929D02*
X5711443Y-13975214D01*
X5768586Y-13975214D01*
X5797157Y-13960929D01*
X5811443Y-13932357D01*
X5811443Y-13918071D01*
X5797157Y-13889500D01*
X5768586Y-13875214D01*
X5725728Y-13875214D01*
X5697157Y-13860929D01*
X5682871Y-13832357D01*
X5682871Y-13818071D01*
X5697157Y-13789500D01*
X5725728Y-13775214D01*
X5768586Y-13775214D01*
X5797157Y-13789500D01*
X5911443Y-14089500D02*
X5925728Y-14075214D01*
X5954300Y-14032357D01*
X5968586Y-14003786D01*
X5982871Y-13960929D01*
X5997157Y-13889500D01*
X5997157Y-13832357D01*
X5982871Y-13760929D01*
X5968586Y-13718071D01*
X5954300Y-13689500D01*
X5925728Y-13646643D01*
X5911443Y-13632357D01*
X-896700Y-14286500D02*
X-845700Y-14235500D01*
X-896700Y-14184500D01*
X-947700Y-14235500D01*
X-896700Y-14286500D01*
X-417129Y-14371214D02*
X-588557Y-14371214D01*
X-502843Y-14371214D02*
X-502843Y-14071214D01*
X-531414Y-14114071D01*
X-559986Y-14142643D01*
X-588557Y-14156929D01*
X-288557Y-14342643D02*
X-274272Y-14356929D01*
X-288557Y-14371214D01*
X-302843Y-14356929D01*
X-288557Y-14342643D01*
X-288557Y-14371214D01*
X-88557Y-14071214D02*
X-59986Y-14071214D01*
X-31414Y-14085500D01*
X-17129Y-14099786D01*
X-2843Y-14128357D01*
X11443Y-14185500D01*
X11443Y-14256929D01*
X-2843Y-14314071D01*
X-17129Y-14342643D01*
X-31414Y-14356929D01*
X-59986Y-14371214D01*
X-88557Y-14371214D01*
X-117129Y-14356929D01*
X-131414Y-14342643D01*
X-145700Y-14314071D01*
X-159986Y-14256929D01*
X-159986Y-14185500D01*
X-145700Y-14128357D01*
X-131414Y-14099786D01*
X-117129Y-14085500D01*
X-88557Y-14071214D01*
X125728Y-14099786D02*
X140014Y-14085500D01*
X168586Y-14071214D01*
X240014Y-14071214D01*
X268586Y-14085500D01*
X282871Y-14099786D01*
X297157Y-14128357D01*
X297157Y-14156929D01*
X282871Y-14199786D01*
X111443Y-14371214D01*
X297157Y-14371214D01*
X425728Y-14371214D02*
X425728Y-14171214D01*
X425728Y-14199786D02*
X440014Y-14185500D01*
X468586Y-14171214D01*
X511443Y-14171214D01*
X540014Y-14185500D01*
X554300Y-14214071D01*
X554300Y-14371214D01*
X554300Y-14214071D02*
X568586Y-14185500D01*
X597157Y-14171214D01*
X640014Y-14171214D01*
X668586Y-14185500D01*
X682871Y-14214071D01*
X682871Y-14371214D01*
X825728Y-14371214D02*
X825728Y-14171214D01*
X825728Y-14199786D02*
X840014Y-14185500D01*
X868586Y-14171214D01*
X911443Y-14171214D01*
X940014Y-14185500D01*
X954300Y-14214071D01*
X954300Y-14371214D01*
X954300Y-14214071D02*
X968586Y-14185500D01*
X997157Y-14171214D01*
X1040014Y-14171214D01*
X1068586Y-14185500D01*
X1082871Y-14214071D01*
X1082871Y-14371214D01*
X1668586Y-14056929D02*
X1411443Y-14442643D01*
X2054300Y-14071214D02*
X2082871Y-14071214D01*
X2111443Y-14085500D01*
X2125728Y-14099786D01*
X2140014Y-14128357D01*
X2154300Y-14185500D01*
X2154300Y-14256929D01*
X2140014Y-14314071D01*
X2125728Y-14342643D01*
X2111443Y-14356929D01*
X2082871Y-14371214D01*
X2054300Y-14371214D01*
X2025728Y-14356929D01*
X2011443Y-14342643D01*
X1997157Y-14314071D01*
X1982871Y-14256929D01*
X1982871Y-14185500D01*
X1997157Y-14128357D01*
X2011443Y-14099786D01*
X2025728Y-14085500D01*
X2054300Y-14071214D01*
X2282871Y-14342643D02*
X2297157Y-14356929D01*
X2282871Y-14371214D01*
X2268586Y-14356929D01*
X2282871Y-14342643D01*
X2282871Y-14371214D01*
X2482871Y-14071214D02*
X2511443Y-14071214D01*
X2540014Y-14085500D01*
X2554300Y-14099786D01*
X2568586Y-14128357D01*
X2582871Y-14185500D01*
X2582871Y-14256929D01*
X2568586Y-14314071D01*
X2554300Y-14342643D01*
X2540014Y-14356929D01*
X2511443Y-14371214D01*
X2482871Y-14371214D01*
X2454300Y-14356929D01*
X2440014Y-14342643D01*
X2425728Y-14314071D01*
X2411443Y-14256929D01*
X2411443Y-14185500D01*
X2425728Y-14128357D01*
X2440014Y-14099786D01*
X2454300Y-14085500D01*
X2482871Y-14071214D01*
X2840014Y-14171214D02*
X2840014Y-14371214D01*
X2768586Y-14056929D02*
X2697157Y-14271214D01*
X2882871Y-14271214D01*
X3054300Y-14071214D02*
X3082871Y-14071214D01*
X3111443Y-14085500D01*
X3125728Y-14099786D01*
X3140014Y-14128357D01*
X3154300Y-14185500D01*
X3154300Y-14256929D01*
X3140014Y-14314071D01*
X3125728Y-14342643D01*
X3111443Y-14356929D01*
X3082871Y-14371214D01*
X3054300Y-14371214D01*
X3025728Y-14356929D01*
X3011443Y-14342643D01*
X2997157Y-14314071D01*
X2982871Y-14256929D01*
X2982871Y-14185500D01*
X2997157Y-14128357D01*
X3011443Y-14099786D01*
X3025728Y-14085500D01*
X3054300Y-14071214D01*
X3268586Y-14071214D02*
X3268586Y-14128357D01*
X3382871Y-14071214D02*
X3382871Y-14128357D01*
X3825728Y-14485500D02*
X3811443Y-14471214D01*
X3782871Y-14428357D01*
X3768585Y-14399786D01*
X3754300Y-14356929D01*
X3740014Y-14285500D01*
X3740014Y-14228357D01*
X3754300Y-14156929D01*
X3768585Y-14114071D01*
X3782871Y-14085500D01*
X3811443Y-14042643D01*
X3825728Y-14028357D01*
X4068585Y-14171214D02*
X4068585Y-14371214D01*
X3997157Y-14056929D02*
X3925728Y-14271214D01*
X4111443Y-14271214D01*
X4454300Y-14371214D02*
X4454300Y-14071214D01*
X4582871Y-14371214D02*
X4582871Y-14214071D01*
X4568586Y-14185500D01*
X4540014Y-14171214D01*
X4497157Y-14171214D01*
X4468586Y-14185500D01*
X4454300Y-14199786D01*
X4768586Y-14371214D02*
X4740014Y-14356929D01*
X4725728Y-14342643D01*
X4711443Y-14314071D01*
X4711443Y-14228357D01*
X4725728Y-14199786D01*
X4740014Y-14185500D01*
X4768586Y-14171214D01*
X4811443Y-14171214D01*
X4840014Y-14185500D01*
X4854300Y-14199786D01*
X4868586Y-14228357D01*
X4868586Y-14314071D01*
X4854300Y-14342643D01*
X4840014Y-14356929D01*
X4811443Y-14371214D01*
X4768586Y-14371214D01*
X5040014Y-14371214D02*
X5011443Y-14356929D01*
X4997157Y-14328357D01*
X4997157Y-14071214D01*
X5268586Y-14356929D02*
X5240014Y-14371214D01*
X5182871Y-14371214D01*
X5154300Y-14356929D01*
X5140014Y-14328357D01*
X5140014Y-14214071D01*
X5154300Y-14185500D01*
X5182871Y-14171214D01*
X5240014Y-14171214D01*
X5268586Y-14185500D01*
X5282871Y-14214071D01*
X5282871Y-14242643D01*
X5140014Y-14271214D01*
X5397157Y-14356929D02*
X5425729Y-14371214D01*
X5482871Y-14371214D01*
X5511443Y-14356929D01*
X5525729Y-14328357D01*
X5525729Y-14314071D01*
X5511443Y-14285500D01*
X5482871Y-14271214D01*
X5440014Y-14271214D01*
X5411443Y-14256929D01*
X5397157Y-14228357D01*
X5397157Y-14214071D01*
X5411443Y-14185500D01*
X5440014Y-14171214D01*
X5482871Y-14171214D01*
X5511443Y-14185500D01*
X5625728Y-14485500D02*
X5640014Y-14471214D01*
X5668586Y-14428357D01*
X5682871Y-14399786D01*
X5697157Y-14356929D01*
X5711443Y-14285500D01*
X5711443Y-14228357D01*
X5697157Y-14156929D01*
X5682871Y-14114071D01*
X5668586Y-14085500D01*
X5640014Y-14042643D01*
X5625728Y-14028357D01*
X-1145700Y-14481500D02*
X-845700Y-14781500D01*
X-845700Y-14481500D02*
X-1145700Y-14781500D01*
X-845700Y-14631500D02*
G75*
G03X-845700Y-14631500I-150000J0D01*
G01*
X-602843Y-14467214D02*
X-417129Y-14467214D01*
X-517129Y-14581500D01*
X-474271Y-14581500D01*
X-445700Y-14595786D01*
X-431414Y-14610071D01*
X-417129Y-14638643D01*
X-417129Y-14710071D01*
X-431414Y-14738643D01*
X-445700Y-14752929D01*
X-474271Y-14767214D01*
X-559986Y-14767214D01*
X-588557Y-14752929D01*
X-602843Y-14738643D01*
X-288557Y-14738643D02*
X-274272Y-14752929D01*
X-288557Y-14767214D01*
X-302843Y-14752929D01*
X-288557Y-14738643D01*
X-288557Y-14767214D01*
X-88557Y-14467214D02*
X-59986Y-14467214D01*
X-31414Y-14481500D01*
X-17129Y-14495786D01*
X-2843Y-14524357D01*
X11443Y-14581500D01*
X11443Y-14652929D01*
X-2843Y-14710071D01*
X-17129Y-14738643D01*
X-31414Y-14752929D01*
X-59986Y-14767214D01*
X-88557Y-14767214D01*
X-117129Y-14752929D01*
X-131414Y-14738643D01*
X-145700Y-14710071D01*
X-159986Y-14652929D01*
X-159986Y-14581500D01*
X-145700Y-14524357D01*
X-131414Y-14495786D01*
X-117129Y-14481500D01*
X-88557Y-14467214D01*
X197157Y-14467214D02*
X225728Y-14467214D01*
X254300Y-14481500D01*
X268586Y-14495786D01*
X282871Y-14524357D01*
X297157Y-14581500D01*
X297157Y-14652929D01*
X282871Y-14710071D01*
X268586Y-14738643D01*
X254300Y-14752929D01*
X225728Y-14767214D01*
X197157Y-14767214D01*
X168586Y-14752929D01*
X154300Y-14738643D01*
X140014Y-14710071D01*
X125728Y-14652929D01*
X125728Y-14581500D01*
X140014Y-14524357D01*
X154300Y-14495786D01*
X168586Y-14481500D01*
X197157Y-14467214D01*
X425728Y-14767214D02*
X425728Y-14567214D01*
X425728Y-14595786D02*
X440014Y-14581500D01*
X468586Y-14567214D01*
X511443Y-14567214D01*
X540014Y-14581500D01*
X554300Y-14610071D01*
X554300Y-14767214D01*
X554300Y-14610071D02*
X568586Y-14581500D01*
X597157Y-14567214D01*
X640014Y-14567214D01*
X668586Y-14581500D01*
X682871Y-14610071D01*
X682871Y-14767214D01*
X825728Y-14767214D02*
X825728Y-14567214D01*
X825728Y-14595786D02*
X840014Y-14581500D01*
X868586Y-14567214D01*
X911443Y-14567214D01*
X940014Y-14581500D01*
X954300Y-14610071D01*
X954300Y-14767214D01*
X954300Y-14610071D02*
X968586Y-14581500D01*
X997157Y-14567214D01*
X1040014Y-14567214D01*
X1068586Y-14581500D01*
X1082871Y-14610071D01*
X1082871Y-14767214D01*
X1668586Y-14452929D02*
X1411443Y-14838643D01*
X2054300Y-14467214D02*
X2082871Y-14467214D01*
X2111443Y-14481500D01*
X2125728Y-14495786D01*
X2140014Y-14524357D01*
X2154300Y-14581500D01*
X2154300Y-14652929D01*
X2140014Y-14710071D01*
X2125728Y-14738643D01*
X2111443Y-14752929D01*
X2082871Y-14767214D01*
X2054300Y-14767214D01*
X2025728Y-14752929D01*
X2011443Y-14738643D01*
X1997157Y-14710071D01*
X1982871Y-14652929D01*
X1982871Y-14581500D01*
X1997157Y-14524357D01*
X2011443Y-14495786D01*
X2025728Y-14481500D01*
X2054300Y-14467214D01*
X2282871Y-14738643D02*
X2297157Y-14752929D01*
X2282871Y-14767214D01*
X2268586Y-14752929D01*
X2282871Y-14738643D01*
X2282871Y-14767214D01*
X2582871Y-14767214D02*
X2411443Y-14767214D01*
X2497157Y-14767214D02*
X2497157Y-14467214D01*
X2468586Y-14510071D01*
X2440014Y-14538643D01*
X2411443Y-14552929D01*
X2868585Y-14767214D02*
X2697157Y-14767214D01*
X2782871Y-14767214D02*
X2782871Y-14467214D01*
X2754300Y-14510071D01*
X2725728Y-14538643D01*
X2697157Y-14552929D01*
X3040014Y-14595786D02*
X3011443Y-14581500D01*
X2997157Y-14567214D01*
X2982871Y-14538643D01*
X2982871Y-14524357D01*
X2997157Y-14495786D01*
X3011443Y-14481500D01*
X3040014Y-14467214D01*
X3097157Y-14467214D01*
X3125728Y-14481500D01*
X3140014Y-14495786D01*
X3154300Y-14524357D01*
X3154300Y-14538643D01*
X3140014Y-14567214D01*
X3125728Y-14581500D01*
X3097157Y-14595786D01*
X3040014Y-14595786D01*
X3011443Y-14610071D01*
X2997157Y-14624357D01*
X2982871Y-14652929D01*
X2982871Y-14710071D01*
X2997157Y-14738643D01*
X3011443Y-14752929D01*
X3040014Y-14767214D01*
X3097157Y-14767214D01*
X3125728Y-14752929D01*
X3140014Y-14738643D01*
X3154300Y-14710071D01*
X3154300Y-14652929D01*
X3140014Y-14624357D01*
X3125728Y-14610071D01*
X3097157Y-14595786D01*
X3268586Y-14467214D02*
X3268586Y-14524357D01*
X3382871Y-14467214D02*
X3382871Y-14524357D01*
X3825728Y-14881500D02*
X3811443Y-14867214D01*
X3782871Y-14824357D01*
X3768585Y-14795786D01*
X3754300Y-14752929D01*
X3740014Y-14681500D01*
X3740014Y-14624357D01*
X3754300Y-14552929D01*
X3768585Y-14510071D01*
X3782871Y-14481500D01*
X3811443Y-14438643D01*
X3825728Y-14424357D01*
X3911443Y-14467214D02*
X4097157Y-14467214D01*
X3997157Y-14581500D01*
X4040014Y-14581500D01*
X4068585Y-14595786D01*
X4082871Y-14610071D01*
X4097157Y-14638643D01*
X4097157Y-14710071D01*
X4082871Y-14738643D01*
X4068585Y-14752929D01*
X4040014Y-14767214D01*
X3954300Y-14767214D01*
X3925728Y-14752929D01*
X3911443Y-14738643D01*
X4454300Y-14767214D02*
X4454300Y-14467214D01*
X4582871Y-14767214D02*
X4582871Y-14610071D01*
X4568586Y-14581500D01*
X4540014Y-14567214D01*
X4497157Y-14567214D01*
X4468586Y-14581500D01*
X4454300Y-14595786D01*
X4768586Y-14767214D02*
X4740014Y-14752929D01*
X4725728Y-14738643D01*
X4711443Y-14710071D01*
X4711443Y-14624357D01*
X4725728Y-14595786D01*
X4740014Y-14581500D01*
X4768586Y-14567214D01*
X4811443Y-14567214D01*
X4840014Y-14581500D01*
X4854300Y-14595786D01*
X4868586Y-14624357D01*
X4868586Y-14710071D01*
X4854300Y-14738643D01*
X4840014Y-14752929D01*
X4811443Y-14767214D01*
X4768586Y-14767214D01*
X5040014Y-14767214D02*
X5011443Y-14752929D01*
X4997157Y-14724357D01*
X4997157Y-14467214D01*
X5268586Y-14752929D02*
X5240014Y-14767214D01*
X5182871Y-14767214D01*
X5154300Y-14752929D01*
X5140014Y-14724357D01*
X5140014Y-14610071D01*
X5154300Y-14581500D01*
X5182871Y-14567214D01*
X5240014Y-14567214D01*
X5268586Y-14581500D01*
X5282871Y-14610071D01*
X5282871Y-14638643D01*
X5140014Y-14667214D01*
X5397157Y-14752929D02*
X5425729Y-14767214D01*
X5482871Y-14767214D01*
X5511443Y-14752929D01*
X5525729Y-14724357D01*
X5525729Y-14710071D01*
X5511443Y-14681500D01*
X5482871Y-14667214D01*
X5440014Y-14667214D01*
X5411443Y-14652929D01*
X5397157Y-14624357D01*
X5397157Y-14610071D01*
X5411443Y-14581500D01*
X5440014Y-14567214D01*
X5482871Y-14567214D01*
X5511443Y-14581500D01*
X5625728Y-14881500D02*
X5640014Y-14867214D01*
X5668586Y-14824357D01*
X5682871Y-14795786D01*
X5697157Y-14752929D01*
X5711443Y-14681500D01*
X5711443Y-14624357D01*
X5697157Y-14552929D01*
X5682871Y-14510071D01*
X5668586Y-14481500D01*
X5640014Y-14438643D01*
X5625728Y-14424357D01*
X-1345700Y-14811500D02*
X-845700Y-15311500D01*
X-845700Y-14811500D02*
X-1345700Y-15311500D01*
X-1095700Y-14811500D02*
X-1095700Y-15311500D01*
X-1345700Y-15061500D02*
X-845700Y-15061500D01*
X-431414Y-14897214D02*
X-574272Y-14897214D01*
X-588557Y-15040071D01*
X-574272Y-15025786D01*
X-545700Y-15011500D01*
X-474271Y-15011500D01*
X-445700Y-15025786D01*
X-431414Y-15040071D01*
X-417129Y-15068643D01*
X-417129Y-15140071D01*
X-431414Y-15168643D01*
X-445700Y-15182929D01*
X-474271Y-15197214D01*
X-545700Y-15197214D01*
X-574272Y-15182929D01*
X-588557Y-15168643D01*
X-288557Y-15168643D02*
X-274272Y-15182929D01*
X-288557Y-15197214D01*
X-302843Y-15182929D01*
X-288557Y-15168643D01*
X-288557Y-15197214D01*
X-88557Y-14897214D02*
X-59986Y-14897214D01*
X-31414Y-14911500D01*
X-17129Y-14925786D01*
X-2843Y-14954357D01*
X11443Y-15011500D01*
X11443Y-15082929D01*
X-2843Y-15140071D01*
X-17129Y-15168643D01*
X-31414Y-15182929D01*
X-59986Y-15197214D01*
X-88557Y-15197214D01*
X-117129Y-15182929D01*
X-131414Y-15168643D01*
X-145700Y-15140071D01*
X-159986Y-15082929D01*
X-159986Y-15011500D01*
X-145700Y-14954357D01*
X-131414Y-14925786D01*
X-117129Y-14911500D01*
X-88557Y-14897214D01*
X197157Y-14897214D02*
X225728Y-14897214D01*
X254300Y-14911500D01*
X268586Y-14925786D01*
X282871Y-14954357D01*
X297157Y-15011500D01*
X297157Y-15082929D01*
X282871Y-15140071D01*
X268586Y-15168643D01*
X254300Y-15182929D01*
X225728Y-15197214D01*
X197157Y-15197214D01*
X168586Y-15182929D01*
X154300Y-15168643D01*
X140014Y-15140071D01*
X125728Y-15082929D01*
X125728Y-15011500D01*
X140014Y-14954357D01*
X154300Y-14925786D01*
X168586Y-14911500D01*
X197157Y-14897214D01*
X425728Y-15197214D02*
X425728Y-14997214D01*
X425728Y-15025786D02*
X440014Y-15011500D01*
X468586Y-14997214D01*
X511443Y-14997214D01*
X540014Y-15011500D01*
X554300Y-15040071D01*
X554300Y-15197214D01*
X554300Y-15040071D02*
X568586Y-15011500D01*
X597157Y-14997214D01*
X640014Y-14997214D01*
X668586Y-15011500D01*
X682871Y-15040071D01*
X682871Y-15197214D01*
X825728Y-15197214D02*
X825728Y-14997214D01*
X825728Y-15025786D02*
X840014Y-15011500D01*
X868586Y-14997214D01*
X911443Y-14997214D01*
X940014Y-15011500D01*
X954300Y-15040071D01*
X954300Y-15197214D01*
X954300Y-15040071D02*
X968586Y-15011500D01*
X997157Y-14997214D01*
X1040014Y-14997214D01*
X1068586Y-15011500D01*
X1082871Y-15040071D01*
X1082871Y-15197214D01*
X1668586Y-14882929D02*
X1411443Y-15268643D01*
X2054300Y-14897214D02*
X2082871Y-14897214D01*
X2111443Y-14911500D01*
X2125728Y-14925786D01*
X2140014Y-14954357D01*
X2154300Y-15011500D01*
X2154300Y-15082929D01*
X2140014Y-15140071D01*
X2125728Y-15168643D01*
X2111443Y-15182929D01*
X2082871Y-15197214D01*
X2054300Y-15197214D01*
X2025728Y-15182929D01*
X2011443Y-15168643D01*
X1997157Y-15140071D01*
X1982871Y-15082929D01*
X1982871Y-15011500D01*
X1997157Y-14954357D01*
X2011443Y-14925786D01*
X2025728Y-14911500D01*
X2054300Y-14897214D01*
X2282871Y-15168643D02*
X2297157Y-15182929D01*
X2282871Y-15197214D01*
X2268586Y-15182929D01*
X2282871Y-15168643D01*
X2282871Y-15197214D01*
X2582871Y-15197214D02*
X2411443Y-15197214D01*
X2497157Y-15197214D02*
X2497157Y-14897214D01*
X2468586Y-14940071D01*
X2440014Y-14968643D01*
X2411443Y-14982929D01*
X2725728Y-15197214D02*
X2782871Y-15197214D01*
X2811443Y-15182929D01*
X2825728Y-15168643D01*
X2854300Y-15125786D01*
X2868585Y-15068643D01*
X2868585Y-14954357D01*
X2854300Y-14925786D01*
X2840014Y-14911500D01*
X2811443Y-14897214D01*
X2754300Y-14897214D01*
X2725728Y-14911500D01*
X2711443Y-14925786D01*
X2697157Y-14954357D01*
X2697157Y-15025786D01*
X2711443Y-15054357D01*
X2725728Y-15068643D01*
X2754300Y-15082929D01*
X2811443Y-15082929D01*
X2840014Y-15068643D01*
X2854300Y-15054357D01*
X2868585Y-15025786D01*
X2968585Y-14897214D02*
X3168585Y-14897214D01*
X3040014Y-15197214D01*
X3268586Y-14897214D02*
X3268586Y-14954357D01*
X3382871Y-14897214D02*
X3382871Y-14954357D01*
X3825728Y-15311500D02*
X3811443Y-15297214D01*
X3782871Y-15254357D01*
X3768585Y-15225786D01*
X3754300Y-15182929D01*
X3740014Y-15111500D01*
X3740014Y-15054357D01*
X3754300Y-14982929D01*
X3768585Y-14940071D01*
X3782871Y-14911500D01*
X3811443Y-14868643D01*
X3825728Y-14854357D01*
X3997157Y-14897214D02*
X4025728Y-14897214D01*
X4054300Y-14911500D01*
X4068585Y-14925786D01*
X4082871Y-14954357D01*
X4097157Y-15011500D01*
X4097157Y-15082929D01*
X4082871Y-15140071D01*
X4068585Y-15168643D01*
X4054300Y-15182929D01*
X4025728Y-15197214D01*
X3997157Y-15197214D01*
X3968585Y-15182929D01*
X3954300Y-15168643D01*
X3940014Y-15140071D01*
X3925728Y-15082929D01*
X3925728Y-15011500D01*
X3940014Y-14954357D01*
X3954300Y-14925786D01*
X3968585Y-14911500D01*
X3997157Y-14897214D01*
X4454300Y-15197214D02*
X4454300Y-14897214D01*
X4582871Y-15197214D02*
X4582871Y-15040071D01*
X4568586Y-15011500D01*
X4540014Y-14997214D01*
X4497157Y-14997214D01*
X4468586Y-15011500D01*
X4454300Y-15025786D01*
X4768586Y-15197214D02*
X4740014Y-15182929D01*
X4725728Y-15168643D01*
X4711443Y-15140071D01*
X4711443Y-15054357D01*
X4725728Y-15025786D01*
X4740014Y-15011500D01*
X4768586Y-14997214D01*
X4811443Y-14997214D01*
X4840014Y-15011500D01*
X4854300Y-15025786D01*
X4868586Y-15054357D01*
X4868586Y-15140071D01*
X4854300Y-15168643D01*
X4840014Y-15182929D01*
X4811443Y-15197214D01*
X4768586Y-15197214D01*
X5040014Y-15197214D02*
X5011443Y-15182929D01*
X4997157Y-15154357D01*
X4997157Y-14897214D01*
X5268586Y-15182929D02*
X5240014Y-15197214D01*
X5182871Y-15197214D01*
X5154300Y-15182929D01*
X5140014Y-15154357D01*
X5140014Y-15040071D01*
X5154300Y-15011500D01*
X5182871Y-14997214D01*
X5240014Y-14997214D01*
X5268586Y-15011500D01*
X5282871Y-15040071D01*
X5282871Y-15068643D01*
X5140014Y-15097214D01*
X5397157Y-15182929D02*
X5425729Y-15197214D01*
X5482871Y-15197214D01*
X5511443Y-15182929D01*
X5525729Y-15154357D01*
X5525729Y-15140071D01*
X5511443Y-15111500D01*
X5482871Y-15097214D01*
X5440014Y-15097214D01*
X5411443Y-15082929D01*
X5397157Y-15054357D01*
X5397157Y-15040071D01*
X5411443Y-15011500D01*
X5440014Y-14997214D01*
X5482871Y-14997214D01*
X5511443Y-15011500D01*
X5882871Y-15082929D02*
X6111443Y-15082929D01*
X5997157Y-15197214D02*
X5997157Y-14968643D01*
X6468586Y-14925786D02*
X6482871Y-14911500D01*
X6511443Y-14897214D01*
X6582871Y-14897214D01*
X6611443Y-14911500D01*
X6625728Y-14925786D01*
X6640014Y-14954357D01*
X6640014Y-14982929D01*
X6625728Y-15025786D01*
X6454300Y-15197214D01*
X6640014Y-15197214D01*
X6982871Y-15182929D02*
X7011443Y-15197214D01*
X7068585Y-15197214D01*
X7097157Y-15182929D01*
X7111443Y-15154357D01*
X7111443Y-15140071D01*
X7097157Y-15111500D01*
X7068585Y-15097214D01*
X7025728Y-15097214D01*
X6997157Y-15082929D01*
X6982871Y-15054357D01*
X6982871Y-15040071D01*
X6997157Y-15011500D01*
X7025728Y-14997214D01*
X7068585Y-14997214D01*
X7097157Y-15011500D01*
X7282871Y-15197214D02*
X7254300Y-15182929D01*
X7240014Y-15154357D01*
X7240014Y-14897214D01*
X7440014Y-15197214D02*
X7411443Y-15182929D01*
X7397157Y-15168643D01*
X7382871Y-15140071D01*
X7382871Y-15054357D01*
X7397157Y-15025786D01*
X7411443Y-15011500D01*
X7440014Y-14997214D01*
X7482871Y-14997214D01*
X7511443Y-15011500D01*
X7525728Y-15025786D01*
X7540014Y-15054357D01*
X7540014Y-15140071D01*
X7525728Y-15168643D01*
X7511443Y-15182929D01*
X7482871Y-15197214D01*
X7440014Y-15197214D01*
X7625728Y-14997214D02*
X7740014Y-14997214D01*
X7668586Y-14897214D02*
X7668586Y-15154357D01*
X7682871Y-15182929D01*
X7711443Y-15197214D01*
X7740014Y-15197214D01*
X7825728Y-15182929D02*
X7854300Y-15197214D01*
X7911443Y-15197214D01*
X7940014Y-15182929D01*
X7954300Y-15154357D01*
X7954300Y-15140071D01*
X7940014Y-15111500D01*
X7911443Y-15097214D01*
X7868586Y-15097214D01*
X7840014Y-15082929D01*
X7825728Y-15054357D01*
X7825728Y-15040071D01*
X7840014Y-15011500D01*
X7868586Y-14997214D01*
X7911443Y-14997214D01*
X7940014Y-15011500D01*
X8054300Y-15311500D02*
X8068586Y-15297214D01*
X8097157Y-15254357D01*
X8111443Y-15225786D01*
X8125728Y-15182929D01*
X8140014Y-15111500D01*
X8140014Y-15054357D01*
X8125728Y-14982929D01*
X8111443Y-14940071D01*
X8097157Y-14911500D01*
X8068586Y-14868643D01*
X8054300Y-14854357D01*
M02*
