G04 #@! TF.FileFunction,Legend,Bot*
%FSLAX46Y46*%
G04 Gerber Fmt 4.6, Leading zero omitted, Abs format (unit mm)*
G04 Created by KiCad (PCBNEW 4.0.0-rc2-stable) date 12/17/2015 5:33:49 AM*
%MOMM*%
G01*
G04 APERTURE LIST*
%ADD10C,0.100000*%
%ADD11C,0.203200*%
%ADD12C,0.300000*%
%ADD13C,0.150000*%
%ADD14C,0.152400*%
%ADD15C,5.152400*%
%ADD16R,1.502400X1.402400*%
%ADD17R,1.652400X1.702400*%
%ADD18R,2.184400X1.879600*%
%ADD19O,2.184400X1.879600*%
%ADD20R,1.879600X1.879600*%
%ADD21O,1.879600X1.879600*%
G04 APERTURE END LIST*
D10*
D11*
X24414238Y-72873811D02*
X24462619Y-73018954D01*
X24462619Y-73260858D01*
X24414238Y-73357620D01*
X24365857Y-73406001D01*
X24269095Y-73454382D01*
X24172333Y-73454382D01*
X24075571Y-73406001D01*
X24027190Y-73357620D01*
X23978810Y-73260858D01*
X23930429Y-73067335D01*
X23882048Y-72970573D01*
X23833667Y-72922192D01*
X23736905Y-72873811D01*
X23640143Y-72873811D01*
X23543381Y-72922192D01*
X23495000Y-72970573D01*
X23446619Y-73067335D01*
X23446619Y-73309239D01*
X23495000Y-73454382D01*
X23785286Y-73793049D02*
X24462619Y-74034954D01*
X23785286Y-74276858D02*
X24462619Y-74034954D01*
X24704524Y-73938192D01*
X24752905Y-73889811D01*
X24801286Y-73793049D01*
X23785286Y-74663906D02*
X24462619Y-74663906D01*
X23882048Y-74663906D02*
X23833667Y-74712287D01*
X23785286Y-74809049D01*
X23785286Y-74954191D01*
X23833667Y-75050953D01*
X23930429Y-75099334D01*
X24462619Y-75099334D01*
X24462619Y-76018572D02*
X23930429Y-76018572D01*
X23833667Y-75970191D01*
X23785286Y-75873429D01*
X23785286Y-75679906D01*
X23833667Y-75583144D01*
X24414238Y-76018572D02*
X24462619Y-75921810D01*
X24462619Y-75679906D01*
X24414238Y-75583144D01*
X24317476Y-75534763D01*
X24220714Y-75534763D01*
X24123952Y-75583144D01*
X24075571Y-75679906D01*
X24075571Y-75921810D01*
X24027190Y-76018572D01*
X23785286Y-76502382D02*
X24801286Y-76502382D01*
X23833667Y-76502382D02*
X23785286Y-76599144D01*
X23785286Y-76792667D01*
X23833667Y-76889429D01*
X23882048Y-76937810D01*
X23978810Y-76986191D01*
X24269095Y-76986191D01*
X24365857Y-76937810D01*
X24414238Y-76889429D01*
X24462619Y-76792667D01*
X24462619Y-76599144D01*
X24414238Y-76502382D01*
X24414238Y-77373239D02*
X24462619Y-77470001D01*
X24462619Y-77663525D01*
X24414238Y-77760286D01*
X24317476Y-77808667D01*
X24269095Y-77808667D01*
X24172333Y-77760286D01*
X24123952Y-77663525D01*
X24123952Y-77518382D01*
X24075571Y-77421620D01*
X23978810Y-77373239D01*
X23930429Y-77373239D01*
X23833667Y-77421620D01*
X23785286Y-77518382D01*
X23785286Y-77663525D01*
X23833667Y-77760286D01*
X24414238Y-78631143D02*
X24462619Y-78534381D01*
X24462619Y-78340858D01*
X24414238Y-78244096D01*
X24317476Y-78195715D01*
X23930429Y-78195715D01*
X23833667Y-78244096D01*
X23785286Y-78340858D01*
X23785286Y-78534381D01*
X23833667Y-78631143D01*
X23930429Y-78679524D01*
X24027190Y-78679524D01*
X24123952Y-78195715D01*
X23446619Y-79792286D02*
X24462619Y-80034191D01*
X23736905Y-80227714D01*
X24462619Y-80421238D01*
X23446619Y-80663143D01*
X24462619Y-81050191D02*
X23785286Y-81050191D01*
X23446619Y-81050191D02*
X23495000Y-81001810D01*
X23543381Y-81050191D01*
X23495000Y-81098572D01*
X23446619Y-81050191D01*
X23543381Y-81050191D01*
X24462619Y-81534001D02*
X23785286Y-81534001D01*
X23978810Y-81534001D02*
X23882048Y-81582382D01*
X23833667Y-81630763D01*
X23785286Y-81727525D01*
X23785286Y-81824286D01*
X24414238Y-82550000D02*
X24462619Y-82453238D01*
X24462619Y-82259715D01*
X24414238Y-82162953D01*
X24317476Y-82114572D01*
X23930429Y-82114572D01*
X23833667Y-82162953D01*
X23785286Y-82259715D01*
X23785286Y-82453238D01*
X23833667Y-82550000D01*
X23930429Y-82598381D01*
X24027190Y-82598381D01*
X24123952Y-82114572D01*
X24462619Y-83178953D02*
X24414238Y-83082191D01*
X24317476Y-83033810D01*
X23446619Y-83033810D01*
X24414238Y-83953047D02*
X24462619Y-83856285D01*
X24462619Y-83662762D01*
X24414238Y-83566000D01*
X24317476Y-83517619D01*
X23930429Y-83517619D01*
X23833667Y-83566000D01*
X23785286Y-83662762D01*
X23785286Y-83856285D01*
X23833667Y-83953047D01*
X23930429Y-84001428D01*
X24027190Y-84001428D01*
X24123952Y-83517619D01*
X24414238Y-84388476D02*
X24462619Y-84485238D01*
X24462619Y-84678762D01*
X24414238Y-84775523D01*
X24317476Y-84823904D01*
X24269095Y-84823904D01*
X24172333Y-84775523D01*
X24123952Y-84678762D01*
X24123952Y-84533619D01*
X24075571Y-84436857D01*
X23978810Y-84388476D01*
X23930429Y-84388476D01*
X23833667Y-84436857D01*
X23785286Y-84533619D01*
X23785286Y-84678762D01*
X23833667Y-84775523D01*
X24414238Y-85210952D02*
X24462619Y-85307714D01*
X24462619Y-85501238D01*
X24414238Y-85597999D01*
X24317476Y-85646380D01*
X24269095Y-85646380D01*
X24172333Y-85597999D01*
X24123952Y-85501238D01*
X24123952Y-85356095D01*
X24075571Y-85259333D01*
X23978810Y-85210952D01*
X23930429Y-85210952D01*
X23833667Y-85259333D01*
X23785286Y-85356095D01*
X23785286Y-85501238D01*
X23833667Y-85597999D01*
X24414238Y-86130190D02*
X24462619Y-86130190D01*
X24559381Y-86081809D01*
X24607762Y-86033428D01*
X24462619Y-87339714D02*
X23446619Y-87339714D01*
X23785286Y-87823524D02*
X24462619Y-87823524D01*
X23882048Y-87823524D02*
X23833667Y-87871905D01*
X23785286Y-87968667D01*
X23785286Y-88113809D01*
X23833667Y-88210571D01*
X23930429Y-88258952D01*
X24462619Y-88258952D01*
X24414238Y-89178190D02*
X24462619Y-89081428D01*
X24462619Y-88887905D01*
X24414238Y-88791143D01*
X24365857Y-88742762D01*
X24269095Y-88694381D01*
X23978810Y-88694381D01*
X23882048Y-88742762D01*
X23833667Y-88791143D01*
X23785286Y-88887905D01*
X23785286Y-89081428D01*
X23833667Y-89178190D01*
X22001238Y-72885906D02*
X22049619Y-73031049D01*
X22049619Y-73272953D01*
X22001238Y-73369715D01*
X21952857Y-73418096D01*
X21856095Y-73466477D01*
X21759333Y-73466477D01*
X21662571Y-73418096D01*
X21614190Y-73369715D01*
X21565810Y-73272953D01*
X21517429Y-73079430D01*
X21469048Y-72982668D01*
X21420667Y-72934287D01*
X21323905Y-72885906D01*
X21227143Y-72885906D01*
X21130381Y-72934287D01*
X21082000Y-72982668D01*
X21033619Y-73079430D01*
X21033619Y-73321334D01*
X21082000Y-73466477D01*
X22049619Y-73901906D02*
X21033619Y-73901906D01*
X22049619Y-74482477D01*
X21033619Y-74482477D01*
X21759333Y-74917906D02*
X21759333Y-75401715D01*
X22049619Y-74821144D02*
X21033619Y-75159811D01*
X22049619Y-75498477D01*
X22049619Y-75837144D02*
X21033619Y-75837144D01*
X21033619Y-76224191D01*
X21082000Y-76320953D01*
X21130381Y-76369334D01*
X21227143Y-76417715D01*
X21372286Y-76417715D01*
X21469048Y-76369334D01*
X21517429Y-76320953D01*
X21565810Y-76224191D01*
X21565810Y-75837144D01*
X21517429Y-77965905D02*
X21565810Y-78111048D01*
X21614190Y-78159429D01*
X21710952Y-78207810D01*
X21856095Y-78207810D01*
X21952857Y-78159429D01*
X22001238Y-78111048D01*
X22049619Y-78014286D01*
X22049619Y-77627239D01*
X21033619Y-77627239D01*
X21033619Y-77965905D01*
X21082000Y-78062667D01*
X21130381Y-78111048D01*
X21227143Y-78159429D01*
X21323905Y-78159429D01*
X21420667Y-78111048D01*
X21469048Y-78062667D01*
X21517429Y-77965905D01*
X21517429Y-77627239D01*
X22049619Y-79078667D02*
X21517429Y-79078667D01*
X21420667Y-79030286D01*
X21372286Y-78933524D01*
X21372286Y-78740001D01*
X21420667Y-78643239D01*
X22001238Y-79078667D02*
X22049619Y-78981905D01*
X22049619Y-78740001D01*
X22001238Y-78643239D01*
X21904476Y-78594858D01*
X21807714Y-78594858D01*
X21710952Y-78643239D01*
X21662571Y-78740001D01*
X21662571Y-78981905D01*
X21614190Y-79078667D01*
X22049619Y-79997905D02*
X21033619Y-79997905D01*
X22001238Y-79997905D02*
X22049619Y-79901143D01*
X22049619Y-79707620D01*
X22001238Y-79610858D01*
X21952857Y-79562477D01*
X21856095Y-79514096D01*
X21565810Y-79514096D01*
X21469048Y-79562477D01*
X21420667Y-79610858D01*
X21372286Y-79707620D01*
X21372286Y-79901143D01*
X21420667Y-79997905D01*
X21372286Y-80917143D02*
X22194762Y-80917143D01*
X22291524Y-80868762D01*
X22339905Y-80820381D01*
X22388286Y-80723620D01*
X22388286Y-80578477D01*
X22339905Y-80481715D01*
X22001238Y-80917143D02*
X22049619Y-80820381D01*
X22049619Y-80626858D01*
X22001238Y-80530096D01*
X21952857Y-80481715D01*
X21856095Y-80433334D01*
X21565810Y-80433334D01*
X21469048Y-80481715D01*
X21420667Y-80530096D01*
X21372286Y-80626858D01*
X21372286Y-80820381D01*
X21420667Y-80917143D01*
X22001238Y-81788000D02*
X22049619Y-81691238D01*
X22049619Y-81497715D01*
X22001238Y-81400953D01*
X21904476Y-81352572D01*
X21517429Y-81352572D01*
X21420667Y-81400953D01*
X21372286Y-81497715D01*
X21372286Y-81691238D01*
X21420667Y-81788000D01*
X21517429Y-81836381D01*
X21614190Y-81836381D01*
X21710952Y-81352572D01*
X21130381Y-82997524D02*
X21082000Y-83045905D01*
X21033619Y-83142667D01*
X21033619Y-83384571D01*
X21082000Y-83481333D01*
X21130381Y-83529714D01*
X21227143Y-83578095D01*
X21323905Y-83578095D01*
X21469048Y-83529714D01*
X22049619Y-82949143D01*
X22049619Y-83578095D01*
X21033619Y-84207048D02*
X21033619Y-84303809D01*
X21082000Y-84400571D01*
X21130381Y-84448952D01*
X21227143Y-84497333D01*
X21420667Y-84545714D01*
X21662571Y-84545714D01*
X21856095Y-84497333D01*
X21952857Y-84448952D01*
X22001238Y-84400571D01*
X22049619Y-84303809D01*
X22049619Y-84207048D01*
X22001238Y-84110286D01*
X21952857Y-84061905D01*
X21856095Y-84013524D01*
X21662571Y-83965143D01*
X21420667Y-83965143D01*
X21227143Y-84013524D01*
X21130381Y-84061905D01*
X21082000Y-84110286D01*
X21033619Y-84207048D01*
X22049619Y-85513333D02*
X22049619Y-84932762D01*
X22049619Y-85223048D02*
X21033619Y-85223048D01*
X21178762Y-85126286D01*
X21275524Y-85029524D01*
X21323905Y-84932762D01*
X21033619Y-86384190D02*
X21033619Y-86190667D01*
X21082000Y-86093905D01*
X21130381Y-86045524D01*
X21275524Y-85948762D01*
X21469048Y-85900381D01*
X21856095Y-85900381D01*
X21952857Y-85948762D01*
X22001238Y-85997143D01*
X22049619Y-86093905D01*
X22049619Y-86287428D01*
X22001238Y-86384190D01*
X21952857Y-86432571D01*
X21856095Y-86480952D01*
X21614190Y-86480952D01*
X21517429Y-86432571D01*
X21469048Y-86384190D01*
X21420667Y-86287428D01*
X21420667Y-86093905D01*
X21469048Y-85997143D01*
X21517429Y-85948762D01*
X21614190Y-85900381D01*
X22049619Y-88271047D02*
X21565810Y-87932381D01*
X22049619Y-87690476D02*
X21033619Y-87690476D01*
X21033619Y-88077523D01*
X21082000Y-88174285D01*
X21130381Y-88222666D01*
X21227143Y-88271047D01*
X21372286Y-88271047D01*
X21469048Y-88222666D01*
X21517429Y-88174285D01*
X21565810Y-88077523D01*
X21565810Y-87690476D01*
X21517429Y-88706476D02*
X21517429Y-89045142D01*
X22049619Y-89190285D02*
X22049619Y-88706476D01*
X21033619Y-88706476D01*
X21033619Y-89190285D01*
X21033619Y-89480571D02*
X22049619Y-89819238D01*
X21033619Y-90157904D01*
X21759333Y-91222285D02*
X21759333Y-91706094D01*
X22049619Y-91125523D02*
X21033619Y-91464190D01*
X22049619Y-91802856D01*
D12*
X10365619Y-58474429D02*
X8430381Y-58474429D01*
X38178619Y-58474429D02*
X36243381Y-58474429D01*
X37211000Y-59442048D02*
X37211000Y-57506810D01*
D13*
X44338000Y-61630000D02*
X44338000Y-113630000D01*
X30338000Y-113630000D02*
X30338000Y-61630000D01*
X30338000Y-113630000D02*
X44338000Y-113630000D01*
X30338000Y-61630000D02*
X44338000Y-61630000D01*
X2398000Y-113630000D02*
X2398000Y-61630000D01*
X16398000Y-61630000D02*
X16398000Y-113630000D01*
X16398000Y-61630000D02*
X2398000Y-61630000D01*
X16398000Y-113630000D02*
X2398000Y-113630000D01*
D14*
X29274500Y-64931500D02*
X29316833Y-65058500D01*
X29359167Y-65100833D01*
X29443833Y-65143167D01*
X29570833Y-65143167D01*
X29655500Y-65100833D01*
X29697833Y-65058500D01*
X29740167Y-64973833D01*
X29740167Y-64635167D01*
X28851167Y-64635167D01*
X28851167Y-64931500D01*
X28893500Y-65016167D01*
X28935833Y-65058500D01*
X29020500Y-65100833D01*
X29105167Y-65100833D01*
X29189833Y-65058500D01*
X29232167Y-65016167D01*
X29274500Y-64931500D01*
X29274500Y-64635167D01*
X28851167Y-65397167D02*
X28851167Y-65905167D01*
X29740167Y-65651167D02*
X28851167Y-65651167D01*
X29740167Y-66667166D02*
X29740167Y-66159166D01*
X29740167Y-66413166D02*
X28851167Y-66413166D01*
X28978167Y-66328500D01*
X29062833Y-66243833D01*
X29105167Y-66159166D01*
X37401500Y-103291334D02*
X37401500Y-103968667D01*
X37401500Y-71291334D02*
X37401500Y-71968667D01*
X37740167Y-71630000D02*
X37062833Y-71630000D01*
X37401500Y-71291334D02*
X37401500Y-71968667D01*
X37740167Y-71630000D02*
X37062833Y-71630000D01*
X17462500Y-98361500D02*
X17504833Y-98488500D01*
X17547167Y-98530833D01*
X17631833Y-98573167D01*
X17758833Y-98573167D01*
X17843500Y-98530833D01*
X17885833Y-98488500D01*
X17928167Y-98403833D01*
X17928167Y-98065167D01*
X17039167Y-98065167D01*
X17039167Y-98361500D01*
X17081500Y-98446167D01*
X17123833Y-98488500D01*
X17208500Y-98530833D01*
X17293167Y-98530833D01*
X17377833Y-98488500D01*
X17420167Y-98446167D01*
X17462500Y-98361500D01*
X17462500Y-98065167D01*
X17039167Y-98827167D02*
X17039167Y-99335167D01*
X17928167Y-99081167D02*
X17039167Y-99081167D01*
X17123833Y-99589166D02*
X17081500Y-99631500D01*
X17039167Y-99716166D01*
X17039167Y-99927833D01*
X17081500Y-100012500D01*
X17123833Y-100054833D01*
X17208500Y-100097166D01*
X17293167Y-100097166D01*
X17420167Y-100054833D01*
X17928167Y-99546833D01*
X17928167Y-100097166D01*
X9461500Y-71291334D02*
X9461500Y-71968667D01*
X9461500Y-103291334D02*
X9461500Y-103968667D01*
X9800167Y-103630000D02*
X9122833Y-103630000D01*
X9461500Y-103291334D02*
X9461500Y-103968667D01*
X9800167Y-103630000D02*
X9122833Y-103630000D01*
%LPC*%
D15*
X37338000Y-65280000D03*
X37338000Y-109980000D03*
X9398000Y-109980000D03*
X9398000Y-65280000D03*
D16*
X-3726200Y-107659800D03*
D17*
X-6426200Y-113359800D03*
X-6426200Y-106959800D03*
D16*
X-3726200Y-112659800D03*
D18*
X-889000Y-67945000D03*
D19*
X-889000Y-70485000D03*
X-889000Y-73025000D03*
X-889000Y-75565000D03*
X-889000Y-78105000D03*
X-889000Y-80645000D03*
X-889000Y-83185000D03*
X-889000Y-85725000D03*
D18*
X47371000Y-85725000D03*
D19*
X47371000Y-88265000D03*
X47371000Y-90805000D03*
X47371000Y-93345000D03*
X47371000Y-95885000D03*
X47371000Y-98425000D03*
X47371000Y-100965000D03*
X47371000Y-103505000D03*
D18*
X47371000Y-58801000D03*
D19*
X47371000Y-61341000D03*
X47371000Y-63881000D03*
X47371000Y-66421000D03*
X47371000Y-68961000D03*
X47371000Y-71501000D03*
X47371000Y-74041000D03*
X47371000Y-76581000D03*
X47371000Y-79121000D03*
X47371000Y-81661000D03*
D18*
X-889000Y-90805000D03*
D19*
X-889000Y-93345000D03*
X-889000Y-95885000D03*
X-889000Y-98425000D03*
X-889000Y-100965000D03*
X-889000Y-103505000D03*
D20*
X27000200Y-103632000D03*
D21*
X27000200Y-106172000D03*
X24460200Y-103632000D03*
X24460200Y-106172000D03*
X21920200Y-103632000D03*
X21920200Y-106172000D03*
M02*
