G04 #@! TF.FileFunction,Soldermask,Top*
%FSLAX46Y46*%
G04 Gerber Fmt 4.6, Leading zero omitted, Abs format (unit mm)*
G04 Created by KiCad (PCBNEW 4.0.0-rc2-stable) date 12/17/2015 4:25:02 PM*
%MOMM*%
G01*
G04 APERTURE LIST*
%ADD10C,0.100000*%
%ADD11R,0.572400X1.272400*%
%ADD12R,0.952400X0.902400*%
%ADD13R,0.902400X0.952400*%
%ADD14R,0.652400X1.052400*%
%ADD15R,0.952500X0.952500*%
%ADD16R,1.052400X0.652400*%
%ADD17R,0.552400X1.352400*%
%ADD18R,2.184400X3.810000*%
%ADD19R,2.184400X1.168400*%
%ADD20C,5.152400*%
%ADD21R,2.852400X0.952400*%
%ADD22R,1.352400X2.652400*%
%ADD23R,1.452400X1.702400*%
%ADD24R,1.702400X1.452400*%
%ADD25R,0.500380X0.401320*%
%ADD26R,0.401320X0.500380*%
%ADD27R,0.843280X1.153160*%
%ADD28R,1.852400X0.552400*%
%ADD29R,1.502400X1.402400*%
%ADD30R,1.652400X1.702400*%
%ADD31R,0.742400X0.602400*%
%ADD32R,2.184400X1.879600*%
%ADD33O,2.184400X1.879600*%
%ADD34R,1.879600X1.879600*%
%ADD35O,1.879600X1.879600*%
%ADD36C,1.551940*%
%ADD37R,0.949960X0.949960*%
%ADD38R,2.312400X1.672400*%
%ADD39R,1.702400X0.752400*%
%ADD40C,2.301240*%
G04 APERTURE END LIST*
D10*
D11*
X52260500Y-35162000D03*
X52260500Y-29862000D03*
X51625500Y-35162000D03*
X51625500Y-29862000D03*
X50990500Y-35162000D03*
X50990500Y-29862000D03*
X50355500Y-35162000D03*
X50355500Y-29862000D03*
X49720500Y-35162000D03*
X49720500Y-29862000D03*
X49085500Y-35162000D03*
X49085500Y-29862000D03*
X48450500Y-35162000D03*
X48450500Y-29862000D03*
X47815500Y-35162000D03*
X47815500Y-29862000D03*
X47180500Y-35162000D03*
X47180500Y-29862000D03*
X46545500Y-35162000D03*
X46545500Y-29862000D03*
X45910500Y-35162000D03*
X45910500Y-29862000D03*
X45275500Y-35162000D03*
X45275500Y-29862000D03*
D12*
X10426000Y-98298000D03*
X11926000Y-98298000D03*
D13*
X43180000Y-98310000D03*
X43180000Y-99810000D03*
X43180000Y-101866000D03*
X43180000Y-103366000D03*
D12*
X-496000Y-109728000D03*
X1004000Y-109728000D03*
D13*
X3937000Y-106946000D03*
X3937000Y-108446000D03*
D12*
X11926000Y-105156000D03*
X10426000Y-105156000D03*
D14*
X-496000Y-107188000D03*
X1004000Y-107188000D03*
D15*
X31003240Y-105984000D03*
X31003240Y-107884000D03*
X33002220Y-106934000D03*
D14*
X10426000Y-102870000D03*
X11926000Y-102870000D03*
D16*
X7874000Y-97016000D03*
X7874000Y-95516000D03*
D14*
X14974000Y-109728000D03*
X13474000Y-109728000D03*
X14974000Y-107442000D03*
X13474000Y-107442000D03*
D17*
X3522980Y-104626720D03*
X4157980Y-104626720D03*
X4792980Y-104626720D03*
X5427980Y-104626720D03*
X6062980Y-104626720D03*
X6697980Y-104626720D03*
X7332980Y-104626720D03*
X7967980Y-104626720D03*
X7967980Y-99426720D03*
X7332980Y-99426720D03*
X6697980Y-99426720D03*
X6062980Y-99426720D03*
X5427980Y-99426720D03*
X4792980Y-99426720D03*
X4157980Y-99426720D03*
X3522980Y-99426720D03*
D18*
X33274000Y-101600000D03*
D19*
X39878000Y-101600000D03*
X39878000Y-99314000D03*
X39878000Y-103886000D03*
D20*
X37338000Y-65280000D03*
X37338000Y-109980000D03*
X9398000Y-109980000D03*
X9398000Y-65280000D03*
D12*
X20332000Y-39624000D03*
X21832000Y-39624000D03*
D13*
X32766000Y-109994000D03*
X32766000Y-111494000D03*
X27000200Y-63512000D03*
X27000200Y-65012000D03*
X29210000Y-63512000D03*
X29210000Y-65012000D03*
D12*
X5068000Y-94742000D03*
X3568000Y-94742000D03*
X5068000Y-96774000D03*
X3568000Y-96774000D03*
D13*
X51562000Y-37858000D03*
X51562000Y-39358000D03*
X49276000Y-37858000D03*
X49276000Y-39358000D03*
D12*
X10426000Y-100584000D03*
X11926000Y-100584000D03*
D13*
X24130000Y-91428000D03*
X24130000Y-89928000D03*
X18034000Y-94246000D03*
X18034000Y-95746000D03*
X26416000Y-91428000D03*
X26416000Y-89928000D03*
X15748000Y-94246000D03*
X15748000Y-95746000D03*
D21*
X20955000Y-89401000D03*
X20955000Y-91701000D03*
D14*
X30238000Y-67691000D03*
X31738000Y-67691000D03*
D16*
X15240000Y-65774000D03*
X15240000Y-64274000D03*
X17526000Y-65774000D03*
X17526000Y-64274000D03*
X13970000Y-88912000D03*
X13970000Y-90412000D03*
X19812000Y-65774000D03*
X19812000Y-64274000D03*
X13462000Y-93714000D03*
X13462000Y-92214000D03*
D22*
X50023400Y-113341600D03*
X50023400Y-107841600D03*
X47523400Y-113341600D03*
X47523400Y-107841600D03*
X45023400Y-113341600D03*
X45023400Y-107841600D03*
D23*
X52288000Y-19723000D03*
X47788000Y-19723000D03*
X47788000Y-11773000D03*
X52288000Y-11773000D03*
X-1052000Y-19723000D03*
X-5552000Y-19723000D03*
X-5552000Y-11773000D03*
X-1052000Y-11773000D03*
D24*
X35141000Y-95468000D03*
X35141000Y-90968000D03*
X43091000Y-90968000D03*
X43091000Y-95468000D03*
D25*
X22042120Y-64025780D03*
X22042120Y-64526160D03*
X22042120Y-65024000D03*
X22042120Y-65521840D03*
X22042120Y-66022220D03*
D26*
X22870160Y-66349880D03*
X23368000Y-66349880D03*
X23865840Y-66349880D03*
D25*
X24693880Y-66022220D03*
X24693880Y-65521840D03*
X24693880Y-65024000D03*
X24693880Y-64526160D03*
X24693880Y-64025780D03*
D26*
X23865840Y-63698120D03*
X23368000Y-63698120D03*
X22870160Y-63698120D03*
D27*
X17840960Y-89250520D03*
X16891000Y-89250520D03*
X15941040Y-89250520D03*
X15941040Y-91851480D03*
X16891000Y-91851480D03*
X17840960Y-91851480D03*
D12*
X41898000Y-106680000D03*
X40398000Y-106680000D03*
X28206000Y-94234000D03*
X29706000Y-94234000D03*
X18276000Y-39624000D03*
X16776000Y-39624000D03*
X14720000Y-39370000D03*
X13220000Y-39370000D03*
D15*
X28971240Y-96840000D03*
X28971240Y-98740000D03*
X30970220Y-97790000D03*
D16*
X30480000Y-102374000D03*
X30480000Y-103874000D03*
X29464000Y-89928000D03*
X29464000Y-91428000D03*
X43688000Y-63742000D03*
X43688000Y-62242000D03*
X43688000Y-67171000D03*
X43688000Y-65671000D03*
X46228000Y-39104000D03*
X46228000Y-37604000D03*
D28*
X-3576200Y-111459800D03*
X-3576200Y-110809800D03*
X-3576200Y-109509800D03*
X-3576200Y-110159800D03*
X-3576200Y-108859800D03*
D29*
X-3726200Y-107659800D03*
D30*
X-6426200Y-113359800D03*
X-6426200Y-106959800D03*
D29*
X-3726200Y-112659800D03*
D30*
X-6426200Y-109134800D03*
X-6426200Y-111184800D03*
D31*
X28995000Y-41910000D03*
X26885000Y-41910000D03*
X28995000Y-44450000D03*
X26885000Y-44450000D03*
X28995000Y-46990000D03*
X26885000Y-46990000D03*
X28995000Y-49530000D03*
X26885000Y-49530000D03*
X28995000Y-52070000D03*
X26885000Y-52070000D03*
X28995000Y-54610000D03*
X26885000Y-54610000D03*
X28995000Y-57150000D03*
X26885000Y-57150000D03*
X28995000Y-59690000D03*
X26885000Y-59690000D03*
D32*
X-889000Y-67945000D03*
D33*
X-889000Y-70485000D03*
X-889000Y-73025000D03*
X-889000Y-75565000D03*
X-889000Y-78105000D03*
X-889000Y-80645000D03*
X-889000Y-83185000D03*
X-889000Y-85725000D03*
D32*
X47371000Y-85725000D03*
D33*
X47371000Y-88265000D03*
X47371000Y-90805000D03*
X47371000Y-93345000D03*
X47371000Y-95885000D03*
X47371000Y-98425000D03*
X47371000Y-100965000D03*
X47371000Y-103505000D03*
D32*
X47371000Y-58801000D03*
D33*
X47371000Y-61341000D03*
X47371000Y-63881000D03*
X47371000Y-66421000D03*
X47371000Y-68961000D03*
X47371000Y-71501000D03*
X47371000Y-74041000D03*
X47371000Y-76581000D03*
X47371000Y-79121000D03*
X47371000Y-81661000D03*
D32*
X-889000Y-90805000D03*
D33*
X-889000Y-93345000D03*
X-889000Y-95885000D03*
X-889000Y-98425000D03*
X-889000Y-100965000D03*
X-889000Y-103505000D03*
D34*
X27000200Y-103632000D03*
D35*
X27000200Y-106172000D03*
X24460200Y-103632000D03*
X24460200Y-106172000D03*
X21920200Y-103632000D03*
X21920200Y-106172000D03*
D36*
X22877780Y-42400220D03*
X20477480Y-42400220D03*
X18077180Y-42400220D03*
X15676880Y-42400220D03*
X13276580Y-42400220D03*
X10878820Y-42400220D03*
X8478520Y-42400220D03*
X6078220Y-42400220D03*
X22877780Y-44800520D03*
X20477480Y-44800520D03*
X18077180Y-44800520D03*
X15676880Y-44800520D03*
X13276580Y-44800520D03*
X10878820Y-44800520D03*
X8478520Y-44800520D03*
X6078220Y-44800520D03*
X22877780Y-47200820D03*
X20477480Y-47200820D03*
X18077180Y-47200820D03*
X15676880Y-47200820D03*
X13276580Y-47200820D03*
X10878820Y-47200820D03*
X8478520Y-47200820D03*
X6078220Y-47200820D03*
X22877780Y-49601120D03*
X20477480Y-49601120D03*
X18077180Y-49601120D03*
X15676880Y-49601120D03*
X13276580Y-49601120D03*
X10878820Y-49601120D03*
X8478520Y-49601120D03*
X6078220Y-49601120D03*
X22877780Y-52001420D03*
X20477480Y-52001420D03*
X18077180Y-52001420D03*
X15676880Y-52001420D03*
X13276580Y-52001420D03*
X10878820Y-52001420D03*
X8478520Y-52001420D03*
X6078220Y-52001420D03*
X22877780Y-54399180D03*
X20477480Y-54399180D03*
X18077180Y-54399180D03*
X15676880Y-54399180D03*
X13276580Y-54399180D03*
X10878820Y-54399180D03*
X8478520Y-54399180D03*
X6078220Y-54399180D03*
X22877780Y-56799480D03*
X20477480Y-56799480D03*
X18077180Y-56799480D03*
X15676880Y-56799480D03*
X13276580Y-56799480D03*
X10878820Y-56799480D03*
X8478520Y-56799480D03*
X6078220Y-56799480D03*
X22877780Y-59199780D03*
X20477480Y-59199780D03*
X18077180Y-59199780D03*
X15676880Y-59199780D03*
X13276580Y-59199780D03*
X10878820Y-59199780D03*
X8478520Y-59199780D03*
X6078220Y-59199780D03*
D37*
X-495300Y-113030000D03*
X1003300Y-113030000D03*
X3060700Y-113030000D03*
X4559300Y-113030000D03*
X40398700Y-31750000D03*
X41897300Y-31750000D03*
X40398700Y-36830000D03*
X41897300Y-36830000D03*
X31750000Y-63258700D03*
X31750000Y-64757300D03*
X4838700Y-1270000D03*
X6337300Y-1270000D03*
X4838700Y-6350000D03*
X6337300Y-6350000D03*
X4838700Y-11430000D03*
X6337300Y-11430000D03*
X4838700Y-16510000D03*
X6337300Y-16510000D03*
X4838700Y-21590000D03*
X6337300Y-21590000D03*
X4838700Y-26670000D03*
X6337300Y-26670000D03*
X4838700Y-31750000D03*
X6337300Y-31750000D03*
X4838700Y-36830000D03*
X6337300Y-36830000D03*
X9918700Y-1270000D03*
X11417300Y-1270000D03*
X9918700Y-6350000D03*
X11417300Y-6350000D03*
X9918700Y-11430000D03*
X11417300Y-11430000D03*
X9918700Y-16510000D03*
X11417300Y-16510000D03*
X9918700Y-21590000D03*
X11417300Y-21590000D03*
X9918700Y-26670000D03*
X11417300Y-26670000D03*
X9918700Y-31750000D03*
X11417300Y-31750000D03*
X9918700Y-36830000D03*
X11417300Y-36830000D03*
X14998700Y-1270000D03*
X16497300Y-1270000D03*
X14998700Y-6350000D03*
X16497300Y-6350000D03*
X14998700Y-11430000D03*
X16497300Y-11430000D03*
X14998700Y-16510000D03*
X16497300Y-16510000D03*
X14998700Y-21590000D03*
X16497300Y-21590000D03*
X14998700Y-26670000D03*
X16497300Y-26670000D03*
X14998700Y-31750000D03*
X16497300Y-31750000D03*
X14998700Y-36830000D03*
X16497300Y-36830000D03*
X20078700Y-1270000D03*
X21577300Y-1270000D03*
X20078700Y-6350000D03*
X21577300Y-6350000D03*
X20078700Y-11430000D03*
X21577300Y-11430000D03*
X20078700Y-16510000D03*
X21577300Y-16510000D03*
X20078700Y-21590000D03*
X21577300Y-21590000D03*
X20078700Y-26670000D03*
X21577300Y-26670000D03*
X20078700Y-31750000D03*
X21577300Y-31750000D03*
X20078700Y-36830000D03*
X21577300Y-36830000D03*
X25158700Y-1270000D03*
X26657300Y-1270000D03*
X25158700Y-6350000D03*
X26657300Y-6350000D03*
X25158700Y-11430000D03*
X26657300Y-11430000D03*
X25158700Y-16510000D03*
X26657300Y-16510000D03*
X25158700Y-21590000D03*
X26657300Y-21590000D03*
X25158700Y-26670000D03*
X26657300Y-26670000D03*
X25158700Y-31750000D03*
X26657300Y-31750000D03*
X25158700Y-36830000D03*
X26657300Y-36830000D03*
X30238700Y-1270000D03*
X31737300Y-1270000D03*
X30238700Y-6350000D03*
X31737300Y-6350000D03*
X30238700Y-11430000D03*
X31737300Y-11430000D03*
X30238700Y-16510000D03*
X31737300Y-16510000D03*
X30238700Y-21590000D03*
X31737300Y-21590000D03*
X30238700Y-26670000D03*
X31737300Y-26670000D03*
X30238700Y-31750000D03*
X31737300Y-31750000D03*
X30238700Y-36830000D03*
X31737300Y-36830000D03*
X35318700Y-1270000D03*
X36817300Y-1270000D03*
X35318700Y-6350000D03*
X36817300Y-6350000D03*
X35318700Y-11430000D03*
X36817300Y-11430000D03*
X35318700Y-16510000D03*
X36817300Y-16510000D03*
X35318700Y-21590000D03*
X36817300Y-21590000D03*
X35318700Y-26670000D03*
X36817300Y-26670000D03*
X35318700Y-31750000D03*
X36817300Y-31750000D03*
X35318700Y-36830000D03*
X36817300Y-36830000D03*
X40398700Y-1270000D03*
X41897300Y-1270000D03*
X40398700Y-6350000D03*
X41897300Y-6350000D03*
X40398700Y-11430000D03*
X41897300Y-11430000D03*
X40398700Y-16510000D03*
X41897300Y-16510000D03*
X40398700Y-21590000D03*
X41897300Y-21590000D03*
X40398700Y-26670000D03*
X41897300Y-26670000D03*
D38*
X39957200Y-41910000D03*
X31670800Y-41910000D03*
X39957200Y-44450000D03*
X31670800Y-44450000D03*
X39957200Y-46990000D03*
X31670800Y-46990000D03*
X39957200Y-49530000D03*
X31670800Y-49530000D03*
X39957200Y-52070000D03*
X31670800Y-52070000D03*
X39957200Y-54610000D03*
X31670800Y-54610000D03*
X39957200Y-57150000D03*
X31670800Y-57150000D03*
X39957200Y-59690000D03*
X31670800Y-59690000D03*
D39*
X51468000Y-26797000D03*
X51468000Y-25527000D03*
X51468000Y-24257000D03*
X51468000Y-22987000D03*
X46068000Y-22987000D03*
X46068000Y-24257000D03*
X46068000Y-25527000D03*
X46068000Y-26797000D03*
D14*
X6084000Y-39370000D03*
X4584000Y-39370000D03*
D40*
X39624000Y-113792000D03*
X0Y0D03*
X46736000Y0D03*
M02*
