M48
;DRILL file {KiCad 4.0.0-rc2-stable} date 12/17/2015 5:33:52 AM
;FORMAT={-:-/ absolute / inch / decimal}
FMAT,2
INCH,TZ
T1C0.014
T2C0.020
T3C0.022
T4C0.040
T5C0.040
T6C0.118
T7C0.197
%
G90
G05
M72
T1
X-0.245Y-3.575
X-0.205Y-3.775
X-0.17Y-3.674
X-0.14Y-3.875
X-0.13Y-0.62
X-0.07Y-4.315
X-0.07Y-4.36
X-0.041Y-0.864
X0.04Y-4.17
X0.1Y-1.765
X0.1Y-2.415
X0.1Y-3.55
X0.11Y-4.21
X0.13Y-1.525
X0.13Y-1.86
X0.13Y-3.2
X0.14Y-0.05
X0.14Y-0.05
X0.14Y-0.25
X0.14Y-0.45
X0.14Y-0.65
X0.14Y-0.85
X0.14Y-1.05
X0.14Y-1.25
X0.14Y-1.45
X0.141Y-3.676
X0.145Y-4.02
X0.165Y-1.81
X0.165Y-3.17
X0.17Y-1.67
X0.17Y-1.765
X0.195Y-1.905
X0.195Y-3.14
X0.23Y-3.075
X0.25Y-1.5
X0.255Y-4.06
X0.26Y-3.97
X0.285Y-2.
X0.285Y-2.28
X0.325Y-3.615
X0.34Y-0.05
X0.34Y-0.05
X0.34Y-0.25
X0.34Y-0.45
X0.34Y-0.65
X0.34Y-0.85
X0.34Y-1.05
X0.34Y-1.25
X0.34Y-1.45
X0.36Y-4.115
X0.365Y-3.915
X0.365Y-4.015
X0.38Y-2.
X0.425Y-3.735
X0.43Y-4.5
X0.44Y-3.805
X0.45Y-1.54
X0.45Y-3.53
X0.475Y-3.11
X0.483Y-2.282
X0.487Y-0.777
X0.515Y-4.415
X0.52Y-1.6
X0.52Y-2.875
X0.525Y-3.92
X0.54Y-0.05
X0.54Y-0.05
X0.54Y-0.25
X0.54Y-0.45
X0.54Y-0.65
X0.54Y-0.85
X0.54Y-1.05
X0.54Y-1.25
X0.54Y-1.45
X0.55Y-4.165
X0.57Y-3.44
X0.62Y-3.88
X0.665Y-1.905
X0.665Y-2.
X0.665Y-2.11
X0.675Y-2.285
X0.735Y-2.706
X0.74Y-0.05
X0.74Y-0.05
X0.74Y-0.25
X0.74Y-0.45
X0.74Y-0.65
X0.74Y-0.85
X0.74Y-1.05
X0.74Y-1.25
X0.74Y-1.45
X0.752Y-2.097
X0.76Y-1.81
X0.767Y-2.422
X0.77Y-3.71
X0.774Y-2.647
X0.826Y-2.705
X0.845Y-2.456
X0.8495Y-1.165
X0.85Y-2.185
X0.853Y-2.01
X0.855Y-1.715
X0.855Y-1.815
X0.855Y-2.095
X0.865Y-2.675
X0.9Y-2.442
X0.93Y-2.675
X0.94Y-0.05
X0.94Y-0.05
X0.94Y-0.25
X0.94Y-0.45
X0.94Y-0.65
X0.94Y-0.85
X0.94Y-1.05
X0.94Y-1.25
X0.94Y-1.45
X0.94Y-2.08
X0.94Y-2.462
X0.945Y-1.815
X0.95Y-2.98
X0.95Y-3.46
X0.955Y-1.905
X0.956Y-1.645
X0.956Y-2.347
X0.969Y-1.559
X0.97Y-2.3
X0.995Y-1.85
X1.Y-1.65
X1.Y-1.75
X1.Y-1.95
X1.Y-2.05
X1.Y-2.15
X1.Y-2.25
X1.Y-2.35
X1.01Y-2.586
X1.035Y-2.415
X1.05Y-1.355
X1.063Y-2.613
X1.1Y-2.45
X1.1Y-2.775
X1.13Y-1.58
X1.14Y-0.05
X1.14Y-0.05
X1.14Y-0.25
X1.14Y-0.45
X1.14Y-0.65
X1.14Y-0.85
X1.14Y-1.05
X1.14Y-1.25
X1.14Y-1.45
X1.145Y-3.935
X1.15Y-2.615
X1.16Y-2.98
X1.16Y-3.46
X1.205Y-3.97
X1.225Y-3.2
X1.25Y-1.36
X1.25Y-2.42
X1.275Y-3.245
X1.285Y-1.54
X1.32Y-3.17
X1.32Y-3.81
X1.33Y-2.15
X1.34Y-0.05
X1.34Y-0.05
X1.34Y-0.25
X1.34Y-0.45
X1.34Y-0.65
X1.34Y-0.85
X1.34Y-1.05
X1.34Y-1.25
X1.34Y-1.45
X1.34Y-2.32
X1.365Y-2.25
X1.375Y-2.05
X1.375Y-3.5
X1.38Y-3.67
X1.4Y-2.3
X1.405Y-1.95
X1.41Y-3.375
X1.435Y-1.85
X1.435Y-1.905
X1.44Y-3.14
X1.445Y-3.9
X1.45Y-1.35
X1.46Y-3.705
X1.465Y-1.75
X1.465Y-1.8
X1.47Y-3.11
X1.47Y-3.61
X1.495Y-2.35
X1.5Y-3.775
X1.505Y-1.65
X1.51Y-1.285
X1.51Y-1.5
X1.515Y-0.77
X1.54Y-0.05
X1.54Y-0.05
X1.54Y-0.25
X1.54Y-0.45
X1.54Y-0.65
X1.54Y-0.85
X1.54Y-1.05
X1.54Y-1.25
X1.54Y-1.45
X1.54Y-2.875
X1.575Y-2.71
X1.58Y-3.075
X1.58Y-3.46
X1.615Y-3.015
X1.62Y-1.355
X1.625Y-3.235
X1.65Y-2.515
X1.65Y-2.77
X1.688Y-1.288
X1.7Y-3.51
X1.715Y-1.45
X1.725Y-0.085
X1.725Y-1.8
X1.729Y-0.25
X1.73Y-1.205
X1.755Y-0.775
X1.755Y-0.815
X1.77Y-4.05
X1.77Y-4.13
X1.775Y-0.735
X1.81Y-1.11
X1.81Y-1.32
X1.82Y-1.6
X1.86Y-1.25
X1.86Y-1.325
X1.865Y-2.17
X1.87Y-1.635
X1.875Y-0.85
X1.88Y-0.37
X1.88Y-1.03
X1.905Y-1.45
X1.91Y-1.325
X1.91Y-1.64
X1.92Y-1.115
X1.925Y-2.12
X1.94Y-0.65
X1.95Y-1.32
X1.96Y-1.645
X1.96Y-2.17
X1.96Y-2.22
X1.98Y-0.45
X1.985Y-1.23
X1.985Y-1.44
X1.985Y-1.59
X2.01Y-1.815
X2.01Y-1.975
X2.03Y-0.85
X2.03Y-1.23
X2.03Y-1.32
X2.035Y-3.235
X2.045Y-2.005
X2.045Y-2.815
X2.055Y-1.28
X2.055Y-1.44
X2.059Y-0.692
X2.065Y-1.75
X2.07Y-4.135
X2.07Y-4.2
X2.07Y-4.49
X2.075Y-2.155
X2.077Y-2.883
X2.095Y-0.905
T4
X-0.035Y-2.675
X-0.035Y-2.775
X-0.035Y-2.875
X-0.035Y-2.975
X-0.035Y-3.075
X-0.035Y-3.175
X-0.035Y-3.275
X-0.035Y-3.375
X-0.035Y-3.575
X-0.035Y-3.675
X-0.035Y-3.775
X-0.035Y-3.875
X-0.035Y-3.975
X-0.035Y-4.075
X0.863Y-4.08
X0.863Y-4.18
X0.963Y-4.08
X0.963Y-4.18
X1.063Y-4.08
X1.063Y-4.18
X1.865Y-2.315
X1.865Y-2.415
X1.865Y-2.515
X1.865Y-2.615
X1.865Y-2.715
X1.865Y-2.815
X1.865Y-2.915
X1.865Y-3.015
X1.865Y-3.115
X1.865Y-3.215
X1.865Y-3.375
X1.865Y-3.475
X1.865Y-3.575
X1.865Y-3.675
X1.865Y-3.775
X1.865Y-3.875
X1.865Y-3.975
X1.865Y-4.075
T5
X0.37Y-2.5701
X0.37Y-4.3299
X1.47Y-2.5701
X1.47Y-4.3299
T6
X-0.2Y-0.09
X0.92Y-3.85
X2.04Y-0.09
T2
X-0.2658Y-4.1992G85X-0.2402Y-4.1992
G05
X-0.2402Y-4.4748G85X-0.2658Y-4.4748
G05
T3
X-0.1467Y-4.2445G85X-0.1467Y-4.2327
G05
X-0.1467Y-4.4413G85X-0.1467Y-4.4295
G05
T7
X0.7468Y0.18G85X1.0932Y0.18
G05
X0.7468Y-4.4G85X1.0932Y-4.4
G05
T0
M30
